<?xml version="1.0" encoding="UTF-8" standalone="no"?>
<!-- Created with Inkscape (http://www.inkscape.org/) -->

<svg
   xmlns:dc="http://purl.org/dc/elements/1.1/"
   xmlns:cc="http://creativecommons.org/ns#"
   xmlns:rdf="http://www.w3.org/1999/02/22-rdf-syntax-ns#"
   xmlns:svg="http://www.w3.org/2000/svg"
   xmlns="http://www.w3.org/2000/svg"
   version="1.1"
   width="256"
   height="256"
   id="svg2">
  <defs
     id="defs4" />
  <metadata
     id="metadata7">
    <rdf:RDF>
      <cc:Work
         rdf:about="">
        <dc:format>image/svg+xml</dc:format>
        <dc:type
           rdf:resource="http://purl.org/dc/dcmitype/StillImage" />
        <dc:title></dc:title>
      </cc:Work>
    </rdf:RDF>
  </metadata>
  <g
     id="text3117"
     style="font-size:341.33334351px;font-style:normal;font-weight:normal;line-height:125%;letter-spacing:0px;word-spacing:0px;fill:#000000;fill-opacity:1;stroke:none;font-family:Sans">
    <path
       d="M 128,1.9073486e-6 C 92.888756,2.7924069e-4 62.666563,12.444712 37.333334,37.333336 12.44439,62.222441 -4.2666668e-5,92.444634 0,128.00001 -4.2666668e-5,163.55568 12.44439,193.77787 37.333334,218.66668 62.666563,243.5556 92.888756,256.00003 128,256.00001 c 35.55535,2e-5 65.77755,-12.44441 90.66667,-37.33333 24.88861,-24.88881 37.33304,-55.111 37.33334,-90.66667 -3e-4,-35.555376 -12.44473,-65.777569 -37.33334,-90.666674 C 193.77755,12.444712 163.55535,2.7924069e-4 128,1.9073486e-6 M 42.666668,145.33334 l 0,-34.66667 170.666672,0 0,34.66667 -170.666672,0"
       id="path3122"
       style="font-variant:normal;font-stretch:normal;text-align:start;line-height:125%;writing-mode:lr-tb;text-anchor:start;font-family:OCHA Icons Unbounded;-inkscape-font-specification:OCHA Icons Unbounded" />
  </g>
</svg>
