<?xml version="1.0" encoding="utf-8"?>
<!-- Generator: Adobe Illustrator 16.0.0, SVG Export Plug-In . SVG Version: 6.00 Build 0)  -->
<!DOCTYPE svg PUBLIC "-//W3C//DTD SVG 1.1//EN" "http://www.w3.org/Graphics/SVG/1.1/DTD/svg11.dtd">
<svg version="1.1" id="Layer_1" xmlns="http://www.w3.org/2000/svg" xmlns:xlink="http://www.w3.org/1999/xlink" x="0px" y="0px"
     width="67.992px" height="68.137px" viewBox="0 0 67.992 68.137" enable-background="new 0 0 67.992 68.137" xml:space="preserve">
<g>
    <circle fill-rule="evenodd" clip-rule="evenodd" fill="#FFFFFF" cx="34.784" cy="34.785" r="33.491"/>
    <path fill-rule="evenodd" clip-rule="evenodd" fill="#2F3539" d="M34.784,59.886c-13.84,0-25.101-11.264-25.101-25.101
        c0-13.841,11.261-25.101,25.101-25.101c13.84,0,25.101,11.26,25.101,25.101C59.884,48.622,48.624,59.886,34.784,59.886z"/>
    <path fill-rule="evenodd" clip-rule="evenodd" fill="#FFFFFF" d="M33.364,54.52c0.74-4.874,0.924-12.038-0.922-16.652
        c-2.313-5.779-7.477-9.004-12.027-11.595c4.935,1.172,9.269,4.627,11.287,7.523c2.313,3.319,3.579,7.153,4.256,11.842
        c0.205,1.417,0.926,6.367,0.37,8.697C35.093,55.694,33.364,54.52,33.364,54.52z"/>
    <path fill-rule="evenodd" clip-rule="evenodd" fill="#FFFFFF" d="M38.771,41.025c-1.793,1.746-3.064,4.272-3.776,6.857l1.147,2.134
        c0.35-2.093,0.724-4.574,1.729-6.164c2.56-4.036,8.311-6.262,12.517-6.822C46.109,36.3,40.725,39.116,38.771,41.025z"/>
    <path fill-rule="evenodd" clip-rule="evenodd" fill="#FFFFFF" d="M33.676,38.55c-4.996,1.538-9.5,1.85-13.14-2.163
        c-2.198-2.422-4.01-7.094-4.626-13.26c8.388-3.393,12.557-0.421,15.482,1.789C34.414,27.196,36.822,32.195,33.676,38.55z"/>
    <path fill-rule="evenodd" clip-rule="evenodd" fill="#FFFFFF" d="M39.783,40.771c-0.185-2.157,1.683-5.876,3.822-7.096
        c3.886-2.222,7.155-1.913,12.151,1.11c-1.483,4.996-4.071,7.771-7.896,8.512C45.007,43.846,41.632,42.684,39.783,40.771z"/>
    <path fill-rule="evenodd" clip-rule="evenodd" fill="#2F3539" d="M19.55,25.162c9.251,3.948,13.757,10.797,14.372,12.646
        c-0.061,0.123-1.11,1.047-1.11,1.047C30.837,35.34,26.767,30.22,19.55,25.162z"/>
    <path fill-rule="evenodd" clip-rule="evenodd" fill="#2F3539" d="M39.843,40.088c2.836-1.908,6.965-3.822,13.504-4.135
        c-4.746,0.926-12.084,4.013-13.01,5.309C40.398,41.14,39.843,40.088,39.843,40.088z"/>
</g>
</svg>