<?xml version="1.0" encoding="utf-8"?>
<!-- Generator: Adobe Illustrator 16.0.0, SVG Export Plug-In . SVG Version: 6.00 Build 0)  -->
<!DOCTYPE svg PUBLIC "-//W3C//DTD SVG 1.1//EN" "http://www.w3.org/Graphics/SVG/1.1/DTD/svg11.dtd">
<svg version="1.1" id="Layer_1" xmlns="http://www.w3.org/2000/svg" xmlns:xlink="http://www.w3.org/1999/xlink" x="0px" y="0px"
     width="136px" height="114px" viewBox="0 0 136 114" enable-background="new 0 0 136 114" xml:space="preserve">
<path fill="#2F3539" d="M94.458,41.506c-6.448,3.686-12.135,14.179-12.676,21.445c9.41-6.335,23.323-12.842,45.033-13.869
    c-15.766,3.068-41.232,13.814-43.207,17.624l-1.828-3.727c0.001-0.009,0.002-0.019,0.002-0.028
    c-0.004,0.002-0.008,0.005-0.012,0.008c-1.729,1.201-2.243,1.862-3.367,2.959c-3.942,3.841-7.119,8.822-9.505,14.24
    c-1.376-9.12-3.349-17.143-6.437-24.531c8.938-20.117,1.146-35.883-8.557-43.209C44.188,5.083,30.343-4.788,2.489,6.479
    c2.045,20.48,8.065,35.996,15.362,44.042c11.362,12.522,25.261,12.357,40.668,8.051c4.918,15.291,4.23,37.046,1.935,52.166
    c0,0,5.742,3.898,9.842-0.615c1.082-4.534,0.708-12.052,0.075-18.449c1.025-5.894,2.355-12.097,5.057-16.366
    c2.102-3.32,4.979-5.987,8.146-8.575c6.373,5.342,16.411,8.389,25.018,6.731c12.713-2.458,21.297-11.676,26.232-28.272
    C118.231,35.159,107.362,34.132,94.458,41.506z M14.577,13.239c30.726,13.11,45.685,35.852,47.73,42.002
    c-0.146,0.292-2.005,1.975-3.024,2.886c-0.26,0.166-0.515,0.317-0.75,0.437C51.943,46.889,38.44,29.965,14.577,13.239z"/>
</svg>
