<?xml version="1.0" encoding="UTF-8" standalone="no"?>
<!-- Created with Inkscape (http://www.inkscape.org/) -->

<svg
   xmlns:dc="http://purl.org/dc/elements/1.1/"
   xmlns:cc="http://creativecommons.org/ns#"
   xmlns:rdf="http://www.w3.org/1999/02/22-rdf-syntax-ns#"
   xmlns:svg="http://www.w3.org/2000/svg"
   xmlns="http://www.w3.org/2000/svg"
   xmlns:sodipodi="http://sodipodi.sourceforge.net/DTD/sodipodi-0.dtd"
   xmlns:inkscape="http://www.inkscape.org/namespaces/inkscape"
   version="1.1"
   width="256"
   height="256"
   id="svg5628"
   sodipodi:docname="keyword-subcategory-dam_break2.svg"
   inkscape:version="0.92.2 (5c3e80d, 2017-08-06)">
  <sodipodi:namedview
     pagecolor="#ffffff"
     bordercolor="#666666"
     borderopacity="1"
     objecttolerance="10"
     gridtolerance="10"
     guidetolerance="10"
     inkscape:pageopacity="0"
     inkscape:pageshadow="2"
     inkscape:window-width="1920"
     inkscape:window-height="1027"
     id="namedview3745"
     showgrid="false"
     inkscape:zoom="3.3515625"
     inkscape:cx="83.393939"
     inkscape:cy="128"
     inkscape:window-x="-8"
     inkscape:window-y="-8"
     inkscape:window-maximized="1"
     inkscape:current-layer="svg5628" />
  <defs
     id="defs5630" />
  <metadata
     id="metadata5633">
    <rdf:RDF>
      <cc:Work
         rdf:about="">
        <dc:format>image/svg+xml</dc:format>
        <dc:type
           rdf:resource="http://purl.org/dc/dcmitype/StillImage" />
        <dc:title></dc:title>
      </cc:Work>
    </rdf:RDF>
  </metadata>
  <g
     transform="translate(-118.15385,-84.438228)"
     id="g3784">
    <title
       id="title3781">background</title>
    <rect
       style="fill:none"
       id="canvas_background"
       height="258"
       width="258"
       y="-1"
       x="-1" />
  </g>
  <g
     transform="matrix(0.95658343,0,0,1.161864,5.5251788,-34.867056)"
     id="g3795">
    <title
       id="title3786">Layer 1</title>
    <g
       style="fill:#000000"
       id="svg_1"
       transform="matrix(0.1,0,0,-0.1,0,200)">
      <path
         inkscape:connector-curvature="0"
         id="svg_2"
         d="m 753.21204,598.79352 v -893.38889 h 331.11606 c 256.1466,0 331.1164,3.74845 331.1164,16.24344 0,7.49695 -94.9617,408.58484 -209.9153,889.64038 l -209.91506,874.64645 -121.20105,3.7485 -121.20105,3.7485 z" />
      <path
         inkscape:connector-curvature="0"
         id="svg_3"
         d="M 40.999943,817.45508 V 630.03088 H 334.63126 628.26257 v 187.4242 187.42422 H 334.63126 40.999943 Z" />
      <path
         inkscape:connector-curvature="0"
         id="svg_4"
         d="M 40.999943,355.14197 V 167.71776 H 334.63126 628.26257 V 355.14197 542.56622 H 334.63126 40.999943 Z" />
      <path
         inkscape:connector-curvature="0"
         id="svg_5"
         d="m 1874.009,442.60666 c -64.9737,-16.24347 -114.9535,-43.73236 -194.9211,-104.95761 -59.9758,-44.98178 -76.2192,-51.22925 -133.6961,-51.22925 -48.7303,0 -74.9696,7.49692 -103.7081,28.73834 -19.9918,14.99396 -39.9837,27.48889 -42.4828,27.48889 -8.7464,0 56.2273,-254.896969 69.9717,-271.140392 6.2476,-8.746483 38.7344,-16.243431 71.2212,-16.243431 48.7303,0 71.2213,8.746452 119.9517,43.732315 137.4443,98.710108 174.9292,112.454548 304.8767,112.454548 134.9453,0 191.1726,-21.24142 288.6333,-103.70806 49.9797,-42.482846 59.9758,-46.231332 131.197,-46.231332 114.9534,0 129.9475,17.492931 129.9475,156.186862 v 109.95554 l -46.2314,-24.98987 c -67.4727,-33.73636 -142.4424,-24.9899 -201.1685,26.23938 C 2157.6445,423.8642 1990.212,471.345 1874.009,442.60666 Z" />
      <path
         inkscape:connector-curvature="0"
         id="svg_6"
         d="M 1852.7676,93.997559 C 1797.7898,76.504601 1735.3151,40.269288 1677.8383,-5.962044 1626.6091,-47.19538 1615.3635,-50.94387 1544.1425,-50.94387 c -43.7325,0 -78.7183,-2.498981 -78.7183,-6.247467 0,-3.748489 13.7444,-56.227283 29.9879,-118.702023 l 28.7383,-112.45454 67.4728,1.24951 c 73.7202,1.24951 146.1909,32.48685 227.408,96.21109 104.9577,82.46667 193.6718,82.46667 287.3838,2.49898 98.7102,-84.96565 222.4099,-119.95149 351.1082,-101.20909 l 57.4768,8.74649 v 131.19694 c 0,71.221218 -2.4993,129.947489 -6.2476,129.947489 -3.7485,0 -21.2414,-8.746466 -37.4848,-19.991915 -53.7283,-34.985867 -153.6878,-18.742435 -219.9112,34.985852 -94.9616,77.468688 -156.1865,101.209098 -267.3919,104.957584 -54.9777,2.49898 -113.704,0 -131.1969,-6.247471 z" />
      <path
         inkscape:connector-curvature="0"
         id="svg_7"
         d="M 40.999943,-107.17113 V -294.59537 H 334.63126 628.26257 V -107.17113 80.253113 H 334.63126 40.999943 Z" />
    </g>
  </g>
</svg>
