<?xml version="1.0" encoding="UTF-8" standalone="no"?>
<!-- Created with Inkscape (http://www.inkscape.org/) -->

<svg
   xmlns:dc="http://purl.org/dc/elements/1.1/"
   xmlns:cc="http://creativecommons.org/ns#"
   xmlns:rdf="http://www.w3.org/1999/02/22-rdf-syntax-ns#"
   xmlns:svg="http://www.w3.org/2000/svg"
   xmlns="http://www.w3.org/2000/svg"
   version="1.1"
   width="256"
   height="256"
   id="svg5628">
  <defs
     id="defs5630" />
  <metadata
     id="metadata5633">
    <rdf:RDF>
      <cc:Work
         rdf:about="">
        <dc:format>image/svg+xml</dc:format>
        <dc:type
           rdf:resource="http://purl.org/dc/dcmitype/StillImage" />
        <dc:title></dc:title>
      </cc:Work>
    </rdf:RDF>
  </metadata>
  <g
     transform="translate(0,-796.36218)"
     id="layer1">
    <g
       transform="matrix(0.46309701,0,0,-0.46309701,9.4471654,1028.0959)"
       id="g6125">
      <path
         d="M 512,0 H 0 v 51 q 8,3 23.5,16 15.5,13 27.5,35 5,10 10.5,15.5 5.5,5.5 10,7 4.5,1.5 9.5,1.5 5,0 8.5,-1.5 3.5,-1.5 6.5,-4 3,-2.5 4.5,-4 L 102,115 Q 78,113 90,77 96,56 115,51 h 13 q 12,4 38,51 11,20 23.5,23.5 Q 202,129 210,122 l 8,-7 q -25,-2 -13,-38 6,-21 25,-26 h 13 q 12,4 39,51 21,41 48,16 l 3,-3 q -25,-2 -13,-38 6,-21 26,-26 h 12 q 9,3 24,16 15,13 28,35 10,20 23,23.5 13,3.5 20,-3.5 l 8,-7 q -25,-2 -13,-38 6,-21 26,-26 h 38 V 0 z m -77,205 v 74 67 l 13,-13 13,13 -122,102 -121,-102 12,-13 13,13 V 205 h -13 q -19,5 -25,25 -12,37 13,39 -2,1 -4,3 -2,2 -8,5 -6,3 -11.5,3 -5.5,0 -13.5,-5.5 -8,-5.5 -15,-18.5 -26,-47 -38,-51 h -13 q -19,5 -25,25 -12,37 12,39 l -3,3 -8,5 -12,3 L 65.5,274.5 51,256 Q 39,234 23.5,221 8,208 0,205 v -77 q 8,3 23.5,16 15.5,13 27.5,35 5,9 10.5,15 5.5,6 10,7.5 4.5,1.5 9.5,1.5 5,0 8.5,-2 3.5,-2 6.5,-4 3,-2 4.5,-3.5 L 102,192 q -24,-2 -12,-38 6,-21 25,-26 h 13 q 12,4 38,51 11,20 23.5,23 12.5,3 20.5,-2.5 8,-5.5 8,-7.5 -25,-2 -13,-38 6,-21 25,-26 h 13 q 12,4 39,51 21,40 48,15 l 3,-2 q -25,-2 -13,-38 6,-21 26,-26 h 12 q 9,3 24,16 15,13 28,35 21,40 48,15 l 3,-2 q -25,-2 -13,-38 6,-21 26,-26 h 38 v 77 h -77 z"
         id="path6127"
         style="fill:currentColor" />
    </g>
  </g>
</svg>
