<?xml version="1.0" encoding="UTF-8" standalone="no"?>
<svg
   xmlns:dc="http://purl.org/dc/elements/1.1/"
   xmlns:cc="http://creativecommons.org/ns#"
   xmlns:rdf="http://www.w3.org/1999/02/22-rdf-syntax-ns#"
   xmlns:svg="http://www.w3.org/2000/svg"
   xmlns="http://www.w3.org/2000/svg"
   xmlns:sodipodi="http://sodipodi.sourceforge.net/DTD/sodipodi-0.dtd"
   xmlns:inkscape="http://www.inkscape.org/namespaces/inkscape"
   version="1.1"
   x="0px"
   y="0px"
   viewBox="0 0 66.667 100"
   enable-background="new 0 0 66.667 100"
   xml:space="preserve"
   id="svg2"
   inkscape:version="0.91 r13725"
   sodipodi:docname="event_location.svg"><metadata
     id="metadata10"><rdf:RDF><cc:Work
         rdf:about=""><dc:format>image/svg+xml</dc:format><dc:type
           rdf:resource="http://purl.org/dc/dcmitype/StillImage" /><dc:title /></cc:Work></rdf:RDF></metadata><defs
     id="defs8" /><sodipodi:namedview
     pagecolor="#ffffff"
     bordercolor="#666666"
     borderopacity="1"
     objecttolerance="10"
     gridtolerance="10"
     guidetolerance="10"
     inkscape:pageopacity="0"
     inkscape:pageshadow="2"
     inkscape:window-width="1920"
     inkscape:window-height="1138"
     id="namedview6"
     showgrid="false"
     inkscape:zoom="4"
     inkscape:cx="-77.677338"
     inkscape:cy="8.3707453"
     inkscape:window-x="-8"
     inkscape:window-y="-8"
     inkscape:window-maximized="1"
     inkscape:current-layer="svg2" /><path
     d="M33.333,0C14.922,0,0,14.922,0,33.333C0,47.617,9.023,59.7,21.647,64.453L25,74.636L33.333,100l8.333-25.364l3.354-10.183  c12.617-4.753,21.646-16.836,21.646-31.12C66.667,14.922,51.732,0,33.333,0z M32.78,43.333c-5.521,0-10-4.479-10-10  c0-5.521,4.479-10,10-10s10,4.479,10,10C42.78,38.854,38.301,43.333,32.78,43.333z"
     id="path4"
     style="fill:#56595d;fill-opacity:1" /><path
     style="fill:#56595d;fill-opacity:1;fill-rule:evenodd;stroke:none;stroke-width:1px;stroke-linecap:butt;stroke-linejoin:miter;stroke-opacity:1"
     d="M 4.7156657,50.378551 33.23621,99.87872 61.948368,50.381507 Z"
     id="path4138"
     inkscape:connector-curvature="0"
     sodipodi:nodetypes="cccc" /></svg>