<?xml version="1.0" encoding="utf-8"?>
<!-- Generator: Adobe Illustrator 16.0.0, SVG Export Plug-In . SVG Version: 6.00 Build 0)  -->
<!DOCTYPE svg PUBLIC "-//W3C//DTD SVG 1.1//EN" "http://www.w3.org/Graphics/SVG/1.1/DTD/svg11.dtd">
<svg version="1.1" id="Layer_1" xmlns="http://www.w3.org/2000/svg" xmlns:xlink="http://www.w3.org/1999/xlink" x="0px" y="0px"
	 width="64px" height="64px" viewBox="0 0 64 64" enable-background="new 0 0 64 64" xml:space="preserve">
<g>
	<g>
		<g>
			<path fill="#F15A2B" d="M37.431,27C36.068,24.728,18.945-0.108,18.945-0.108S2.446,24.728,1.083,27
				c-1.47,2.449-1.272,5.566-0.423,7.295c0.556,1.132,4.649,4.594,5.21,5.784c0.561,1.188-2.944,5.913-0.798,10.675
				c1.224,2.714,3.247,3.952,4.975,3.932C14.57,54.626,16,54.665,16,54.665V60h3.254H20v-5.37c0,0,2.491,0.054,7.019,0.113
				c1.726,0.023,4.603-1.246,5.824-3.961c2.148-4.758-1.229-9.498-0.669-10.689c0.561-1.188,4.873-4.656,5.431-5.791
				C38.452,32.573,38.9,29.45,37.431,27z"/>
			<path fill="#FCB040" d="M17.118,51.13c-0.126-0.012-1.308-0.101-4.211-0.101c-0.665,0-1.424,0.004-2.286,0.017
				C10.307,51.043,9,50.611,8.389,49.257c-0.835-1.853-0.104-4.011,0.484-5.745c0.542-1.599,1.103-3.255,0.29-4.981
				c-0.534-1.136-1.59-2.213-3.411-4.022c-0.625-0.622-1.546-1.536-1.883-1.952c-0.275-0.72-0.438-2.395,0.334-3.683
				C5.099,27.382,13.52,14.656,19,6.39c6.564,9.539,14.486,21.111,15.309,22.483c0.691,1.148,0.511,2.787,0.154,3.66
				c-0.349,0.418-1.293,1.322-1.935,1.938c-1.894,1.817-2.991,2.902-3.536,4.063c-0.812,1.724-0.256,3.378,0.281,4.976
				c0.584,1.738,1.313,3.9,0.474,5.759c-0.612,1.357-1.923,1.798-2.239,1.801c-1.01-0.013-1.877-0.019-2.619-0.019
				c-2.635,0-3.712,0.065-3.826,0.071L18.86,51.27L17.118,51.13z"/>
			<rect x="17" y="5" fill="#F15A2B" width="4" height="55"/>
		</g>
	</g>
</g>
<path fill="#F15A2B" stroke="#F15A2B" stroke-width="2" stroke-linecap="round" d="M63,58.385C63,60.934,60.934,63,58.385,63h-14.77
	C41.066,63,39,60.934,39,58.385v-14.77C39,41.066,41.066,39,43.615,39h14.77C60.934,39,63,41.066,63,43.615V58.385z"/>
<path opacity="0.4" fill="#FCB040" d="M62,51v-7c0-2.209-1.791-4-4-4H44c-2.209,0-4,1.791-4,4v7H62z"/>
<g>
	<g>
		<path fill="#FFFFFF" d="M47.553,57.981c-0.744,0.737-1.957,0.742-2.696,0.002l-0.179-0.178c-0.741-0.742-0.719-1.961,0.026-2.699
			l10.249-10.151c0.745-0.738,1.949-0.734,2.686,0.009l0.18,0.178c0.737,0.746,0.727,1.95-0.017,2.688L47.553,57.981z"/>
	</g>
	<g>
		<path fill="#FFFFFF" d="M57.756,55.166c0.737,0.744,0.741,1.957,0.002,2.696l-0.179,0.179c-0.741,0.741-1.96,0.719-2.698-0.026
			L44.729,47.766c-0.738-0.745-0.735-1.949,0.009-2.686l0.178-0.18c0.745-0.737,1.95-0.727,2.688,0.017L57.756,55.166z"/>
	</g>
</g>
</svg>
