<?xml version="1.0" encoding="utf-8"?>
<!-- Generator: Adobe Illustrator 16.0.0, SVG Export Plug-In . SVG Version: 6.00 Build 0)  -->
<!DOCTYPE svg PUBLIC "-//W3C//DTD SVG 1.1//EN" "http://www.w3.org/Graphics/SVG/1.1/DTD/svg11.dtd">
<svg version="1.1"
	 id="Layer_1" xmlns:dc="http://purl.org/dc/elements/1.1/" xmlns:cc="http://creativecommons.org/ns#" xmlns:rdf="http://www.w3.org/1999/02/22-rdf-syntax-ns#" xmlns:svg="http://www.w3.org/2000/svg" xmlns:sodipodi="http://sodipodi.sourceforge.net/DTD/sodipodi-0.dtd" xmlns:inkscape="http://www.inkscape.org/namespaces/inkscape" sodipodi:docname="show-minimum-needs.svg" inkscape:version="0.48.3.1 r9886"
	 xmlns="http://www.w3.org/2000/svg" xmlns:xlink="http://www.w3.org/1999/xlink" x="0px" y="0px" width="64px" height="64px"
	 viewBox="-207.5 352.5 64 64" enable-background="new -207.5 352.5 64 64" xml:space="preserve">
<sodipodi:namedview  inkscape:cy="22.256241" inkscape:cx="46.657115" inkscape:zoom="3.6049335" showgrid="false" guidetolerance="10" gridtolerance="10" objecttolerance="10" borderopacity="1" bordercolor="#666666" pagecolor="#ffffff" id="namedview12" inkscape:current-layer="layer4" inkscape:window-maximized="0" inkscape:window-y="204" inkscape:window-x="2356" inkscape:window-height="727" inkscape:window-width="1170" inkscape:pageshadow="2" inkscape:pageopacity="0">
	</sodipodi:namedview>
<g id="layer4" transform="translate(0,-503)" inkscape:label="action" inkscape:groupmode="layer">
</g>
<path fill="#2F3338" d="M-158.43,381.259c-1.307-2.178-0.576-1.81-17.07-25.348c-14.953,22.898-15.285,22.625-16.919,25.348
	c-1.375,2.291-1.478,5.088-0.396,6.822c0.966,1.55,4.293,4.323,4.872,5.409c0.92,1.727-2.753,5.53-0.746,9.982
	c1.145,2.538,3.493,3.698,5.107,3.676c4.232-0.056,6.083-0.067,6.083-0.067v5.419h3.688l-0.063-5.25c0,0,1.825,0.021,6.057,0.077
	c1.612,0.021,4.131-1.228,5.274-3.765c2.005-4.451-1.406-8.479-0.715-10.027c0.502-1.122,4.397-4.423,5.033-5.432
	C-157.264,386.581-157.057,383.551-158.43,381.259z M-177.188,402.137c0,0.721-0.485,1.58-1.468,1.58
	c-0.849,0-3.812,0.048-5.209,0.028c-1.396-0.02-2.238-1.771-2.217-4.103c0.021-2.331,1.863-4.331,1.135-6.88
	c-0.654-2.292-3.655-4.522-4.409-5.705c-0.746-1.168-0.755-2.837-0.321-3.753c0.651-1.369,11.338-17.327,11.789-18.007
	c0.452-0.68,0.513-0.159,0.513,1.215C-177.375,367.887-177.188,402.137-177.188,402.137z M-161.957,387.058
	c-0.791,1.16-4.094,3.315-4.753,5.882c-0.66,2.568,1.301,4.372,1.322,6.703s-1.028,4.083-2.425,4.103s-4.277-0.05-5.123-0.093
	c-0.822-0.043-0.939-1.066-0.939-1.59c0,0-0.188-34.25-0.188-35.625c0-1.374,0.051-1.82,0.502-1.14
	c0.453,0.68,10.905,16.711,11.692,18.007S-161.14,385.856-161.957,387.058z"/>
</svg>
