<?xml version="1.0" encoding="utf-8"?>
<!-- Generator: Adobe Illustrator 16.0.0, SVG Export Plug-In . SVG Version: 6.00 Build 0)  -->
<!DOCTYPE svg PUBLIC "-//W3C//DTD SVG 1.1//EN" "http://www.w3.org/Graphics/SVG/1.1/DTD/svg11.dtd">
<svg version="1.1"
	 id="Layer_1" xmlns:dc="http://purl.org/dc/elements/1.1/" xmlns:cc="http://creativecommons.org/ns#" xmlns:rdf="http://www.w3.org/1999/02/22-rdf-syntax-ns#" xmlns:svg="http://www.w3.org/2000/svg" xmlns:sodipodi="http://sodipodi.sourceforge.net/DTD/sodipodi-0.dtd" xmlns:inkscape="http://www.inkscape.org/namespaces/inkscape" sodipodi:docname="show-minimum-needs.svg" inkscape:version="0.48.3.1 r9886"
	 xmlns="http://www.w3.org/2000/svg" xmlns:xlink="http://www.w3.org/1999/xlink" x="0px" y="0px" width="64px" height="64px"
	 viewBox="-207.5 352.5 64 64" enable-background="new -207.5 352.5 64 64" xml:space="preserve">
<sodipodi:namedview  inkscape:cy="22.256241" inkscape:cx="46.657115" inkscape:zoom="3.6049335" showgrid="false" guidetolerance="10" gridtolerance="10" objecttolerance="10" borderopacity="1" bordercolor="#666666" pagecolor="#ffffff" id="namedview12" inkscape:current-layer="layer4" inkscape:window-maximized="0" inkscape:window-y="204" inkscape:window-x="2356" inkscape:window-height="727" inkscape:window-width="1170" inkscape:pageshadow="2" inkscape:pageopacity="0">
	</sodipodi:namedview>
<g id="layer4" transform="translate(0,-503)" inkscape:label="action" inkscape:groupmode="layer">
</g>
<g>
	<g>
		<g>
			<path fill="#2F3338" d="M-157.264,382.19c-1.363-2.271-18.486-27.108-18.486-27.108s-16.5,24.836-17.862,27.108
				c-1.47,2.449-1.272,5.566-0.423,7.295c0.556,1.132,4.648,4.594,5.21,5.784c0.562,1.188-2.944,5.913-0.798,10.675
				c1.224,2.714,3.246,3.952,4.975,3.932c4.523-0.06,6.953,0.123,6.953,0.123v5.191h2.253h1.746v-5.351c0,0,1.492,0.034,6.02,0.094
				c1.727,0.022,4.604-1.246,5.824-3.961c2.148-4.759-1.23-9.498-0.67-10.689c0.561-1.188,4.873-4.655,5.432-5.791
				C-156.242,387.764-155.795,384.641-157.264,382.19z"/>
			<path fill="#FFFFFF" d="M-177.577,406.32c-0.126-0.012-1.308-0.101-4.211-0.101c-0.665,0-1.425,0.004-2.286,0.017
				c-0.314-0.003-1.621-0.435-2.232-1.789c-0.834-1.853-0.104-4.011,0.484-5.745c0.542-1.599,1.104-3.255,0.29-4.98
				c-0.534-1.137-1.591-2.213-3.411-4.022c-0.625-0.622-1.546-1.536-1.883-1.952c-0.275-0.72-0.438-2.395,0.334-3.683
				c0.896-1.492,9.316-14.218,14.796-22.484c6.564,9.54,14.486,21.111,15.309,22.483c0.691,1.148,0.512,2.787,0.154,3.66
				c-0.35,0.418-1.293,1.322-1.936,1.938c-1.893,1.817-2.99,2.902-3.535,4.063c-0.813,1.724-0.256,3.378,0.281,4.976
				c0.584,1.738,1.313,3.9,0.475,5.76c-0.613,1.356-1.924,1.797-2.24,1.801c-1.01-0.014-1.877-0.02-2.619-0.02
				c-2.635,0-3.711,0.065-3.826,0.071l-2.203,0.147L-177.577,406.32z"/>
			<rect x="-177.695" y="360.19" fill="#2F3338" width="4" height="55"/>
		</g>
	</g>
</g>
</svg>
