<svg xmlns:svg="http://www.w3.org/2000/svg" xmlns="http://www.w3.org/2000/svg" version="1.1" x="0" y="0" width="157.9" height="232.9" viewBox="0 0 157.9 232.9" enable-background="new 0 0 701 353" xml:space="preserve"><image display="none" overflow="visible" width="239.3" height="170.8" transform="matrix(0.04169034,-0.99913058,0.99913058,0.04169034,0,0)" x="52.7" y="85.6" opacity="0.4"/><path d="M144.1 106.8C139.3 98.7 77.1 10 77.1 10c0 0-57.9 88.7-62.8 96.8-5.2 8.8-5.6 19.4-1.5 26.1 3.7 5.9 16.4 16.5 18.6 20.7 3.5 6.6-10.5 21.1-2.8 38.1 4.4 9.7 13.6 14.1 19.7 14 16.2-0.2 22.2-0.1 22.2-0.1 0 0 0.2 8.2-0.1 11-0.4 4.1-2.1 6.3-2.1 6.3l9.9 0 9.1 0c0 0-2.2-1.9-2.6-5.9-0.2-2.6-0.1-11.4-0.1-11.4 0 0 7.6 0.1 23.7 0.3 6.2 0.1 15.8-4.5 20.1-14.2 7.7-17-5.4-32.3-2.7-38.2 1.9-4.3 16.8-16.8 19.2-20.7 3.7-5.8 4.5-17.3-0.8-26.1zm-73.1 79.8c0 2.8-1.2 6.2-5 6.2-3.2 0-12.8 0-18.2-0.1-5.3-0.1-9-6.8-8.9-15.7 0.1-8.9 6.9-16.5 4.1-26.3-2.5-8.7-14.1-17.3-17-21.8-2.8-4.5-2.9-10.8-1.3-14.3 2.5-5.2 42.4-66 44.2-68.6 1.7-2.6 2-0.4 2 4.8 0 5.3 0 135.8 0 135.8zm59.6-57.7c-3 4.4-15.6 12.7-18.2 22.5-2.5 9.8 5 16.7 5.1 25.6 0.1 8.9-3.9 15.6-9.3 15.7-5.3 0.1-17 0-20.2-0.2-3.1-0.2-4-3.9-4-5.9 0 0 0-130.5 0-135.7 0-5.2-0.1-7.4 1.6-4.8 1.7 2.6 43.3 63.6 46.3 68.6 3 4.9 1.8 9.7-1.3 14.3z" fill="#fff"/></svg>