<?xml version="1.0" encoding="utf-8"?>
<!-- Generator: Adobe Illustrator 16.0.0, SVG Export Plug-In . SVG Version: 6.00 Build 0)  -->
<!DOCTYPE svg PUBLIC "-//W3C//DTD SVG 1.1//EN" "http://www.w3.org/Graphics/SVG/1.1/DTD/svg11.dtd">
<svg version="1.1" id="Layer_1" xmlns="http://www.w3.org/2000/svg" xmlns:xlink="http://www.w3.org/1999/xlink" x="0px" y="0px"
	 width="64px" height="64px" viewBox="0 0 64 64" enable-background="new 0 0 64 64" xml:space="preserve">
<g>
	<path opacity="0.5" fill="#FFFFFF" d="M47,9H17c-2.209,0-4,1.791-4,4v38c0,2.209,1.791,4,4,4h30c2.209,0,4-1.791,4-4V13
		C51,10.791,49.209,9,47,9z M44,23H20c-1.104,0-2-0.896-2-2s0.896-2,2-2h24c1.104,0,2,0.896,2,2S45.104,23,44,23z M44,33H20
		c-1.104,0-2-0.896-2-2s0.896-2,2-2h24c1.104,0,2,0.896,2,2S45.104,33,44,33z M44,43H20c-1.104,0-2-0.896-2-2s0.896-2,2-2h24
		c1.104,0,2,0.896,2,2S45.104,43,44,43z"/>
	<path fill="#56595D" d="M47,56H17c-2.757,0-5-2.243-5-5V13c0-2.757,2.243-5,5-5h30c2.757,0,5,2.243,5,5v38
		C52,53.757,49.757,56,47,56z M17,10c-1.654,0-3,1.346-3,3v38c0,1.654,1.346,3,3,3h30c1.654,0,3-1.346,3-3V13c0-1.654-1.346-3-3-3
		H17z M44,44H20c-1.654,0-3-1.346-3-3s1.346-3,3-3h24c1.654,0,3,1.346,3,3S45.654,44,44,44z M20,40c-0.551,0-1,0.448-1,1
		s0.449,1,1,1h24c0.552,0,1-0.448,1-1s-0.448-1-1-1H20z M44,34H20c-1.654,0-3-1.346-3-3s1.346-3,3-3h24c1.654,0,3,1.346,3,3
		S45.654,34,44,34z M20,30c-0.551,0-1,0.449-1,1s0.449,1,1,1h24c0.552,0,1-0.449,1-1s-0.448-1-1-1H20z M44,24H20
		c-1.654,0-3-1.346-3-3s1.346-3,3-3h24c1.654,0,3,1.346,3,3S45.654,24,44,24z M20,20c-0.551,0-1,0.449-1,1s0.449,1,1,1h24
		c0.552,0,1-0.449,1-1s-0.448-1-1-1H20z"/>
</g>
</svg>
