<?xml version="1.0" encoding="utf-8"?>
<!-- Generator: Adobe Illustrator 16.0.0, SVG Export Plug-In . SVG Version: 6.00 Build 0)  -->
<!DOCTYPE svg PUBLIC "-//W3C//DTD SVG 1.1//EN" "http://www.w3.org/Graphics/SVG/1.1/DTD/svg11.dtd">
<svg version="1.1"
	 id="Layer_1" xmlns:dc="http://purl.org/dc/elements/1.1/" xmlns:cc="http://creativecommons.org/ns#" xmlns:rdf="http://www.w3.org/1999/02/22-rdf-syntax-ns#" xmlns:svg="http://www.w3.org/2000/svg" xmlns:sodipodi="http://sodipodi.sourceforge.net/DTD/sodipodi-0.dtd" xmlns:inkscape="http://www.inkscape.org/namespaces/inkscape" sodipodi:docname="logo.svg" inkscape:version="0.48.4 r9939"
	 xmlns="http://www.w3.org/2000/svg" xmlns:xlink="http://www.w3.org/1999/xlink" x="0px" y="0px" width="158.873px" height="94px"
	 viewBox="0 -17.402 158.873 94" enable-background="new 0 -17.402 158.873 94" xml:space="preserve">
<sodipodi:namedview  fit-margin-left="0" fit-margin-top="0" inkscape:cy="21.918129" inkscape:cx="85.201141" inkscape:zoom="3.6049335" showgrid="false" guidetolerance="10" gridtolerance="10" objecttolerance="10" borderopacity="1" bordercolor="#666666" pagecolor="#ffffff" id="namedview12" fit-margin-bottom="0" fit-margin-right="0" inkscape:current-layer="layer4" inkscape:window-maximized="0" inkscape:window-y="204" inkscape:window-x="2356" inkscape:window-height="727" inkscape:window-width="1170" inkscape:pageshadow="2" inkscape:pageopacity="0">
	</sodipodi:namedview>
<g>
	<g>
		<path fill="#EA5B13" d="M39.323,28.76C37.887,26.366,19.549,0.195,19.549,0.195S2.457,26.366,1.021,28.76
			c-1.549,2.582-1.664,5.733-0.446,7.688c1.087,1.745,4.838,4.871,5.49,6.095c1.037,1.945-3.103,6.232-0.841,11.249
			c1.29,2.86,4.006,4.167,5.826,4.143c4.769-0.063,6.563-0.021,6.563-0.021s0.054,2.371-0.037,3.209
			c-0.128,1.199-0.627,1.809-0.627,1.809h2.926h2.68c0,0-0.664-0.518-0.774-1.698c-0.071-0.756-0.037-3.338-0.037-3.338
			s2.231,0.048,7.001,0.112c1.819,0.023,4.655-1.319,5.943-4.18c2.261-5.016-1.584-9.521-0.805-11.267
			c0.565-1.265,4.955-4.968,5.672-6.104C40.638,34.74,40.873,31.343,39.323,28.76z"/>
		<path fill="#FCB040" d="M17.841,52.307c0,0.811-0.409,1.816-1.517,1.816c-0.956-0.001-3.805-0.001-5.378-0.024
			c-1.573-0.021-2.665-1.994-2.641-4.623c0.023-2.627,2.029-4.882,1.208-7.754c-0.737-2.581-4.154-5.096-5.004-6.429
			c-0.839-1.315-0.868-3.197-0.378-4.228c0.732-1.543,12.559-19.47,13.067-20.237c0.509-0.767,0.643-0.123,0.643,1.426
			S17.841,52.307,17.841,52.307z"/>
		<path fill="#FCB040" d="M21.841,52.307c0,0.59,0.135,1.697,1.061,1.744c0.954,0.049,4.338,0.071,5.912,0.048
			c1.573-0.021,2.726-1.994,2.702-4.623c-0.024-2.627-2.25-4.659-1.506-7.553c0.743-2.894,4.459-5.323,5.349-6.63
			c0.921-1.354,1.272-2.769,0.386-4.228c-0.887-1.46-13.035-19.469-13.543-20.236c-0.508-0.767-0.36-0.123-0.36,1.426
			S21.841,52.307,21.841,52.307z"/>
	</g>
	<g>
		<path fill="#2F3338" d="M49.351,33.49h3.765v20.705h-3.765V33.49z"/>
		<path fill="#2F3338" d="M57.296,39.077c0.697-0.199,1.603-0.388,2.719-0.567c1.115-0.18,2.35-0.27,3.705-0.27
			c1.274,0,2.34,0.175,3.196,0.522c0.856,0.35,1.538,0.837,2.047,1.465c0.507,0.627,0.866,1.385,1.076,2.271
			c0.209,0.886,0.313,1.856,0.313,2.913v8.783h-3.615V45.98c0-0.837-0.055-1.55-0.164-2.138c-0.109-0.587-0.289-1.064-0.538-1.434
			c-0.25-0.368-0.588-0.637-1.016-0.807c-0.428-0.169-0.951-0.254-1.568-0.254c-0.458,0-0.937,0.029-1.434,0.089
			c-0.498,0.061-0.866,0.11-1.106,0.15v12.607h-3.614V39.077z"/>
		<path fill="#2F3338" d="M79.285,38.181c1.194,0,2.2,0.149,3.018,0.448c0.816,0.299,1.468,0.717,1.956,1.255
			c0.488,0.537,0.837,1.189,1.046,1.957c0.21,0.767,0.314,1.608,0.314,2.524v9.471c-0.559,0.12-1.4,0.264-2.525,0.435
			c-1.126,0.169-2.396,0.253-3.809,0.253c-0.937,0-1.793-0.09-2.569-0.269c-0.777-0.18-1.44-0.468-1.987-0.867
			c-0.548-0.397-0.977-0.916-1.285-1.554c-0.309-0.638-0.463-1.423-0.463-2.36c0-0.896,0.174-1.653,0.523-2.271
			c0.349-0.617,0.822-1.12,1.419-1.509c0.599-0.389,1.29-0.666,2.077-0.837c0.787-0.169,1.608-0.253,2.464-0.253
			c0.398,0,0.817,0.025,1.255,0.074c0.438,0.05,0.906,0.135,1.405,0.254v-0.598c0-0.418-0.05-0.816-0.149-1.195
			c-0.1-0.378-0.274-0.711-0.523-1.001c-0.25-0.288-0.578-0.512-0.986-0.671c-0.409-0.16-0.922-0.239-1.539-0.239
			c-0.836,0-1.604,0.06-2.3,0.179c-0.698,0.119-1.265,0.26-1.704,0.419l-0.448-2.929c0.458-0.159,1.125-0.318,2.002-0.478
			C77.353,38.26,78.288,38.181,79.285,38.181z M79.583,51.656c1.116,0,1.962-0.06,2.541-0.179v-4.004
			c-0.2-0.06-0.488-0.12-0.867-0.18c-0.378-0.06-0.796-0.09-1.254-0.09c-0.399,0-0.802,0.03-1.21,0.09
			c-0.409,0.06-0.777,0.169-1.105,0.329c-0.329,0.159-0.593,0.384-0.791,0.672c-0.2,0.289-0.3,0.652-0.3,1.092
			c0,0.855,0.27,1.448,0.807,1.775C77.94,51.491,78.667,51.656,79.583,51.656z"/>
		<path fill="#2F3338" d="M95.281,50.639c0.657,0,1.198-0.054,1.628-0.163c0.428-0.11,0.772-0.259,1.031-0.449
			c0.258-0.188,0.438-0.412,0.537-0.672c0.1-0.259,0.149-0.547,0.149-0.866c0-0.677-0.318-1.24-0.956-1.688
			c-0.638-0.447-1.732-0.931-3.286-1.448c-0.678-0.239-1.354-0.514-2.031-0.821c-0.678-0.31-1.285-0.698-1.824-1.166
			c-0.537-0.468-0.976-1.035-1.314-1.703c-0.339-0.667-0.508-1.479-0.508-2.435c0-0.956,0.18-1.817,0.538-2.585
			c0.358-0.766,0.867-1.418,1.524-1.957c0.657-0.537,1.453-0.951,2.39-1.239c0.936-0.288,1.991-0.434,3.167-0.434
			c1.394,0,2.599,0.149,3.614,0.447c1.016,0.3,1.854,0.628,2.51,0.987l-1.344,3.674c-0.578-0.298-1.221-0.562-1.928-0.791
			c-0.707-0.229-1.559-0.344-2.555-0.344c-1.115,0-1.917,0.155-2.405,0.464c-0.489,0.308-0.732,0.781-0.732,1.418
			c0,0.379,0.09,0.698,0.27,0.956c0.18,0.26,0.433,0.493,0.762,0.703c0.328,0.209,0.708,0.398,1.136,0.567s0.9,0.343,1.418,0.522
			c1.075,0.398,2.012,0.792,2.809,1.181c0.797,0.388,1.459,0.842,1.986,1.359c0.528,0.518,0.922,1.125,1.182,1.823
			c0.258,0.696,0.387,1.542,0.387,2.538c0,1.933-0.677,3.432-2.03,4.497c-1.355,1.065-3.396,1.599-6.125,1.599
			c-0.917,0-1.743-0.056-2.48-0.165c-0.737-0.109-1.39-0.243-1.958-0.402c-0.567-0.16-1.056-0.329-1.464-0.509
			c-0.408-0.18-0.751-0.349-1.03-0.508l1.314-3.704c0.618,0.338,1.379,0.642,2.286,0.911C92.855,50.505,93.966,50.639,95.281,50.639
			z"/>
		<path fill="#2F3338" d="M120.404,54.195c-0.23-0.719-0.479-1.459-0.743-2.216c-0.266-0.758-0.529-1.514-0.792-2.267h-8.087
			c-0.261,0.757-0.522,1.513-0.785,2.272c-0.263,0.759-0.508,1.496-0.733,2.21h-4.841c0.779-2.23,1.518-4.291,2.217-6.184
			c0.7-1.893,1.384-3.676,2.054-5.349c0.669-1.673,1.328-3.262,1.978-4.765c0.649-1.505,1.324-2.974,2.023-4.408h4.418
			c0.681,1.435,1.351,2.903,2.011,4.408c0.66,1.503,1.326,3.092,1.996,4.765c0.671,1.673,1.355,3.456,2.057,5.349
			c0.699,1.893,1.44,3.953,2.221,6.184H120.404z M114.804,38.181c-0.104,0.301-0.256,0.71-0.456,1.227
			c-0.2,0.519-0.429,1.116-0.684,1.795c-0.256,0.678-0.543,1.425-0.858,2.24c-0.315,0.816-0.638,1.672-0.964,2.566h5.922
			c-0.318-0.898-0.624-1.756-0.921-2.574c-0.297-0.817-0.58-1.566-0.847-2.245c-0.268-0.679-0.502-1.276-0.703-1.793
			C115.092,38.88,114.928,38.475,114.804,38.181z"/>
		<path fill="#2F3338" d="M127.645,54.195V33.49h13.863v3.914h-9.203v4.333h8.188v3.914h-8.188v8.544H127.645z"/>
		<path fill="#2F3338" d="M144.203,54.195V33.49h13.982v3.914h-9.321v4.064h8.276v3.824h-8.276v4.988h10.009v3.914H144.203z"/>
	</g>
</g>
</svg>
