<?xml version="1.0" encoding="UTF-8" standalone="no"?>
<!-- Generator: Adobe Illustrator 15.0.0, SVG Export Plug-In . SVG Version: 6.00 Build 0)  -->

<svg
   xmlns:dc="http://purl.org/dc/elements/1.1/"
   xmlns:cc="http://creativecommons.org/ns#"
   xmlns:rdf="http://www.w3.org/1999/02/22-rdf-syntax-ns#"
   xmlns:svg="http://www.w3.org/2000/svg"
   xmlns="http://www.w3.org/2000/svg"
   xmlns:xlink="http://www.w3.org/1999/xlink"
   xmlns:sodipodi="http://sodipodi.sourceforge.net/DTD/sodipodi-0.dtd"
   xmlns:inkscape="http://www.inkscape.org/namespaces/inkscape"
   version="1.1"
   id="Layer_1"
   x="0px"
   y="0px"
   width="64"
   height="64"
   viewBox="0 0 64 64"
   enable-background="new 0 0 567 567"
   xml:space="preserve"
   inkscape:version="0.48.4 r9939"
   sodipodi:docname="people-in-buildings.svg"><metadata
     id="metadata16"><rdf:RDF><cc:Work
         rdf:about=""><dc:format>image/svg+xml</dc:format><dc:type
           rdf:resource="http://purl.org/dc/dcmitype/StillImage" /><dc:title></dc:title></cc:Work></rdf:RDF></metadata><defs
     id="defs14"><filter
       id="filter2992"
       inkscape:label="Drop Shadow"
       color-interpolation-filters="sRGB"><feFlood
         id="feFlood2994"
         flood-opacity="0.5"
         flood-color="rgb(0,0,0)"
         result="flood" /><feComposite
         id="feComposite2996"
         in2="SourceGraphic"
         in="flood"
         operator="in"
         result="composite1" /><feGaussianBlur
         id="feGaussianBlur2998"
         stdDeviation="2"
         result="blur" /><feOffset
         id="feOffset3000"
         dx="4"
         dy="4"
         result="offset" /><feComposite
         id="feComposite3002"
         in2="offset"
         in="SourceGraphic"
         operator="over"
         result="composite2" /></filter><filter
       color-interpolation-filters="sRGB"
       id="filter2992-6"
       inkscape:label="Drop Shadow"
       style="color-interpolation-filters:sRGB;"><feFlood
         id="feFlood2994-6"
         flood-opacity="0.5"
         flood-color="rgb(0,0,0)"
         result="flood" /><feComposite
         id="feComposite2996-1"
         in2="SourceGraphic"
         in="flood"
         operator="in"
         result="composite1" /><feGaussianBlur
         id="feGaussianBlur2998-2"
         stdDeviation="2"
         result="blur" /><feOffset
         id="feOffset3000-4"
         dx="4"
         dy="4"
         result="offset" /><feComposite
         id="feComposite3002-7"
         in2="offset"
         in="SourceGraphic"
         operator="over"
         result="fbSourceGraphic" /><feColorMatrix
         result="fbSourceGraphicAlpha"
         in="fbSourceGraphic"
         values="0 0 0 -1 0 0 0 0 -1 0 0 0 0 -1 0 0 0 0 1 0"
         id="feColorMatrix4040" /><feFlood
         id="feFlood4042"
         flood-opacity="0.5"
         flood-color="rgb(0,0,0)"
         result="flood"
         in="fbSourceGraphic" /><feComposite
         id="feComposite4044"
         in2="fbSourceGraphic"
         in="flood"
         operator="in"
         result="composite1" /><feGaussianBlur
         id="feGaussianBlur4046"
         in="composite"
         stdDeviation="2"
         result="blur" /><feOffset
         id="feOffset4048"
         dx="10"
         dy="10"
         result="offset" /><feComposite
         id="feComposite4050"
         in2="offset"
         in="fbSourceGraphic"
         operator="over"
         result="composite2" /></filter><filter
       color-interpolation-filters="sRGB"
       id="filter2992-5"
       inkscape:label="Drop Shadow"><feFlood
         id="feFlood2994-8"
         flood-opacity="0.5"
         flood-color="rgb(0,0,0)"
         result="flood" /><feComposite
         id="feComposite2996-8"
         in2="SourceGraphic"
         in="flood"
         operator="in"
         result="composite1" /><feGaussianBlur
         id="feGaussianBlur2998-5"
         stdDeviation="2"
         result="blur" /><feOffset
         id="feOffset3000-0"
         dx="4"
         dy="4"
         result="offset" /><feComposite
         id="feComposite3002-0"
         in2="offset"
         in="SourceGraphic"
         operator="over"
         result="composite2" /></filter><linearGradient
       inkscape:collect="always"
       xlink:href="#linearGradient3786-3"
       id="linearGradient3792-9"
       x1="299.62643"
       y1="77.762421"
       x2="294.99335"
       y2="261.76202"
       gradientUnits="userSpaceOnUse" /><linearGradient
       inkscape:collect="always"
       id="linearGradient3786-3"><stop
         style="stop-color:#f15a2b;stop-opacity:1;"
         offset="0"
         id="stop3788-7" /><stop
         style="stop-color:#f15a2b;stop-opacity:0;"
         offset="1"
         id="stop3790-0" /></linearGradient></defs><sodipodi:namedview
     pagecolor="#ffffff"
     bordercolor="#666666"
     borderopacity="1"
     objecttolerance="10"
     gridtolerance="10"
     guidetolerance="10"
     inkscape:pageopacity="0"
     inkscape:pageshadow="2"
     inkscape:window-width="1170"
     inkscape:window-height="727"
     id="namedview12"
     showgrid="false"
     inkscape:zoom="3.6049335"
     inkscape:cx="46.657115"
     inkscape:cy="22.256241"
     inkscape:window-x="268"
     inkscape:window-y="144"
     inkscape:window-maximized="0"
     inkscape:current-layer="layer4" /><g
     inkscape:groupmode="layer"
     id="layer1"
     inkscape:label="base0"
     style="display:inline"
     transform="translate(0,-503)"><g
       style="filter:url(#filter2992-6)"
       transform="matrix(0.16269334,0,0,0.16269334,-3.1526669,489.88814)"
       id="g3780"><path
         style="fill:#fcb040;stroke:#f15a2b;stroke-width:12;stroke-linecap:round"
         inkscape:connector-curvature="0"
         id="path3782"
         d="m 138.45005,98.497098 -80.049,154.739992 c -26.372,45.508 -28.15,64.647 -0.818,99 8.002,10.058 0,72 0,72 l 44.667,1.647 c 0,0 18,9 36,9 18,0 36,-9 36,-9 l 45.332,-1.647 c 0,0 -7.729,-62.042 0,-72 26.668,-34.353 27,-54 0,-99 l -81.132,-154.739992" /></g><g
       inkscape:groupmode="layer"
       id="layer3"
       inkscape:label="Layer#2"
       style="display:none" /></g><g
     inkscape:groupmode="layer"
     id="layer2"
     inkscape:label="base1"
     transform="translate(0,-503)"
     style="display:inline"><g
       id="g6"
       transform="matrix(0.16269334,0,0,0.16269334,-28.699027,493.22916)"
       style="filter:url(#filter2992-5)"><path
         d="m 296.164,77.14 -80.049,154.74 c -26.372,45.508 -28.15,64.647 -0.818,99 8.002,10.058 0,72 0,72 l 44.667,1.647 c 0,0 18,9 36,9 18,0 36,-9 36,-9 l 45.332,-1.647 c 0,0 -7.729,-62.042 0,-72 26.668,-34.353 27,-54 0,-99 L 296.164,77.14"
         id="path8"
         inkscape:connector-curvature="0"
         style="fill:#fcb040;stroke:url(#linearGradient3792-9);stroke-width:12;stroke-linecap:round" /><line
         stroke-miterlimit="10"
         x1="296.297"
         y1="80.528"
         x2="296.297"
         y2="441.72198"
         id="line10"
         style="fill:none;stroke:#f1592a;stroke-width:7;stroke-linecap:round;stroke-miterlimit:10" /></g></g><g
     inkscape:groupmode="layer"
     id="layer4"
     inkscape:label="action"
     transform="translate(0,-503)"
     style="display:inline"><g
       id="g4377"
       transform="matrix(1.5547953,0,0,1.5547953,22.397306,512.71913)"
       style="fill:#ffffff;fill-opacity:0.66515838;stroke:#000000;stroke-opacity:1"><g
         id="Layer_1-5"
         style="fill:#ffffff;fill-opacity:0.66515838;stroke:#000000;stroke-opacity:1" /><g
         id="user"
         style="fill:#ffffff;fill-opacity:0.66515838;stroke:#000000;stroke-opacity:1"><g
           id="g4365"
           style="fill:#ffffff;fill-opacity:0.66515838;stroke:#000000;stroke-opacity:1"><path
             id="path4367"
             d="M 12,16 C 5.375,16 0,21.375 0,28 c 0,2.211 1.789,4 4,4 h 16 c 2.211,0 4,-1.789 4,-4 0,-6.625 -5.375,-12 -12,-12 z"
             style="fill:#ffffff;fill-opacity:0.66515838;stroke:#000000;stroke-opacity:1"
             inkscape:connector-curvature="0" /><circle
             id="circle4369"
             r="6"
             cy="6"
             cx="12"
             style="fill:#ffffff;fill-opacity:0.66515838;stroke:#000000;stroke-opacity:1"
             sodipodi:cx="12"
             sodipodi:cy="6"
             sodipodi:rx="6"
             sodipodi:ry="6"
             d="m 18,6 c 0,3.3137085 -2.686292,6 -6,6 C 8.6862915,12 6,9.3137085 6,6 6,2.6862915 8.6862915,0 12,0 c 3.313708,0 6,2.6862915 6,6 z" /></g></g></g><path
       style="fill:#ffffff;fill-opacity:0.66515838;stroke:#0026bf;stroke-width:1.21939123;stroke-miterlimit:4;stroke-opacity:1;stroke-dasharray:none;display:inline"
       d="m 16.643869,565.60048 -12.826562,-1.32186 0,0 0.00365,-55.51948 3.6416205,0.37529 9.2456517,-0.0342 c -0.0927,23.80491 -0.03392,15.32541 -0.06436,56.50015 z"
       id="polygon4106"
       inkscape:connector-curvature="0"
       sodipodi:nodetypes="ccccccc" /><path
       style="fill:#ffffff;fill-opacity:0.66515838;stroke:#0026bf;stroke-width:0.19510087;stroke-miterlimit:4;stroke-opacity:1;stroke-dasharray:none;display:inline"
       d="m 7.7771388,520.4807 -2.5292498,-0.17161 0,0 7.239e-4,-7.20769 0.7180857,0.0488 1.8231358,-0.004 c -0.01828,3.09042 -0.00669,1.98959 -0.012694,7.33501 z"
       id="polygon4106-1"
       inkscape:connector-curvature="0"
       sodipodi:nodetypes="ccccccc" /><path
       style="fill:#ffffff;fill-opacity:0.66515838;stroke:#0026bf;stroke-width:0.19510087;stroke-miterlimit:4;stroke-opacity:1;stroke-dasharray:none;display:inline"
       d="m 7.9158206,540.45305 -2.52925,-0.17161 0,0 7.24e-4,-7.20769 0.718085,0.0488 1.823136,-0.004 c -0.01828,3.09042 -0.0067,1.98959 -0.01269,7.33501 z"
       id="polygon4106-1-7"
       inkscape:connector-curvature="0"
       sodipodi:nodetypes="ccccccc" /><path
       style="fill:#ffffff;fill-opacity:0.66515838;stroke:#0026bf;stroke-width:0.19510087;stroke-miterlimit:4;stroke-opacity:1;stroke-dasharray:none;display:inline"
       d="m 14.018568,530.74414 -2.52925,-0.17161 0,0 7.24e-4,-7.20769 0.718085,0.0488 1.823136,-0.004 c -0.01828,3.09042 -0.0067,1.98959 -0.01269,7.33501 z"
       id="polygon4106-1-9"
       inkscape:connector-curvature="0"
       sodipodi:nodetypes="ccccccc" /><path
       style="fill:#ffffff;fill-opacity:0.66515838;stroke:#0026bf;stroke-width:0.19510087;stroke-miterlimit:4;stroke-opacity:1;stroke-dasharray:none;display:inline"
       d="m 7.6384229,530.74414 -2.52925,-0.17161 0,0 7.24e-4,-7.20769 0.718085,0.0488 1.823136,-0.004 c -0.01828,3.09042 -0.0067,1.98959 -0.01269,7.33501 z"
       id="polygon4106-1-2"
       inkscape:connector-curvature="0"
       sodipodi:nodetypes="ccccccc" /><path
       style="fill:#ffffff;fill-opacity:0.66515838;stroke:#0026bf;stroke-width:0.19510087;stroke-miterlimit:4;stroke-opacity:1;stroke-dasharray:none;display:inline"
       d="m 14.018568,520.48042 -2.52925,-0.17161 0,0 7.24e-4,-7.20769 0.718085,0.0488 1.823136,-0.004 c -0.01828,3.09042 -0.0067,1.98959 -0.01269,7.33501 z"
       id="polygon4106-1-0"
       inkscape:connector-curvature="0"
       sodipodi:nodetypes="ccccccc" /><path
       style="fill:#ffffff;fill-opacity:0.66515838;stroke:#0026bf;stroke-width:0.19510087;stroke-miterlimit:4;stroke-opacity:1;stroke-dasharray:none;display:inline"
       d="m 14.295966,540.73045 -2.52925,-0.17161 0,0 7.24e-4,-7.20769 0.718085,0.0488 1.823136,-0.004 c -0.01828,3.09042 -0.0067,1.98959 -0.01269,7.33501 z"
       id="polygon4106-1-9-8"
       inkscape:connector-curvature="0"
       sodipodi:nodetypes="ccccccc" /></g></svg>