<?xml version="1.0" encoding="UTF-8" standalone="no"?>
<!-- Generator: Adobe Illustrator 16.0.0, SVG Export Plug-In . SVG Version: 6.00 Build 0)  -->

<svg
   xmlns:dc="http://purl.org/dc/elements/1.1/"
   xmlns:cc="http://creativecommons.org/ns#"
   xmlns:rdf="http://www.w3.org/1999/02/22-rdf-syntax-ns#"
   xmlns:svg="http://www.w3.org/2000/svg"
   xmlns="http://www.w3.org/2000/svg"
   xmlns:sodipodi="http://sodipodi.sourceforge.net/DTD/sodipodi-0.dtd"
   xmlns:inkscape="http://www.inkscape.org/namespaces/inkscape"
   version="1.1"
   id="Layer_1"
   x="0px"
   y="0px"
   width="64px"
   height="64px"
   viewBox="0 0 64 64"
   enable-background="new 0 0 64 64"
   xml:space="preserve"
   inkscape:version="0.91 r13725"
   sodipodi:docname="add-petabencana-layer.svg"><metadata
     id="metadata3465"><rdf:RDF><cc:Work
         rdf:about=""><dc:format>image/svg+xml</dc:format><dc:type
           rdf:resource="http://purl.org/dc/dcmitype/StillImage" /><dc:title /></cc:Work></rdf:RDF></metadata><defs
     id="defs3463" /><sodipodi:namedview
     pagecolor="#ffffff"
     bordercolor="#666666"
     borderopacity="1"
     objecttolerance="10"
     gridtolerance="10"
     guidetolerance="10"
     inkscape:pageopacity="0"
     inkscape:pageshadow="2"
     inkscape:window-width="1920"
     inkscape:window-height="1016"
     id="namedview3461"
     showgrid="false"
     inkscape:zoom="12.859375"
     inkscape:cx="17.535845"
     inkscape:cy="32"
     inkscape:window-x="0"
     inkscape:window-y="27"
     inkscape:window-maximized="1"
     inkscape:current-layer="Layer_1" /><circle
     style="fill:#ffffff;fill-opacity:1;stroke:none;stroke-width:0.86799997;stroke-linecap:butt;stroke-linejoin:round;stroke-miterlimit:4;stroke-dasharray:none;stroke-opacity:1"
     id="path3353"
     cx="28.811665"
     cy="51.5966"
     r="11.703524" /><path
     style="fill:#00aeef;fill-opacity:1;stroke:none;stroke-width:0.86799997;stroke-linecap:butt;stroke-linejoin:round;stroke-miterlimit:4;stroke-dasharray:none;stroke-opacity:1"
     d="m 45.725395,17.885782 c 0,8.761397 -5.445788,18.076586 -13.686512,32.34994 -1.500512,2.598963 -4.262091,2.583208 -5.637335,-0.256211 C 21.73742,40.349642 13.99757,24.279796 13.99757,17.885782 c 0,-8.7613969 7.102516,-15.8639123 15.863913,-15.8639123 8.761397,6e-7 15.863912,7.1025157 15.863912,15.8639123 z"
     id="path3357"
     inkscape:connector-curvature="0"
     sodipodi:nodetypes="ssssss" /><g
     transform="translate(-0.68651276,-0.60874807)"
     id="g3451"><path
       style="fill:#f15a2b;stroke:#f15a2b;stroke-width:2;stroke-linecap:round"
       inkscape:connector-curvature="0"
       d="M 63,58.385 C 63,60.934 60.934,63 58.385,63 l -14.77,0 C 41.066,63 39,60.934 39,58.385 l 0,-14.77 C 39,41.066 41.066,39 43.615,39 l 14.77,0 C 60.934,39 63,41.066 63,43.615 l 0,14.77 z"
       id="path3453" /><path
       style="opacity:0.4;fill:#fcb040"
       inkscape:connector-curvature="0"
       d="m 62,51 0,-7 c 0,-2.209 -1.791,-4 -4,-4 l -14,0 c -2.209,0 -4,1.791 -4,4 l 0,7 22,0 z"
       id="path3455" /></g><text
     xml:space="preserve"
     style="font-style:normal;font-weight:normal;font-size:33.29687119px;line-height:125%;font-family:Sans;letter-spacing:0px;word-spacing:0px;fill:#ffffff;fill-opacity:1;stroke:none;stroke-width:1px;stroke-linecap:butt;stroke-linejoin:miter;stroke-opacity:1"
     x="36.501453"
     y="60.893238"
     id="text3467"
     sodipodi:linespacing="125%"
     transform="scale(0.99984312,1.0001569)"><tspan
       sodipodi:role="line"
       id="tspan3469"
       x="36.501453"
       y="60.893238">+</tspan></text>
</svg>