<?xml version="1.0" encoding="utf-8"?>
<!-- Generator: Adobe Illustrator 16.0.0, SVG Export Plug-In . SVG Version: 6.00 Build 0)  -->
<!DOCTYPE svg PUBLIC "-//W3C//DTD SVG 1.1//EN" "http://www.w3.org/Graphics/SVG/1.1/DTD/svg11.dtd">
<svg version="1.1" id="Layer_1" xmlns="http://www.w3.org/2000/svg" xmlns:xlink="http://www.w3.org/1999/xlink" x="0px" y="0px"
	 width="64px" height="64px" viewBox="0 0 64 64" enable-background="new 0 0 64 64" xml:space="preserve">
<path id="path4266" opacity="0.5" fill="#FFFFFF" d="M43.719,35.134c0,6.909-5.589,12.536-12.467,12.536
	c-6.879,0-12.469-5.627-12.469-12.536c0-6.91,5.589-12.535,12.469-12.535l3.676,0.042l-1.815,1.824l4.408,4.431l9.369-9.432
	l-9.369-9.401l-4.408,4.431L33,15l-1.749,0.375c-10.325,0-18.702,9.372-18.702,19.759c0,10.386,8.377,18.802,18.702,18.802
	c10.326,0,18.702-8.416,18.702-18.802H43.719z"/>
<path fill="#56595D" d="M49.953,33h-6.234c-1.118,0-2.024,0.961-2.024,2.085c0,5.79-4.685,10.55-10.443,10.55
	c-5.759,0-10.444-4.711-10.444-10.501c0-5.744,4.612-10.426,10.288-10.499c0.04,0.478,0.247,0.928,0.586,1.27l4.409,4.431
	c0.379,0.382,0.895,0.596,1.431,0.596h0.001c0.537,0,1.052-0.215,1.432-0.597l9.369-9.432c0.38-0.381,0.592-0.9,0.592-1.439
	c0-0.54-0.214-1.058-0.594-1.439l-9.369-9.401c-0.396-0.396-0.912-0.595-1.431-0.595c-0.518,0-1.035,0.199-1.431,0.596l-4.409,4.431
	c-0.333,0.335-0.539,0.774-0.584,1.241C19.74,14.38,10.525,23.695,10.525,35.134c0,11.49,9.298,20.837,20.727,20.837
	c11.428,0,20.726-9.396,20.726-20.886C51.978,33.961,51.071,33,49.953,33z M31.251,53.869c-10.325,0-18.702-8.549-18.702-18.935
	C12.549,24.548,20.926,16,31.251,16h3.702l-1.841-1.671l4.408-4.348l9.369,9.442l-9.369,9.453l-4.408-4.421l1.815-1.819
	l-3.676-0.039c-6.879,0-12.469,5.625-12.469,12.536c0,6.909,5.589,12.47,12.469,12.47C38.13,47.603,43.719,42,43.719,35h6.234
	C49.953,46,41.577,53.869,31.251,53.869z"/>
</svg>
