<?xml version="1.0" encoding="utf-8"?>
<!-- Generator: Adobe Illustrator 16.0.0, SVG Export Plug-In . SVG Version: 6.00 Build 0)  -->
<!DOCTYPE svg PUBLIC "-//W3C//DTD SVG 1.1//EN" "http://www.w3.org/Graphics/SVG/1.1/DTD/svg11.dtd">
<svg version="1.1" id="Layer_1" xmlns="http://www.w3.org/2000/svg" xmlns:xlink="http://www.w3.org/1999/xlink" x="0px" y="0px"
	 width="64px" height="64px" viewBox="0 0 64 64" enable-background="new 0 0 64 64" xml:space="preserve">
<path fill="#F15A2B" stroke="#F15A2B" stroke-width="2" stroke-linecap="round" d="M63,58.385C63,60.934,60.934,63,58.385,63h-14.77
	C41.066,63,39,60.934,39,58.385v-14.77C39,41.066,41.066,39,43.615,39h14.77C60.934,39,63,41.066,63,43.615V58.385z"/>
<path opacity="0.4" fill="#FCB040" d="M62,51v-7c0-2.209-1.791-4-4-4H44c-2.209,0-4,1.791-4,4v7H62z"/>
<path fill="#FFFFFF" d="M60,59.091C60,59.593,59.593,60,59.091,60H42.909C42.407,60,42,59.593,42,59.091v-2.182
	C42,56.407,42.407,56,42.909,56h16.182C59.593,56,60,56.407,60,56.909V59.091z"/>
<path fill="#FFFFFF" d="M54,50v-7.637C54,41.61,53.117,41,52.363,41h-2.727C48.884,41,48,41.61,48,42.363V50h-4l7,5.546L58,50H54z"
	/>
<g>
	<path opacity="0.5" fill="#FFFFFF" d="M35,51.25c0,2.071-1.68,3.75-3.75,3.75H8.75C6.679,55,5,53.321,5,51.25v-22.5
		C5,26.679,6.679,25,8.75,25h22.5c2.07,0,3.75,1.679,3.75,3.75V51.25z"/>
	<path fill="#56595D" d="M31.25,56H8.75C6.131,56,4,53.869,4,51.25v-22.5C4,26.131,6.131,24,8.75,24h22.5
		c2.619,0,4.75,2.131,4.75,4.75v22.5C36,53.869,33.869,56,31.25,56z M8.75,26C7.233,26,6,27.233,6,28.75v22.5
		C6,52.767,7.233,54,8.75,54h22.5c1.517,0,2.75-1.233,2.75-2.75v-22.5c0-1.517-1.233-2.75-2.75-2.75H8.75z"/>
</g>
<g>
	<path opacity="0.5" fill="#FFFFFF" d="M59,31.25c0,2.071-1.679,3.75-3.75,3.75h-22.5C30.679,35,29,33.321,29,31.25V8.75
		C29,6.679,30.679,5,32.75,5h22.5C57.321,5,59,6.679,59,8.75V31.25z"/>
	<path fill="#56595D" d="M55.25,36h-22.5C30.131,36,28,33.869,28,31.25V8.75C28,6.131,30.131,4,32.75,4h22.5
		C57.869,4,60,6.131,60,8.75v22.5C60,33.869,57.869,36,55.25,36z M32.75,6C31.233,6,30,7.233,30,8.75v22.5
		c0,1.517,1.233,2.75,2.75,2.75h22.5c1.517,0,2.75-1.233,2.75-2.75V8.75C58,7.233,56.767,6,55.25,6H32.75z"/>
</g>
<g>
	<path fill="#56595D" d="M33.002,10v18h4.78v-3.61h2.438V28H45V10H33.002z M36.61,21.39H34.22v-3.609h2.391V21.39z M36.61,15.39
		H34.22v-3.609h2.391V15.39z M40.22,21.39h-2.438v-3.609h2.438V21.39z M40.22,15.39h-2.438v-3.609h2.438V15.39z M43.781,21.39h-2.39
		v-3.609h2.39V21.39z M43.781,15.39h-2.39v-3.609h2.39V15.39z"/>
	<rect x="47" y="16" fill="#56595D" width="8" height="12"/>
</g>
<path fill-rule="evenodd" clip-rule="evenodd" fill="#56595D" d="M6,36l4.396,2.033l4.269-4.257v7.45L20,31.648v10.643l3.202-5.321
	l4.268,4.257L34,42v2l-7.597-0.645l-3.202-3.193l-5.336,10.645V40.162l-5.335,6.386v-8.515l-2.135,2.129L6,38V36z"/>
</svg>
