<?xml version="1.0" encoding="utf-8"?>
<!-- Generator: Adobe Illustrator 16.0.0, SVG Export Plug-In . SVG Version: 6.00 Build 0)  -->
<!DOCTYPE svg PUBLIC "-//W3C//DTD SVG 1.1//EN" "http://www.w3.org/Graphics/SVG/1.1/DTD/svg11.dtd">
<svg version="1.1" id="Layer_1" xmlns="http://www.w3.org/2000/svg" xmlns:xlink="http://www.w3.org/1999/xlink" x="0px" y="0px"
	 width="64px" height="64px" viewBox="0 0 64 64" enable-background="new 0 0 64 64" xml:space="preserve">
<path fill="#56595D" d="M10,56c-1.104,0-2-0.896-2-2v-4c0-1.104,0.896-2,2-2h2V31.5c0-1.443,0.558-2.808,1.57-3.843
	C14.615,26.589,16.01,26,17.5,26H30V16H10c-1.104,0-2-0.896-2-2v-4c0-1.104,0.896-2,2-2h42c2.206,0,4,1.794,4,4v40
	c0,2.206-1.794,4-4,4H10z M48,48V34H38v14H48z M30,48V34H20v14H30z M48,26V16H38v10H48z"/>
<path fill="#FFFFFF" d="M52,10h-2H40h-4h-4h-4H10v4h18h3c0.552,0,1,0.448,1,1v3v6v3c0,0.552-0.447,1-1,1h-3H18h-0.5
	c-0.98,0-1.865,0.406-2.5,1.056c-0.617,0.631-1,1.492-1,2.444V46v3c0,0.553-0.448,1-1,1h-3v2v2h22h4h14h2c1.104,0,2-0.896,2-2v-2V14
	v-2C54,10.896,53.104,10,52,10z M36,18v-3c0-0.552,0.447-1,1-1h3h6h3c0.553,0,1,0.448,1,1v3v6v3c0,0.552-0.447,1-1,1h-3h-6h-3
	c-0.553,0-1-0.448-1-1v-3V18z M19,50c-0.552,0-1-0.447-1-1v-3V34.949V33c0-0.552,0.448-1,1-1h1.95H28h3c0.553,0,1,0.448,1,1v3v10v3
	c0,0.553-0.447,1-1,1h-3h-6H19z M37,50c-0.553,0-1-0.447-1-1v-3V36v-3c0-0.552,0.447-1,1-1h3h6h3c0.553,0,1,0.448,1,1v3v10v3
	c0,0.553-0.447,1-1,1h-3h-6H37z"/>
<path opacity="0.5" fill="#FFFFFF" d="M52,10h-2H40h-4h-4h-4H10v4h18h3c0.552,0,1,0.448,1,1v3v6v3c0,0.552-0.447,1-1,1h-3H18h-0.5
	c-0.98,0-1.865,0.406-2.5,1.056c-0.617,0.631-1,1.492-1,2.444V46v3c0,0.553-0.448,1-1,1h-3v2v2h22h4h14h2c1.104,0,2-0.896,2-2v-2V14
	v-2C54,10.896,53.104,10,52,10z M32,36v10v3c0,0.553-0.447,1-1,1h-3h-6h-3c-0.552,0-1-0.447-1-1v-3V34.949V33c0-0.552,0.448-1,1-1
	h1.95H28h3c0.553,0,1,0.448,1,1V36z M50,36v10v3c0,0.553-0.447,1-1,1h-3h-6h-3c-0.553,0-1-0.447-1-1v-3V36v-3c0-0.552,0.447-1,1-1h3
	h6h3c0.553,0,1,0.448,1,1V36z M50,18v6v3c0,0.552-0.447,1-1,1h-3h-6h-3c-0.553,0-1-0.448-1-1v-3v-6v-3c0-0.552,0.447-1,1-1h3h6h3
	c0.553,0,1,0.448,1,1V18z"/>
</svg>
