<?xml version="1.0" encoding="utf-8"?>
<!-- Generator: Adobe Illustrator 16.0.0, SVG Export Plug-In . SVG Version: 6.00 Build 0)  -->
<!DOCTYPE svg PUBLIC "-//W3C//DTD SVG 1.1//EN" "http://www.w3.org/Graphics/SVG/1.1/DTD/svg11.dtd">
<svg version="1.1" id="Layer_1" xmlns="http://www.w3.org/2000/svg" xmlns:xlink="http://www.w3.org/1999/xlink" x="0px" y="0px"
	 width="64px" height="64px" viewBox="0 0 64 64" enable-background="new 0 0 64 64" xml:space="preserve">
<path fill="#F15A2B" stroke="#F15A2B" stroke-width="2" stroke-linecap="round" d="M63,58.385C63,60.934,60.934,63,58.385,63h-14.77
	C41.066,63,39,60.934,39,58.385v-14.77C39,41.066,41.066,39,43.615,39h14.77C60.934,39,63,41.066,63,43.615V58.385z"/>
<g>
	<g>
		<g>
			<path fill="#F15A2B" d="M37.431,27C36.068,24.728,18.945-0.108,18.945-0.108S2.446,24.728,1.083,27
				c-1.47,2.449-1.272,5.566-0.423,7.295c0.556,1.132,4.649,4.594,5.21,5.784c0.561,1.188-2.944,5.913-0.798,10.675
				c1.224,2.714,3.247,3.952,4.975,3.932C14.57,54.626,16,54.665,16,54.665V60h3.253H20v-5.37c0,0,2.491,0.054,7.019,0.113
				c1.726,0.023,4.603-1.246,5.824-3.961c2.148-4.758-1.229-9.498-0.668-10.689c0.56-1.188,4.873-4.656,5.43-5.791
				C38.452,32.573,38.9,29.45,37.431,27z"/>
			<path fill="#FCB040" d="M17.118,51.13c-0.125-0.012-1.308-0.101-4.211-0.101c-0.665,0-1.424,0.004-2.286,0.017
				C10.307,51.043,9,50.611,8.389,49.257c-0.835-1.853-0.104-4.011,0.484-5.745c0.542-1.599,1.103-3.255,0.29-4.981
				c-0.534-1.136-1.59-2.213-3.411-4.022c-0.625-0.622-1.546-1.536-1.883-1.952c-0.275-0.719-0.438-2.395,0.334-3.683
				C5.099,27.382,13.519,14.656,19,6.39c6.564,9.539,14.486,21.111,15.308,22.483c0.691,1.148,0.511,2.787,0.154,3.66
				c-0.349,0.417-1.293,1.322-1.935,1.938c-1.893,1.817-2.991,2.902-3.536,4.063c-0.812,1.724-0.256,3.378,0.282,4.976
				c0.584,1.738,1.312,3.9,0.473,5.759c-0.612,1.357-1.923,1.798-2.24,1.801c-1.009-0.013-1.877-0.019-2.618-0.019
				c-2.635,0-3.712,0.065-3.827,0.071L18.86,51.27L17.118,51.13z"/>
			<rect x="17" y="5" fill="#F15A2B" width="4" height="55"/>
		</g>
	</g>
</g>
<path opacity="0.4" fill="#FCB040" d="M62,51v-7c0-2.209-1.791-4-4-4H44c-2.209,0-4,1.791-4,4v7H62z"/>
<g>
	<path fill="#FFFFFF" d="M52.009,57.143c0.605,0.822,0.43,1.979-0.392,2.585l-0.129,0.095c-0.821,0.605-1.979,0.432-2.584-0.39
		l-5.249-7.113c-0.605-0.822-0.43-1.979,0.392-2.585l0.129-0.096c0.82-0.605,1.979-0.431,2.584,0.391L52.009,57.143z"/>
	<path fill="#FFFFFF" d="M52.534,60.12c-0.534,0.844-1.652,1.094-2.495,0.561l-0.203-0.129c-0.844-0.535-1.095-1.652-0.561-2.496
		l7.354-11.607c0.534-0.844,1.652-1.094,2.495-0.56l0.203,0.129c0.844,0.535,1.094,1.651,0.561,2.495L52.534,60.12z"/>
</g>
</svg>
