<?xml version="1.0" encoding="utf-8"?>
<!-- Generator: Adobe Illustrator 16.0.0, SVG Export Plug-In . SVG Version: 6.00 Build 0)  -->
<!DOCTYPE svg PUBLIC "-//W3C//DTD SVG 1.1//EN" "http://www.w3.org/Graphics/SVG/1.1/DTD/svg11.dtd">
<svg version="1.1" id="Layer_1" xmlns="http://www.w3.org/2000/svg" xmlns:xlink="http://www.w3.org/1999/xlink" x="0px" y="0px"
	 width="64px" height="64px" viewBox="0 0 64 64" enable-background="new 0 0 64 64" xml:space="preserve">
<g>
	<path opacity="0.5" fill="#FFFFFF" d="M55.105,34.843v-5.777L48.2,26.191c-0.19-0.542-0.393-1.066-0.641-1.58l2.786-6.939
		l-4.085-4.084l-6.878,2.832c-0.522-0.254-1.059-0.468-1.611-0.665l-2.929-6.859h-5.777l-2.853,6.835
		c-0.575,0.203-1.128,0.418-1.677,0.678l-6.864-2.758l-4.083,4.083l2.799,6.803c-0.271,0.559-0.491,1.127-0.701,1.717l-6.792,2.903
		v5.777l6.796,2.832c0.211,0.584,0.436,1.155,0.706,1.715l-2.746,6.848l4.083,4.085l6.821-2.809
		c0.548,0.259,1.106,0.466,1.681,0.665l2.922,6.836h5.776l2.858-6.872c0.548-0.203,1.088-0.416,1.607-0.664l6.929,2.775l4.083-4.085
		l-2.843-6.892c0.241-0.519,0.439-1.044,0.632-1.58L55.105,34.843z M31.955,40.664c-4.782,0-8.663-3.882-8.663-8.664
		c0-4.783,3.881-8.666,8.663-8.666c4.784,0,8.665,3.882,8.665,8.666C40.62,36.782,36.739,40.664,31.955,40.664z"/>
	<path fill="#56595D" d="M35.601,56.105h-7.103l-3.009-7.039c-0.303-0.11-0.625-0.233-0.951-0.373l-7.04,2.898l-5.021-5.023
		l2.831-7.059c-0.134-0.302-0.266-0.623-0.404-0.988l-7.009-2.921v-7.104l7-2.992c0.116-0.312,0.249-0.647,0.401-0.992l-2.886-7.015
		l5.022-5.021l7.08,2.845c0.292-0.128,0.604-0.253,0.947-0.381L28.4,7.895h7.103l3.019,7.069c0.317,0.12,0.609,0.24,0.886,0.363
		l7.089-2.918l5.023,5.022l-2.872,7.152c0.115,0.261,0.228,0.54,0.344,0.853l7.114,2.962v7.104l-7.114,3.035
		c-0.103,0.275-0.213,0.558-0.335,0.845l2.934,7.112l-5.021,5.023l-7.144-2.861c-0.305,0.134-0.604,0.254-0.876,0.359L35.601,56.105
		z M29.818,54.105h4.449l2.77-6.658l0.408-0.151c0.432-0.16,0.995-0.376,1.524-0.629l0.396-0.189l6.723,2.693l3.146-3.146
		l-2.756-6.681l0.186-0.397c0.232-0.5,0.424-1.015,0.597-1.496l0.147-0.411l6.699-2.856v-4.45l-6.701-2.79l-0.147-0.42
		c-0.213-0.605-0.397-1.061-0.598-1.477l-0.192-0.397l2.705-6.736l-3.146-3.146l-6.677,2.749l-0.403-0.197
		c-0.442-0.215-0.922-0.413-1.509-0.622l-0.413-0.146l-2.841-6.654h-4.451l-2.767,6.63l-0.419,0.148
		c-0.625,0.221-1.128,0.424-1.582,0.639L24.569,17.5l-6.657-2.675l-3.145,3.144l2.716,6.601l-0.196,0.403
		c-0.274,0.564-0.486,1.133-0.658,1.616l-0.146,0.412l-6.587,2.816v4.45l6.587,2.745l0.149,0.414
		c0.239,0.662,0.444,1.161,0.666,1.619l0.192,0.397l-2.664,6.646l3.145,3.146l6.613-2.723l0.399,0.188
		c0.535,0.253,1.099,0.458,1.581,0.624l0.418,0.146L29.818,54.105z M31.955,41.664c-5.328,0-9.663-4.335-9.663-9.664
		c0-5.33,4.335-9.666,9.663-9.666c5.329,0,9.665,4.336,9.665,9.666C41.62,37.329,37.284,41.664,31.955,41.664z M31.955,24.334
		c-4.226,0-7.663,3.439-7.663,7.666c0,4.226,3.438,7.664,7.663,7.664c4.227,0,7.665-3.438,7.665-7.664
		C39.62,27.773,36.182,24.334,31.955,24.334z"/>
</g>
</svg>
