<?xml version="1.0" encoding="utf-8"?>
<!-- Generator: Adobe Illustrator 16.0.0, SVG Export Plug-In . SVG Version: 6.00 Build 0)  -->
<!DOCTYPE svg PUBLIC "-//W3C//DTD SVG 1.1//EN" "http://www.w3.org/Graphics/SVG/1.1/DTD/svg11.dtd">
<svg version="1.1" id="Layer_1" xmlns="http://www.w3.org/2000/svg" xmlns:xlink="http://www.w3.org/1999/xlink" x="0px" y="0px"
	 width="64px" height="64px" viewBox="0 0 64 64" enable-background="new 0 0 64 64" xml:space="preserve">
<path id="path4367" opacity="0.5" fill="#FFFFFF" d="M22,32c-9.012,0-16,6.984-16,16c0,3.005,2.992,6,6,6h20c3.007,0,6-2.995,6-6
	C38,38.984,31.013,32,22,32z"/>
<path fill="#56595D" d="M22,30C11.907,30,4,37.906,4,48c0,4.112,3.888,8,8,8h20c4.112,0,8-3.888,8-8C40,37.906,32.093,30,22,30z
	 M32,54H12c-3.008,0-6-2.995-6-6c0-9.016,6.988-16,16-16c9.013,0,16,6.984,16,16C38,51.005,35.007,54,32,54z"/>
<ellipse id="circle4369" opacity="0.5" fill="#FFFFFF" cx="22.213" cy="18.26" rx="8.164" ry="8.241"/>
<path fill="#56595D" d="M22.213,8c-5.604,0-10.163,4.603-10.163,10.26c0,5.658,4.559,10.261,10.163,10.261
	c5.604,0,10.164-4.603,10.164-10.261C32.377,12.603,27.818,8,22.213,8z M22.213,26.502c-4.508,0-8.163-3.691-8.163-8.242
	c0-4.552,3.654-8.241,8.163-8.241s8.164,3.689,8.164,8.241C30.377,22.811,26.722,26.502,22.213,26.502z"/>
<path fill="#FFFFFF" d="M9.655,49.396c1.901-11.405,14.81-17.434,12.559-17.434c-9.012,0-16.326,7.312-16.326,16.328
	C5.888,50.956,9.414,50.846,9.655,49.396z"/>
<g>
	<g>
		<path fill="#F15A2B" stroke="#F15A2B" stroke-width="2" stroke-linecap="round" d="M59,58.385C59,60.934,56.934,63,54.385,63
			h-14.77C37.066,63,35,60.934,35,58.385v-14.77C35,41.066,37.066,39,39.615,39h14.77C56.934,39,59,41.066,59,43.615V58.385z"/>
		<path opacity="0.4" fill="#FCB040" d="M58,51v-7c0-2.209-1.791-4-4-4H40c-2.209,0-4,1.791-4,4v7H58z"/>
	</g>
	<path fill="#FFFFFF" d="M42,60c0,0.553-0.447,1-1,1l0,0c-0.553,0-1-0.447-1-1V44c0-0.553,0.447-1,1-1l0,0c0.553,0,1,0.447,1,1V60z"
		/>
	<path fill="#FFFFFF" d="M48,60c0,0.553-0.447,1-1,1l0,0c-0.553,0-1-0.447-1-1V44c0-0.553,0.447-1,1-1l0,0c0.553,0,1,0.447,1,1V60z"
		/>
	<path fill="#FFFFFF" d="M54,60c0,0.553-0.447,1-1,1l0,0c-0.553,0-1-0.447-1-1V44c0-0.553,0.447-1,1-1l0,0c0.553,0,1,0.447,1,1V60z"
		/>
	<path fill="#FFFFFF" d="M43,49.5c0,1.381-0.896,2.5-2,2.5l0,0c-1.104,0-2-1.119-2-2.5l0,0c0-1.381,0.896-2.5,2-2.5l0,0
		C42.104,47,43,48.119,43,49.5L43,49.5z"/>
	<path fill="#FFFFFF" d="M55,49.5c0,1.381-0.896,2.5-2,2.5l0,0c-1.104,0-2-1.119-2-2.5l0,0c0-1.381,0.896-2.5,2-2.5l0,0
		C54.104,47,55,48.119,55,49.5L55,49.5z"/>
	<path fill="#FFFFFF" d="M49,54.5c0,1.381-0.896,2.5-2,2.5l0,0c-1.104,0-2-1.119-2-2.5l0,0c0-1.381,0.896-2.5,2-2.5l0,0
		C48.104,52,49,53.119,49,54.5L49,54.5z"/>
</g>
<path fill="#FFFFFF" d="M24.409,10.33c-0.7-0.197-1.434-0.311-2.196-0.311c-0.176,0-0.349,0.016-0.522,0.027
	c-3.31,0.212-6.077,2.413-7.153,5.432c-0.297,0.833-0.467,1.726-0.481,2.659c0.521,0.456,1.331,0.754,2.251,0.754
	c0.583,0,0.95,0,2.286-3.056c0.472-1.08,1.672-1.691,2.873-1.901c0.244-0.043,0.491-0.076,0.747-0.076
	c0.715,0,2.648-0.806,2.648-1.684C24.862,11.468,24.688,10.83,24.409,10.33z"/>
</svg>
