<?xml version="1.0" encoding="UTF-8"?>
<!DOCTYPE svg PUBLIC "-//W3C//DTD SVG 1.1//EN" "http://www.w3.org/Graphics/SVG/1.1/DTD/svg11.dtd">
<svg version="1.1" xmlns="http://www.w3.org/2000/svg" xmlns:xlink="http://www.w3.org/1999/xlink" x="0" y="0" width="64" height="64" viewBox="0, 0, 64, 64">
  <g id="Background">
    <rect x="0" y="0" width="64" height="64" fill="#000000" fill-opacity="0"/>
  </g>
  <g id="Layer_1">
    <g>
      <path d="M60.446,56.266 C60.446,58.815 58.38,60.881 55.831,60.881 L41.061,60.881 C38.512,60.881 36.446,58.815 36.446,56.266 L36.446,41.496 C36.446,38.947 38.512,36.881 41.061,36.881 L55.831,36.881 C58.38,36.881 60.446,38.947 60.446,41.496 L60.446,56.266 z" fill="#F15A2B"/>
      <path d="M60.446,56.266 C60.446,58.815 58.38,60.881 55.831,60.881 L41.061,60.881 C38.512,60.881 36.446,58.815 36.446,56.266 L36.446,41.496 C36.446,38.947 38.512,36.881 41.061,36.881 L55.831,36.881 C58.38,36.881 60.446,38.947 60.446,41.496 L60.446,56.266 z" fill-opacity="0" stroke="#F15A2B" stroke-width="2" stroke-linecap="round"/>
    </g>
    <path d="M59.446,48.881 L59.446,41.881 C59.446,39.672 57.655,37.881 55.446,37.881 L41.446,37.881 C39.237,37.881 37.446,39.672 37.446,41.881 L37.446,48.881 L59.446,48.881 z" fill="#FCB040" opacity="0.4"/>
    <path d="M34.761,25.283 C33.669,23.44 19.514,3.254 19.514,3.254 C19.514,3.254 6.338,23.44 5.222,25.283 C4.039,27.286 3.948,29.698 4.881,31.223 C5.723,32.565 8.613,34.977 9.114,35.933 C9.91,37.435 6.724,40.735 8.477,44.604 C9.478,46.811 11.572,47.813 12.96,47.79 C16.647,47.744 18.012,47.767 18.012,47.767 C18.012,47.767 18.057,49.633 17.989,50.27 C17.898,51.203 17.511,51.704 17.511,51.704 L19.764,51.704 L21.835,51.704 C21.835,51.704 21.334,51.272 21.243,50.361 C21.198,49.77 21.221,47.767 21.221,47.767 C21.221,47.767 22.95,47.79 26.614,47.835 C28.025,47.858 30.21,46.811 31.188,44.604 C32.941,40.735 29.959,37.253 30.574,35.911 C31.006,34.932 34.397,32.087 34.943,31.2 C35.785,29.88 35.967,27.263 34.761,25.26 z M18.126,43.443 C18.126,44.08 17.853,44.854 16.988,44.854 C16.26,44.854 14.075,44.854 12.846,44.831 C11.64,44.809 10.798,43.284 10.821,41.258 C10.843,39.233 12.391,37.504 11.754,35.273 C11.185,33.293 8.545,31.336 7.885,30.312 C7.248,29.288 7.225,27.854 7.589,27.058 C8.158,25.875 17.238,12.038 17.648,11.447 C18.035,10.855 18.103,11.356 18.103,12.539 C18.103,13.745 18.103,43.443 18.103,43.443 z M31.689,30.312 C31.006,31.314 28.139,33.202 27.547,35.433 C26.978,37.663 28.685,39.233 28.708,41.258 C28.731,43.284 27.82,44.809 26.591,44.831 C25.385,44.854 22.723,44.831 21.994,44.786 C21.289,44.74 21.084,43.898 21.084,43.443 C21.084,43.443 21.084,13.745 21.084,12.562 C21.084,11.378 21.061,10.878 21.448,11.469 C21.835,12.061 31.302,25.943 31.985,27.081 C32.668,28.196 32.394,29.288 31.689,30.335 z" fill="#2F3338"/>
    <path d="M52.856,45.107 Q52.856,46.241 52.627,46.848 Q52.324,47.643 51.489,48.131 Q50.957,48.355 49.925,48.812 Q49.661,48.935 49.419,49.155 Q49.103,49.379 49.059,49.643 Q48.984,49.858 48.984,50.596 L46.699,50.596 Q46.699,49.594 46.752,49.26 Q46.862,48.522 47.29,48.067 Q47.719,47.612 48.606,47.247 Q48.874,47.146 49.349,46.966 Q50.004,46.716 50.245,46.404 Q50.606,45.942 50.606,45.072 Q50.606,43.952 50.245,43.596 Q50.035,43.332 49.626,43.257 Q49.147,43.169 48.431,43.183 Q47.626,43.196 47.139,43.292 Q46.703,43.38 46.519,43.631 Q46.312,43.908 46.251,44.694 Q46.286,44.782 46.286,44.962 L46.286,45.503 L44.001,45.503 Q44.001,42.611 45.117,41.904 Q46.119,41.271 48.571,41.271 Q51.203,41.271 52.082,42.264 Q52.856,43.139 52.856,45.107 z M48.984,54.881 L46.699,54.881 L46.699,52.415 L48.984,52.415 z" fill="#FFFFFF"/>
  </g>
</svg>
