<?xml version="1.0" encoding="utf-8"?>
<!-- Generator: Adobe Illustrator 16.0.0, SVG Export Plug-In . SVG Version: 6.00 Build 0)  -->
<!DOCTYPE svg PUBLIC "-//W3C//DTD SVG 1.1//EN" "http://www.w3.org/Graphics/SVG/1.1/DTD/svg11.dtd">
<svg version="1.1" id="Layer_1" xmlns="http://www.w3.org/2000/svg" xmlns:xlink="http://www.w3.org/1999/xlink" x="0px" y="0px"
	 width="64px" height="64px" viewBox="0 0 64 64" enable-background="new 0 0 64 64" xml:space="preserve">
<path fill="#56595D" d="M36.074,49.089c0-3.371,1.52-5.219,3.077-6.824c1.3-1.341,4.037-5.288,5.78-9.5
	c0.103-0.246,0.138-0.506,0.139-0.765h-8.997c-1.704,3.094-3.29,5.425-3.919,5.97c-0.051,0.044-0.101,0.088-0.15,0.132
	c-0.052-0.046-0.105-0.093-0.158-0.139c-0.652-0.565-2.291-2.942-3.966-5.963h-8.955c0,0.258,0.036,0.518,0.137,0.763
	c1.755,4.252,4.464,7.974,5.759,9.321c1.612,1.676,3.06,3.466,3.06,6.906c0,0.016,0.008,0.519,0.015,1.01h-2.142
	c-0.826,0-1.567,0.508-1.865,1.278c-0.298,0.77-0.092,1.645,0.519,2.2l6.226,5.669c0.382,0.348,0.864,0.521,1.347,0.521
	s0.965-0.174,1.346-0.521l6.226-5.669c0.61-0.556,0.816-1.431,0.519-2.2C39.772,50.508,39.031,50,38.205,50h-2.163
	c0.002-0.207,0.003-0.398,0.004-0.576C36.064,49.315,36.074,49.203,36.074,49.089z"/>
<path fill="#FFFFFF" d="M34.074,49.089c0-4.192,1.982-6.507,3.641-8.216C38.827,39.726,41.428,36,43.084,32h-4.733
	c-1.594,3-3.745,6.492-4.888,7.482c-0.525,0.454-1.017,0.938-1.463,1.482c-0.446-0.544-0.938-1.037-1.463-1.49
	C29.381,38.474,27.198,35,25.601,32h-4.689c1.651,4,4.245,7.546,5.352,8.697c1.761,1.831,3.618,4.1,3.618,8.293
	c0-0.044,0.043,3.01,0.043,3.01h-0.743h-3.428l6.226,5.669L38.205,52H34.03C34.076,44,34.074,48.774,34.074,49.089z"/>
<path opacity="0.5" fill-rule="evenodd" clip-rule="evenodd" fill="#FFFFFF" d="M28,29c0,1.657-1.343,3-3,3H5c-1.657,0-3-1.343-3-3
	V9c0-1.657,1.343-3,3-3h20c1.657,0,3,1.343,3,3V29z"/>
<path opacity="0.5" fill-rule="evenodd" clip-rule="evenodd" fill="#FFFFFF" d="M62,29c0,1.657-1.343,3-3,3H39c-1.656,0-3-1.343-3-3
	V9c0-1.657,1.344-3,3-3h20c1.657,0,3,1.343,3,3V29z"/>
<path fill-rule="evenodd" clip-rule="evenodd" fill="#56595D" d="M25,4H5C2.243,4,0,6.243,0,9v20c0,2.757,2.243,5,5,5h20
	c2.757,0,5-2.243,5-5V9C30,6.243,27.757,4,25,4z M28,29c0,1.657-1.343,3-3,3H5c-1.657,0-3-1.343-3-3V9c0-1.657,1.343-3,3-3h20
	c1.657,0,3,1.343,3,3V29z"/>
<path fill-rule="evenodd" clip-rule="evenodd" fill="#56595D" d="M59,4H39c-2.757,0-5,2.243-5,5v20c0,2.757,2.243,5,5,5h20
	c2.757,0,5-2.243,5-5V9C64,6.243,61.757,4,59,4z M62,29c0,1.657-1.343,3-3,3H39c-1.656,0-3-1.343-3-3V9c0-1.657,1.344-3,3-3h20
	c1.657,0,3,1.343,3,3V29z"/>
<path fill-rule="evenodd" clip-rule="evenodd" fill="#56595D" d="M22.958,26.483c-1.671-4.989-3.343-9.978-5.014-14.966
	c0.269,0,0.403,0,0.67,0c2.052,4.988,4.104,9.977,6.156,14.966C24.165,26.483,23.562,26.483,22.958,26.483z M15.959,26.483
	c-0.017-0.414-0.034-0.827-0.051-1.241c-0.605,0-1.211,0-1.816,0c-0.017,0.414-0.034,0.827-0.049,1.241c-1.774,0-3.549,0-5.323,0
	c1.319-4.989,2.639-9.978,3.958-14.966c0.656,0,1.312,0,1.968,0c-0.016,0.413-0.033,0.828-0.05,1.241c0.323,0,0.485,0,0.808,0
	c-0.017-0.414-0.034-0.828-0.049-1.241c0.655,0,1.311,0,1.967,0c1.319,4.988,2.639,9.977,3.958,14.966
	C19.506,26.483,17.731,26.483,15.959,26.483z M15.48,14.618c-0.32,0-0.64,0-0.959,0c-0.047,1.151-0.093,2.302-0.14,3.453
	c0.413,0,0.826,0,1.238,0C15.572,16.919,15.526,15.769,15.48,14.618z M15.693,19.93c-0.461,0-0.925,0-1.387,0
	c-0.046,1.151-0.094,2.302-0.139,3.453c0.555,0,1.11,0,1.667,0C15.787,22.232,15.741,21.081,15.693,19.93z M5.23,26.483
	c2.052-4.989,4.104-9.978,6.156-14.966c0.267,0,0.402,0,0.67,0c-1.671,4.988-3.343,9.977-5.014,14.966
	C6.438,26.483,5.834,26.483,5.23,26.483z"/>
<g>
	<g>
		<path fill-rule="evenodd" clip-rule="evenodd" fill="#56595D" d="M40.066,27.667h4.628v-3.494h2.358v3.494h4.628V10.241H40.066
			V27.667z M48.188,11.966h2.313v3.493h-2.313V11.966z M48.188,17.774h2.313v3.494h-2.313V17.774z M44.694,11.966h2.358v3.493
			h-2.358V11.966z M44.694,17.774h2.358v3.494h-2.358V17.774z M41.244,11.966h2.316v3.493h-2.316V11.966z M41.244,17.774h2.316
			v3.494h-2.316V17.774z M52.843,16.438v11.229h5.035V16.438H52.843z"/>
	</g>
</g>
</svg>
