<?xml version="1.0" encoding="utf-8"?>
<!-- Generator: Adobe Illustrator 16.0.0, SVG Export Plug-In . SVG Version: 6.00 Build 0)  -->
<!DOCTYPE svg PUBLIC "-//W3C//DTD SVG 1.1//EN" "http://www.w3.org/Graphics/SVG/1.1/DTD/svg11.dtd">
<svg version="1.1" id="Layer_1" xmlns="http://www.w3.org/2000/svg" xmlns:xlink="http://www.w3.org/1999/xlink" x="0px" y="0px"
	 width="64px" height="64px" viewBox="0 0 64 64" enable-background="new 0 0 64 64" xml:space="preserve">
<g>
	<path opacity="0.5" fill="#FFFFFF" d="M41.454,10.433c-7.608-1.264-13.792,4.781-13.792,13.8c0,1.021,0.105,2.006,0.258,2.966
		L10.905,47.102l1.498,6.776l4.78-0.599l2.994,0.353l1.094-4.79l4.192-1.144l-0.104-4.492l5.688-2.341l1.455-5.688
		c9.293,3.218,19.18,0.26,19.496-11.841C51.65,14.402,48.816,11.653,41.454,10.433z M41.641,27.5c-1.545,0-5.151-3.294-5.151-5.098
		c0-1.805,1.249-3.267,2.794-3.267c1.544,0,5.148,3.293,5.148,5.099S43.185,27.5,41.641,27.5z"/>
	<path fill="#56595D" d="M11.623,54.983l-1.802-8.152l17.042-19.934c-0.137-0.966-0.201-1.822-0.201-2.664
		c0-8.672,5.384-14.967,12.802-14.967c0.708,0,1.433,0.061,2.153,0.181c8.156,1.351,11.028,4.846,11.381,13.85
		c-0.226,8.715-5.469,14.089-13.681,14.089l0,0c-1.986,0-4.037-0.313-6.109-0.931l-1.316,5.144l-5.517,2.271l0.105,4.588
		l-4.369,1.191l-1.161,5.082l-3.765-0.443L11.623,54.983z M11.989,47.372l1.193,5.4l3.997-0.501l2.223,0.262l1.028-4.498
		l4.016-1.096l-0.102-4.396l5.859-2.411l1.6-6.256l1.027,0.355c2.212,0.767,4.395,1.154,6.487,1.154
		c3.417,0,11.397-1.176,11.682-12.076c-0.348-8.845-3.276-10.824-9.709-11.89c-0.613-0.102-1.228-0.153-1.826-0.153
		c-6.26,0-10.802,5.454-10.802,12.967c0,0.864,0.078,1.757,0.246,2.809l0.072,0.456L11.989,47.372z M41.641,28.5
		c-2.064,0-6.151-3.706-6.151-6.098c0-2.353,1.702-4.267,3.794-4.267c2.063,0,6.148,3.706,6.148,6.099
		C45.432,26.586,43.731,28.5,41.641,28.5z M39.283,20.135c-0.989,0-1.794,1.017-1.794,2.267c0,1.215,3.137,4.098,4.151,4.098
		c0.987,0,1.791-1.017,1.791-2.267C43.432,23.018,40.297,20.135,39.283,20.135z"/>
</g>
</svg>
