<?xml version="1.0" encoding="utf-8"?>
<!-- Generator: Adobe Illustrator 16.0.0, SVG Export Plug-In . SVG Version: 6.00 Build 0)  -->
<!DOCTYPE svg PUBLIC "-//W3C//DTD SVG 1.1//EN" "http://www.w3.org/Graphics/SVG/1.1/DTD/svg11.dtd">
<svg version="1.1" id="Layer_1" xmlns="http://www.w3.org/2000/svg" xmlns:xlink="http://www.w3.org/1999/xlink" x="0px" y="0px"
	 width="64px" height="64px" viewBox="0 0 64 64" enable-background="new 0 0 64 64" xml:space="preserve">
<rect fill="#DDDDDD" width="64" height="64"/>
<path opacity="0.5" fill="#FFFFFF" d="M32,9.834C19.758,9.834,9.834,19.758,9.834,32c0,12.241,9.924,22.166,22.166,22.166
	c12.241,0,22.166-9.925,22.166-22.166C54.166,19.758,44.241,9.834,32,9.834z M32,41.325c-5.15,0-9.325-4.177-9.325-9.325
	c0-5.15,4.175-9.325,9.325-9.325c5.148,0,9.325,4.175,9.325,9.325C41.325,37.148,37.148,41.325,32,41.325z"/>
<path fill="#FFFFFF" d="M32,17.707c-7.894,0-14.293,6.399-14.293,14.293c0,7.894,6.399,14.293,14.293,14.293
	c7.894,0,14.293-6.399,14.293-14.293C46.293,24.106,39.894,17.707,32,17.707z M32,41.325c-5.15,0-9.325-4.177-9.325-9.325
	c0-5.15,4.175-9.325,9.325-9.325c5.148,0,9.325,4.175,9.325,9.325C41.325,37.148,37.148,41.325,32,41.325z"/>
<path fill="#56595D" d="M32,56.083C18.721,56.083,7.917,45.279,7.917,32C7.917,18.721,18.721,7.917,32,7.917
	c13.279,0,24.083,10.804,24.083,24.083C56.083,45.279,45.279,56.083,32,56.083z M32,9.917C19.823,9.917,9.917,19.823,9.917,32
	c0,12.178,9.906,22.083,22.083,22.083S54.083,44.178,54.083,32C54.083,19.823,44.177,9.917,32,9.917z M32,41.583
	c-5.284,0-9.583-4.299-9.583-9.583s4.299-9.583,9.583-9.583s9.583,4.299,9.583,9.583S37.284,41.583,32,41.583z M32,24.417
	c-4.181,0-7.583,3.402-7.583,7.583c0,4.182,3.402,7.583,7.583,7.583c4.182,0,7.583-3.401,7.583-7.583
	C39.583,27.819,36.182,24.417,32,24.417z"/>
<path fill="#56595D" d="M28.105,17.882c-0.339,0.406-0.944,0.461-1.35,0.122l-2.239-1.869c-0.406-0.339-0.461-0.944-0.122-1.35l0,0
	c0.339-0.406,0.944-0.461,1.35-0.122l2.239,1.869C28.39,16.872,28.444,17.476,28.105,17.882L28.105,17.882z"/>
<path fill="#56595D" d="M46.504,43.696c-0.34,0.406-0.944,0.461-1.351,0.121l-2.239-1.869c-0.406-0.34-0.461-0.943-0.121-1.35l0,0
	c0.34-0.406,0.943-0.461,1.35-0.122l2.239,1.869C46.788,42.685,46.842,43.29,46.504,43.696L46.504,43.696z"/>
<path fill="#56595D" d="M18.414,43.002c-0.506,0.155-1.042-0.13-1.196-0.637l-0.852-2.789c-0.155-0.507,0.129-1.042,0.635-1.197l0,0
	c0.507-0.153,1.042,0.131,1.197,0.637l0.853,2.789C19.206,42.312,18.919,42.848,18.414,43.002L18.414,43.002z"/>
<path fill="#56595D" d="M21.451,21.757c0.116,0.517-0.208,1.029-0.724,1.146l-2.846,0.641c-0.516,0.116-1.029-0.208-1.146-0.725l0,0
	c-0.116-0.517,0.208-1.029,0.725-1.146l2.845-0.641C20.822,20.917,21.334,21.241,21.451,21.757L21.451,21.757z"/>
<path fill="#56595D" d="M32.962,50.409c-0.388-0.361-0.41-0.967-0.051-1.355l1.984-2.138c0.359-0.389,0.967-0.412,1.354-0.052l0,0
	c0.388,0.36,0.411,0.967,0.051,1.354l-1.983,2.139C33.957,50.746,33.351,50.769,32.962,50.409L32.962,50.409z"/>
<path fill="#56595D" d="M12.545,31.263c0.066-0.526,0.544-0.898,1.069-0.833l2.895,0.362c0.525,0.066,0.898,0.544,0.832,1.07l0,0
	c-0.065,0.525-0.544,0.899-1.07,0.833l-2.894-0.363C12.852,32.267,12.479,31.788,12.545,31.263L12.545,31.263z"/>
<path fill="#56595D" d="M33.51,19.313c-0.4-0.345-0.446-0.949-0.101-1.351l1.903-2.212c0.345-0.4,0.951-0.446,1.352-0.1l0,0
	c0.4,0.346,0.446,0.95,0.101,1.352l-1.903,2.211C34.516,19.614,33.911,19.658,33.51,19.313L33.51,19.313z"/>
<path fill="#56595D" d="M48.767,28.816c-0.159,0.504-0.698,0.783-1.203,0.622l-2.78-0.884c-0.504-0.16-0.783-0.7-0.622-1.204l0,0
	c0.161-0.504,0.699-0.783,1.204-0.622l2.779,0.885C48.649,27.773,48.928,28.312,48.767,28.816L48.767,28.816z"/>
<path fill="#56595D" d="M29.303,45.788c-0.159,0.504-0.698,0.783-1.203,0.623l-2.78-0.885c-0.504-0.16-0.783-0.699-0.622-1.204l0,0
	c0.161-0.504,0.699-0.783,1.204-0.622l2.779,0.885C29.186,44.745,29.464,45.284,29.303,45.788L29.303,45.788z"/>
<path fill="#56595D" d="M43.492,22.31c-0.528-0.026-0.936-0.476-0.908-1.005l0.148-2.914c0.026-0.527,0.477-0.935,1.006-0.908l0,0
	c0.528,0.027,0.936,0.477,0.908,1.006l-0.148,2.913C44.472,21.931,44.021,22.337,43.492,22.31L43.492,22.31z"/>
<path fill="#56595D" d="M46.838,37.509c-0.418-0.322-0.498-0.923-0.175-1.343l1.779-2.314c0.322-0.417,0.924-0.496,1.344-0.174l0,0
	c0.42,0.324,0.498,0.924,0.175,1.344l-1.778,2.312C47.859,37.754,47.257,37.832,46.838,37.509L46.838,37.509z"/>
</svg>
