<?xml version="1.0" encoding="utf-8"?>
<!-- Generator: Adobe Illustrator 16.0.0, SVG Export Plug-In . SVG Version: 6.00 Build 0)  -->
<!DOCTYPE svg PUBLIC "-//W3C//DTD SVG 1.1//EN" "http://www.w3.org/Graphics/SVG/1.1/DTD/svg11.dtd">
<svg version="1.1" id="Layer_1" xmlns="http://www.w3.org/2000/svg" xmlns:xlink="http://www.w3.org/1999/xlink" x="0px" y="0px"
	 width="64px" height="64px" viewBox="0 0 64 64" enable-background="new 0 0 64 64" xml:space="preserve">
<g>
	<rect x="9" y="15" opacity="0.5" fill="#FFFFFF" width="46" height="34"/>
	<path fill="#56595D" d="M56,50H8V14h48V50z M10,48h44V16H10V48z"/>
</g>
<g>
	<rect x="17" y="25" opacity="0.5" fill="#FCB040" width="30" height="14"/>
	<path fill="#56595D" d="M48,40H16V24h32V40z M18,38h28V26H18V38z"/>
</g>
<rect x="6" y="12" fill="#F15A2B" width="6" height="6"/>
<rect x="52" y="12" fill="#F15A2B" width="6" height="6"/>
<rect x="52" y="46" fill="#F15A2B" width="6" height="6"/>
<rect x="6" y="46" fill="#F15A2B" width="6" height="6"/>
<rect x="14" y="36" fill="#F15A2B" width="6" height="6"/>
<rect x="14" y="22" fill="#F15A2B" width="6" height="6"/>
<rect x="44" y="22" fill="#F15A2B" width="6" height="6"/>
<rect x="44" y="36" fill="#F15A2B" width="6" height="6"/>
</svg>
