<?xml version="1.0" encoding="UTF-8" standalone="no"?>
<!-- Generator: Adobe Illustrator 16.0.0, SVG Export Plug-In . SVG Version: 6.00 Build 0)  -->

<svg
   xmlns:dc="http://purl.org/dc/elements/1.1/"
   xmlns:cc="http://creativecommons.org/ns#"
   xmlns:rdf="http://www.w3.org/1999/02/22-rdf-syntax-ns#"
   xmlns:svg="http://www.w3.org/2000/svg"
   xmlns="http://www.w3.org/2000/svg"
   xmlns:sodipodi="http://sodipodi.sourceforge.net/DTD/sodipodi-0.dtd"
   xmlns:inkscape="http://www.inkscape.org/namespaces/inkscape"
   version="1.1"
   id="Layer_1"
   x="0px"
   y="0px"
   width="64px"
   height="64px"
   viewBox="0 0 64 64"
   enable-background="new 0 0 64 64"
   xml:space="preserve"
   inkscape:version="0.91 r13725"
   sodipodi:docname="add-osm-tiles-layer.svg"><metadata
     id="metadata3465"><rdf:RDF><cc:Work
         rdf:about=""><dc:format>image/svg+xml</dc:format><dc:type
           rdf:resource="http://purl.org/dc/dcmitype/StillImage" /><dc:title></dc:title></cc:Work></rdf:RDF></metadata><defs
     id="defs3463" /><sodipodi:namedview
     pagecolor="#ffffff"
     bordercolor="#666666"
     borderopacity="1"
     objecttolerance="10"
     gridtolerance="10"
     guidetolerance="10"
     inkscape:pageopacity="0"
     inkscape:pageshadow="2"
     inkscape:window-width="1920"
     inkscape:window-height="1016"
     id="namedview3461"
     showgrid="false"
     inkscape:zoom="12.859375"
     inkscape:cx="32"
     inkscape:cy="32"
     inkscape:window-x="0"
     inkscape:window-y="27"
     inkscape:window-maximized="1"
     inkscape:current-layer="Layer_1" /><polygon
     opacity="0.5"
     fill="#FFFFFF"
     points="27,50 1,44.103 1,5 27,10.897 "
     id="polygon3435" /><path
     fill="#56595D"
     d="M27,51c-0.074,0-0.148-0.008-0.221-0.024l-26-5.897C0.323,44.975,0,44.569,0,44.103V5  c0-0.304,0.138-0.592,0.376-0.781c0.237-0.19,0.549-0.26,0.845-0.194l26,5.897C27.677,10.025,28,10.43,28,10.897V50  c0,0.304-0.138,0.592-0.376,0.781C27.445,50.924,27.225,51,27,51z M2,43.304l24,5.444V11.696L2,6.252V43.304z"
     id="path3437" /><polygon
     opacity="0.5"
     fill="#FFFFFF"
     points="27,50 53,44.103 53,5 27,10.897 "
     id="polygon3439" /><path
     fill="#56595D"
     d="M27,51c-0.225,0-0.445-0.076-0.624-0.219C26.138,50.592,26,50.304,26,50V10.897  c0-0.467,0.323-0.872,0.779-0.975l26-5.897c0.299-0.067,0.607,0.003,0.846,0.194C53.861,4.408,54,4.696,54,5v39.103  c0,0.467-0.323,0.872-0.778,0.976l-26,5.897C27.148,50.992,27.074,51,27,51z M28,11.696v37.052l24-5.444V6.252L28,11.696z"
     id="path3441" /><path
     fill-rule="evenodd"
     clip-rule="evenodd"
     fill="#56595D"
     d="M21.288,36.788c-1.63-5.181-3.26-10.363-4.89-15.545  c0.262,0.051,0.393,0.076,0.653,0.127c2.001,5.253,4.002,10.508,6.004,15.762C22.466,37.018,21.877,36.902,21.288,36.788z   M14.462,35.462c-0.016-0.406-0.033-0.813-0.049-1.221c-0.591-0.114-1.181-0.229-1.771-0.345c-0.017,0.401-0.033,0.803-0.048,1.201  c-1.73-0.336-3.461-0.672-5.192-1.009c1.287-4.615,2.574-9.229,3.86-13.845c0.64,0.125,1.28,0.249,1.92,0.373  c-0.016,0.4-0.033,0.801-0.049,1.202c0.315,0.061,0.474,0.092,0.789,0.153c-0.017-0.407-0.033-0.814-0.048-1.22  c0.639,0.125,1.279,0.249,1.919,0.373c1.287,5.116,2.574,10.23,3.86,15.346C17.922,36.134,16.192,35.798,14.462,35.462z   M13.996,23.8c-0.313-0.061-0.624-0.122-0.936-0.182c-0.046,1.114-0.091,2.227-0.137,3.34c0.403,0.079,0.805,0.157,1.208,0.234  C14.085,26.061,14.04,24.931,13.996,23.8z M14.204,29.02c-0.45-0.087-0.902-0.175-1.353-0.262c-0.045,1.113-0.091,2.228-0.135,3.342  c0.541,0.105,1.082,0.21,1.625,0.316C14.294,31.283,14.25,30.152,14.204,29.02z M4,33.428C6.001,28.952,8.002,24.476,10.003,20  c0.261,0.05,0.393,0.076,0.653,0.127c-1.63,4.548-3.26,9.096-4.89,13.645C5.178,33.656,4.589,33.542,4,33.428z"
     id="path3443" /><g
     id="g3445"><g
       id="g3447"><path
         fill-rule="evenodd"
         clip-rule="evenodd"
         fill="#56595D"
         d="M31,40l4.991-1.089v-4.989l2.546-0.553v4.988l4.991-1.089V12.391    L31,15.122V40z M39.762,15.673l2.495-0.543v4.987l-2.495,0.545V15.673z M39.762,23.966l2.495-0.543v4.988l-2.495,0.543V23.966z     M35.991,16.496l2.546-0.555v4.989l-2.546,0.555V16.496z M35.991,24.788l2.546-0.555v4.988l-2.546,0.556V24.788z M32.271,17.307    l2.498-0.544v4.989l-2.498,0.545V17.307z M32.271,25.6l2.498-0.546v4.989l-2.498,0.547V25.6z M44.782,20.962v16.034l5.431-1.187    v-16.03L44.782,20.962z"
         id="path3449" /></g></g><g
     id="g3451"><path
       fill="#F15A2B"
       stroke="#F15A2B"
       stroke-width="2"
       stroke-linecap="round"
       d="M63,58.385C63,60.934,60.934,63,58.385,63   h-14.77C41.066,63,39,60.934,39,58.385v-14.77C39,41.066,41.066,39,43.615,39h14.77C60.934,39,63,41.066,63,43.615V58.385z"
       id="path3453" /><path
       opacity="0.4"
       fill="#FCB040"
       d="M62,51v-7c0-2.209-1.791-4-4-4H44c-2.209,0-4,1.791-4,4v7H62z"
       id="path3455" /></g><text
     xml:space="preserve"
     style="font-style:normal;font-weight:normal;font-size:33.29687119px;line-height:125%;font-family:Sans;letter-spacing:0px;word-spacing:0px;fill:#ffffff;fill-opacity:1;stroke:none;stroke-width:1px;stroke-linecap:butt;stroke-linejoin:miter;stroke-opacity:1"
     x="37.188076"
     y="61.501892"
     id="text3467"
     sodipodi:linespacing="125%"
     transform="scale(0.99984312,1.0001569)"><tspan
       sodipodi:role="line"
       id="tspan3469"
       x="37.188076"
       y="61.501892">+</tspan></text>
</svg>