<?xml version="1.0" encoding="utf-8"?>
<!-- Generator: Adobe Illustrator 16.0.0, SVG Export Plug-In . SVG Version: 6.00 Build 0)  -->
<!DOCTYPE svg PUBLIC "-//W3C//DTD SVG 1.1//EN" "http://www.w3.org/Graphics/SVG/1.1/DTD/svg11.dtd">
<svg version="1.1" id="Layer_1" xmlns="http://www.w3.org/2000/svg" xmlns:xlink="http://www.w3.org/1999/xlink" x="0px" y="0px"
	 width="64px" height="64px" viewBox="0 0 64 64" enable-background="new 0 0 64 64" xml:space="preserve">
<path opacity="0.5" fill="#FFFFFF" d="M54,25c0,2.209-1.791,4-4,4h-4c-2.209,0-4-1.791-4-4v-4c0-2.209,1.791-4,4-4h4
	c2.209,0,4,1.791,4,4V25z"/>
<g>
	<path fill="#FFFFFF" d="M47,29v24c0,0.554,0.547,1,1,1s1-0.446,1-1V29H47z"/>
	<path fill="#FFFFFF" d="M49,17v-6c0-0.554-0.547-1-1-1s-1,0.446-1,1v6H49z"/>
</g>
<g>
	<path fill="#56595D" d="M46,17h1v-6c0-0.554,0.547-1,1-1s1,0.446,1,1v6h1c0.348,0,0.679,0.058,1,0.142V11c0-1.657-1.389-3-3-3
		s-3,1.343-3,3v6.142C45.321,17.058,45.652,17,46,17z"/>
	<path fill="#56595D" d="M50,29h-1v24c0,0.554-0.547,1-1,1s-1-0.446-1-1V29h-1c-0.348,0-0.679-0.058-1-0.142V53c0,1.656,1.389,3,3,3
		s3-1.344,3-3V28.858C50.679,28.942,50.348,29,50,29z"/>
</g>
<path fill="#56595D" d="M50,30h-4c-2.757,0-5-2.243-5-5v-4c0-2.757,2.243-5,5-5h4c2.757,0,5,2.243,5,5v4C55,27.757,52.757,30,50,30z
	 M46,18c-1.654,0-3,1.346-3,3v4c0,1.654,1.346,3,3,3h4c1.654,0,3-1.346,3-3v-4c0-1.654-1.346-3-3-3H46z"/>
<path fill="#FFFFFF" d="M53,21.083C53,22.694,51.694,24,50.084,24h-4.168C44.306,24,43,22.694,43,21.083v-0.167
	C43,19.306,44.306,18,45.916,18h4.168C51.694,18,53,19.306,53,20.917V21.083z"/>
<path opacity="0.5" fill="#FFFFFF" d="M38,39c0-2.209-1.791-4-4-4h-4c-2.209,0-4,1.791-4,4v4c0,2.209,1.791,4,4,4h4
	c2.209,0,4-1.791,4-4V39z"/>
<g>
	<path fill="#FFFFFF" d="M31,35V11c0-0.554,0.547-1,1-1s1,0.446,1,1v24H31z"/>
	<path fill="#FFFFFF" d="M33,47v6c0,0.554-0.547,1-1,1s-1-0.446-1-1v-6H33z"/>
</g>
<g>
	<path fill="#56595D" d="M30,47h1v6c0,0.554,0.547,1,1,1s1-0.446,1-1v-6h1c0.348,0,0.679-0.059,1-0.142V53c0,1.656-1.389,3-3,3
		s-3-1.344-3-3v-6.142C29.321,46.941,29.652,47,30,47z"/>
	<path fill="#56595D" d="M34,35h-1V11c0-0.554-0.547-1-1-1s-1,0.446-1,1v24h-1c-0.348,0-0.679,0.059-1,0.142V11c0-1.656,1.389-3,3-3
		s3,1.344,3,3v24.142C34.679,35.059,34.348,35,34,35z"/>
</g>
<path fill="#56595D" d="M39,39v4c0,2.757-2.243,5-5,5h-4c-2.757,0-5-2.243-5-5v-4c0-2.757,2.243-5,5-5h4C36.757,34,39,36.243,39,39z
	 M34,46c1.654,0,3-1.346,3-3v-4c0-1.654-1.346-3-3-3h-4c-1.654,0-3,1.346-3,3v4c0,1.654,1.346,3,3,3H34z"/>
<path fill="#FFFFFF" d="M37,38.916C37,37.306,35.694,36,34.084,36h-4.168C28.306,36,27,37.306,27,38.916v0.168
	C27,40.694,28.306,42,29.916,42h4.168C35.694,42,37,40.694,37,39.084V38.916z"/>
<path opacity="0.5" fill="#FFFFFF" d="M22,25c0,2.209-1.791,4-4,4h-4c-2.209,0-4-1.791-4-4v-4c0-2.209,1.791-4,4-4h4
	c2.209,0,4,1.791,4,4V25z"/>
<g>
	<path fill="#FFFFFF" d="M15,29v24c0,0.554,0.547,1,1,1s1-0.446,1-1V29H15z"/>
	<path fill="#FFFFFF" d="M17,17v-6c0-0.554-0.547-1-1-1s-1,0.446-1,1v6H17z"/>
</g>
<g>
	<path fill="#56595D" d="M14,17h1v-6c0-0.554,0.547-1,1-1s1,0.446,1,1v6h1c0.348,0,0.679,0.058,1,0.142V11c0-1.657-1.389-3-3-3
		s-3,1.343-3,3v6.142C13.321,17.058,13.652,17,14,17z"/>
	<path fill="#56595D" d="M18,29h-1v24c0,0.554-0.547,1-1,1s-1-0.446-1-1V29h-1c-0.348,0-0.679-0.058-1-0.142V53c0,1.656,1.389,3,3,3
		s3-1.344,3-3V28.858C18.679,28.942,18.348,29,18,29z"/>
</g>
<path fill="#56595D" d="M18,30h-4c-2.757,0-5-2.243-5-5v-4c0-2.757,2.243-5,5-5h4c2.757,0,5,2.243,5,5v4C23,27.757,20.757,30,18,30z
	 M14,18c-1.654,0-3,1.346-3,3v4c0,1.654,1.346,3,3,3h4c1.654,0,3-1.346,3-3v-4c0-1.654-1.346-3-3-3H14z"/>
<path fill="#FFFFFF" d="M21,21.083C21,22.694,19.694,24,18.084,24h-4.168C12.306,24,11,22.694,11,21.083v-0.167
	C11,19.306,12.306,18,13.916,18h4.168C19.694,18,21,19.306,21,20.917V21.083z"/>
</svg>
