<svg xmlns="http://www.w3.org/2000/svg" xmlns:xlink="http://www.w3.org/1999/xlink" version="1.1" id="Layer_1" x="0px" y="0px" width="100px" height="100px" viewBox="0 0 100 100" enable-background="new 0 0 100 100" xml:space="preserve">
<g id="Your_Icon">
	<g>
		<g>
			<path fill="#000000" d="M62.423,54.652l22.995-22.984c0,0,0.979-4.931-5.6-11.497c-6.554-6.567-11.479-5.577-11.479-5.577     L45.354,37.566L19.092,63.827L14.5,85.502l0.035-0.005h-0.016l21.642-4.596L62.423,54.652z M27.486,79.891     c-0.721-1.333-1.567-2.669-3.147-4.232c-1.566-1.57-2.907-2.431-4.231-3.159l1.588-7.368l2.145-2.145     c0,0,4.019,0.095,8.545,4.622c4.544,4.541,4.631,8.566,4.631,8.566l-2.144,2.122L27.486,79.891z M55.631,67.755L37.874,85.497     h47.595V67.755H55.631z"/>
		</g>
	</g>
</g>
</svg>