<?xml version="1.0" encoding="UTF-8"?>
<!DOCTYPE svg  PUBLIC '-//W3C//DTD SVG 1.1//EN'  'http://www.w3.org/Graphics/SVG/1.1/DTD/svg11.dtd'>
<svg enable-background="new 0 0 64 64" version="1.1" viewBox="0 0 64 64" xml:space="preserve" xmlns="http://www.w3.org/2000/svg">
	<polygon points="24.93 30 2.22 46 35.432 46 58.068 30" fill="#fff" opacity=".5"/>
	<path d="M59.975,29.477C59.711,28.646,58.939,28,58.068,28H24.93c-0.413,0-0.815,0.204-1.152,0.442L1.068,44.488   C0.355,44.99,0.05,45.84,0.313,46.67C0.577,47.502,1.348,48,2.22,48h33.212c0.413,0,0.816-0.051,1.154-0.29l22.637-15.984   C59.935,31.223,60.238,30.307,59.975,29.477z M35.432,46H2.22l22.71-16h33.138L35.432,46z" fill="#56595D"/>
<path d="M63,58.385C63,60.934,60.934,63,58.385,63h-14.77  C41.066,63,39,60.934,39,58.385v-14.77C39,41.066,41.066,39,43.615,39h14.77C60.934,39,63,41.066,63,43.615V58.385z" fill="#F15A2B" stroke="#F15A2B" stroke-linecap="round" stroke-width="2"/>
<path d="M62,51v-7c0-2.209-1.791-4-4-4H44c-2.209,0-4,1.791-4,4v7H62z" fill="#FCB040" opacity=".4"/>
	<polygon points="24.93 20.082 2.22 36.082 35.432 36.082 58.068 20.082" fill="#fff" opacity=".5"/>
	<path d="M59.975,19.436C59.711,18.605,58.939,18,58.068,18H24.93c-0.413,0-0.815,0.163-1.152,0.401L1.068,34.427   c-0.713,0.502-1.018,1.382-0.755,2.213C0.577,37.471,1.348,38,2.22,38h33.212c0.413,0,0.816-0.092,1.154-0.331l22.637-15.984   C59.935,21.182,60.238,20.266,59.975,19.436z M35.432,36H2.22l22.71-16h33.138L35.432,36z" fill="#56595D"/>
	<polygon points="24.93 10.041 2.22 26.041 35.432 26.041 58.068 10.041" fill="#fff" opacity=".5"/>
	<path d="M59.975,9.415C59.711,8.584,58.939,8,58.068,8H24.93c-0.413,0-0.815,0.143-1.152,0.381L1.068,24.396   c-0.713,0.502-1.018,1.397-0.755,2.229C0.577,27.456,1.348,28,2.22,28h33.212c0.413,0,0.816-0.112,1.154-0.352l22.637-15.984   C59.935,11.161,60.238,10.245,59.975,9.415z M35.432,26H2.22l22.71-16h33.138L35.432,26z" fill="#56595D"/>
<path d="m46.146 58.699c-0.269 0-0.538-0.07-0.778-0.21-0.477-0.278-0.77-0.79-0.768-1.342l0.046-11.483c2e-3 -0.553 0.299-1.062 0.778-1.337 0.238-0.136 0.503-0.203 0.769-0.203 0.269 0 0.538 0.07 0.778 0.21l9.922 5.782c0.477 0.278 0.77 0.79 0.768 1.342-2e-3 0.553-0.299 1.062-0.778 1.337l-9.968 5.701c-0.238 0.136-0.503 0.203-0.769 0.203z" fill="#fff"/>
</svg>