<?xml version="1.0" encoding="UTF-8"?>
<!DOCTYPE svg PUBLIC "-//W3C//DTD SVG 1.1//EN" "http://www.w3.org/Graphics/SVG/1.1/DTD/svg11.dtd">
<svg version="1.1" xmlns="http://www.w3.org/2000/svg" xmlns:xlink="http://www.w3.org/1999/xlink" x="0" y="0" width="64" height="64" viewBox="0, 0, 64, 64">
  <g id="Background">
    <rect x="0" y="0" width="64" height="64" fill="#000000" fill-opacity="0"/>
  </g>
  <g id="Layer_1">
    <path d="M27.677,39.004 L27.677,59.919 C27.677,60.446 27.246,60.881 26.715,60.881 C26.185,60.881 25.754,60.446 25.754,59.919 L25.754,39.004 C25.754,38.174 25.079,37.496 24.241,37.496 C23.414,37.496 22.736,38.174 22.736,39.004 C22.736,39.531 22.301,39.962 21.774,39.962 C21.244,39.962 20.813,39.531 20.813,39.004 C20.813,37.594 21.664,36.4 22.873,35.87 C20.438,32.251 19.085,28.261 18.357,24.932 L13.968,37.365 C13.965,37.372 13.951,37.379 13.947,37.382 C14.106,37.916 16.81,47.462 13.601,58.276 C13.279,59.365 12.286,60.061 11.208,60.061 C10.975,60.061 10.734,60.029 10.497,59.958 C9.176,59.57 8.419,58.177 8.812,56.856 C11.364,48.249 9.558,40.351 9.204,38.98 C6.493,33.697 5.967,28.819 7.646,24.476 C10.325,17.542 17.679,14.8 17.99,14.683 C19.28,14.209 20.726,14.881 21.192,16.174 C21.358,16.63 21.305,17.704 21.305,17.8 C21.305,17.889 21.397,27.359 26.44,34.326 C26.91,34.979 26.906,35.821 26.504,36.47 C27.21,37.096 27.677,37.987 27.677,39.004 z" fill="#000000"/>
    <path d="M27.677,9.633 C27.677,12.336 25.482,14.531 22.785,14.531 C20.078,14.531 17.88,12.336 17.88,9.633 C17.88,6.923 20.078,4.742 22.785,4.742 C25.482,4.742 27.677,6.923 27.677,9.633 z" fill="#000000"/>
    <path d="M50.387,9.535 C50.387,12.183 48.242,14.32 45.597,14.32 C42.952,14.32 40.808,12.183 40.808,9.535 C40.808,6.886 42.953,4.742 45.597,4.742 C48.242,4.742 50.387,6.886 50.387,9.535 z" fill="#000000"/>
    <path d="M56.711,32.924 C56.711,32.924 54.197,20.708 53.001,18.258 L53.001,18.25 C53.001,18.25 52.998,18.25 52.998,18.243 C51.802,15.796 50.607,14.32 46.068,14.32 L45.598,14.32 L45.127,14.32 C40.588,14.32 39.393,15.796 38.197,18.243 C38.197,18.25 38.194,18.25 38.194,18.25 L38.194,18.258 C36.999,20.708 34.484,32.924 34.484,32.924 C34.297,33.745 34.809,34.567 35.635,34.753 C35.751,34.784 35.867,34.798 35.979,34.798 C36.677,34.798 37.309,34.313 37.473,33.61 L40.872,21.526 L37.57,41.724 L40.752,41.724 L41.742,59.734 C41.742,60.366 42.258,60.881 42.878,60.881 C43.528,60.881 44.039,60.366 44.039,59.734 L45.018,41.724 L45.597,41.724 L46.176,41.724 L47.155,59.734 C47.155,60.366 47.667,60.881 48.316,60.881 C48.936,60.881 49.452,60.366 49.452,59.734 L50.442,41.724 L53.621,41.724 L50.323,21.526 L53.722,33.611 C53.886,34.314 54.518,34.799 55.217,34.799 C55.328,34.799 55.444,34.784 55.56,34.754 C56.386,34.567 56.898,33.745 56.711,32.924 z" fill="#000000"/>
  </g>
</svg>
