<?xml version="1.0" encoding="utf-8"?>
<svg version="1.1" id="Layer_1" x="0px" y="0px" width="64px" height="64px" viewBox="0 0 64 64" enable-background="new 0 0 64 64" xmlns="http://www.w3.org/2000/svg">
  <circle display="none" fill="#FFFFFF" cx="32" cy="32" r="16"/>
  <path opacity="0.5" fill="#FFFFFF" d="M55,32C55,19.318,44.683,9,32,9c-3.748,0-7.287,0.907-10.416,2.504l2.521,0.426&#10;&#9;c0.58,0.098,1.092,0.425,1.453,0.874c0.361,0.448,0.569,1.02,0.54,1.607l-0.139,2.783C27.824,16.429,29.862,16,32,16&#10;&#9;c8.822,0,16,7.178,16,16c0,4.167-1.62,7.948-4.241,10.798l-2.309-2.874l-0.449,9.02l8.905,1.505l-1.714-2.134&#10;&#9;C52.394,44.146,55,38.372,55,32z"/>
  <path opacity="0.5" fill="#FFFFFF" d="M40.895,51.069c-0.58-0.097-1.093-0.425-1.453-0.873c-0.36-0.449-0.568-1.02-0.539-1.607&#10;&#9;l0.111-2.23C36.893,47.399,34.518,48,32,48c-8.822,0-16-7.178-16-16c0-4.675,2.033-8.868,5.241-11.796l2.308,2.873l0.45-9.02&#10;&#9;l-8.905-1.505l1.748,2.176C12.041,18.945,9,25.122,9,32c0,12.683,10.318,23,23,23c4.404,0,8.522-1.246,12.022-3.402L40.895,51.069z"/>
  <path fill="#56595D" d="M50.835,48.411C54.67,44.017,57,38.277,57,32C57,18.215,45.785,7,32,7c-4.975,0-9.611,1.467-13.51,3.981&#10;&#9;l-3.29-0.556c-0.849-0.144-1.64,0.245-2.005,0.985c-0.364,0.739-0.23,1.684,0.34,2.393l0.593,0.739C9.723,19.052,7,25.213,7,32&#10;&#9;c0,13.785,11.215,25,25,25c5.567,0,10.715-1.831,14.874-4.92l2.926,0.494c0.849,0.145,1.64-0.244,2.004-0.984&#10;&#9;c0.365-0.739,0.23-1.685-0.338-2.394L50.835,48.411z M32,55C19.318,55,9,44.683,9,32c0-6.878,3.041-13.055,7.841-17.273&#10;&#9;l-1.748-2.176l8.905,1.505l-0.45,9.02l-2.308-2.873C18.033,23.132,16,27.325,16,32c0,8.822,7.178,16,16,16&#10;&#9;c2.518,0,4.893-0.601,7.014-1.642l-0.111,2.23c-0.029,0.588,0.179,1.158,0.539,1.607c0.36,0.448,0.873,0.776,1.453,0.873&#10;&#9;l3.128,0.528C40.522,53.754,36.404,55,32,55z M24.253,25.176c0.801-0.197,1.351-0.885,1.394-1.745l0.199-3.992&#10;&#9;C27.706,18.527,29.789,18,32,18c7.732,0,14,6.268,14,14c0,2.802-0.831,5.405-2.249,7.594l-0.74-0.923&#10;&#9;c-0.57-0.708-1.464-1.044-2.265-0.846c-0.801,0.195-1.351,0.885-1.394,1.744l-0.223,4.464C37.04,45.274,34.607,46,32,46&#10;&#9;c-7.732,0-14-6.268-14-14c0-3.325,1.165-6.375,3.101-8.777l0.888,1.106C22.559,25.038,23.453,25.373,24.253,25.176z M49.906,50.448&#10;&#9;l-8.905-1.505l0.449-9.02l2.309,2.874C46.38,39.948,48,36.167,48,32c0-8.822-7.178-16-16-16c-2.138,0-4.176,0.429-6.042,1.193&#10;&#9;l0.139-2.783c0.03-0.587-0.179-1.159-0.54-1.607c-0.36-0.449-0.873-0.775-1.453-0.874l-2.521-0.426C24.713,9.907,28.252,9,32,9&#10;&#9;c12.683,0,23,10.318,23,23c0,6.372-2.606,12.146-6.808,16.314L49.906,50.448z"/>
  <g transform="matrix(0.442734, 0, 0, 0.442734, 18.521425, 17.861862)">
    <path opacity="0.5" d="M41.454,10.433c-7.608-1.264-13.792,4.781-13.792,13.8c0,1.021,0.105,2.006,0.258,2.966&#10;&#9;&#9;L10.905,47.102l1.498,6.776l4.78-0.599l2.994,0.353l1.094-4.79l4.192-1.144l-0.104-4.492l5.688-2.341l1.455-5.688&#10;&#9;&#9;c9.293,3.218,19.18,0.26,19.496-11.841C51.65,14.402,48.816,11.653,41.454,10.433z M41.641,27.5c-1.545,0-5.151-3.294-5.151-5.098&#10;&#9;&#9;c0-1.805,1.249-3.267,2.794-3.267c1.544,0,5.148,3.293,5.148,5.099S43.185,27.5,41.641,27.5z" style="fill: rgba(157, 139, 109, 0); stroke-width: 0; stroke: rgb(218, 61, 0);"/>
    <path d="M11.623,54.983l-1.802-8.152l17.042-19.934c-0.137-0.966-0.201-1.822-0.201-2.664&#10;&#9;&#9;c0-8.672,5.384-14.967,12.802-14.967c0.708,0,1.433,0.061,2.153,0.181c8.156,1.351,11.028,4.846,11.381,13.85&#10;&#9;&#9;c-0.226,8.715-5.469,14.089-13.681,14.089l0,0c-1.986,0-4.037-0.313-6.109-0.931l-1.316,5.144l-5.517,2.271l0.105,4.588&#10;&#9;&#9;l-4.369,1.191l-1.161,5.082l-3.765-0.443L11.623,54.983z M11.989,47.372l1.193,5.4l3.997-0.501l2.223,0.262l1.028-4.498&#10;&#9;&#9;l4.016-1.096l-0.102-4.396l5.859-2.411l1.6-6.256l1.027,0.355c2.212,0.767,4.395,1.154,6.487,1.154&#10;&#9;&#9;c3.417,0,11.397-1.176,11.682-12.076c-0.348-8.845-3.276-10.824-9.709-11.89c-0.613-0.102-1.228-0.153-1.826-0.153&#10;&#9;&#9;c-6.26,0-10.802,5.454-10.802,12.967c0,0.864,0.078,1.757,0.246,2.809l0.072,0.456L11.989,47.372z M41.641,28.5&#10;&#9;&#9;c-2.064,0-6.151-3.706-6.151-6.098c0-2.353,1.702-4.267,3.794-4.267c2.063,0,6.148,3.706,6.148,6.099&#10;&#9;&#9;C45.432,26.586,43.731,28.5,41.641,28.5z M39.283,20.135c-0.989,0-1.794,1.017-1.794,2.267c0,1.215,3.137,4.098,4.151,4.098&#10;&#9;&#9;c0.987,0,1.791-1.017,1.791-2.267C43.432,23.018,40.297,20.135,39.283,20.135z" fill="#56595D"/>
  </g>
</svg>