<?xml version="1.0" encoding="utf-8"?>
<!-- Generator: Adobe Illustrator 16.0.0, SVG Export Plug-In . SVG Version: 6.00 Build 0)  -->
<!DOCTYPE svg PUBLIC "-//W3C//DTD SVG 1.1//EN" "http://www.w3.org/Graphics/SVG/1.1/DTD/svg11.dtd">
<svg version="1.1" id="Layer_1" xmlns="http://www.w3.org/2000/svg" xmlns:xlink="http://www.w3.org/1999/xlink" x="0px" y="0px"
	 width="64px" height="64px" viewBox="0 0 64 64" enable-background="new 0 0 64 64" xml:space="preserve">
<path fill="#F15A2B" stroke="#F15A2B" stroke-width="2" stroke-linecap="round" d="M63,58.385C63,60.934,60.934,63,58.385,63h-14.77
	C41.066,63,39,60.934,39,58.385v-14.77C39,41.066,41.066,39,43.615,39h14.77C60.934,39,63,41.066,63,43.615V58.385z"/>
<path opacity="0.4" fill="#FCB040" enable-background="new    " d="M62,51v-7c0-2.209-1.791-4-4-4H44c-2.209,0-4,1.791-4,4v7H62z"/>
<g>
	<path fill="#FFFFFF" d="M52.009,57.143c0.604,0.822,0.431,1.979-0.392,2.586l-0.129,0.095c-0.821,0.604-1.979,0.432-2.584-0.39
		l-5.25-7.113c-0.604-0.822-0.43-1.979,0.393-2.586l0.129-0.096c0.82-0.604,1.979-0.431,2.584,0.392L52.009,57.143z"/>
	<path fill="#FFFFFF" d="M52.534,60.12c-0.534,0.844-1.652,1.094-2.495,0.562l-0.203-0.13c-0.844-0.534-1.095-1.651-0.561-2.495
		l7.354-11.607c0.534-0.844,1.652-1.094,2.495-0.561l0.203,0.129c0.844,0.535,1.094,1.651,0.562,2.496L52.534,60.12z"/>
</g>
<g>
	<g>
		<g>
			<path fill="#2F3338" d="M37.432,27.108C36.068,24.836,18.945,0,18.945,0S2.445,24.836,1.084,27.108
				c-1.471,2.449-1.273,5.566-0.424,7.294c0.557,1.133,4.648,4.594,5.211,5.785c0.561,1.188-2.945,5.912-0.799,10.674
				c1.225,2.715,3.246,3.953,4.975,3.932C14.57,54.734,17,54.731,17,54.731l0,5.376h2.254H21v-5.35c0,0,1.492,0.033,6.02,0.094
				c1.727,0.021,4.604-1.246,5.824-3.961c2.148-4.76-1.23-9.498-0.67-10.689c0.561-1.188,4.873-4.656,5.432-5.791
				C38.453,32.682,38.9,29.558,37.432,27.108z"/>
			<path fill="#FFFFFF" d="M17.119,51.238c-0.127-0.012-1.309-0.102-4.211-0.102c-0.666,0-1.426,0.004-2.287,0.018
				C10.307,51.15,9,50.719,8.389,49.365c-0.834-1.854-0.104-4.012,0.484-5.746c0.543-1.598,1.104-3.254,0.291-4.98
				c-0.535-1.137-1.592-2.213-3.412-4.021c-0.625-0.623-1.545-1.537-1.883-1.953c-0.275-0.719-0.438-2.394,0.334-3.682
				C5.1,27.49,13.52,14.764,19,6.498c6.564,9.54,14.486,21.111,15.309,22.483c0.691,1.148,0.512,2.787,0.154,3.66
				c-0.35,0.418-1.293,1.322-1.936,1.938c-1.893,1.818-2.99,2.902-3.535,4.064c-0.813,1.723-0.256,3.377,0.281,4.975
				c0.584,1.738,1.313,3.9,0.475,5.76c-0.613,1.357-1.924,1.797-2.24,1.801c-1.01-0.014-1.877-0.02-2.619-0.02
				c-2.635,0-3.711,0.066-3.826,0.072l-2.203,0.146L17.119,51.238z"/>
			<rect x="17" y="5.108" fill="#2F3338" width="4" height="55"/>
		</g>
	</g>
</g>
</svg>
