<?xml version="1.0" encoding="utf-8"?>
<!-- Generator: Adobe Illustrator 16.0.0, SVG Export Plug-In . SVG Version: 6.00 Build 0)  -->
<!DOCTYPE svg PUBLIC "-//W3C//DTD SVG 1.1//EN" "http://www.w3.org/Graphics/SVG/1.1/DTD/svg11.dtd">
<svg version="1.1" id="Layer_1" xmlns="http://www.w3.org/2000/svg" xmlns:xlink="http://www.w3.org/1999/xlink" x="0px" y="0px"
	 width="64px" height="64px" viewBox="0 0 64 64" enable-background="new 0 0 64 64" xml:space="preserve">
<circle display="none" fill="#FFFFFF" cx="32" cy="32" r="16"/>
<path opacity="0.5" fill="#FFFFFF" d="M55,32C55,19.318,44.683,9,32,9c-3.748,0-7.287,0.907-10.416,2.504l2.521,0.426
	c0.58,0.098,1.092,0.425,1.453,0.874c0.361,0.448,0.569,1.02,0.54,1.607l-0.139,2.783C27.824,16.429,29.862,16,32,16
	c8.822,0,16,7.178,16,16c0,4.167-1.62,7.948-4.241,10.798l-2.309-2.874l-0.449,9.02l8.905,1.505l-1.714-2.134
	C52.394,44.146,55,38.372,55,32z"/>
<path opacity="0.5" fill="#FFFFFF" d="M40.895,51.069c-0.58-0.097-1.093-0.425-1.453-0.873c-0.36-0.449-0.568-1.02-0.539-1.607
	l0.111-2.23C36.893,47.399,34.518,48,32,48c-8.822,0-16-7.178-16-16c0-4.675,2.033-8.868,5.241-11.796l2.308,2.873l0.45-9.02
	l-8.905-1.505l1.748,2.176C12.041,18.945,9,25.122,9,32c0,12.683,10.318,23,23,23c4.404,0,8.522-1.246,12.022-3.402L40.895,51.069z"
	/>
<path fill="#56595D" d="M50.835,48.411C54.67,44.017,57,38.277,57,32C57,18.215,45.785,7,32,7c-4.975,0-9.611,1.467-13.51,3.981
	l-3.29-0.556c-0.849-0.144-1.64,0.245-2.005,0.985c-0.364,0.739-0.23,1.684,0.34,2.393l0.593,0.739C9.723,19.052,7,25.213,7,32
	c0,13.785,11.215,25,25,25c5.567,0,10.715-1.831,14.874-4.92l2.926,0.494c0.849,0.145,1.64-0.244,2.004-0.984
	c0.365-0.739,0.23-1.685-0.338-2.394L50.835,48.411z M32,55C19.318,55,9,44.683,9,32c0-6.878,3.041-13.055,7.841-17.273
	l-1.748-2.176l8.905,1.505l-0.45,9.02l-2.308-2.873C18.033,23.132,16,27.325,16,32c0,8.822,7.178,16,16,16
	c2.518,0,4.893-0.601,7.014-1.642l-0.111,2.23c-0.029,0.588,0.179,1.158,0.539,1.607c0.36,0.448,0.873,0.776,1.453,0.873
	l3.128,0.528C40.522,53.754,36.404,55,32,55z M24.253,25.176c0.801-0.197,1.351-0.885,1.394-1.745l0.199-3.992
	C27.706,18.527,29.789,18,32,18c7.732,0,14,6.268,14,14c0,2.802-0.831,5.405-2.249,7.594l-0.74-0.923
	c-0.57-0.708-1.464-1.044-2.265-0.846c-0.801,0.195-1.351,0.885-1.394,1.744l-0.223,4.464C37.04,45.274,34.607,46,32,46
	c-7.732,0-14-6.268-14-14c0-3.325,1.165-6.375,3.101-8.777l0.888,1.106C22.559,25.038,23.453,25.373,24.253,25.176z M49.906,50.448
	l-8.905-1.505l0.449-9.02l2.309,2.874C46.38,39.948,48,36.167,48,32c0-8.822-7.178-16-16-16c-2.138,0-4.176,0.429-6.042,1.193
	l0.139-2.783c0.03-0.587-0.179-1.159-0.54-1.607c-0.36-0.449-0.873-0.775-1.453-0.874l-2.521-0.426C24.713,9.907,28.252,9,32,9
	c12.683,0,23,10.318,23,23c0,6.372-2.606,12.146-6.808,16.314L49.906,50.448z"/>
<path fill="#56595D" d="M26.246,30.292l1.833,9.162l4.297-8.213L34.1,42.299l4.973-12.007l3.924,2.689l3.944,0.193
	C46.971,32.786,47,32.396,47,32c0-0.532-0.029-1.058-0.084-1.576l-3,0.15l-5.742-3.635l-2.928,6.119L33.523,22l-4.764,10.938
	l-1.207-7.742l-4.361,5.211l-6.094-0.072C17.037,30.882,17,31.437,17,32c0,0.257,0.026,0.508,0.039,0.762l6.498-0.144L26.246,30.292
	z"/>
</svg>
