<?xml version="1.0" encoding="utf-8"?>
<!-- Generator: Adobe Illustrator 16.0.0, SVG Export Plug-In . SVG Version: 6.00 Build 0)  -->
<!DOCTYPE svg PUBLIC "-//W3C//DTD SVG 1.1//EN" "http://www.w3.org/Graphics/SVG/1.1/DTD/svg11.dtd">
<svg version="1.1" id="Layer_1" xmlns="http://www.w3.org/2000/svg" xmlns:xlink="http://www.w3.org/1999/xlink" x="0px" y="0px"
	 width="64px" height="64px" viewBox="0 0 64 64" enable-background="new 0 0 64 64" xml:space="preserve">
<g>
	<g>
		<path opacity="0.5" fill="#FFFFFF" d="M12.271,56.845c-0.768,0.764-2.334,0.438-3.502-0.729l-0.383-0.384
			c-1.169-1.168-1.497-2.736-0.728-3.501l29.773-29.775c0.765-0.765,2.334-0.44,3.501,0.728l0.384,0.383
			c1.169,1.17,1.494,2.738,0.728,3.503L12.271,56.845z"/>
		<path fill="#56595D" d="M11.166,58.258c-1.061,0-2.192-0.523-3.105-1.436l-0.384-0.385c-0.9-0.899-1.437-2.061-1.436-3.106
			c0-0.723,0.247-1.348,0.711-1.81l29.771-29.773c0.462-0.462,1.089-0.707,1.812-0.707c1.046,0,2.206,0.537,3.104,1.435l0.383,0.382
			c0.703,0.703,1.187,1.558,1.362,2.408c0.205,0.988-0.025,1.903-0.634,2.511L12.978,57.552
			C12.513,58.015,11.887,58.258,11.166,58.258z M38.535,23.042c-0.126,0-0.297,0.021-0.397,0.121L8.365,52.938
			c-0.102,0.102-0.123,0.271-0.123,0.396c0,0.406,0.223,1.063,0.851,1.691l0.384,0.385c0.625,0.625,1.284,0.849,1.69,0.849
			c0.126,0,0.298-0.021,0.399-0.122l29.771-29.773c0.121-0.121,0.154-0.379,0.09-0.69c-0.097-0.466-0.395-0.976-0.817-1.399
			l-0.383-0.382C39.6,23.265,38.942,23.042,38.535,23.042z"/>
	</g>
	<g>
		<path opacity="0.5" fill="#FFFFFF" d="M41.315,23.566l-0.384-0.383c-1.167-1.168-2.736-1.492-3.501-0.728L23.622,36.265
			c0.81,0.393,1.649,0.991,2.462,1.902c0.828,0.931,1.518,1.874,2.09,2.772l13.869-13.87C42.81,26.304,42.484,24.736,41.315,23.566z
			"/>
		<path fill="#56595D" d="M28,42.528l-0.67-1.052c-0.602-0.945-1.271-1.835-1.993-2.645c-0.65-0.729-1.374-1.291-2.151-1.668
			l-1.264-0.612l14.802-14.803c0.462-0.462,1.089-0.707,1.812-0.707c1.046,0,2.206,0.537,3.104,1.435l0.383,0.382
			c0.703,0.703,1.187,1.558,1.362,2.408c0.205,0.988-0.025,1.903-0.634,2.511L28,42.528z M25.236,36.064
			c0.566,0.401,1.1,0.882,1.594,1.438c0.525,0.589,1.025,1.216,1.494,1.873l13.012-13.013c0.121-0.121,0.154-0.379,0.09-0.69
			c-0.097-0.466-0.395-0.976-0.817-1.399l-0.383-0.382c-0.626-0.626-1.283-0.85-1.69-0.85c-0.126,0-0.297,0.021-0.397,0.121
			L25.236,36.064z"/>
	</g>
	<g>
		<path fill="#56595D" d="M37.323,44.04c-0.086,0-0.173-0.007-0.261-0.02c-0.648-0.099-1.186-0.559-1.385-1.185l-3.584-11.301
			L20.749,28.08c-0.629-0.191-1.094-0.722-1.201-1.371s0.164-1.301,0.699-1.684l9.642-6.901l-0.22-11.856
			c-0.013-0.657,0.35-1.264,0.933-1.566c0.25-0.128,0.521-0.192,0.793-0.192c0.361,0,0.723,0.114,1.024,0.337l9.546,7.036
			l11.204-3.872c0.185-0.064,0.375-0.095,0.563-0.095c0.446,0,0.886,0.174,1.214,0.499c0.467,0.461,0.632,1.148,0.424,1.772
			l-3.741,11.251l7.146,9.46c0.396,0.525,0.461,1.229,0.165,1.815c-0.292,0.583-0.891,0.952-1.543,0.952
			c-0.004,0-11.871-0.082-11.871-0.082l-6.788,9.719C38.412,43.77,37.881,44.04,37.323,44.04z"/>
		<path fill="#FFFFFF" d="M49.704,21.755l4.028-12.113l-12.062,4.169L31.395,6.236L31.631,19l-10.379,7.43l12.213,3.719
			l3.858,12.166l7.308-10.465l12.767,0.09L49.704,21.755z M42.059,28.148l-3.65,5.225l-1.926-6.075l-6.097-1.856l5.182-3.709
			l-0.118-6.373l5.13,3.782l6.021-2.081l-2.011,6.047l3.842,5.085L42.059,28.148z"/>
	</g>
</g>
</svg>
