<?xml version="1.0" encoding="utf-8"?>
<!-- Generator: Adobe Illustrator 16.0.0, SVG Export Plug-In . SVG Version: 6.00 Build 0)  -->
<!DOCTYPE svg PUBLIC "-//W3C//DTD SVG 1.1//EN" "http://www.w3.org/Graphics/SVG/1.1/DTD/svg11.dtd">
<svg version="1.1" id="Layer_1" xmlns="http://www.w3.org/2000/svg" xmlns:xlink="http://www.w3.org/1999/xlink" x="0px" y="0px"
	 width="64px" height="64px" viewBox="0 0 64 64" enable-background="new 0 0 64 64" xml:space="preserve">
<g>
	<g>
		<path opacity="0.5" fill="#FFFFFF" d="M7.271,53.845c-0.768,0.764-2.334,0.438-3.502-0.729l-0.383-0.384
			c-1.169-1.168-1.497-2.736-0.728-3.501l29.773-29.775c0.765-0.765,2.334-0.44,3.501,0.728l0.384,0.383
			c1.169,1.17,1.494,2.738,0.728,3.503L7.271,53.845z"/>
		<path fill="#56595D" d="M6.166,55.258c-1.061,0-2.192-0.523-3.105-1.436l-0.384-0.385c-0.9-0.899-1.437-2.061-1.436-3.106
			c0-0.723,0.247-1.348,0.711-1.81l29.771-29.773c0.462-0.462,1.089-0.707,1.812-0.707c1.046,0,2.206,0.537,3.104,1.435l0.383,0.382
			c0.703,0.703,1.187,1.558,1.362,2.408c0.205,0.988-0.025,1.903-0.634,2.511L7.978,54.552C7.513,55.015,6.887,55.258,6.166,55.258z
			 M33.535,20.042c-0.126,0-0.297,0.021-0.397,0.121L3.365,49.938c-0.102,0.102-0.123,0.271-0.123,0.396
			c0,0.406,0.223,1.063,0.851,1.691l0.384,0.385c0.625,0.625,1.284,0.849,1.69,0.849c0.126,0,0.298-0.021,0.399-0.122l29.771-29.773
			c0.121-0.121,0.154-0.379,0.09-0.69c-0.097-0.466-0.395-0.976-0.817-1.399l-0.383-0.382C34.6,20.265,33.942,20.042,33.535,20.042z
			"/>
	</g>
	<g>
		<path opacity="0.5" fill="#FFFFFF" d="M36.315,20.566l-0.384-0.383c-1.167-1.168-2.736-1.492-3.501-0.728L18.622,33.265
			c0.81,0.393,1.649,0.991,2.461,1.902c0.829,0.931,1.519,1.874,2.09,2.772l13.869-13.87C37.81,23.304,37.484,21.736,36.315,20.566z
			"/>
		<path fill="#56595D" d="M23,39.528l-0.669-1.052c-0.601-0.945-1.272-1.835-1.993-2.645c-0.65-0.729-1.375-1.291-2.151-1.668
			l-1.264-0.612l14.802-14.803c0.462-0.462,1.089-0.707,1.812-0.707c1.046,0,2.206,0.537,3.104,1.435l0.383,0.382
			c0.703,0.703,1.187,1.558,1.362,2.408c0.205,0.988-0.025,1.903-0.634,2.511L23,39.528z M20.237,33.064
			c0.565,0.401,1.099,0.882,1.593,1.438c0.525,0.589,1.025,1.216,1.494,1.873l13.012-13.013c0.121-0.121,0.154-0.379,0.09-0.69
			c-0.097-0.466-0.395-0.976-0.817-1.399l-0.383-0.382c-0.626-0.626-1.283-0.85-1.69-0.85c-0.126,0-0.297,0.021-0.397,0.121
			L20.237,33.064z"/>
	</g>
	<g>
		<path fill="#56595D" d="M32.323,41.04c-0.086,0-0.173-0.007-0.26-0.02c-0.648-0.099-1.186-0.559-1.386-1.185l-3.583-11.301
			l-11.345-3.454c-0.629-0.191-1.094-0.723-1.201-1.371s0.164-1.301,0.699-1.684l9.642-6.901l-0.22-11.856
			c-0.012-0.657,0.35-1.264,0.933-1.566c0.25-0.128,0.521-0.192,0.793-0.192c0.361,0,0.722,0.114,1.024,0.337l9.546,7.036
			l11.204-3.872c0.185-0.064,0.375-0.095,0.563-0.095c0.446,0,0.886,0.174,1.214,0.499c0.467,0.461,0.632,1.148,0.424,1.772
			l-3.741,11.251l7.146,9.46c0.396,0.524,0.461,1.228,0.165,1.815c-0.292,0.583-0.891,0.952-1.543,0.952
			c-0.004,0-11.871-0.083-11.871-0.083l-6.788,9.719C33.412,40.77,32.881,41.04,32.323,41.04z"/>
		<path fill="#FFFFFF" d="M44.704,18.755l4.028-12.113l-12.062,4.169L26.395,3.236L26.631,16l-10.379,7.43l12.212,3.718
			l3.859,12.167l7.308-10.464l12.767,0.089L44.704,18.755z M37.059,25.148l-3.65,5.225l-1.925-6.075l-6.097-1.856l5.182-3.709
			l-0.118-6.373l5.13,3.782l6.021-2.081l-2.011,6.047l3.842,5.085L37.059,25.148z"/>
	</g>
</g>
<g>
	<path fill="#F15A2B" stroke="#F15A2B" stroke-width="2" stroke-linecap="round" d="M63,58.385C63,60.934,60.934,63,58.385,63
		h-14.77C41.066,63,39,60.934,39,58.385v-14.77C39,41.066,41.066,39,43.615,39h14.77C60.934,39,63,41.066,63,43.615V58.385z"/>
	<path opacity="0.4" fill="#FCB040" d="M62,51v-7c0-2.209-1.791-4-4-4H44c-2.209,0-4,1.791-4,4v7H62z"/>
	<path fill="#FFFFFF" d="M60.672,57.4c0.899-3.287-1.477-6.278-5.441-6.687c-0.449-0.046-0.887-0.045-1.316-0.021l-7.975-8.38
		l-3.047,0.352l0.046,2.127l-0.291,1.301l2.056,0.697l0.313,1.896l1.979,0.157l0.771,2.606l2.436,0.897
		c-1.836,3.938-0.982,8.419,4.32,9.104C58.466,61.701,59.802,60.581,60.672,57.4z M53.162,56.71
		c0.069-0.679,1.682-2.115,2.474-2.034c0.793,0.083,1.38,0.698,1.31,1.377c-0.069,0.678-1.681,2.114-2.474,2.031
		C53.679,58.002,53.092,57.387,53.162,56.71z"/>
</g>
</svg>
