<?xml version="1.0" encoding="UTF-8" standalone="no"?>
<!-- Created with Inkscape (http://www.inkscape.org/) -->

<svg
   xmlns:dc="http://purl.org/dc/elements/1.1/"
   xmlns:cc="http://creativecommons.org/ns#"
   xmlns:rdf="http://www.w3.org/1999/02/22-rdf-syntax-ns#"
   xmlns:svg="http://www.w3.org/2000/svg"
   xmlns="http://www.w3.org/2000/svg"
   xmlns:sodipodi="http://sodipodi.sourceforge.net/DTD/sodipodi-0.dtd"
   xmlns:inkscape="http://www.inkscape.org/namespaces/inkscape"
   width="24mm"
   height="24mm"
   viewBox="0 0 85.039372 85.039369"
   id="svg2"
   version="1.1"
   inkscape:version="0.91 r13725"
   sodipodi:docname="adult.svg">
  <defs
     id="defs4" />
  <sodipodi:namedview
     id="base"
     pagecolor="#ffffff"
     bordercolor="#666666"
     borderopacity="1.0"
     inkscape:pageopacity="0.0"
     inkscape:pageshadow="2"
     inkscape:zoom="8.3898874"
     inkscape:cx="39.917545"
     inkscape:cy="50.148485"
     inkscape:document-units="px"
     inkscape:current-layer="layer1"
     showgrid="false"
     units="mm"
     showborder="true"
     inkscape:window-width="1920"
     inkscape:window-height="1178"
     inkscape:window-x="1912"
     inkscape:window-y="-8"
     inkscape:window-maximized="1" />
  <metadata
     id="metadata7">
    <rdf:RDF>
      <cc:Work
         rdf:about="">
        <dc:format>image/svg+xml</dc:format>
        <dc:type
           rdf:resource="http://purl.org/dc/dcmitype/StillImage" />
        <dc:title></dc:title>
      </cc:Work>
    </rdf:RDF>
  </metadata>
  <g
     inkscape:label="Layer 1"
     inkscape:groupmode="layer"
     id="layer1"
     transform="translate(0,-967.32301)">
    <rect
       style="color:#000000;clip-rule:nonzero;display:inline;overflow:visible;visibility:visible;opacity:1;isolation:auto;mix-blend-mode:normal;color-interpolation:sRGB;color-interpolation-filters:linearRGB;solid-color:#000000;solid-opacity:1;fill:none;fill-opacity:1;fill-rule:nonzero;stroke:none;stroke-width:1;stroke-linecap:butt;stroke-linejoin:miter;stroke-miterlimit:4;stroke-dasharray:none;stroke-dashoffset:0;stroke-opacity:1;color-rendering:auto;image-rendering:auto;shape-rendering:auto;text-rendering:auto;enable-background:accumulate"
       id="rect4178"
       width="85.340836"
       height="85.340836"
       x="-0.11919111"
       y="967.37909" />
    <path
       inkscape:connector-curvature="0"
       d="m 71.833701,974.63318 c 0,3.91382 -3.173451,7.07125 -7.087265,7.07125 -3.91452,0 -7.086087,-3.15743 -7.086087,-7.07125 0,-3.91381 3.172509,-7.08208 7.086087,-7.08208 3.913342,0 7.087265,3.16827 7.087265,7.08208 z"
       id="path4140" />
    <path
       inkscape:connector-curvature="0"
       d="m 81.191284,1011.0266 c 0,0 -3.719949,-18.05138 -5.488997,-21.67192 l 0,-0.0111 c 0,0 -0.0049,0 -0.0049,-0.0111 -1.769755,-3.61513 -3.538568,-5.79593 -10.254356,-5.79593 l -0.696312,0 -0.696313,0 c -6.716259,0 -8.485072,2.1808 -10.254356,5.79593 0,0.0111 -0.0049,0.0111 -0.0049,0.0111 l 0,0.0111 c -1.768577,3.62148 -5.489468,21.67192 -5.489468,21.67192 -0.276546,1.2138 0.480776,2.4281 1.702621,2.7037 0.171723,0.045 0.342974,0.066 0.508808,0.066 1.033397,0 1.968095,-0.7173 2.210721,-1.7551 l 5.030364,-17.85611 -4.887144,29.84581 4.709532,0 1.464942,26.612 c 0,0.9338 0.762504,1.6951 1.680242,1.6951 0.962495,0 1.718404,-0.7613 1.718404,-1.6951 l 1.448688,-26.612 0.856728,0 0.856964,0 1.448217,26.612 c 0,0.9338 0.757322,1.6951 1.718638,1.6951 0.917974,0 1.680479,-0.7613 1.680479,-1.6951 l 1.465412,-26.612 4.703879,0 -4.880548,-29.84581 5.030834,17.85701 c 0.242862,1.0388 1.177089,1.7552 2.211193,1.7552 0.165363,0 0.336143,-0.021 0.508101,-0.066 1.221609,-0.2756 1.979403,-1.4906 1.702621,-2.7047 z"
       id="path4142" />
    <path
       inkscape:connector-curvature="0"
       d="m 23.828653,967.55134 c -3.988721,0 -7.227422,3.2182 -7.227422,7.1975 0,3.9793 3.238701,7.20033 7.227422,7.20033 3.975059,0 7.200569,-3.22127 7.200569,-7.20033 0,-3.9793 -3.22551,-7.1975 -7.200569,-7.1975 z"
       id="path4144" />
    <path
       inkscape:connector-curvature="0"
       d="m 31.303648,1009.9334 0.479834,-15.66072 8.808495,19.48282 c 0.364645,0.8499 1.363886,1.2655 2.221086,0.8942 0.871097,-0.3696 1.274374,-1.3547 0.909258,-2.2244 0,0 -6.202977,-19.38059 -7.975323,-22.98582 -1.773524,-3.61112 -4.505773,-5.80724 -11.23381,-5.80724 l -1.382261,0 c -6.728037,0 -9.467118,2.19541 -11.240642,5.80724 -1.761039,3.605 -7.9637797,22.98582 -7.9637797,22.98582 -0.3648809,0.8697 0.032272,1.8548 0.8965377,2.2244 0.8640306,0.3713 1.863272,-0.044 2.208366,-0.8942 l 8.820979,-19.48282 0.479834,15.66072 -1.389092,39.3744 c -0.09634,1.5598 1.075563,2.915 2.623893,3.0172 0.07703,0.013 0.147695,0.013 0.205878,0.013 1.478604,0 2.726361,-1.1375 2.842491,-2.634 l 3.194181,-32.4261 3.232105,32.4261 c 0.09022,1.4956 1.343629,2.634 2.809749,2.634 0.06972,0 0.134739,0 0.2047,-0.013 1.569295,-0.1022 2.726361,-1.4574 2.630959,-3.0172 l -1.394038,-39.3744 0.0106,0 z"
       id="path4146" />
  </g>
</svg>
