<?xml version="1.0" encoding="UTF-8" standalone="no"?>
<!-- Created with Inkscape (http://www.inkscape.org/) -->

<svg
   xmlns:dc="http://purl.org/dc/elements/1.1/"
   xmlns:cc="http://creativecommons.org/ns#"
   xmlns:rdf="http://www.w3.org/1999/02/22-rdf-syntax-ns#"
   xmlns:svg="http://www.w3.org/2000/svg"
   xmlns="http://www.w3.org/2000/svg"
   xmlns:sodipodi="http://sodipodi.sourceforge.net/DTD/sodipodi-0.dtd"
   xmlns:inkscape="http://www.inkscape.org/namespaces/inkscape"
   width="30mm"
   height="24mm"
   viewBox="0 0 106.29922 85.039369"
   id="svg2"
   version="1.1"
   inkscape:version="0.91 r13725"
   sodipodi:docname="clean_water.svg">
  <defs
     id="defs4" />
  <sodipodi:namedview
     id="base"
     pagecolor="#ffffff"
     bordercolor="#666666"
     borderopacity="1.0"
     inkscape:pageopacity="0.0"
     inkscape:pageshadow="2"
     inkscape:zoom="8.3898874"
     inkscape:cx="56.377527"
     inkscape:cy="43.997007"
     inkscape:document-units="mm"
     inkscape:current-layer="g5432"
     showgrid="false"
     units="mm"
     showborder="true"
     inkscape:window-width="1920"
     inkscape:window-height="1178"
     inkscape:window-x="1912"
     inkscape:window-y="-8"
     inkscape:window-maximized="1"
     showguides="true"
     inkscape:guide-bbox="true">
    <sodipodi:guide
       position="18.713006,34.207849"
       orientation="0,1"
       id="guide4223" />
    <sodipodi:guide
       position="53.159241,103.15991"
       orientation="1,0"
       id="guide4283" />
  </sodipodi:namedview>
  <metadata
     id="metadata7">
    <rdf:RDF>
      <cc:Work
         rdf:about="">
        <dc:format>image/svg+xml</dc:format>
        <dc:type
           rdf:resource="http://purl.org/dc/dcmitype/StillImage" />
        <dc:title></dc:title>
      </cc:Work>
    </rdf:RDF>
  </metadata>
  <g
     inkscape:label="Layer 1"
     inkscape:groupmode="layer"
     id="layer1"
     transform="translate(0,-967.32301)"
     sodipodi:insensitive="true">
    <rect
       style="color:#000000;clip-rule:nonzero;display:inline;overflow:visible;visibility:visible;opacity:1;isolation:auto;mix-blend-mode:normal;color-interpolation:sRGB;color-interpolation-filters:linearRGB;solid-color:#000000;solid-opacity:1;fill:none;fill-opacity:1;fill-rule:nonzero;stroke:none;stroke-width:1;stroke-linecap:butt;stroke-linejoin:miter;stroke-miterlimit:4;stroke-dasharray:none;stroke-dashoffset:0;stroke-opacity:1;color-rendering:auto;image-rendering:auto;shape-rendering:auto;text-rendering:auto;enable-background:accumulate"
       id="rect4178"
       width="85.340836"
       height="85.340836"
       x="-0.11919111"
       y="967.37909" />
  </g>
  <g
     inkscape:groupmode="layer"
     id="layer2"
     inkscape:label="img">
    <g
       id="g4259"
       transform="matrix(0.80109719,0,0,0.80109719,24.652999,5.1052129)">
      <g
         id="g5432"
         transform="matrix(0.99880985,0,0,0.99880985,-2.0781679,1.3124868)">
        <g
           id="g5787"
           transform="matrix(0.830834,0,0,0.83083406,-170.01349,-138.51689)">
          <path
             id="path5775"
             d="m 242.741,246.652 c 0.993,1.97 5.442,12.338 5.442,13.824 0,8.127 -10.867,8.127 -10.867,0 -0.001,-1.486 4.437,-12.353 5.425,-13.824 z"
             inkscape:connector-curvature="0" />
          <path
             id="path5777"
             d="m 249.165,242.057 c 0,-1.128 0,-3 0,-6.266 0,-3.988 -3.613,-7.417 -8.393,-7.417 0,0 -0.027,0 -11.171,0 l -0.06,-3.472 c 0,-1.015 -0.819,-1.823 -1.823,-1.823 l -4.368,0 0,-2.235 c 0.375,-0.233 0.689,-0.504 0.955,-0.863 1.313,0 3.966,0 9.31,0 0.613,0.809 1.541,1.356 2.621,1.356 1.855,0 3.364,-1.508 3.364,-3.369 0,-1.833 -1.509,-3.347 -3.364,-3.347 -1.118,0 -2.051,0.575 -2.664,1.422 -1.476,0 -4.221,0 -9.223,0 -0.613,-0.847 -1.546,-1.422 -2.664,-1.422 -1.118,0 -2.056,0.575 -2.669,1.422 -2.848,0 -6.233,0 -10.178,0 -0.608,-0.847 -1.557,-1.422 -2.658,-1.422 -1.862,0 -3.375,1.514 -3.375,3.348 0,1.861 1.514,3.369 3.375,3.369 1.08,0 2.002,-0.548 2.615,-1.356 1.682,0 4.736,0 10.27,0 0.26,0.363 0.585,0.639 0.965,0.868 l 0,2.23 -4.639,0 c -0.998,0 -1.817,0.808 -1.817,1.823 l 0,3.472 c -1.134,0 -4.4,0 -13.574,0 l 0,10.862 c 0.326,0 2.528,0 15.099,0 1.481,2.973 3.456,4.443 6.429,4.443 2.951,0 5.42,-1.471 6.906,-4.443 0,0 0,0 5.42,0 1.628,0 2.225,1.047 2.398,3.049 -0.472,0.32 -0.808,0.841 -0.808,1.47 0,1.009 0.819,1.801 1.823,1.801 l 11.274,0 c 1.009,0 1.817,-0.792 1.817,-1.801 0,-0.793 -0.499,-1.444 -1.193,-1.699 z"
             inkscape:connector-curvature="0" />
          <path
             id="path5779"
             d="m 250.841,273.454 c -0.157,0.775 -0.146,1.589 0.087,2.37 0.195,0.732 0.586,1.416 1.123,1.986 1.823,1.845 4.802,1.888 6.668,0.092 l 9.239,-9.012 1.188,1.216 -9.251,9.012 c -2.522,2.452 -6.575,2.393 -9.055,-0.125 -0.857,-0.879 -1.334,-1.975 -1.595,-3.125 l -19.335,0 c -2.626,0 -4.764,2.132 -4.764,4.747 0,2.637 2.138,4.764 4.764,4.764 l 33.501,0 c 1.091,0 2.089,-0.429 2.914,-1.091 l 21.804,-16.504 11.871,0 0,-16.173 -0.098,0 0,-0.157 -27.501,0 -20.242,19.721 c -0.645,0.619 -1.096,1.4 -1.318,2.279 z"
             inkscape:connector-curvature="0" />
        </g>
      </g>
    </g>
  </g>
</svg>
