<svg xmlns="http://www.w3.org/2000/svg" xmlns:xlink="http://www.w3.org/1999/xlink" version="1.1" x="0px" y="0px" viewBox="0 0 100.001 94.961" enable-background="new 0 0 100.001 94.961" xml:space="preserve"><path d="M46.704,7.505c0.798,4.876-2.501,9.475-7.372,10.278c-4.883,0.798-9.487-2.501-10.285-7.378  c-0.798-4.883,2.501-9.487,7.384-10.285C41.301-0.683,45.918,2.622,46.704,7.505z"></path><path d="M43.912,42.976l7.916,12.654c1.124,1.776,3.456,2.351,5.269,1.287c1.813-1.07,2.441-3.384,1.427-5.228l-2.007-3.638  c-1.74-3.106-3.444-6.224-5.172-9.342l-3.542-6.412c-0.398-0.731-0.797-1.565-1.22-2.447c-2.176-4.562-5.572-11.608-13.004-10.961  c-6.357,0.55-12.811,3.571-19.167,8.974C6.87,33.803,1.613,42.419,1.395,42.788c-0.242,0.393-0.471,0.768-0.665,1.13  c-0.012,0.018-0.024,0.03-0.036,0.042v0.006c-0.701,1.329-1.052,2.544-0.169,4.084c0.689,1.221,1.982,1.977,3.384,1.977  c1.692,0,2.562-0.798,3.396-2.019l0,0c0.012-0.006,0.012-0.018,0.024-0.03c0.229-0.344,0.459-0.725,0.713-1.118  c0.048-0.078,4.459-7.154,11.288-12.979c2.103-1.65,4.109-2.786,5.994-3.414l-1.522,18.418c-0.145,1.825-0.725,4.967-1.221,6.726  l-3.42,12.001c-0.447,1.517-1.74,4.03-2.743,5.264L7.172,84.338C6,85.794,4.67,87.444,5.77,89.728  c0.641,1.348,2.006,2.206,3.505,2.206c1.789,0,2.755-1.033,3.976-2.345l9.366-10.104c1.668-1.801,3.843-4.937,4.919-7.148  l4.653-9.457l17.186,28.885c0.846,1.426,1.91,3.196,4.242,3.196l0,0c1.33,0,2.562-0.683,3.275-1.795  c1.221-1.897,0.411-3.649-0.302-5.196L42.691,57.781c-0.544-1.185-0.846-3.602-0.617-4.889L43.912,42.976z"></path><polygon points="58.48,74.41 79.305,74.41 79.305,80.598 100.001,68.645 79.305,56.693 79.305,62.88 58.48,62.88 "></polygon></svg>