<?xml version="1.0" encoding="UTF-8" standalone="no"?>
<!-- Created with Inkscape (http://www.inkscape.org/) -->

<svg
   xmlns:dc="http://purl.org/dc/elements/1.1/"
   xmlns:cc="http://creativecommons.org/ns#"
   xmlns:rdf="http://www.w3.org/1999/02/22-rdf-syntax-ns#"
   xmlns:svg="http://www.w3.org/2000/svg"
   xmlns="http://www.w3.org/2000/svg"
   xmlns:sodipodi="http://sodipodi.sourceforge.net/DTD/sodipodi-0.dtd"
   xmlns:inkscape="http://www.inkscape.org/namespaces/inkscape"
   width="24mm"
   height="24mm"
   viewBox="0 0 85.039372 85.039369"
   id="svg2"
   version="1.1"
   inkscape:version="0.91 r13725"
   sodipodi:docname="elderly.svg">
  <defs
     id="defs4" />
  <sodipodi:namedview
     id="base"
     pagecolor="#ffffff"
     bordercolor="#666666"
     borderopacity="1.0"
     inkscape:pageopacity="0.0"
     inkscape:pageshadow="2"
     inkscape:zoom="5.9325463"
     inkscape:cx="-0.59464836"
     inkscape:cy="3.9871787"
     inkscape:document-units="mm"
     inkscape:current-layer="g5432"
     showgrid="false"
     units="mm"
     showborder="true"
     inkscape:window-width="1920"
     inkscape:window-height="1178"
     inkscape:window-x="1912"
     inkscape:window-y="-8"
     inkscape:window-maximized="1"
     showguides="true"
     inkscape:guide-bbox="true">
    <sodipodi:guide
       position="-15.777924,33.671489"
       orientation="0,1"
       id="guide4223" />
    <sodipodi:guide
       position="42.491633,87.486277"
       orientation="1,0"
       id="guide4283" />
  </sodipodi:namedview>
  <metadata
     id="metadata7">
    <rdf:RDF>
      <cc:Work
         rdf:about="">
        <dc:format>image/svg+xml</dc:format>
        <dc:type
           rdf:resource="http://purl.org/dc/dcmitype/StillImage" />
        <dc:title></dc:title>
      </cc:Work>
    </rdf:RDF>
  </metadata>
  <g
     inkscape:label="Layer 1"
     inkscape:groupmode="layer"
     id="layer1"
     transform="translate(0,-967.32301)"
     sodipodi:insensitive="true">
    <rect
       style="color:#000000;clip-rule:nonzero;display:inline;overflow:visible;visibility:visible;opacity:1;isolation:auto;mix-blend-mode:normal;color-interpolation:sRGB;color-interpolation-filters:linearRGB;solid-color:#000000;solid-opacity:1;fill:none;fill-opacity:1;fill-rule:nonzero;stroke:none;stroke-width:1;stroke-linecap:butt;stroke-linejoin:miter;stroke-miterlimit:4;stroke-dasharray:none;stroke-dashoffset:0;stroke-opacity:1;color-rendering:auto;image-rendering:auto;shape-rendering:auto;text-rendering:auto;enable-background:accumulate"
       id="rect4178"
       width="85.340836"
       height="85.340836"
       x="-0.11919111"
       y="967.37909" />
  </g>
  <g
     inkscape:groupmode="layer"
     id="layer2"
     inkscape:label="img">
    <g
       id="g4259"
       transform="matrix(0.80109719,0,0,0.80109719,24.652999,5.1052129)">
      <g
         id="g5432"
         transform="matrix(0.99880985,0,0,0.99880985,-2.0781679,1.3124868)">
        <g
           id="g5436"
           transform="translate(2.9398213,0.08459715)">
          <path
             sodipodi:nodetypes="ssssssssscccccsccccccsccs"
             inkscape:connector-curvature="0"
             d="m 38.668,59.7 0,37.030104 c 0,0.97 -0.794,1.771 -1.771,1.771 -0.977,0 -1.771,-0.801 -1.771,-1.771 L 35.126,59.7 c 0,-1.529 -1.244,-2.779 -2.787,-2.779 -1.523,0 -2.773,1.25 -2.773,2.779 0,0.971 -0.801,1.765 -1.771,1.765 -0.977,0 -1.771,-0.794 -1.771,-1.765 0,-2.598 1.568,-4.798 3.795,-5.774 -4.485,-6.667 -6.979,-14.017 -8.32,-20.15 L 13.415,56.68 c -0.006,0.013 -0.032,0.026 -0.039,0.032 0.293,0.983 5.273,18.568 -0.638,38.49 -0.593,2.005 -2.422,3.287 -4.408,3.287 C 7.9,98.489 7.457,98.43 7.021,98.301 4.586,97.585 3.193,95.02 3.916,92.585 8.617,76.731 5.29,62.181 4.639,59.655 -0.355,49.922 -1.324,40.937 1.768,32.936 6.703,20.163 20.251,15.111 20.824,14.896 c 2.376,-0.873 5.039,0.364 5.898,2.747 0.306,0.84 0.208,2.819 0.208,2.995 0,0.163 0.17,17.61 9.46,30.443 0.866,1.204 0.859,2.754 0.117,3.951 1.302,1.153 2.161,2.793 2.161,4.668 z"
             id="path5422" />
          <path
             inkscape:connector-curvature="0"
             d="m 42.94,9.01 c 0,4.98 -4.043,9.023 -9.011,9.023 -4.987,0 -9.036,-4.043 -9.036,-9.023 0,-4.993 4.049,-9.01 9.036,-9.01 4.968,0 9.011,4.017 9.011,9.01 z"
             id="path5424" />
        </g>
      </g>
    </g>
  </g>
</svg>
