<?xml version="1.0" encoding="UTF-8" standalone="no"?>
<!-- Created with Inkscape (http://www.inkscape.org/) -->

<svg
   xmlns:dc="http://purl.org/dc/elements/1.1/"
   xmlns:cc="http://creativecommons.org/ns#"
   xmlns:rdf="http://www.w3.org/1999/02/22-rdf-syntax-ns#"
   xmlns:svg="http://www.w3.org/2000/svg"
   xmlns="http://www.w3.org/2000/svg"
   xmlns:sodipodi="http://sodipodi.sourceforge.net/DTD/sodipodi-0.dtd"
   xmlns:inkscape="http://www.inkscape.org/namespaces/inkscape"
   width="24mm"
   height="24mm"
   viewBox="0 0 85.039372 85.039369"
   id="svg2"
   version="1.1"
   inkscape:version="0.91 r13725"
   sodipodi:docname="people.svg">
  <defs
     id="defs4" />
  <sodipodi:namedview
     id="base"
     pagecolor="#ffffff"
     bordercolor="#666666"
     borderopacity="1.0"
     inkscape:pageopacity="0.0"
     inkscape:pageshadow="2"
     inkscape:zoom="8.3898874"
     inkscape:cx="36.198452"
     inkscape:cy="39.780141"
     inkscape:document-units="mm"
     inkscape:current-layer="g5432"
     showgrid="false"
     units="mm"
     showborder="true"
     inkscape:window-width="1920"
     inkscape:window-height="1178"
     inkscape:window-x="1912"
     inkscape:window-y="-8"
     inkscape:window-maximized="1"
     showguides="true"
     inkscape:guide-bbox="true">
    <sodipodi:guide
       position="-15.777924,33.671489"
       orientation="0,1"
       id="guide4223" />
    <sodipodi:guide
       position="42.491633,87.486277"
       orientation="1,0"
       id="guide4283" />
  </sodipodi:namedview>
  <metadata
     id="metadata7">
    <rdf:RDF>
      <cc:Work
         rdf:about="">
        <dc:format>image/svg+xml</dc:format>
        <dc:type
           rdf:resource="http://purl.org/dc/dcmitype/StillImage" />
        <dc:title></dc:title>
      </cc:Work>
    </rdf:RDF>
  </metadata>
  <g
     inkscape:label="Layer 1"
     inkscape:groupmode="layer"
     id="layer1"
     transform="translate(0,-967.32301)"
     sodipodi:insensitive="true">
    <rect
       style="color:#000000;clip-rule:nonzero;display:inline;overflow:visible;visibility:visible;opacity:1;isolation:auto;mix-blend-mode:normal;color-interpolation:sRGB;color-interpolation-filters:linearRGB;solid-color:#000000;solid-opacity:1;fill:none;fill-opacity:1;fill-rule:nonzero;stroke:none;stroke-width:1;stroke-linecap:butt;stroke-linejoin:miter;stroke-miterlimit:4;stroke-dasharray:none;stroke-dashoffset:0;stroke-opacity:1;color-rendering:auto;image-rendering:auto;shape-rendering:auto;text-rendering:auto;enable-background:accumulate"
       id="rect4178"
       width="85.340836"
       height="85.340836"
       x="-0.11919111"
       y="967.37909" />
  </g>
  <g
     inkscape:groupmode="layer"
     id="layer2"
     inkscape:label="img">
    <g
       id="g4259"
       transform="matrix(0.80109719,0,0,0.80109719,24.652999,5.1052129)">
      <g
         id="g5432"
         transform="matrix(0.99880985,0,0,0.99880985,-2.0781679,1.3124868)">
        <g
           id="g5460"
           transform="matrix(1.0503079,0,0,1.0503079,-237.98236,-209.34357)">
          <path
             id="path5442"
             d="m 227.714,214.171 c 0,4.046 -3.294,7.328 -7.344,7.328 -4.056,0 -7.344,-3.281 -7.344,-7.328 0,-4.05 3.288,-7.331 7.344,-7.331 4.049,0 7.344,3.281 7.344,7.331 z"
             inkscape:connector-curvature="0" />
          <path
             id="path5444"
             d="m 221.138,264.397 1.589,27.064 c 0,0.938 0.768,1.719 1.712,1.719 0.951,0 1.726,-0.781 1.726,-1.719 l 1.465,-27.064 4.785,0 -4.941,-30.339 9.961,19.837 c 0.364,0.873 1.374,1.289 2.252,0.918 0.873,-0.371 1.289,-1.373 0.918,-2.259 0,0 -7.298,-19.74 -9.108,-23.419 -1.803,-3.682 -3.574,-5.918 -10.43,-5.918 l -1.4,0 c -6.836,0 -8.626,2.236 -10.423,5.918 -1.797,3.679 -9.102,23.419 -9.102,23.419 -0.377,0.886 0.033,1.888 0.898,2.259 0.879,0.371 1.888,-0.045 2.266,-0.918 l 9.961,-19.837 -4.954,30.339 4.779,0 1.484,27.064 c 0,0.938 0.775,1.719 1.712,1.719 0.97,0 1.738,-0.781 1.738,-1.719 l 1.478,-27.064 1.634,0 z"
             inkscape:connector-curvature="0" />
          <path
             id="path5446"
             d="m 279.63,206.82 c -4.057,0 -7.351,3.278 -7.351,7.331 0,4.053 3.294,7.334 7.351,7.334 4.043,0 7.324,-3.281 7.324,-7.334 0,-4.053 -3.281,-7.331 -7.324,-7.331 z"
             inkscape:connector-curvature="0" />
          <path
             id="path5448"
             d="m 287.233,249.988 0.488,-15.951 8.959,19.844 c 0.371,0.866 1.387,1.289 2.259,0.911 0.886,-0.377 1.296,-1.38 0.925,-2.266 0,0 -6.309,-19.74 -8.112,-23.412 -1.804,-3.678 -4.583,-5.915 -11.426,-5.915 l -1.406,0 c -6.843,0 -9.629,2.236 -11.433,5.915 -1.791,3.672 -8.1,23.412 -8.1,23.412 -0.371,0.886 0.033,1.889 0.912,2.266 0.879,0.378 1.895,-0.045 2.246,-0.911 l 8.972,-19.844 0.488,15.951 -1.413,40.105 c -0.098,1.589 1.094,2.969 2.669,3.073 0.078,0.013 0.15,0.013 0.209,0.013 1.504,0 2.773,-1.159 2.891,-2.683 l 3.249,-33.028 3.287,33.028 c 0.092,1.523 1.367,2.683 2.858,2.683 0.071,0 0.137,0 0.208,-0.013 1.596,-0.104 2.773,-1.484 2.676,-3.073 l -1.418,-40.105 0.012,0 z"
             inkscape:connector-curvature="0" />
          <path
             id="path5450"
             d="m 249.993,251.407 c -2.494,0 -4.512,2.006 -4.512,4.493 0,2.486 2.018,4.492 4.512,4.492 2.487,0 4.506,-2.006 4.506,-4.492 0,-2.487 -2.019,-4.493 -4.506,-4.493 z"
             inkscape:connector-curvature="0" />
          <path
             id="path5452"
             d="m 249.993,277.906 c 0,0 2.024,14.075 2.024,14.089 0.28,0.689 0.925,1.185 1.713,1.185 0.808,0 1.484,-0.54 1.731,-1.276 0.014,-0.039 0.059,-0.872 0.014,-1.009 l -0.834,-17.299 0.268,-5.938 c 0.234,-2.019 0.279,-1.413 2.571,-2.787 2.351,-1.406 6.335,-7.591 6.53,-7.891 0.195,-0.312 0.553,-0.853 0.625,-1.197 0.117,-0.625 -0.287,-1.218 -0.905,-1.342 -0.469,-0.078 -0.866,0.17 -1.165,0.495 -0.307,0.332 -4.896,6.445 -8.34,7.031 -0.775,-0.11 -1.608,-0.521 -3.803,-0.521 l -0.866,0 c -2.181,0 -3.015,0.41 -3.796,0.521 -3.444,-0.586 -8.034,-6.699 -8.353,-7.031 -0.293,-0.325 -0.677,-0.573 -1.152,-0.495 -0.619,0.124 -1.029,0.717 -0.905,1.342 0.065,0.345 0.43,0.885 0.625,1.197 0.202,0.3 4.193,6.484 6.53,7.891 2.298,1.374 2.351,0.769 2.572,2.787 l 0.261,5.938 -0.827,17.299 c -0.045,0.137 0,0.97 0.033,1.009 0.241,0.736 0.905,1.276 1.719,1.276 0.775,0 1.439,-0.495 1.699,-1.185 0,-0.013 2.031,-14.089 2.031,-14.089"
             inkscape:connector-curvature="0" />
        </g>
      </g>
    </g>
  </g>
</svg>
