<?xml version="1.0" encoding="utf-8"?>
<svg viewBox="204 122 92 182" xmlns="http://www.w3.org/2000/svg">
  <path d="M 274.342 215.104 C 269.44 215.104 265.475 219.062 265.475 223.945 C 265.475 228.841 269.44 232.799 274.342 232.799 C 279.219 232.799 283.184 228.841 283.184 223.945 C 283.184 219.062 279.219 215.104 274.342 215.104 Z"/>
  <path d="M 290.357 265.521 C 289.355 265.951 288.189 265.457 287.759 264.466 L 283.633 247.24 L 283.066 265.547 L 283.052 265.547 L 284.693 295.82 C 284.797 297.643 283.438 299.218 281.621 299.348 C 281.536 299.362 281.458 299.362 281.373 299.362 C 279.654 299.362 278.189 298.034 278.092 296.289 L 274.322 267.722 L 270.586 296.289 C 270.449 298.034 268.997 299.362 267.272 299.362 C 267.201 299.362 267.123 299.362 267.032 299.348 C 265.221 299.218 263.848 297.643 263.966 295.82 L 265.58 265.547 L 265.025 247.24 C 265.025 247.24 254.029 258.321 253.345 258.62 C 252.148 259.128 250.767 258.567 250.253 257.37 L 241.32 237.93 L 248.091 270.769 L 241.556 270.769 L 239.537 297.644 C 239.537 298.933 238.476 300 237.193 300 C 235.865 300 234.823 298.933 234.823 297.644 L 232.811 270.769 L 231.626 270.769 L 230.435 270.769 L 228.423 297.644 C 228.423 298.933 227.375 300 226.053 300 C 224.764 300 223.709 298.933 223.709 297.644 L 221.684 270.769 L 215.156 270.769 L 221.92 237.93 L 212.994 257.37 C 212.486 258.567 211.093 259.128 209.895 258.62 C 208.71 258.112 208.15 256.731 208.671 255.52 C 208.671 255.52 213.977 236.224 216.431 231.197 C 218.879 226.177 221.327 223.124 230.663 223.124 L 231.626 223.124 L 232.583 223.124 C 241.913 223.124 244.367 226.177 246.815 231.197 C 248.612 234.869 251.906 246.132 253.56 251.94 C 255.937 248.697 259.16 244.127 260.391 241.575 C 262.46 237.33 265.663 234.778 273.529 234.778 L 275.13 234.778 C 283.001 234.778 286.185 237.33 288.268 241.575 C 290.339 245.794 291.413 262.916 291.413 262.916 C 291.849 263.945 291.367 265.091 290.357 265.521 Z"/>
  <path d="M 246.673 216.432 C 246.673 218.971 244.525 221.029 241.855 221.029 C 239.993 221.029 238.431 219.994 237.63 218.516 C 235.807 220.014 233.574 221.029 231.035 221.029 C 228.483 221.029 226.256 220.013 224.433 218.516 C 223.632 219.994 222.063 221.029 220.208 221.029 C 217.539 221.029 215.39 218.971 215.39 216.432 C 215.39 213.9 217.538 211.836 220.208 211.836 C 220.41 211.836 220.592 211.927 220.794 211.953 C 220.722 211.465 220.501 211.029 220.501 210.514 C 220.501 204.707 225.214 200 231.035 200 C 236.849 200 241.556 204.707 241.556 210.514 C 241.556 211.029 241.341 211.465 241.269 211.953 C 241.464 211.927 241.646 211.836 241.855 211.836 C 244.524 211.836 246.673 213.9 246.673 216.432 Z"/>
</svg>