<?xml version="1.0" encoding="UTF-8"?>
<!DOCTYPE svg PUBLIC "-//W3C//DTD SVG 1.1//EN" "http://www.w3.org/Graphics/SVG/1.1/DTD/svg11.dtd">
<svg version="1.1" xmlns="http://www.w3.org/2000/svg" xmlns:xlink="http://www.w3.org/1999/xlink" x="0px" y="0px" width="64" height="64" viewBox="0, 0, 64, 64">
  <g id="base0">
    <g>
      <path d="M19.372,2.913 L6.349,28.088 C2.058,35.492 1.769,38.606 6.216,44.195 C7.518,45.831 6.216,55.909 6.216,55.909 L13.483,56.177 C13.483,56.177 16.411,57.641 19.34,57.641 C22.268,57.641 25.197,56.177 25.197,56.177 L32.572,55.909 C32.572,55.909 31.314,45.815 32.572,44.195 C36.911,38.606 36.965,35.409 32.572,28.088 L19.372,2.913" fill="#FCB040"/>
      <path d="M19.372,2.913 L6.349,28.088 C2.058,35.492 1.769,38.606 6.216,44.195 C7.518,45.831 6.216,55.909 6.216,55.909 L13.483,56.177 C13.483,56.177 16.411,57.641 19.34,57.641 C22.268,57.641 25.197,56.177 25.197,56.177 L32.572,55.909 C32.572,55.909 31.314,45.815 32.572,44.195 C36.911,38.606 36.965,35.409 32.572,28.088 L19.372,2.913" fill-opacity="0" stroke="#F15A2B" stroke-width="12" stroke-linecap="round"/>
    </g>
  </g>
  <g id="base1">
    <g>
      <path d="M19.485,2.779 L6.461,27.954 C2.171,35.358 1.882,38.472 6.328,44.061 C7.63,45.698 6.328,55.775 6.328,55.775 L13.595,56.043 C13.595,56.043 16.524,57.507 19.452,57.507 C22.381,57.507 25.309,56.043 25.309,56.043 L32.685,55.775 C32.685,55.775 31.427,45.681 32.685,44.061 C37.023,38.472 37.077,35.276 32.685,27.954 L19.485,2.779" fill="#FCB040"/>
      <path d="M19.485,2.779 L6.461,27.954 C2.171,35.358 1.882,38.472 6.328,44.061 C7.63,45.698 6.328,55.775 6.328,55.775 L13.595,56.043 C13.595,56.043 16.524,57.507 19.452,57.507 C22.381,57.507 25.309,56.043 25.309,56.043 L32.685,55.775 C32.685,55.775 31.427,45.681 32.685,44.061 C37.023,38.472 37.077,35.276 32.685,27.954 L19.485,2.779" fill-opacity="0" stroke="#F15A2B" stroke-width="12" stroke-opacity="0.5" stroke-linecap="round"/>
    </g>
    <path d="M19.507,3.331 L19.507,62.094" fill-opacity="0" stroke="#F1592A" stroke-width="7" stroke-linecap="round" stroke-miterlimit="10"/>
  </g>
  <g id="action">
    <g>
      <path d="M45.644,8.167 C38.489,8.167 32.685,26.054 32.685,48.102 C32.685,55.461 34.617,61.414 37.004,61.414 L54.283,61.414 C56.671,61.414 58.603,55.461 58.603,48.102 C58.603,26.054 52.798,8.167 45.644,8.167 z" fill="#FFFFFF" fill-opacity="0.665"/>
      <path d="M45.644,8.167 C38.489,8.167 32.685,26.054 32.685,48.102 C32.685,55.461 34.617,61.414 37.004,61.414 L54.283,61.414 C56.671,61.414 58.603,55.461 58.603,48.102 C58.603,26.054 52.798,8.167 45.644,8.167 z" fill-opacity="0" stroke="#000000" stroke-width="1"/>
    </g>
  </g>
  <defs/>
</svg>
