<?xml version="1.0" encoding="UTF-8" standalone="no"?>
<!-- Generator: Adobe Illustrator 15.0.0, SVG Export Plug-In . SVG Version: 6.00 Build 0)  -->

<svg
   xmlns:dc="http://purl.org/dc/elements/1.1/"
   xmlns:cc="http://creativecommons.org/ns#"
   xmlns:rdf="http://www.w3.org/1999/02/22-rdf-syntax-ns#"
   xmlns:svg="http://www.w3.org/2000/svg"
   xmlns="http://www.w3.org/2000/svg"
   xmlns:xlink="http://www.w3.org/1999/xlink"
   xmlns:sodipodi="http://sodipodi.sourceforge.net/DTD/sodipodi-0.dtd"
   xmlns:inkscape="http://www.inkscape.org/namespaces/inkscape"
   version="1.1"
   id="Layer_1"
   x="0px"
   y="0px"
   width="64"
   height="64"
   viewBox="0 0 64 64"
   enable-background="new 0 0 567 567"
   xml:space="preserve"
   inkscape:version="0.48.3.1 r9886"
   sodipodi:docname="show-impact-functions.svg"
   inkscape:export-filename="/home/timlinux/dev/python/inasafe-dev/safe_qgis/resources/img/icon.png"
   inkscape:export-xdpi="90"
   inkscape:export-ydpi="90"><metadata
   id="metadata16"><rdf:RDF><cc:Work
       rdf:about=""><dc:format>image/svg+xml</dc:format><dc:type
         rdf:resource="http://purl.org/dc/dcmitype/StillImage" /><dc:title></dc:title></cc:Work></rdf:RDF></metadata><defs
   id="defs14"><filter
   id="filter2992"
   inkscape:label="Drop Shadow"
   color-interpolation-filters="sRGB"><feFlood
     id="feFlood2994"
     flood-opacity="0.5"
     flood-color="rgb(0,0,0)"
     result="flood" /><feComposite
     id="feComposite2996"
     in2="SourceGraphic"
     in="flood"
     operator="in"
     result="composite1" /><feGaussianBlur
     id="feGaussianBlur2998"
     stdDeviation="2"
     result="blur" /><feOffset
     id="feOffset3000"
     dx="4"
     dy="4"
     result="offset" /><feComposite
     id="feComposite3002"
     in2="offset"
     in="SourceGraphic"
     operator="over"
     result="composite2" /></filter><filter
   color-interpolation-filters="sRGB"
   id="filter2992-6"
   inkscape:label="Drop Shadow"
   style="color-interpolation-filters:sRGB;"><feFlood
     id="feFlood2994-6"
     flood-opacity="0.5"
     flood-color="rgb(0,0,0)"
     result="flood" /><feComposite
     id="feComposite2996-1"
     in2="SourceGraphic"
     in="flood"
     operator="in"
     result="composite1" /><feGaussianBlur
     id="feGaussianBlur2998-2"
     stdDeviation="2"
     result="blur" /><feOffset
     id="feOffset3000-4"
     dx="4"
     dy="4"
     result="offset" /><feComposite
     id="feComposite3002-7"
     in2="offset"
     in="SourceGraphic"
     operator="over"
     result="fbSourceGraphic" /><feColorMatrix
     result="fbSourceGraphicAlpha"
     in="fbSourceGraphic"
     values="0 0 0 -1 0 0 0 0 -1 0 0 0 0 -1 0 0 0 0 1 0"
     id="feColorMatrix4040" /><feFlood
     id="feFlood4042"
     flood-opacity="0.5"
     flood-color="rgb(0,0,0)"
     result="flood"
     in="fbSourceGraphic" /><feComposite
     id="feComposite4044"
     in2="fbSourceGraphic"
     in="flood"
     operator="in"
     result="composite1" /><feGaussianBlur
     id="feGaussianBlur4046"
     in="composite"
     stdDeviation="2"
     result="blur" /><feOffset
     id="feOffset4048"
     dx="10"
     dy="10"
     result="offset" /><feComposite
     id="feComposite4050"
     in2="offset"
     in="fbSourceGraphic"
     operator="over"
     result="composite2" /></filter><filter
   color-interpolation-filters="sRGB"
   id="filter2992-5"
   inkscape:label="Drop Shadow"><feFlood
     id="feFlood2994-8"
     flood-opacity="0.5"
     flood-color="rgb(0,0,0)"
     result="flood" /><feComposite
     id="feComposite2996-8"
     in2="SourceGraphic"
     in="flood"
     operator="in"
     result="composite1" /><feGaussianBlur
     id="feGaussianBlur2998-5"
     stdDeviation="2"
     result="blur" /><feOffset
     id="feOffset3000-0"
     dx="4"
     dy="4"
     result="offset" /><feComposite
     id="feComposite3002-0"
     in2="offset"
     in="SourceGraphic"
     operator="over"
     result="composite2" /></filter><linearGradient
   inkscape:collect="always"
   xlink:href="#linearGradient3786-3"
   id="linearGradient3792-9"
   x1="299.62643"
   y1="77.762421"
   x2="294.99335"
   y2="261.76202"
   gradientUnits="userSpaceOnUse" /><linearGradient
   inkscape:collect="always"
   id="linearGradient3786-3"><stop
     style="stop-color:#f15a2b;stop-opacity:1;"
     offset="0"
     id="stop3788-7" /><stop
     style="stop-color:#f15a2b;stop-opacity:0;"
     offset="1"
     id="stop3790-0" /></linearGradient>
	

		
		
		
		
		
		
		
		
	</defs><sodipodi:namedview
   pagecolor="#ffffff"
   bordercolor="#666666"
   borderopacity="1"
   objecttolerance="10"
   gridtolerance="10"
   guidetolerance="10"
   inkscape:pageopacity="0"
   inkscape:pageshadow="2"
   inkscape:window-width="1170"
   inkscape:window-height="727"
   id="namedview12"
   showgrid="false"
   inkscape:zoom="3.6049335"
   inkscape:cx="46.657115"
   inkscape:cy="22.256241"
   inkscape:window-x="2307"
   inkscape:window-y="10"
   inkscape:window-maximized="0"
   inkscape:current-layer="layer4" />


<g
   inkscape:groupmode="layer"
   id="layer1"
   inkscape:label="base0"
   style="display:inline"
   transform="translate(0,-503)"><g
     style="filter:url(#filter2992-6)"
     transform="matrix(0.16269334,0,0,0.16269334,-3.1526669,489.88814)"
     id="g3780"><path
       style="fill:#fcb040;stroke:#f15a2b;stroke-width:12;stroke-linecap:round"
       inkscape:connector-curvature="0"
       id="path3782"
       d="m 138.45005,98.497098 -80.049,154.739992 c -26.372,45.508 -28.15,64.647 -0.818,99 8.002,10.058 0,72 0,72 l 44.667,1.647 c 0,0 18,9 36,9 18,0 36,-9 36,-9 l 45.332,-1.647 c 0,0 -7.729,-62.042 0,-72 26.668,-34.353 27,-54 0,-99 l -81.132,-154.739992" /></g><g
     inkscape:groupmode="layer"
     id="layer3"
     inkscape:label="Layer#2"
     style="display:none" /></g><g
   inkscape:groupmode="layer"
   id="layer2"
   inkscape:label="base1"
   transform="translate(0,-503)"
   style="display:inline"><g
     id="g6"
     transform="matrix(0.16269334,0,0,0.16269334,-28.699027,493.22916)"
     style="filter:url(#filter2992-5)"><path
       d="m 296.164,77.14 -80.049,154.74 c -26.372,45.508 -28.15,64.647 -0.818,99 8.002,10.058 0,72 0,72 l 44.667,1.647 c 0,0 18,9 36,9 18,0 36,-9 36,-9 l 45.332,-1.647 c 0,0 -7.729,-62.042 0,-72 26.668,-34.353 27,-54 0,-99 L 296.164,77.14"
       id="path8"
       inkscape:connector-curvature="0"
       style="fill:#fcb040;stroke:url(#linearGradient3792-9);stroke-width:12;stroke-linecap:round" /><line
       stroke-miterlimit="10"
       x1="296.297"
       y1="80.528"
       x2="296.297"
       y2="441.72198"
       id="line10"
       style="fill:none;stroke:#f1592a;stroke-width:7;stroke-linecap:round;stroke-miterlimit:10" /></g></g><g
   inkscape:groupmode="layer"
   id="layer4"
   inkscape:label="action"
   transform="translate(0,-503)"
   style="display:inline"><g
     id="Layer_1-6"
     transform="translate(83.308351,512.77734)">
</g><g
     id="g4590"
     transform="matrix(1.1126928,0,0,1.1126928,23.945258,529.59457)"
     style="fill:#ffffff;fill-opacity:0.66515838999999999;stroke:#000000;stroke-opacity:0.80542988"><g
       id="Layer_1-4"
       style="fill:#ffffff;fill-opacity:0.66515838999999999;stroke:#000000;stroke-opacity:0.80542988">
</g><g
       id="list"
       style="fill:#ffffff;fill-opacity:0.66515838999999999;stroke:#000000;stroke-opacity:0.80542988">
	<g
   id="g4566"
   style="fill:#ffffff;fill-opacity:0.66515838999999999;stroke:#000000;stroke-opacity:0.80542988">
		<circle
   id="circle4568"
   r="2"
   cy="2"
   cx="2"
   style="fill:#ffffff;fill-opacity:0.66515838999999999;stroke:#000000;stroke-opacity:0.80542988"
   sodipodi:cx="2"
   sodipodi:cy="2"
   sodipodi:rx="2"
   sodipodi:ry="2"
   d="M 4,2 C 4,3.1045695 3.1045695,4 2,4 0.8954305,4 0,3.1045695 0,2 0,0.8954305 0.8954305,0 2,0 3.1045695,0 4,0.8954305 4,2 z" />
		<circle
   id="circle4570"
   r="2"
   cy="10"
   cx="2"
   style="fill:#ffffff;fill-opacity:0.66515838999999999;stroke:#000000;stroke-opacity:0.80542988"
   sodipodi:cx="2"
   sodipodi:cy="10"
   sodipodi:rx="2"
   sodipodi:ry="2"
   d="M 4,10 C 4,11.104569 3.1045695,12 2,12 0.8954305,12 0,11.104569 0,10 0,8.8954305 0.8954305,8 2,8 3.1045695,8 4,8.8954305 4,10 z" />
		<circle
   id="circle4572"
   r="2"
   cy="18"
   cx="2"
   style="fill:#ffffff;fill-opacity:0.66515838999999999;stroke:#000000;stroke-opacity:0.80542988"
   sodipodi:cx="2"
   sodipodi:cy="18"
   sodipodi:rx="2"
   sodipodi:ry="2"
   d="m 4,18 c 0,1.104569 -0.8954305,2 -2,2 -1.1045695,0 -2,-0.895431 -2,-2 0,-1.104569 0.8954305,-2 2,-2 1.1045695,0 2,0.895431 2,2 z" />
		<circle
   id="circle4574"
   r="2"
   cy="26"
   cx="2"
   style="fill:#ffffff;fill-opacity:0.66515838999999999;stroke:#000000;stroke-opacity:0.80542988"
   sodipodi:cx="2"
   sodipodi:cy="26"
   sodipodi:rx="2"
   sodipodi:ry="2"
   d="m 4,26 c 0,1.104569 -0.8954305,2 -2,2 -1.1045695,0 -2,-0.895431 -2,-2 0,-1.104569 0.8954305,-2 2,-2 1.1045695,0 2,0.895431 2,2 z" />
		<rect
   id="rect4576"
   height="4"
   width="24"
   style="fill:#ffffff;fill-opacity:0.66515838999999999;stroke:#000000;stroke-opacity:0.80542988"
   x="8"
   y="0" />
		<rect
   id="rect4578"
   height="4"
   width="24"
   style="fill:#ffffff;fill-opacity:0.66515838999999999;stroke:#000000;stroke-opacity:0.80542988"
   y="8"
   x="8" />
		<rect
   id="rect4580"
   height="4"
   width="24"
   style="fill:#ffffff;fill-opacity:0.66515838999999999;stroke:#000000;stroke-opacity:0.80542988"
   y="16"
   x="8" />
		<rect
   id="rect4582"
   height="4"
   width="24"
   style="fill:#ffffff;fill-opacity:0.66515838999999999;stroke:#000000;stroke-opacity:0.80542988"
   y="24"
   x="8" />
	</g>
</g></g></g></svg>