<svg xmlns="http://www.w3.org/2000/svg" xmlns:xlink="http://www.w3.org/1999/xlink" version="1.1" x="0px" y="0px" viewBox="0 0 38.871 100" enable-background="new 0 0 38.871 100" xml:space="preserve"><path d="M27.782,8.353c0,4.616-3.737,8.34-8.347,8.34s-8.346-3.724-8.346-8.34C11.089,3.737,14.826,0,19.435,0  S27.782,3.737,27.782,8.353z"></path><path d="M38.803,51.276c0,0-4.381-21.29-6.465-25.56v-0.013c0,0-0.006,0-0.006-0.013c-2.084-4.264-4.167-6.836-12.077-6.836h-0.82  h-0.82c-7.91,0-9.993,2.572-12.077,6.836c0,0.013-0.006,0.013-0.006,0.013v0.013c-2.083,4.271-6.465,25.56-6.465,25.56  c-0.326,1.432,0.566,2.864,2.005,3.189c0.202,0.053,0.404,0.078,0.599,0.078c1.217,0,2.318-0.846,2.604-2.07L11.2,31.413  L5.444,66.614h5.547l1.725,31.387c0,1.101,0.898,1.999,1.979,1.999c1.133,0,2.024-0.898,2.024-1.999l1.706-31.387h1.009h1.009  l1.706,31.387c0,1.101,0.892,1.999,2.024,1.999c1.081,0,1.979-0.898,1.979-1.999l1.726-31.387h5.54L27.67,31.413l5.925,21.061  c0.286,1.225,1.387,2.07,2.604,2.07c0.195,0,0.396-0.025,0.599-0.078C38.237,54.141,39.129,52.708,38.803,51.276z"></path></svg>