<?xml version="1.0" encoding="utf-8"?>
<!-- Generator: Adobe Illustrator 16.0.0, SVG Export Plug-In . SVG Version: 6.00 Build 0)  -->
<!DOCTYPE svg PUBLIC "-//W3C//DTD SVG 1.1//EN" "http://www.w3.org/Graphics/SVG/1.1/DTD/svg11.dtd">
<svg version="1.1" id="Layer_1" xmlns="http://www.w3.org/2000/svg" xmlns:xlink="http://www.w3.org/1999/xlink" x="0px" y="0px"
	viewBox="-40 -50 600 430" enable-background="new 9 7 506.5 359.998" xml:space="preserve">
<path d="M375.462,37.125c0,16.615-13.471,30.019-30.087,30.019c-16.617,0-30.082-13.404-30.082-30.019
	c0-16.615,13.469-30.065,30.082-30.065S375.462,20.51,375.462,37.125z"/>
<path d="M415.187,191.623c0,0-15.791-76.632-23.302-92.002v-0.047c0,0-0.021,0-0.021-0.047
	c-7.513-15.347-15.021-24.605-43.532-24.605h-2.956h-2.955c-28.512,0-36.021,9.258-43.533,24.605c0,0.047-0.021,0.047-0.021,0.047
	v0.047c-7.508,15.374-23.303,92.002-23.303,92.002c-1.175,5.153,2.04,10.308,7.228,11.478c0.729,0.191,1.456,0.281,2.16,0.281
	c4.386,0,8.354-3.045,9.384-7.451l21.356-75.803L294.944,246.83h19.994l6.218,112.974c0,3.964,3.237,7.196,7.133,7.196
	c4.086,0,7.296-3.232,7.296-7.196l6.149-112.974h3.637h3.638l6.148,112.974c0,3.964,3.216,7.196,7.296,7.196
	c3.897,0,7.134-3.232,7.134-7.196l6.221-112.974h19.969l-20.718-126.702l21.356,75.807c1.031,4.41,4.998,7.451,9.387,7.451
	c0.702,0,1.427-0.09,2.158-0.281C413.146,201.935,416.362,196.777,415.187,191.623z"/>
<path d="M171.671,7.061c-16.933,0-30.682,13.662-30.682,30.555c0,16.893,13.749,30.567,30.682,30.567
	c16.875,0,30.568-13.675,30.568-30.567C202.239,20.723,188.546,7.061,171.671,7.061z"/>
<path d="M203.404,186.982l2.037-66.483l37.394,82.709c1.548,3.608,5.79,5.372,9.429,3.796c3.698-1.569,5.409-5.751,3.86-9.443
	c0,0-26.333-82.275-33.857-97.58c-7.529-15.33-19.128-24.653-47.69-24.653h-5.868c-28.562,0-40.19,9.32-47.719,24.653
	c-7.476,15.304-33.808,97.58-33.808,97.58c-1.549,3.692,0.137,7.874,3.806,9.443c3.668,1.576,7.91-0.188,9.375-3.796l37.447-82.709
	l2.037,66.483l-5.897,167.153c-0.409,6.622,4.566,12.375,11.139,12.809c0.327,0.053,0.627,0.053,0.874,0.053
	c6.277,0,11.574-4.829,12.067-11.182l13.56-137.656l13.721,137.656c0.383,6.349,5.704,11.182,11.928,11.182
	c0.296,0,0.572,0,0.869-0.053c6.662-0.434,11.574-6.187,11.169-12.809l-5.918-167.153H203.404z"/>
</svg>
