<?xml version="1.0" encoding="utf-8"?>
<svg viewBox="80 65 340 369" xmlns="http://www.w3.org/2000/svg">
  <path d="M 374.465 100.095 C 374.465 116.71 360.993 130.114 344.378 130.114 C 327.76 130.114 314.296 116.71 314.296 100.095 C 314.296 83.48 327.764 70.03 344.378 70.03 C 360.991 70.03 374.465 83.48 374.465 100.095 Z"/>
  <path d="M 414.19 254.593 C 414.19 254.593 398.398 177.961 390.888 162.591 L 390.888 162.544 C 390.888 162.544 390.867 162.544 390.867 162.497 C 383.354 147.15 375.845 137.892 347.335 137.892 L 344.379 137.892 L 341.423 137.892 C 312.911 137.892 305.402 147.15 297.891 162.497 C 297.891 162.544 297.87 162.544 297.87 162.544 L 297.87 162.591 C 290.362 177.965 274.566 254.593 274.566 254.593 C 273.392 259.746 276.607 264.901 281.794 266.071 C 282.523 266.262 283.25 266.352 283.954 266.352 C 288.341 266.352 292.309 263.307 293.339 258.901 L 314.694 183.098 L 293.947 309.8 L 313.94 309.8 L 320.159 422.774 C 320.159 426.738 323.396 429.97 327.292 429.97 C 331.378 429.97 334.587 426.738 334.587 422.774 L 340.737 309.8 L 344.374 309.8 L 348.012 309.8 L 354.16 422.774 C 354.16 426.738 357.375 429.97 361.456 429.97 C 365.353 429.97 368.59 426.738 368.59 422.774 L 374.811 309.8 L 394.78 309.8 L 374.061 183.098 L 395.418 258.905 C 396.449 263.315 400.415 266.356 404.805 266.356 C 405.507 266.356 406.232 266.266 406.962 266.075 C 412.148 264.905 415.365 259.747 414.19 254.593 Z"/>
  <path d="M 170.673 70.031 C 153.74 70.031 139.991 83.693 139.991 100.586 C 139.991 117.479 153.74 131.153 170.673 131.153 C 187.548 131.153 201.241 117.478 201.241 100.586 C 201.241 83.693 187.548 70.031 170.673 70.031 Z"/>
  <path d="M 202.406 249.952 L 204.443 183.469 L 241.837 266.178 C 243.385 269.786 247.627 271.55 251.266 269.974 C 254.964 268.405 256.676 264.223 255.126 260.531 C 255.126 260.531 228.793 178.256 221.269 162.951 C 213.74 147.621 202.141 138.298 173.579 138.298 L 167.711 138.298 C 139.149 138.298 127.521 147.618 119.992 162.951 C 112.516 178.255 86.184 260.531 86.184 260.531 C 84.635 264.223 86.321 268.405 89.99 269.974 C 93.658 271.55 97.9 269.786 99.365 266.178 L 136.812 183.469 L 138.849 249.952 L 132.952 417.105 C 132.543 423.727 137.518 429.48 144.091 429.914 C 144.418 429.967 144.718 429.967 144.965 429.967 C 151.242 429.967 156.539 425.138 157.032 418.785 L 170.592 281.129 L 184.313 418.785 C 184.696 425.134 190.017 429.967 196.241 429.967 C 196.537 429.967 196.813 429.967 197.11 429.914 C 203.772 429.48 208.684 423.727 208.279 417.105 L 202.361 249.952 L 202.406 249.952 Z"/>
</svg>