<?xml version="1.0" encoding="UTF-8" standalone="no"?>
<!-- Created with Inkscape (http://www.inkscape.org/) -->

<svg
   xmlns:dc="http://purl.org/dc/elements/1.1/"
   xmlns:cc="http://creativecommons.org/ns#"
   xmlns:rdf="http://www.w3.org/1999/02/22-rdf-syntax-ns#"
   xmlns:svg="http://www.w3.org/2000/svg"
   xmlns="http://www.w3.org/2000/svg"
   version="1.1"
   width="256"
   height="256"
   id="svg5628">
  <defs
     id="defs5630" />
  <metadata
     id="metadata5633">
    <rdf:RDF>
      <cc:Work
         rdf:about="">
        <dc:format>image/svg+xml</dc:format>
        <dc:type
           rdf:resource="http://purl.org/dc/dcmitype/StillImage" />
        <dc:title></dc:title>
      </cc:Work>
    </rdf:RDF>
  </metadata>
  <g
     transform="translate(0,-796.36218)"
     id="layer1">
    <g
       transform="matrix(0.57406902,0,0,-0.57406902,-18.961669,1052.9536)"
       id="g4069">
      <path
         d="m 424.5,283 q -9.5,0 -16.5,-7 -7,-7 -7,-16.5 0,-9.5 7,-16.5 7,-7 16.5,-7 9.5,0 16.5,7 7,7 7,16.5 0,9.5 -7,16.5 -7,7 -16.5,7 z m -337,0 q -9.5,0 -16.5,-7 -7,-7 -7,-16.5 0,-9.5 7,-16.5 7,-7 16.5,-7 9.5,0 16.5,7 7,7 7,16.5 0,9.5 -7,16.5 -7,7 -16.5,7 z M 354,325 q -14,0 -24,-10 -10,-10 -10,-26 0,-14 10,-24 10,-10 24,-10 15,0 25.5,10 10.5,10 10.5,24 0,16 -10.5,26 Q 369,325 354,325 z M 463,112 h -38 v 75 q 0,16 -11,34 2,0 5,1 3,1 6,1 15,0 26.5,-12 Q 463,199 463,182 V 112 z M 158,325 q -15,0 -25.5,-10 -10.5,-10 -10.5,-26 0,-14 10.5,-24 10.5,-10 25.5,-10 14,0 24,10 10,10 10,24 0,16 -10,26 -10,10 -24,10 z M 87,223 q 3,0 6,-1 3,-1 5,-1 Q 87,203 87,187 V 112 H 49 v 70 q 0,17 11.5,29 11.5,12 26.5,12 z m 169,173 q -21,0 -36,-15.5 -15,-15.5 -15,-38.5 0,-20 15,-35.5 15,-15.5 36,-15.5 21,0 36,15.5 15,15.5 15,35.5 0,23 -15,38.5 Q 277,396 256,396 z M 412,84 h -62 v 113 q 0,22 -11,43 2,0 7.5,1 5.5,1 7.5,1 24,0 41,-16.5 Q 412,209 412,187 V 84 z M 162,197 V 84 h -62 v 103 q 0,22 17,38.5 17,16.5 41,16.5 2,0 7.5,-1 5.5,-1 7.5,-1 -11,-21 -11,-43 z M 175,52 h 162 v 145 q 0,34 -23.5,57.5 Q 290,278 256,278 222,278 198.5,254.5 175,231 175,197 V 52 z"
         id="path4071"
         style="fill:currentColor" />
    </g>
  </g>
</svg>
