<?xml version="1.0" standalone="no"?>
<!DOCTYPE svg PUBLIC "-//W3C//DTD SVG 20010904//EN"
 "http://www.w3.org/TR/2001/REC-SVG-20010904/DTD/svg10.dtd">
<svg version="1.0" xmlns="http://www.w3.org/2000/svg"
 width="1200.000000pt" height="1200.000000pt" viewBox="0 0 1200.000000 1200.000000"
 preserveAspectRatio="xMidYMid meet">
<metadata>
Created by potrace 1.14, written by Peter Selinger 2001-2017
</metadata>
<g transform="translate(0.000000,1200.000000) scale(0.100000,-0.100000)"
fill="#000000" stroke="none">
<path d="M5834 11986 c-303 -58 -549 -228 -700 -485 -159 -272 -177 -634 -45
-917 103 -219 261 -380 476 -484 159 -78 238 -95 435 -95 142 0 177 3 250 23
393 107 676 423 740 825 17 102 8 288 -19 389 -77 295 -273 532 -550 665 -163
77 -416 112 -587 79z"/>
<path d="M5715 9734 c-488 -37 -739 -127 -952 -342 -138 -140 -302 -423 -388
-672 -93 -268 -255 -882 -414 -1570 -74 -319 -237 -1063 -276 -1260 -32 -160
-4 -264 95 -353 61 -55 127 -79 216 -78 108 1 215 63 268 155 14 24 167 552
377 1298 194 691 355 1256 356 1254 3 -3 -661 -4083 -672 -4133 l-5 -23 330 0
c256 0 332 -3 335 -12 2 -7 49 -854 105 -1883 55 -1029 105 -1894 111 -1923
44 -220 345 -260 444 -58 l26 53 104 1909 c57 1050 104 1910 105 1912 0 1 54
2 120 2 66 0 120 -1 120 -2 0 -2 47 -864 105 -1915 103 -1893 104 -1913 128
-1960 27 -54 89 -107 145 -123 119 -33 242 27 290 140 11 27 38 459 118 1909
57 1031 104 1890 106 1910 l3 36 331 5 330 5 -337 2065 c-186 1136 -337 2071
-336 2078 1 7 159 -546 351 -1230 191 -684 359 -1266 372 -1295 87 -184 341
-234 494 -96 67 60 102 129 107 213 4 53 -7 120 -60 370 -266 1240 -499 2186
-642 2600 -49 144 -159 365 -244 493 -206 307 -472 453 -921 507 -86 11 -652
21 -745 14z m-265 -3030 c201 -47 378 -199 496 -426 25 -49 51 -88 59 -88 7 0
35 40 61 90 94 177 219 308 361 376 425 205 842 -119 782 -606 -59 -491 -491
-993 -1112 -1296 -99 -48 -88 -49 -213 14 -193 98 -398 238 -564 385 -264 235
-458 549 -511 829 -17 91 -14 251 6 328 76 291 350 462 635 394z"/>
</g>
</svg>
