<?xml version="1.0" encoding="UTF-8" standalone="no"?>
<svg
   xmlns:dc="http://purl.org/dc/elements/1.1/"
   xmlns:cc="http://creativecommons.org/ns#"
   xmlns:rdf="http://www.w3.org/1999/02/22-rdf-syntax-ns#"
   xmlns:svg="http://www.w3.org/2000/svg"
   xmlns="http://www.w3.org/2000/svg"
   id="svg4136"
   xml:space="preserve"
   enable-background="new 0 0 38.871 100"
   viewBox="0 0 38.871 100"
   y="0px"
   x="0px"
   version="1.1"><metadata
     id="metadata4146"><rdf:RDF><cc:Work
         rdf:about=""><dc:format>image/svg+xml</dc:format><dc:type
           rdf:resource="http://purl.org/dc/dcmitype/StillImage" /><dc:title></dc:title></cc:Work></rdf:RDF></metadata><defs
     id="defs4144" /><path
     id="path4138"
     d="M27.782,8.353c0,4.616-3.737,8.34-8.347,8.34s-8.346-3.724-8.346-8.34C11.089,3.737,14.826,0,19.435,0  S27.782,3.737,27.782,8.353z" /><path
     id="path4140"
     d="M38.803,51.276c0,0-4.381-21.29-6.465-25.56v-0.013c0,0-0.006,0-0.006-0.013c-2.084-4.264-4.167-6.836-12.077-6.836h-0.82  h-0.82c-7.91,0-9.993,2.572-12.077,6.836c0,0.013-0.006,0.013-0.006,0.013v0.013c-2.083,4.271-6.465,25.56-6.465,25.56  c-0.326,1.432,0.566,2.864,2.005,3.189c0.202,0.053,0.404,0.078,0.599,0.078c1.217,0,2.318-0.846,2.604-2.07L11.2,31.413  L5.444,66.614h5.547l1.725,31.387c0,1.101,0.898,1.999,1.979,1.999c1.133,0,2.024-0.898,2.024-1.999l1.706-31.387h1.009h1.009  l1.706,31.387c0,1.101,0.892,1.999,2.024,1.999c1.081,0,1.979-0.898,1.979-1.999l1.726-31.387h5.54L27.67,31.413l5.925,21.061  c0.286,1.225,1.387,2.07,2.604,2.07c0.195,0,0.396-0.025,0.599-0.078C38.237,54.141,39.129,52.708,38.803,51.276z" /><path
     id="path4791"
     d="m 18.858178,61.827727 c -0.247399,-0.257154 -1.192313,-1.139854 -2.099809,-1.961555 -3.645069,-3.300466 -5.073155,-4.82493 -6.197415,-6.615669 -1.7407729,-2.772728 -1.6447623,-5.673859 0.25499,-7.704846 1.071348,-1.145358 2.354596,-1.684783 4.007951,-1.684783 1.589119,0 2.863705,0.500486 4.013461,1.575945 l 0.546111,0.510826 0.42279,-0.4104 c 1.076232,-1.044699 2.65052,-1.676371 4.177945,-1.676371 3.964707,0 6.487831,3.736925 5.139981,7.612671 -0.759224,2.183146 -2.430258,4.161104 -7.074455,8.373849 -1.189134,1.078661 -2.25961,2.070706 -2.378836,2.204544 -0.119223,0.133837 -0.249651,0.243342 -0.289837,0.243342 -0.04018,0 -0.275478,-0.210399 -0.522877,-0.467553 z"
     style="fill:#ffffff;fill-opacity:1" /></svg>