<?xml version="1.0" standalone="no"?>
<!DOCTYPE svg PUBLIC "-//W3C//DTD SVG 20010904//EN"
 "http://www.w3.org/TR/2001/REC-SVG-20010904/DTD/svg10.dtd">
<svg version="1.0" xmlns="http://www.w3.org/2000/svg"
 width="600.000000pt" height="600.000000pt" viewBox="0 0 600.000000 600.000000"
 preserveAspectRatio="xMidYMid meet">
<metadata>
Created by potrace 1.14, written by Peter Selinger 2001-2017
</metadata>
<g transform="translate(0.000000,600.000000) scale(0.100000,-0.100000)"
fill="#000000" stroke="none">
<path d="M1785 5993 c-216 -34 -393 -160 -484 -343 -61 -126 -86 -276 -57
-350 5 -12 -4 -15 -47 -16 -233 -6 -353 -280 -199 -455 48 -55 114 -83 205
-87 68 -4 84 -1 132 22 30 15 72 47 94 72 l40 46 46 -32 c119 -82 236 -115
382 -108 114 6 201 35 295 98 33 22 63 40 67 40 3 -1 18 -18 32 -39 18 -25 48
-49 90 -70 230 -115 485 93 403 331 -34 100 -141 179 -247 182 l-53 1 4 80
c13 261 -171 518 -430 600 -78 25 -211 38 -273 28z"/>
<path d="M4331 5074 c-79 -21 -129 -46 -193 -95 -246 -188 -278 -545 -70 -771
65 -70 131 -115 217 -148 87 -34 252 -35 347 -2 260 90 411 370 342 636 -72
278 -369 454 -643 380z"/>
<path d="M1621 4599 c-247 -29 -421 -126 -535 -297 -89 -135 -159 -300 -259
-607 -118 -364 -317 -1048 -317 -1090 0 -33 21 -73 55 -105 22 -21 36 -25 86
-25 54 0 61 3 93 35 25 26 101 183 297 612 145 317 265 575 267 574 2 -2 -372
-1831 -393 -1923 l-5 -23 195 0 c107 0 195 -1 196 -2 0 -2 29 -375 63 -830 53
-688 66 -831 80 -853 41 -62 131 -83 193 -45 66 40 60 -2 129 898 34 455 63
828 63 830 1 1 32 2 70 2 l69 0 6 -63 c3 -34 31 -399 61 -812 30 -412 58 -760
60 -773 3 -13 20 -39 39 -59 28 -31 40 -37 87 -40 63 -5 108 18 133 66 12 23
30 220 76 826 33 437 60 809 60 825 l0 30 198 2 198 3 -198 955 c-108 525
-196 961 -195 968 1 7 121 -246 266 -562 145 -317 270 -584 277 -594 19 -27
75 -52 118 -52 47 0 50 3 429 379 174 174 317 314 318 311 0 -3 8 -248 17
-545 l18 -540 -50 -937 c-48 -912 -49 -938 -32 -977 21 -46 70 -96 109 -110
16 -6 51 -11 78 -11 93 0 167 59 188 150 6 25 59 416 117 870 59 454 110 828
113 832 3 4 57 -381 120 -855 116 -881 120 -907 167 -948 55 -48 150 -64 217
-36 46 20 105 89 113 134 4 21 -15 446 -42 953 l-49 915 17 538 c9 296 18 540
20 542 1 2 58 -227 125 -508 117 -488 124 -513 153 -539 24 -22 40 -28 76 -28
39 0 51 5 80 34 30 30 41 58 35 90 -1 6 -9 93 -17 195 -34 437 -91 850 -140
1020 -54 188 -180 345 -335 419 -146 70 -272 91 -539 92 -262 0 -429 -30 -560
-102 -122 -67 -190 -146 -290 -333 -55 -101 -226 -362 -336 -512 l-60 -82 -57
197 c-202 703 -331 1058 -448 1229 -114 168 -271 255 -519 288 -115 16 -447
18 -569 4z"/>
</g>
</svg>
