<?xml version="1.0" encoding="utf-8"?>
<svg viewBox="192 206 116 89" xmlns="http://www.w3.org/2000/svg">
  <path d="M 242.741 246.652 C 243.734 248.622 248.183 258.99 248.183 260.476 C 248.183 268.603 237.316 268.603 237.316 260.476 C 237.315 258.99 241.753 248.123 242.741 246.652 Z"/>
  <path d="M 249.165 242.057 C 249.165 240.929 249.165 239.057 249.165 235.791 C 249.165 231.803 245.552 228.374 240.772 228.374 C 240.772 228.374 240.745 228.374 229.601 228.374 L 229.541 224.902 C 229.541 223.887 228.722 223.079 227.718 223.079 L 223.35 223.079 L 223.35 220.844 C 223.725 220.611 224.039 220.34 224.305 219.981 C 225.618 219.981 228.271 219.981 233.615 219.981 C 234.228 220.79 235.156 221.337 236.236 221.337 C 238.091 221.337 239.6 219.829 239.6 217.968 C 239.6 216.135 238.091 214.621 236.236 214.621 C 235.118 214.621 234.185 215.196 233.572 216.043 C 232.096 216.043 229.351 216.043 224.349 216.043 C 223.736 215.196 222.803 214.621 221.685 214.621 C 220.567 214.621 219.629 215.196 219.016 216.043 C 216.168 216.043 212.783 216.043 208.838 216.043 C 208.23 215.196 207.281 214.621 206.18 214.621 C 204.318 214.621 202.805 216.135 202.805 217.969 C 202.805 219.83 204.319 221.338 206.18 221.338 C 207.26 221.338 208.182 220.79 208.795 219.982 C 210.477 219.982 213.531 219.982 219.065 219.982 C 219.325 220.345 219.65 220.621 220.03 220.85 L 220.03 223.08 L 215.391 223.08 C 214.393 223.08 213.574 223.888 213.574 224.903 L 213.574 228.375 C 212.44 228.375 209.174 228.375 200 228.375 L 200 239.237 C 200.326 239.237 202.528 239.237 215.099 239.237 C 216.58 242.21 218.555 243.68 221.528 243.68 C 224.479 243.68 226.948 242.209 228.434 239.237 C 228.434 239.237 228.434 239.237 233.854 239.237 C 235.482 239.237 236.079 240.284 236.252 242.286 C 235.78 242.606 235.444 243.127 235.444 243.756 C 235.444 244.765 236.263 245.557 237.267 245.557 L 248.541 245.557 C 249.55 245.557 250.358 244.765 250.358 243.756 C 250.358 242.963 249.859 242.312 249.165 242.057 Z"/>
  <path d="M 250.841 273.454 C 250.684 274.229 250.695 275.043 250.928 275.824 C 251.123 276.556 251.514 277.24 252.051 277.81 C 253.874 279.655 256.853 279.698 258.719 277.902 L 267.958 268.89 L 269.146 270.106 L 259.895 279.118 C 257.373 281.57 253.32 281.511 250.84 278.993 C 249.983 278.114 249.506 277.018 249.245 275.868 L 229.91 275.868 C 227.284 275.868 225.146 278 225.146 280.615 C 225.146 283.252 227.284 285.379 229.91 285.379 L 263.411 285.379 C 264.502 285.379 265.5 284.95 266.325 284.288 L 288.129 267.784 L 300 267.784 L 300 251.611 L 299.902 251.611 L 299.902 251.454 L 272.401 251.454 L 252.159 271.175 C 251.514 271.794 251.063 272.575 250.841 273.454 Z"/>
</svg>