<svg xmlns="http://www.w3.org/2000/svg" xmlns:xlink="http://www.w3.org/1999/xlink" version="1.1" x="0px" y="0px" viewBox="0 0 100 70.758" enable-background="new 0 0 100 70.758" xml:space="preserve"><path d="M42.741,32.031c0.993,1.97,5.442,12.338,5.442,13.824c0,8.127-10.867,8.127-10.867,0  C37.315,44.369,41.753,33.502,42.741,32.031z"></path><path d="M49.165,27.436c0-1.128,0-3,0-6.266c0-3.988-3.613-7.417-8.393-7.417c0,0-0.027,0-11.171,0l-0.06-3.472  c0-1.015-0.819-1.823-1.823-1.823h-4.368V6.223c0.375-0.233,0.689-0.504,0.955-0.863c1.313,0,3.966,0,9.31,0  c0.613,0.809,1.541,1.356,2.621,1.356c1.855,0,3.364-1.508,3.364-3.369C39.6,1.514,38.091,0,36.236,0  c-1.118,0-2.051,0.575-2.664,1.422c-1.476,0-4.221,0-9.223,0C23.736,0.575,22.803,0,21.685,0s-2.056,0.575-2.669,1.422  c-2.848,0-6.233,0-10.178,0C8.23,0.575,7.281,0,6.18,0C4.318,0,2.805,1.514,2.805,3.348c0,1.861,1.514,3.369,3.375,3.369  c1.08,0,2.002-0.548,2.615-1.356c1.682,0,4.736,0,10.27,0C19.325,5.724,19.65,6,20.03,6.229v2.23h-4.639  c-0.998,0-1.817,0.808-1.817,1.823v3.472c-1.134,0-4.4,0-13.574,0v10.862c0.326,0,2.528,0,15.099,0  c1.481,2.973,3.456,4.443,6.429,4.443c2.951,0,5.42-1.471,6.906-4.443c0,0,0,0,5.42,0c1.628,0,2.225,1.047,2.398,3.049  c-0.472,0.32-0.808,0.841-0.808,1.47c0,1.009,0.819,1.801,1.823,1.801h11.274c1.009,0,1.817-0.792,1.817-1.801  C50.358,28.342,49.859,27.691,49.165,27.436z"></path><path d="M50.841,58.833c-0.157,0.775-0.146,1.589,0.087,2.37c0.195,0.732,0.586,1.416,1.123,1.986  c1.823,1.845,4.802,1.888,6.668,0.092l9.239-9.012l1.188,1.216l-9.251,9.012c-2.522,2.452-6.575,2.393-9.055-0.125  c-0.857-0.879-1.334-1.975-1.595-3.125H29.91c-2.626,0-4.764,2.132-4.764,4.747c0,2.637,2.138,4.764,4.764,4.764h33.501  c1.091,0,2.089-0.429,2.914-1.091l21.804-16.504H100V36.99h-0.098v-0.157H72.401L52.159,56.554  C51.514,57.173,51.063,57.954,50.841,58.833z"></path></svg>