<?xml version="1.0" encoding="UTF-8" standalone="no"?>
<!-- Created with Inkscape (http://www.inkscape.org/) -->

<svg
   xmlns:dc="http://purl.org/dc/elements/1.1/"
   xmlns:cc="http://creativecommons.org/ns#"
   xmlns:rdf="http://www.w3.org/1999/02/22-rdf-syntax-ns#"
   xmlns:svg="http://www.w3.org/2000/svg"
   xmlns="http://www.w3.org/2000/svg"
   xmlns:sodipodi="http://sodipodi.sourceforge.net/DTD/sodipodi-0.dtd"
   xmlns:inkscape="http://www.inkscape.org/namespaces/inkscape"
   width="24mm"
   height="24mm"
   viewBox="0 0 85.039372 85.039369"
   id="svg2"
   version="1.1"
   inkscape:version="0.91 r13725"
   sodipodi:docname="disabled.svg">
  <defs
     id="defs4" />
  <sodipodi:namedview
     id="base"
     pagecolor="#ffffff"
     bordercolor="#666666"
     borderopacity="1.0"
     inkscape:pageopacity="0.0"
     inkscape:pageshadow="2"
     inkscape:zoom="8.3898874"
     inkscape:cx="49.431339"
     inkscape:cy="41.788382"
     inkscape:document-units="mm"
     inkscape:current-layer="g5432"
     showgrid="false"
     units="mm"
     showborder="true"
     inkscape:window-width="1920"
     inkscape:window-height="1178"
     inkscape:window-x="1912"
     inkscape:window-y="-8"
     inkscape:window-maximized="1"
     showguides="true"
     inkscape:guide-bbox="true">
    <sodipodi:guide
       position="-15.777924,33.671489"
       orientation="0,1"
       id="guide4223" />
    <sodipodi:guide
       position="42.491633,87.486277"
       orientation="1,0"
       id="guide4283" />
  </sodipodi:namedview>
  <metadata
     id="metadata7">
    <rdf:RDF>
      <cc:Work
         rdf:about="">
        <dc:format>image/svg+xml</dc:format>
        <dc:type
           rdf:resource="http://purl.org/dc/dcmitype/StillImage" />
        <dc:title></dc:title>
      </cc:Work>
    </rdf:RDF>
  </metadata>
  <g
     inkscape:label="Layer 1"
     inkscape:groupmode="layer"
     id="layer1"
     transform="translate(0,-967.32301)"
     sodipodi:insensitive="true">
    <rect
       style="color:#000000;clip-rule:nonzero;display:inline;overflow:visible;visibility:visible;opacity:1;isolation:auto;mix-blend-mode:normal;color-interpolation:sRGB;color-interpolation-filters:linearRGB;solid-color:#000000;solid-opacity:1;fill:none;fill-opacity:1;fill-rule:nonzero;stroke:none;stroke-width:1;stroke-linecap:butt;stroke-linejoin:miter;stroke-miterlimit:4;stroke-dasharray:none;stroke-dashoffset:0;stroke-opacity:1;color-rendering:auto;image-rendering:auto;shape-rendering:auto;text-rendering:auto;enable-background:accumulate"
       id="rect4178"
       width="85.340836"
       height="85.340836"
       x="-0.11919111"
       y="967.37909" />
  </g>
  <g
     inkscape:groupmode="layer"
     id="layer2"
     inkscape:label="img">
    <g
       id="g4259"
       transform="matrix(0.80109719,0,0,0.80109719,24.652999,5.1052129)">
      <g
         id="g5432"
         transform="matrix(0.99880985,0,0,0.99880985,-2.0781679,1.3124868)">
        <g
           id="g5656"
           transform="matrix(0.90792114,0,0,0.90792114,-12.775277,7.8672283)">
          <path
             id="path5644"
             d="m 41.224,10.248 c 0,5.664 -4.589,10.26 -10.253,10.26 -5.664,0 -10.254,-4.596 -10.254,-10.26 C 20.717,4.584 25.306,0 30.97,0 36.634,0 41.224,4.583 41.224,10.248 Z"
             inkscape:connector-curvature="0" />
          <path
             id="path5646"
             d="M 31.217,93.425 C 17.623,93.425 6.569,82.37 6.569,68.782 c 0,-9.16 5.078,-17.076 12.507,-21.321 l 0,-7.435 C 7.877,44.766 0,55.872 0,68.782 0,85.989 13.998,100 31.217,100 42.643,100 52.558,93.737 57.988,84.544 L 54.616,76.101 C 51.478,86.106 42.246,93.425 31.217,93.425 Z"
             inkscape:connector-curvature="0" />
          <path
             id="path5648"
             d="m 76.999,78.431 -7.409,0 c 0,0 -4.485,-12.793 -5.742,-16.191 -0.808,-2.246 -2.91,-3.88 -5.437,-3.88 l -17.988,0 0,-12.579 17.064,0 c 2.259,0 4.095,-1.823 4.095,-4.088 0,-2.265 -1.836,-4.115 -4.095,-4.115 l -17.064,0 c 0,0 -0.983,-14.922 -9.453,-14.922 -5.801,0 -7.787,4.707 -7.787,10.508 l 0,26.341 c 0,5.808 4.713,10.521 10.508,10.521 0.176,0 0.319,-0.092 0.488,-0.092 0.163,0.007 0.312,0.092 0.488,0.092 l 21.94,0 7.298,18.242 13.093,0 c 2.708,0 4.915,-2.207 4.915,-4.922 0.001,-2.721 -2.206,-4.915 -4.914,-4.915 z"
             inkscape:connector-curvature="0" />
        </g>
      </g>
    </g>
  </g>
</svg>
