<svg xmlns="http://www.w3.org/2000/svg" xmlns:xlink="http://www.w3.org/1999/xlink" version="1.1" x="0px" y="0px" viewBox="0 0 81.914 100" enable-background="new 0 0 81.914 100" xml:space="preserve"><path d="M41.224,10.248c0,5.664-4.589,10.26-10.253,10.26s-10.254-4.596-10.254-10.26S25.306,0,30.97,0S41.224,4.583,41.224,10.248z  "></path><path d="M31.217,93.425c-13.594,0-24.648-11.055-24.648-24.643c0-9.16,5.078-17.076,12.507-21.321v-7.435  C7.877,44.766,0,55.872,0,68.782C0,85.989,13.998,100,31.217,100c11.426,0,21.341-6.263,26.771-15.456l-3.372-8.443  C51.478,86.106,42.246,93.425,31.217,93.425z"></path><path d="M76.999,78.431H69.59c0,0-4.485-12.793-5.742-16.191c-0.808-2.246-2.91-3.88-5.437-3.88H40.423V45.781h17.064  c2.259,0,4.095-1.823,4.095-4.088s-1.836-4.115-4.095-4.115H40.423c0,0-0.983-14.922-9.453-14.922  c-5.801,0-7.787,4.707-7.787,10.508v26.341c0,5.808,4.713,10.521,10.508,10.521c0.176,0,0.319-0.092,0.488-0.092  c0.163,0.007,0.312,0.092,0.488,0.092h21.94l7.298,18.242h13.093c2.708,0,4.915-2.207,4.915-4.922  C81.914,80.625,79.707,78.431,76.999,78.431z"></path></svg>