<?xml version="1.0" encoding="utf-8"?>
<svg viewBox="196 199 108 102" xmlns="http://www.w3.org/2000/svg">
  <path d="M 246.882 210.366 C 247.68 215.242 244.382 219.841 239.51 220.644 C 234.628 221.442 230.023 218.143 229.225 213.266 C 228.427 208.383 231.727 203.779 236.609 202.981 C 241.479 202.178 246.096 205.483 246.882 210.366 Z"/>
  <path d="M 244.09 245.837 L 252.007 258.491 C 253.13 260.267 255.462 260.842 257.276 259.778 C 259.089 258.708 259.716 256.394 258.702 254.55 L 256.695 250.912 C 254.956 247.806 253.251 244.688 251.523 241.57 L 247.982 235.158 C 247.583 234.427 247.184 233.593 246.762 232.711 C 244.585 228.149 241.189 221.103 233.757 221.75 C 227.4 222.3 220.947 225.321 214.59 230.724 C 207.048 236.664 201.792 245.28 201.574 245.649 C 201.331 246.042 201.102 246.417 200.908 246.779 C 200.896 246.797 200.884 246.809 200.872 246.821 L 200.872 246.827 C 200.171 248.156 199.82 249.371 200.703 250.911 C 201.393 252.132 202.686 252.888 204.087 252.888 C 205.779 252.888 206.649 252.09 207.483 250.869 L 207.483 250.869 C 207.495 250.863 207.495 250.851 207.507 250.839 C 207.736 250.495 207.966 250.114 208.22 249.721 C 208.268 249.643 212.68 242.567 219.508 236.742 C 221.611 235.092 223.617 233.956 225.503 233.328 L 223.98 251.746 C 223.835 253.571 223.255 256.713 222.759 258.472 L 219.339 270.473 C 218.893 271.99 217.6 274.503 216.596 275.737 L 207.35 287.199 C 206.178 288.655 204.848 290.305 205.949 292.589 C 206.589 293.937 207.954 294.795 209.453 294.795 C 211.242 294.795 212.208 293.762 213.43 292.45 L 222.796 282.346 C 224.464 280.545 226.638 277.409 227.714 275.198 L 232.367 265.741 L 249.553 294.626 C 250.4 296.052 251.464 297.822 253.796 297.822 L 253.796 297.822 C 255.125 297.822 256.357 297.139 257.07 296.027 C 258.292 294.13 257.482 292.378 256.768 290.831 L 242.87 260.642 C 242.326 259.457 242.023 257.04 242.253 255.753 L 244.09 245.837 Z"/>
  <polygon points="258.659 277.271 279.483 277.271 279.483 283.459 300.18 271.506 279.483 259.554 279.483 265.741 258.659 265.741"/>
</svg>