<?xml version="1.0" encoding="utf-8"?>
<svg viewBox="197 193 107 114" xmlns="http://www.w3.org/2000/svg">
  <path d="M 286.858 200 L 283.691 221.61 C 278.878 220.947 275.139 216.846 275.139 211.851 C 275.139 210.868 274.344 210.065 273.353 210.065 C 272.376 210.065 271.568 210.867 271.568 211.851 C 271.568 217.306 267.131 221.743 261.676 221.743 C 256.221 221.743 251.785 217.306 251.785 211.851 C 251.785 210.868 250.99 210.065 249.999 210.065 C 249.022 210.065 248.213 210.867 248.213 211.851 C 248.213 217.306 243.776 221.743 238.322 221.743 C 232.867 221.743 228.431 217.306 228.431 211.851 C 228.431 210.868 227.636 210.065 226.645 210.065 C 225.668 210.065 224.859 210.867 224.859 211.851 C 224.859 216.846 221.12 220.94 216.307 221.603 L 213.141 200 L 203.501 200 L 218.122 300 L 281.878 300 L 296.498 200 L 286.858 200 Z M 273.632 290.437 L 226.367 290.437 L 216.811 225.063 C 220.996 224.47 224.623 222.07 226.646 218.548 C 228.976 222.587 233.343 225.314 238.323 225.314 C 243.317 225.314 247.684 222.586 250 218.548 C 252.33 222.587 256.696 225.314 261.677 225.314 C 266.671 225.314 271.038 222.586 273.354 218.548 C 275.377 222.07 279.004 224.477 283.19 225.063 L 273.632 290.437 Z"/>
</svg>