<svg xmlns="http://www.w3.org/2000/svg" xmlns:xlink="http://www.w3.org/1999/xlink" version="1.1" x="0px" y="0px" viewBox="0 0 92.997 100" enable-background="new 0 0 92.997 100" xml:space="preserve"><path d="M83.357,0L80.19,21.61c-4.813-0.663-8.552-4.764-8.552-9.759c0-0.983-0.795-1.786-1.786-1.786  c-0.977,0-1.785,0.802-1.785,1.786c0,5.455-4.437,9.892-9.892,9.892s-9.891-4.437-9.891-9.892c0-0.983-0.795-1.786-1.786-1.786  c-0.977,0-1.786,0.802-1.786,1.786c0,5.455-4.437,9.892-9.891,9.892c-5.455,0-9.891-4.437-9.891-9.892  c0-0.983-0.795-1.786-1.786-1.786c-0.977,0-1.786,0.802-1.786,1.786c0,4.995-3.739,9.089-8.552,9.752L9.64,0H0l14.621,100h63.756  L92.997,0H83.357z M70.131,90.437H22.866L13.31,25.063c4.185-0.593,7.812-2.993,9.835-6.515c2.33,4.039,6.697,6.766,11.677,6.766  c4.994,0,9.361-2.728,11.677-6.766c2.33,4.039,6.696,6.766,11.677,6.766c4.994,0,9.361-2.728,11.677-6.766  c2.023,3.522,5.65,5.929,9.836,6.515L70.131,90.437z"></path></svg>