<?xml version="1.0" encoding="utf-8"?>
<svg viewBox="223 196 54 109" xmlns="http://www.w3.org/2000/svg">
  <path d="M 267.86 259.7 L 267.86 298.229 C 267.86 299.199 267.066 300 266.089 300 C 265.112 300 264.318 299.199 264.318 298.229 L 264.318 259.7 C 264.318 258.171 263.074 256.921 261.531 256.921 C 260.008 256.921 258.758 258.171 258.758 259.7 C 258.758 260.671 257.957 261.465 256.987 261.465 C 256.01 261.465 255.216 260.671 255.216 259.7 C 255.216 257.102 256.784 254.902 259.011 253.926 C 254.526 247.259 252.032 239.909 250.691 233.776 L 242.607 256.68 C 242.601 256.693 242.575 256.706 242.568 256.712 C 242.861 257.695 247.841 275.28 241.93 295.202 C 241.337 297.207 239.508 298.489 237.522 298.489 C 237.092 298.489 236.649 298.43 236.213 298.301 C 233.778 297.585 232.385 295.02 233.108 292.585 C 237.809 276.731 234.482 262.181 233.831 259.655 C 228.837 249.922 227.868 240.937 230.96 232.936 C 235.895 220.163 249.443 215.111 250.016 214.896 C 252.392 214.023 255.055 215.26 255.914 217.643 C 256.22 218.483 256.122 220.462 256.122 220.638 C 256.122 220.801 256.292 238.248 265.582 251.081 C 266.448 252.285 266.441 253.835 265.699 255.032 C 267.001 256.185 267.86 257.825 267.86 259.7 Z"/>
  <path d="M 272.132 209.01 C 272.132 213.99 268.089 218.033 263.121 218.033 C 258.134 218.033 254.085 213.99 254.085 209.01 C 254.085 204.017 258.134 200 263.121 200 C 268.089 200 272.132 204.017 272.132 209.01 Z"/>
</svg>