<svg xmlns="http://www.w3.org/2000/svg" xmlns:xlink="http://www.w3.org/1999/xlink" version="1.1" x="0px" y="0px" viewBox="0 0 42.94 100" enable-background="new 0 0 42.94 100" xml:space="preserve"><path d="M38.668,59.7v38.529c0,0.97-0.794,1.771-1.771,1.771s-1.771-0.801-1.771-1.771V59.7c0-1.529-1.244-2.779-2.787-2.779  c-1.523,0-2.773,1.25-2.773,2.779c0,0.971-0.801,1.765-1.771,1.765c-0.977,0-1.771-0.794-1.771-1.765  c0-2.598,1.568-4.798,3.795-5.774c-4.485-6.667-6.979-14.017-8.32-20.15L13.415,56.68c-0.006,0.013-0.032,0.026-0.039,0.032  c0.293,0.983,5.273,18.568-0.638,38.49c-0.593,2.005-2.422,3.287-4.408,3.287c-0.43,0-0.873-0.059-1.309-0.188  c-2.435-0.716-3.828-3.281-3.105-5.716c4.701-15.854,1.374-30.404,0.723-32.93c-4.994-9.733-5.963-18.718-2.871-26.719  c4.935-12.773,18.483-17.825,19.056-18.04c2.376-0.873,5.039,0.364,5.898,2.747c0.306,0.84,0.208,2.819,0.208,2.995  c0,0.163,0.17,17.61,9.46,30.443c0.866,1.204,0.859,2.754,0.117,3.951C37.809,56.185,38.668,57.825,38.668,59.7z"></path><path d="M42.94,9.01c0,4.98-4.043,9.023-9.011,9.023c-4.987,0-9.036-4.043-9.036-9.023c0-4.993,4.049-9.01,9.036-9.01  C38.897,0,42.94,4.017,42.94,9.01z"></path></svg>