<?xml version="1.0" encoding="utf-8"?>
<svg viewBox="191 199 118 102" xmlns="http://www.w3.org/2000/svg">
  <path d="M 284.473 225.821 L 269.16 225.821 L 269.16 207.52 L 230.84 207.52 L 230.84 225.821 L 215.527 225.821 C 206.992 225.821 200 232.813 200 241.348 L 200 276.953 C 200 285.488 206.992 292.48 215.527 292.48 L 284.472 292.48 C 293.007 292.48 299.999 285.488 299.999 276.953 L 299.999 241.348 C 300 232.813 293.008 225.821 284.473 225.821 Z M 244.824 263.614 L 233.327 263.614 L 233.327 275.098 L 224.42 275.098 L 224.42 263.614 L 212.93 263.614 L 212.93 254.715 L 224.42 254.715 L 224.42 243.223 L 233.326 243.223 L 233.326 254.714 L 244.824 254.714 L 244.824 263.614 Z M 262.019 225.821 L 237.982 225.821 L 237.982 214.662 L 262.019 214.662 L 262.019 225.821 Z"/>
</svg>