<?xml version="1.0" encoding="utf-8"?>
<svg viewBox="225 195 50 110" xmlns="http://www.w3.org/2000/svg">
  <path d="M 258.347 208.353 C 258.347 212.969 254.61 216.693 250 216.693 C 245.39 216.693 241.654 212.969 241.654 208.353 C 241.654 203.737 245.391 200 250 200 C 254.609 200 258.347 203.737 258.347 208.353 Z"/>
  <path d="M 269.368 251.276 C 269.368 251.276 264.987 229.986 262.903 225.716 L 262.903 225.703 C 262.903 225.703 262.897 225.703 262.897 225.69 C 260.813 221.426 258.73 218.854 250.82 218.854 L 250 218.854 L 249.18 218.854 C 241.27 218.854 239.187 221.426 237.103 225.69 C 237.103 225.703 237.097 225.703 237.097 225.703 L 237.097 225.716 C 235.014 229.987 230.632 251.276 230.632 251.276 C 230.306 252.708 231.198 254.14 232.637 254.465 C 232.839 254.518 233.041 254.543 233.236 254.543 C 234.453 254.543 235.554 253.697 235.84 252.473 L 241.765 231.413 L 236.009 266.614 L 241.556 266.614 L 243.281 298.001 C 243.281 299.102 244.179 300 245.26 300 C 246.393 300 247.284 299.102 247.284 298.001 L 248.99 266.614 L 249.999 266.614 L 251.008 266.614 L 252.714 298.001 C 252.714 299.102 253.606 300 254.738 300 C 255.819 300 256.717 299.102 256.717 298.001 L 258.443 266.614 L 263.983 266.614 L 258.235 231.413 L 264.16 252.474 C 264.446 253.699 265.547 254.544 266.764 254.544 C 266.959 254.544 267.16 254.519 267.363 254.466 C 268.802 254.141 269.694 252.708 269.368 251.276 Z"/>
</svg>