<svg xmlns="http://www.w3.org/2000/svg" xmlns:xlink="http://www.w3.org/1999/xlink" version="1.1" x="0px" y="0px" viewBox="0 0 70.06 100" enable-background="new 0 0 70.06 100" xml:space="preserve"><path d="M49.568,63.34c0,0,9.558,9.57,9.59,9.583c3.047,3.067,2.259,8.465-0.632,11.407L45.192,98.224  c-5.149,5.131-12.031-1.992-7.031-6.966l8.457-8.464l-8.281-8.224L49.568,63.34L49.568,63.34z"></path><path d="M19.84,63.34L19.84,63.34c0,0-9.538,9.57-9.538,9.583c-3.073,3.067-2.285,8.465,0.573,11.407l13.386,13.894  c5.13,5.131,12.013-1.992,7.038-6.966l-8.444-8.464l8.223-8.224L19.84,63.34"></path><path d="M35.042,27.732c7.657,0,13.868-6.195,13.868-13.884C48.91,6.198,42.699,0,35.042,0c-7.669,0-13.887,6.198-13.887,13.849  C21.155,21.538,27.373,27.732,35.042,27.732z"></path><path d="M50.069,57.786l0.202-9.46l11.523,10.756c0.944,0.885,2.148,1.314,3.354,1.314c1.309,0,2.623-0.521,3.587-1.556  c1.855-1.986,1.745-5.092-0.234-6.94c0,0-13.217-14.363-15.111-16.036c-3.522-3.119-8.679-4.883-17.045-4.883h-2.63  c-8.366,0-13.523,1.764-17.045,4.883C14.775,37.538,1.558,51.9,1.558,51.9c-1.979,1.849-2.09,4.954-0.234,6.94  c0.963,1.035,2.279,1.556,3.587,1.556c1.204,0,2.409-0.43,3.353-1.314l11.524-10.756l0.202,9.46H50.069z"></path></svg>