<svg xmlns="http://www.w3.org/2000/svg" xmlns:xlink="http://www.w3.org/1999/xlink" version="1.1" x="0px" y="0px" viewBox="0 0 34.616 100" enable-background="new 0 0 34.616 100" xml:space="preserve"><path d="M17.321,0c-4.701,0-8.509,3.802-8.509,8.502c0,4.688,3.809,8.49,8.509,8.49c4.681,0,8.483-3.802,8.483-8.49  C25.805,3.802,22.002,0,17.321,0z"></path><path d="M31.364,25.82c-2.083-4.258-5.312-6.849-13.242-6.849h-0.814h-0.813c-7.93,0-11.159,2.591-13.242,6.849  C2.21,27.949,0.017,54.583,0.017,54.583c-0.169,1.576,0.97,2.982,2.539,3.139c0.104,0.013,0.202,0.013,0.306,0.013  c1.445,0,2.688-1.087,2.832-2.552l2.239-23.145l0.554,17.969L6.853,96.438c-0.117,1.83,1.263,3.432,3.092,3.549  C10.042,100,10.114,100,10.179,100c1.745,0,3.216-1.341,3.347-3.099l3.782-38.242l3.783,38.242c0.13,1.758,1.602,3.099,3.347,3.099  c0.064,0,0.137,0,0.234-0.013c1.829-0.117,3.209-1.719,3.092-3.549L26.13,50.006l0.554-17.969l2.239,23.145  c0.144,1.465,1.387,2.552,2.832,2.552c0.104,0,0.202,0,0.306-0.013c1.569-0.156,2.709-1.562,2.539-3.139  C34.6,54.583,32.406,27.949,31.364,25.82z"></path></svg>