<?xml version="1.0" encoding="utf-8"?>
<svg viewBox="193 199 115 101" xmlns="http://www.w3.org/2000/svg">
  <path d="M 227.714 214.171 C 227.714 218.217 224.42 221.499 220.37 221.499 C 216.314 221.499 213.026 218.218 213.026 214.171 C 213.026 210.121 216.314 206.84 220.37 206.84 C 224.419 206.84 227.714 210.121 227.714 214.171 Z"/>
  <path d="M 221.138 264.397 L 222.727 291.461 C 222.727 292.399 223.495 293.18 224.439 293.18 C 225.39 293.18 226.165 292.399 226.165 291.461 L 227.63 264.397 L 232.415 264.397 L 227.474 234.058 L 237.435 253.895 C 237.799 254.768 238.809 255.184 239.687 254.813 C 240.56 254.442 240.976 253.44 240.605 252.554 C 240.605 252.554 233.307 232.814 231.497 229.135 C 229.694 225.453 227.923 223.217 221.067 223.217 L 219.667 223.217 C 212.831 223.217 211.041 225.453 209.244 229.135 C 207.447 232.814 200.142 252.554 200.142 252.554 C 199.765 253.44 200.175 254.442 201.04 254.813 C 201.919 255.184 202.928 254.768 203.306 253.895 L 213.267 234.058 L 208.313 264.397 L 213.092 264.397 L 214.576 291.461 C 214.576 292.399 215.351 293.18 216.288 293.18 C 217.258 293.18 218.026 292.399 218.026 291.461 L 219.504 264.397 L 221.138 264.397 Z"/>
  <path d="M 279.63 206.82 C 275.573 206.82 272.279 210.098 272.279 214.151 C 272.279 218.204 275.573 221.485 279.63 221.485 C 283.673 221.485 286.954 218.204 286.954 214.151 C 286.954 210.098 283.673 206.82 279.63 206.82 Z"/>
  <path d="M 287.233 249.988 L 287.721 234.037 L 296.68 253.881 C 297.051 254.747 298.067 255.17 298.939 254.792 C 299.825 254.415 300.235 253.412 299.864 252.526 C 299.864 252.526 293.555 232.786 291.752 229.114 C 289.948 225.436 287.169 223.199 280.326 223.199 L 278.92 223.199 C 272.077 223.199 269.291 225.435 267.487 229.114 C 265.696 232.786 259.387 252.526 259.387 252.526 C 259.016 253.412 259.42 254.415 260.299 254.792 C 261.178 255.17 262.194 254.747 262.545 253.881 L 271.517 234.037 L 272.005 249.988 L 270.592 290.093 C 270.494 291.682 271.686 293.062 273.261 293.166 C 273.339 293.179 273.411 293.179 273.47 293.179 C 274.974 293.179 276.243 292.02 276.361 290.496 L 279.61 257.468 L 282.897 290.496 C 282.989 292.019 284.264 293.179 285.755 293.179 C 285.826 293.179 285.892 293.179 285.963 293.166 C 287.559 293.062 288.736 291.682 288.639 290.093 L 287.221 249.988 L 287.233 249.988 Z"/>
  <path d="M 249.993 251.407 C 247.499 251.407 245.481 253.413 245.481 255.9 C 245.481 258.386 247.499 260.392 249.993 260.392 C 252.48 260.392 254.499 258.386 254.499 255.9 C 254.499 253.413 252.48 251.407 249.993 251.407 Z"/>
  <path d="M 249.993 277.906 C 249.993 277.906 252.017 291.981 252.017 291.995 C 252.297 292.684 252.942 293.18 253.73 293.18 C 254.538 293.18 255.214 292.64 255.461 291.904 C 255.475 291.865 255.52 291.032 255.475 290.895 L 254.641 273.596 L 254.909 267.658 C 255.143 265.639 255.188 266.245 257.48 264.871 C 259.831 263.465 263.815 257.28 264.01 256.98 C 264.205 256.668 264.563 256.127 264.635 255.783 C 264.752 255.158 264.348 254.565 263.73 254.441 C 263.261 254.363 262.864 254.611 262.565 254.936 C 262.258 255.268 257.669 261.381 254.225 261.967 C 253.45 261.857 252.617 261.446 250.422 261.446 L 249.556 261.446 C 247.375 261.446 246.541 261.856 245.76 261.967 C 242.316 261.381 237.726 255.268 237.407 254.936 C 237.114 254.611 236.73 254.363 236.255 254.441 C 235.636 254.565 235.226 255.158 235.35 255.783 C 235.415 256.128 235.78 256.668 235.975 256.98 C 236.177 257.28 240.168 263.464 242.505 264.871 C 244.803 266.245 244.856 265.64 245.077 267.658 L 245.338 273.596 L 244.511 290.895 C 244.466 291.032 244.511 291.865 244.544 291.904 C 244.785 292.64 245.449 293.18 246.263 293.18 C 247.038 293.18 247.702 292.685 247.962 291.995 C 247.962 291.982 249.993 277.906 249.993 277.906"/>
</svg>