<svg xmlns="http://www.w3.org/2000/svg" xmlns:xlink="http://www.w3.org/1999/xlink" version="1.1" x="0px" y="0px" viewBox="0 0 100 86.36" enable-background="new 0 0 100 86.36" xml:space="preserve"><path d="M27.713,7.351c0,4.046-3.294,7.328-7.344,7.328c-4.056,0-7.344-3.281-7.344-7.328c0-4.05,3.288-7.331,7.344-7.331  C24.418,0.02,27.713,3.301,27.713,7.351z"></path><path d="M21.137,57.577l1.589,27.064c0,0.938,0.768,1.719,1.712,1.719c0.951,0,1.726-0.781,1.726-1.719l1.465-27.064h4.785  l-4.941-30.339l9.961,19.837c0.364,0.873,1.374,1.289,2.252,0.918c0.873-0.371,1.289-1.373,0.918-2.259  c0,0-7.298-19.74-9.108-23.419c-1.803-3.682-3.574-5.918-10.43-5.918h-1.4c-6.836,0-8.626,2.236-10.423,5.918  c-1.797,3.679-9.102,23.419-9.102,23.419c-0.377,0.886,0.033,1.888,0.898,2.259c0.879,0.371,1.888-0.045,2.266-0.918l9.961-19.837  L8.312,57.577h4.779l1.484,27.064c0,0.938,0.775,1.719,1.712,1.719c0.97,0,1.738-0.781,1.738-1.719l1.478-27.064H21.137z"></path><path d="M79.629,0c-4.057,0-7.351,3.278-7.351,7.331s3.294,7.334,7.351,7.334c4.043,0,7.324-3.281,7.324-7.334S83.672,0,79.629,0z"></path><path d="M87.232,43.168l0.488-15.951l8.959,19.844c0.371,0.866,1.387,1.289,2.259,0.911c0.886-0.377,1.296-1.38,0.925-2.266  c0,0-6.309-19.74-8.112-23.412c-1.804-3.678-4.583-5.915-11.426-5.915h-1.406c-6.843,0-9.629,2.236-11.433,5.915  c-1.791,3.672-8.1,23.412-8.1,23.412c-0.371,0.886,0.033,1.889,0.912,2.266c0.879,0.378,1.895-0.045,2.246-0.911l8.972-19.844  l0.488,15.951l-1.413,40.105c-0.098,1.589,1.094,2.969,2.669,3.073c0.078,0.013,0.15,0.013,0.209,0.013  c1.504,0,2.773-1.159,2.891-2.683l3.249-33.028l3.287,33.028c0.092,1.523,1.367,2.683,2.858,2.683c0.071,0,0.137,0,0.208-0.013  c1.596-0.104,2.773-1.484,2.676-3.073L87.22,43.168H87.232z"></path><path d="M49.992,44.587c-2.494,0-4.512,2.006-4.512,4.493c0,2.486,2.018,4.492,4.512,4.492c2.487,0,4.506-2.006,4.506-4.492  C54.498,46.593,52.479,44.587,49.992,44.587z"></path><path d="M49.992,71.086c0,0,2.024,14.075,2.024,14.089c0.28,0.689,0.925,1.185,1.713,1.185c0.808,0,1.484-0.54,1.731-1.276  c0.014-0.039,0.059-0.872,0.014-1.009l-0.834-17.299l0.268-5.938c0.234-2.019,0.279-1.413,2.571-2.787  c2.351-1.406,6.335-7.591,6.53-7.891c0.195-0.312,0.553-0.853,0.625-1.197c0.117-0.625-0.287-1.218-0.905-1.342  c-0.469-0.078-0.866,0.17-1.165,0.495c-0.307,0.332-4.896,6.445-8.34,7.031c-0.775-0.11-1.608-0.521-3.803-0.521h-0.866  c-2.181,0-3.015,0.41-3.796,0.521c-3.444-0.586-8.034-6.699-8.353-7.031c-0.293-0.325-0.677-0.573-1.152-0.495  c-0.619,0.124-1.029,0.717-0.905,1.342c0.065,0.345,0.43,0.885,0.625,1.197c0.202,0.3,4.193,6.484,6.53,7.891  c2.298,1.374,2.351,0.769,2.572,2.787l0.261,5.938L44.51,84.075c-0.045,0.137,0,0.97,0.033,1.009  c0.241,0.736,0.905,1.276,1.719,1.276c0.775,0,1.439-0.495,1.699-1.185C47.961,85.162,49.992,71.086,49.992,71.086"></path></svg>