<?xml version="1.0" encoding="UTF-8" standalone="no"?>
<!-- Created with Inkscape (http://www.inkscape.org/) -->

<svg
   xmlns:dc="http://purl.org/dc/elements/1.1/"
   xmlns:cc="http://creativecommons.org/ns#"
   xmlns:rdf="http://www.w3.org/1999/02/22-rdf-syntax-ns#"
   xmlns:svg="http://www.w3.org/2000/svg"
   xmlns="http://www.w3.org/2000/svg"
   xmlns:sodipodi="http://sodipodi.sourceforge.net/DTD/sodipodi-0.dtd"
   xmlns:inkscape="http://www.inkscape.org/namespaces/inkscape"
   width="24mm"
   height="24mm"
   viewBox="0 0 85.039372 85.039369"
   id="svg2"
   version="1.1"
   inkscape:version="0.91 r13725"
   sodipodi:docname="pregnant.svg">
  <defs
     id="defs4" />
  <sodipodi:namedview
     id="base"
     pagecolor="#ffffff"
     bordercolor="#666666"
     borderopacity="1.0"
     inkscape:pageopacity="0.0"
     inkscape:pageshadow="2"
     inkscape:zoom="5.9325463"
     inkscape:cx="30.841038"
     inkscape:cy="34.48586"
     inkscape:document-units="mm"
     inkscape:current-layer="g5432"
     showgrid="false"
     units="mm"
     showborder="true"
     inkscape:window-width="1920"
     inkscape:window-height="1178"
     inkscape:window-x="1912"
     inkscape:window-y="-8"
     inkscape:window-maximized="1"
     showguides="true"
     inkscape:guide-bbox="true">
    <sodipodi:guide
       position="-15.777924,33.671489"
       orientation="0,1"
       id="guide4223" />
    <sodipodi:guide
       position="42.491633,87.486277"
       orientation="1,0"
       id="guide4283" />
  </sodipodi:namedview>
  <metadata
     id="metadata7">
    <rdf:RDF>
      <cc:Work
         rdf:about="">
        <dc:format>image/svg+xml</dc:format>
        <dc:type
           rdf:resource="http://purl.org/dc/dcmitype/StillImage" />
        <dc:title></dc:title>
      </cc:Work>
    </rdf:RDF>
  </metadata>
  <g
     inkscape:label="Layer 1"
     inkscape:groupmode="layer"
     id="layer1"
     transform="translate(0,-967.32301)"
     sodipodi:insensitive="true">
    <rect
       style="color:#000000;clip-rule:nonzero;display:inline;overflow:visible;visibility:visible;opacity:1;isolation:auto;mix-blend-mode:normal;color-interpolation:sRGB;color-interpolation-filters:linearRGB;solid-color:#000000;solid-opacity:1;fill:none;fill-opacity:1;fill-rule:nonzero;stroke:none;stroke-width:1;stroke-linecap:butt;stroke-linejoin:miter;stroke-miterlimit:4;stroke-dasharray:none;stroke-dashoffset:0;stroke-opacity:1;color-rendering:auto;image-rendering:auto;shape-rendering:auto;text-rendering:auto;enable-background:accumulate"
       id="rect4178"
       width="85.340836"
       height="85.340836"
       x="-0.11919111"
       y="967.37909" />
  </g>
  <g
     inkscape:groupmode="layer"
     id="layer2"
     inkscape:label="img">
    <g
       id="g4259"
       transform="matrix(0.80109719,0,0,0.80109719,24.652999,5.1052129)">
      <g
         id="g5432"
         transform="matrix(0.99880985,0,0,0.99880985,-2.0781679,1.3124868)">
        <g
           id="g5537"
           transform="matrix(1.0620833,0,0,1.0620833,3.7816953,-7.6226288)">
          <path
             id="path5527"
             d="M 5.831,15.338 C 8.363,14.381 7.777,8.333 7.777,8.333 7.777,3.73 11.514,0 16.13,0 c 4.603,0 8.346,3.73 8.346,8.333 0,4.622 -3.743,8.359 -8.346,8.359 -1.549,0 -2.923,-0.547 -4.154,-1.263 -3.45,0.248 -7.715,0.495 -6.145,-0.091 z"
             inkscape:connector-curvature="0" />
          <path
             id="path5529"
             d="m 38.845,43.854 c 0,-6.602 -4.746,-12.07 -11.003,-13.242 -2.129,-6.751 -5.586,-11.771 -11.257,-11.771 -7.676,0 -7.969,2.578 -10.045,6.849 0,0 -0.006,0 -0.006,0.007 l 0,0.013 C 4.45,29.974 0.069,55.007 0.069,55.007 c -0.332,1.438 0.566,2.871 1.999,3.209 0.208,0.039 0.41,0.065 0.605,0.065 1.217,0 2.318,-0.84 2.604,-2.07 l 5.925,-24.805 -2.832,35.208 4.381,0 1.719,31.381 c 0,1.094 0.898,2.005 1.992,2.005 1.126,0 2.012,-0.911 2.012,-2.005 l 1.712,-31.381 10.593,0 c 0,0 0.293,-4.427 0.24,-10.547 4.609,-2.148 7.826,-6.796 7.826,-12.213 z m -9.414,4.994 c 0,0 -5.808,-3.158 -5.808,-6.712 0,-1.686 1.367,-3.053 3.06,-3.053 1.394,0 2.377,1.022 2.748,2.311 0.377,-1.289 1.354,-2.311 2.747,-2.311 1.692,0 3.066,1.367 3.066,3.053 10e-4,3.554 -5.813,6.712 -5.813,6.712 z"
             inkscape:connector-curvature="0" />
        </g>
      </g>
    </g>
  </g>
</svg>
