<?xml version="1.0" encoding="utf-8"?>
<svg viewBox="0 0 500 500" xmlns="http://www.w3.org/2000/svg">
  <ellipse transform="matrix(0.748985, -0.662587, 0.662587, 0.748985, 164.001153, 95.745079)" cx="78.71" cy="40.819" rx="40.817" ry="40.819"/>
  <path d="M 252.246 127.098 C 251.76 127.098 251.283 127.132 250.811 127.185 C 248.293 126.762 245.677 126.534 242.951 126.534 C 240.22 126.534 237.602 126.762 235.083 127.187 C 234.611 127.134 234.134 127.1 233.649 127.1 C 212.387 127.049 195.013 133.558 183.241 144.868 C 171.443 156.134 165.886 171.527 165.93 186.793 C 165.955 200.661 170.311 214.668 178.506 226.943 C 171.561 280.971 176.276 336.64 176.276 336.64 C 176.276 341.415 185.238 344.947 198.503 347.248 L 198.503 453.925 C 198.503 463.944 206.625 472.066 216.645 472.066 C 226.661 472.066 234.787 463.944 234.787 453.925 L 234.787 350.364 C 240.206 350.488 245.696 350.488 251.114 350.364 L 251.114 453.925 C 251.114 463.944 259.237 472.066 269.256 472.066 C 279.272 472.066 287.398 463.944 287.398 453.925 L 287.398 347.248 C 300.661 344.947 309.622 341.413 309.622 336.64 C 309.622 336.64 313.571 289.989 308.914 240.652 C 312.871 238.227 316.403 235.308 319.395 231.964 C 328.514 221.874 332.905 208.683 332.905 195.345 C 332.905 178.818 326.169 161.594 312.43 148.536 C 298.711 135.443 278.157 127.045 252.246 127.098 Z M 299.916 215.555 C 295.573 219.92 289.695 222.859 280.315 222.946 C 276.865 222.946 273.739 224.327 271.45 226.56 C 268.173 224.762 265.358 222.037 263.464 218.496 C 258.266 208.777 261.929 196.686 271.647 191.485 C 281.366 186.287 293.457 189.952 298.657 199.67 C 301.38 204.761 301.652 210.494 299.916 215.555 Z M 247.965 272.221 C 239.35 276.827 228.633 273.58 224.025 264.966 C 223.437 263.867 222.98 262.731 222.643 261.579 L 203.581 257.874 C 198.502 256.886 195.182 251.967 196.17 246.884 C 196.228 246.587 196.343 246.316 196.428 246.03 C 203.806 251.675 212.449 256.269 222.169 259.405 C 225.255 260.401 228.45 261.25 231.746 261.938 C 238.312 263.31 245.267 264.072 252.597 264.072 C 252.666 264.072 252.733 264.072 252.802 264.072 C 259.815 264.072 265.501 258.384 265.501 251.37 C 265.501 250.006 265.28 248.693 264.882 247.463 C 263.233 242.363 258.451 238.673 252.802 238.673 C 251.336 238.669 249.904 238.622 248.495 238.548 C 244.87 238.359 241.427 237.953 238.172 237.34 L 243.742 234.359 L 238.608 229.836 C 234.725 226.415 234.35 220.495 237.773 216.609 C 241.196 212.725 247.12 212.351 251.002 215.773 L 268.451 231.148 C 268.413 231.249 268.375 231.351 268.338 231.454 C 267.877 232.77 267.614 234.178 267.614 235.651 C 267.614 238.61 268.636 241.324 270.332 243.482 C 271.883 245.454 273.998 246.96 276.442 247.742 C 275.98 253.546 272.68 259.003 267.164 261.953 L 247.965 272.221 Z M 291.153 163.762 C 292.505 164.784 293.771 165.849 294.939 166.952 C 303.539 175.114 307.504 185.663 307.508 195.343 C 307.508 200.316 306.458 204.933 304.582 208.866 C 301.559 192.491 297.245 176.895 291.153 163.762 Z"/>
  <path d="M 282.48 85.214 Z" style="stroke: black; fill: none;"/>
  <path d="M 242.357 102.888 Z" style="stroke: black;"/>
  <path d="M 253.821 99.065 Z" style="stroke: black;"/>
  <g id="layer1" transform="matrix(0.14924, 0, 0, 0.11579, 188.17627, 253.754379)">
    <g id="g4763" transform="translate(107.85715,208.79078)" style="fill:#000000;fill-opacity:1">
      <g id="g4722" style="fill:#000000;fill-opacity:1">
        <g id="favorite" style="fill:#000000;fill-opacity:1">
          <path id="path4725" d="M 255,489.6 219.3,453.9 C 86.7,336.6 0,257.55 0,160.65 0,81.6 61.2,20.4 140.25,20.4 183.6,20.4 226.95,40.8 255,73.95 283.05,40.8 326.4,20.4 369.75,20.4 448.8,20.4 510,81.6 510,160.65 510,257.55 423.3,336.6 290.7,453.9 L 255,489.6 Z" style="fill:#000000;fill-opacity:1"/>
        </g>
      </g>
      <g id="g4727" style="fill:#000000;fill-opacity:1"/>
      <g id="g4729" style="fill:#000000;fill-opacity:1"/>
      <g id="g4731" style="fill:#000000;fill-opacity:1"/>
      <g id="g4733" style="fill:#000000;fill-opacity:1"/>
      <g id="g4735" style="fill:#000000;fill-opacity:1"/>
      <g id="g4737" style="fill:#000000;fill-opacity:1"/>
      <g id="g4739" style="fill:#000000;fill-opacity:1"/>
      <g id="g4741" style="fill:#000000;fill-opacity:1"/>
      <g id="g4743" style="fill:#000000;fill-opacity:1"/>
      <g id="g4745" style="fill:#000000;fill-opacity:1"/>
      <g id="g4747" style="fill:#000000;fill-opacity:1"/>
      <g id="g4749" style="fill:#000000;fill-opacity:1"/>
      <g id="g4751" style="fill:#000000;fill-opacity:1"/>
      <g id="g4753" style="fill:#000000;fill-opacity:1"/>
      <g id="g4755" style="fill:#000000;fill-opacity:1"/>
    </g>
    <path style="fill:#ffffff;fill-opacity:1" d="M 349.15128,682.90843 C 342.9395,676.45175 319.21429,654.2886 296.42857,633.65706 204.90698,550.78789 169.05017,512.51116 140.82187,467.54869 97.113969,397.9301 99.524672,325.08756 147.22423,274.09288 c 26.89976,-28.75803 59.11991,-42.3021 100.63291,-42.3021 39.90016,0 71.90289,12.56635 100.77129,39.56936 l 13.71201,12.82598 10.61549,-10.30446 c 27.02241,-26.23065 66.55016,-42.09088 104.90121,-42.09088 99.54717,0 162.89866,93.82796 129.05635,191.14145 -19.06283,54.81515 -61.01969,104.47837 -177.62778,210.25337 -29.85714,27.08338 -56.73498,51.99195 -59.72853,55.3524 -2.99355,3.36046 -6.26833,6.10992 -7.27729,6.10992 -1.00896,0 -6.91684,-5.28277 -13.12861,-11.73949 z" id="path4791"/>
  </g>
  <path d="M 239.014 72.318 L 239.014 72.318 Z" style="fill: none; stroke: black;" transform="matrix(-1, 0, 0, -1, 478.028038, 144.636002)"/>
</svg>