<svg xmlns="http://www.w3.org/2000/svg" xmlns:xlink="http://www.w3.org/1999/xlink" version="1.1" x="0px" y="0px" viewBox="0 0 38.845 100" enable-background="new 0 0 38.845 100" xml:space="preserve"><path d="M5.831,15.338c2.532-0.957,1.946-7.005,1.946-7.005C7.777,3.73,11.514,0,16.13,0c4.603,0,8.346,3.73,8.346,8.333  c0,4.622-3.743,8.359-8.346,8.359c-1.549,0-2.923-0.547-4.154-1.263C8.526,15.677,4.261,15.924,5.831,15.338z"></path><path d="M38.845,43.854c0-6.602-4.746-12.07-11.003-13.242c-2.129-6.751-5.586-11.771-11.257-11.771  c-7.676,0-7.969,2.578-10.045,6.849c0,0-0.006,0-0.006,0.007v0.013C4.45,29.974,0.069,55.007,0.069,55.007  c-0.332,1.438,0.566,2.871,1.999,3.209c0.208,0.039,0.41,0.065,0.605,0.065c1.217,0,2.318-0.84,2.604-2.07l5.925-24.805L8.37,66.614  h4.381l1.719,31.381c0,1.094,0.898,2.005,1.992,2.005c1.126,0,2.012-0.911,2.012-2.005l1.712-31.381h10.593  c0,0,0.293-4.427,0.24-10.547C35.628,53.919,38.845,49.271,38.845,43.854z M29.431,48.848c0,0-5.808-3.158-5.808-6.712  c0-1.686,1.367-3.053,3.06-3.053c1.394,0,2.377,1.022,2.748,2.311c0.377-1.289,1.354-2.311,2.747-2.311  c1.692,0,3.066,1.367,3.066,3.053C35.245,45.69,29.431,48.848,29.431,48.848z"></path></svg>