<?xml version="1.0" encoding="UTF-8" standalone="no"?>
<!-- Created with Inkscape (http://www.inkscape.org/) -->

<svg
   xmlns:dc="http://purl.org/dc/elements/1.1/"
   xmlns:cc="http://creativecommons.org/ns#"
   xmlns:rdf="http://www.w3.org/1999/02/22-rdf-syntax-ns#"
   xmlns:svg="http://www.w3.org/2000/svg"
   xmlns="http://www.w3.org/2000/svg"
   xmlns:sodipodi="http://sodipodi.sourceforge.net/DTD/sodipodi-0.dtd"
   xmlns:inkscape="http://www.inkscape.org/namespaces/inkscape"
   width="30mm"
   height="24mm"
   viewBox="0 0 106.29922 85.039369"
   id="svg2"
   version="1.1"
   inkscape:version="0.91 r13725"
   sodipodi:docname="rice.svg">
  <defs
     id="defs4" />
  <sodipodi:namedview
     id="base"
     pagecolor="#ffffff"
     bordercolor="#666666"
     borderopacity="1.0"
     inkscape:pageopacity="0.0"
     inkscape:pageshadow="2"
     inkscape:zoom="8.3898874"
     inkscape:cx="56.377527"
     inkscape:cy="43.997007"
     inkscape:document-units="mm"
     inkscape:current-layer="g5432"
     showgrid="false"
     units="mm"
     showborder="true"
     inkscape:window-width="1920"
     inkscape:window-height="1178"
     inkscape:window-x="1912"
     inkscape:window-y="-8"
     inkscape:window-maximized="1"
     showguides="true"
     inkscape:guide-bbox="true">
    <sodipodi:guide
       position="18.713006,34.207849"
       orientation="0,1"
       id="guide4223" />
    <sodipodi:guide
       position="53.159241,103.15991"
       orientation="1,0"
       id="guide4283" />
  </sodipodi:namedview>
  <metadata
     id="metadata7">
    <rdf:RDF>
      <cc:Work
         rdf:about="">
        <dc:format>image/svg+xml</dc:format>
        <dc:type
           rdf:resource="http://purl.org/dc/dcmitype/StillImage" />
        <dc:title></dc:title>
      </cc:Work>
    </rdf:RDF>
  </metadata>
  <g
     inkscape:label="Layer 1"
     inkscape:groupmode="layer"
     id="layer1"
     transform="translate(0,-967.32301)"
     sodipodi:insensitive="true">
    <rect
       style="color:#000000;clip-rule:nonzero;display:inline;overflow:visible;visibility:visible;opacity:1;isolation:auto;mix-blend-mode:normal;color-interpolation:sRGB;color-interpolation-filters:linearRGB;solid-color:#000000;solid-opacity:1;fill:none;fill-opacity:1;fill-rule:nonzero;stroke:none;stroke-width:1;stroke-linecap:butt;stroke-linejoin:miter;stroke-miterlimit:4;stroke-dasharray:none;stroke-dashoffset:0;stroke-opacity:1;color-rendering:auto;image-rendering:auto;shape-rendering:auto;text-rendering:auto;enable-background:accumulate"
       id="rect4178"
       width="85.340836"
       height="85.340836"
       x="-0.11919111"
       y="967.37909" />
  </g>
  <g
     inkscape:groupmode="layer"
     id="layer2"
     inkscape:label="img">
    <g
       id="g4259"
       transform="matrix(0.80109719,0,0,0.80109719,24.652999,5.1052129)">
      <g
         id="g5432"
         transform="matrix(0.99880985,0,0,0.99880985,-2.0781679,1.3124868)">
        <g
           id="g5725"
           transform="matrix(0.52837665,0,0,0.52837669,-94.399154,-55.254342)">
          <path
             id="path5679"
             d="m 249.674,251.123 c -2.018,-6.836 8.971,-10.963 8.841,-4.075 1.016,3.678 1.302,5.808 -2.448,6.511 -3.313,0.617 -5.383,0.982 -6.393,-2.436 z"
             inkscape:connector-curvature="0" />
          <path
             id="path5681"
             d="m 257.63,228.486 c -1.094,3.718 4.311,4.251 2.91,8.359 2.819,0 1.999,-2.246 3.054,-4.095 1.523,-2.656 5.052,-3.301 4.792,-6.96 0.267,6.726 4.004,-0.495 6.523,-0.762 0.137,-1.256 -0.449,-2.819 -0.586,-3.665 -1.237,-2.656 -1.127,-5.248 -4.531,-3.379 -2.429,1.321 -5.547,3.88 -2.507,6.185 -3.079,0.45 -8.522,0.424 -9.655,4.317 z"
             inkscape:connector-curvature="0" />
          <path
             id="path5683"
             d="m 249.74,218.798 c -1.4,0.794 -2.129,3.861 -2.448,5.312 -0.586,2.689 -0.41,11.211 4.108,9.824 2.558,-0.774 2.103,-4.674 3.092,-6.719 0.671,-1.36 1.634,-1.139 1.992,-2.584 0.261,-1.061 -0.345,-2.721 -0.508,-3.802 1.719,4.427 8.366,2.429 6.731,-2.031 -1.341,-1.224 -3.965,-1.985 -5.696,-1.074 -2.52,1.335 -0.222,2.793 -2.148,2.865 -1.321,0.039 -2.376,-3.34 -5.123,-1.791 z"
             inkscape:connector-curvature="0" />
          <path
             id="path5685"
             d="m 257.012,237.666 c -1.843,-6.126 -12.884,2.767 -10.768,6.576 1.543,2.793 4.056,-1.959 5.612,-2.76 2.135,-1.095 5.618,-0.112 5.156,-3.816 z"
             inkscape:connector-curvature="0" />
          <path
             id="path5687"
             d="m 261.179,215.205 c 1.692,0.697 3.633,0.599 3.053,-1.907 -2.506,-2.025 -9.532,-2.586 -9.303,2.031 1.959,-0.248 4.329,-0.925 6.25,-0.124 z"
             inkscape:connector-curvature="0" />
          <path
             id="path5689"
             d="m 265.925,239.15 c 1.861,-1.282 4.961,-1.087 4.466,-4.192 -3.093,-7.058 -8.854,6.973 -9.343,9.381 2.221,-0.951 2.865,-3.815 4.877,-5.189 z"
             inkscape:connector-curvature="0" />
          <path
             id="path5691"
             d="m 279.069,248.304 c 1.061,2.057 5.67,0.749 7.994,-0.41 3.041,-1.498 3.75,-3.529 3.034,-6.934 -2.089,-8.633 -13.932,1.719 -11.028,7.344 z"
             inkscape:connector-curvature="0" />
          <path
             id="path5693"
             d="m 271.973,251.748 c 2.571,-2.161 1.96,-9.167 1.536,-12.024 -2.682,-0.423 -5.924,0.749 -7.832,2.682 -1.38,1.419 -5.286,8.08 -3.73,10.04 1.048,1.32 9.095,0.097 10.026,-0.698 z"
             inkscape:connector-curvature="0" />
          <path
             id="path5695"
             d="m 286.979,234.808 c 2.076,-0.423 1.295,-3.691 0.95,-5.586 -0.163,-5.026 -5.527,-0.996 -4.577,2.617 0.378,1.413 1.895,3.32 3.627,2.969 z"
             inkscape:connector-curvature="0" />
          <path
             id="path5697"
             d="m 272.949,234.834 c 0.808,1.511 2.864,1.523 3.405,4.193 0.618,3.014 -0.71,6.198 -0.312,9.264 1.939,-1.582 1.621,-7.285 3.326,-9.941 0.99,-1.556 2.155,-1.784 2.188,-3.613 0.026,-1.276 -1.224,-2.942 -1.861,-3.991 1.973,-0.091 3.965,-7.135 1.172,-6.999 -1.433,-2.097 -3.054,-2.422 -3.764,-0.137 -0.742,2.396 2.155,4.713 2.891,6.712 -3.438,-1.96 -9.675,-0.436 -7.045,4.512 z"
             inkscape:connector-curvature="0" />
          <path
             id="path5699"
             d="m 231.172,234.046 c 1.374,-0.072 1.152,1.224 2.506,0.651 1.374,-0.573 2.331,-3.079 3.21,-4.225 1.432,-6.348 -11.517,-5.365 -10.404,2.142 0.443,2.981 1.745,1.608 4.688,1.432 z"
             inkscape:connector-curvature="0" />
          <path
             id="path5701"
             d="m 225.319,226.65 c -0.352,-2.656 -4.29,-3.405 -5.391,-0.833 -0.807,1.881 4.916,7.174 5.391,0.833 z"
             inkscape:connector-curvature="0" />
          <path
             id="path5703"
             d="m 223.945,242.204 c -0.866,1.797 -1.185,4.017 -1.029,6.002 0.28,3.502 0.684,2.715 3.171,3.516 1.354,0.423 3.613,1.705 5.039,1.484 2.91,-0.476 1.569,-1.322 1.022,-3.354 -0.449,-1.686 -1.517,-3.47 -1.498,-5.254 0.026,-2.454 2.097,-4.127 1.855,-6.647 -1.919,-5.572 -7.485,1.987 -8.56,4.253 z"
             inkscape:connector-curvature="0" />
          <path
             id="path5705"
             d="m 213.366,235.231 c 1.302,0.553 1.784,2.786 3.027,3.105 1.087,0.267 2.312,-1.309 4.102,-1.022 1.537,0.254 1.816,3.119 3.418,0.677 0.964,-1.484 0.664,-3.119 0.104,-4.727 -3.281,-3.197 -7.409,-4.844 -11.589,-2.708 -0.872,0.449 -4.453,1.445 -2.799,2.956 1.738,1.582 2.252,1.087 3.737,1.719 z"
             inkscape:connector-curvature="0" />
          <path
             id="path5707"
             d="m 252.259,212.985 c -2.129,-3.855 -12.702,-4.141 -10.664,2.031 1.315,3.978 11.374,2.871 10.664,-2.031 z"
             inkscape:connector-curvature="0" />
          <path
             id="path5709"
             d="m 212.845,237.015 c -2.396,1.348 -4.876,3.607 -3.503,6.712 2.461,5.54 3.379,2.493 4.902,-0.996 0.417,2.317 -0.091,4.739 2.351,5.898 2.649,1.243 3.737,-0.078 4.017,-2.78 0.189,-1.784 1.387,-6.289 -0.957,-6.862 -1.673,-0.397 -3.561,2.467 -5.137,2.904 0.267,-0.794 0.41,-1.758 0.833,-2.48 -0.475,-1.159 -1.497,-1.745 -2.506,-2.396 z"
             inkscape:connector-curvature="0" />
          <path
             id="path5711"
             d="m 240.176,227.301 c 0.508,2.454 -2.838,5.963 -4.037,7.793 0.97,-0.449 0.931,-0.098 1.693,-0.859 0.098,1.25 0.195,2.493 0.299,3.743 3.425,-0.475 4.316,3.19 6.999,-1.159 2.513,-4.056 -0.072,-5.924 -4.193,-5.377 0.794,-2.331 2.956,-0.163 3.49,-2.708 0.527,-2.494 0.514,-5.039 1.028,-7.533 -1.048,-1.23 -3.574,-2.891 -5.149,-2.428 -1.12,0.345 -3.809,3.705 -3.659,4.688 0.3,1.946 3.073,1.672 3.529,3.84 z"
             inkscape:connector-curvature="0" />
          <path
             id="path5713"
             d="m 234.023,244.423 c -2.474,3.418 0.912,3.457 2.201,4.916 1.341,1.51 0.866,3.62 2.624,3.939 1.302,0.228 4.049,1.36 5.326,0.403 2.604,-1.946 -0.697,-7.35 -1.953,-9.557 -1.655,-2.37 -6.492,-2.044 -8.198,0.299 z"
             inkscape:connector-curvature="0" />
          <path
             id="path5715"
             d="m 300,244.287 c 0,-3.613 -2.07,-6.973 -5.605,-9.974 -1.491,0.983 -3.093,1.842 -4.739,2.532 2.291,1.719 3.574,3.613 3.574,5.612 0,7.806 -19.355,14.128 -43.229,14.128 -23.874,0 -43.229,-6.322 -43.229,-14.128 0,-2.201 1.614,-4.291 4.388,-6.152 l -4.492,-2.891 c -4.213,3.204 -6.668,6.908 -6.668,10.873 0,0.215 0.013,0.437 0.026,0.651 l -0.026,0 c 0.326,8.444 2.943,17.298 7.259,25.579 0,0 10.462,20.639 42.741,20.639 32.278,0 42.565,-20.814 42.565,-20.814 4.303,-8.242 7.109,-17.174 7.422,-25.403 l -0.014,0 c 0.014,-0.216 0.027,-0.437 0.027,-0.652 z"
             inkscape:connector-curvature="0" />
          <path
             id="path5717"
             d="m 238.027,217.334 c 1.68,-5.872 -12.305,-0.124 -9.863,5.99 1.784,4.452 8.542,-3.907 9.863,-5.99 z"
             inkscape:connector-curvature="0" />
        </g>
      </g>
    </g>
  </g>
</svg>
