<?xml version="1.0" encoding="utf-8"?>
<svg viewBox="192 200 117 101" xmlns="http://www.w3.org/2000/svg">
  <path d="M 249.674 251.123 C 247.656 244.287 258.645 240.16 258.515 247.048 C 259.531 250.726 259.817 252.856 256.067 253.559 C 252.754 254.176 250.684 254.541 249.674 251.123 Z"/>
  <path d="M 257.63 228.486 C 256.536 232.204 261.941 232.737 260.54 236.845 C 263.359 236.845 262.539 234.599 263.594 232.75 C 265.117 230.094 268.646 229.449 268.386 225.79 C 268.653 232.516 272.39 225.295 274.909 225.028 C 275.046 223.772 274.46 222.209 274.323 221.363 C 273.086 218.707 273.196 216.115 269.792 217.984 C 267.363 219.305 264.245 221.864 267.285 224.169 C 264.206 224.619 258.763 224.593 257.63 228.486 Z"/>
  <path d="M 249.74 218.798 C 248.34 219.592 247.611 222.659 247.292 224.11 C 246.706 226.799 246.882 235.321 251.4 233.934 C 253.958 233.16 253.503 229.26 254.492 227.215 C 255.163 225.855 256.126 226.076 256.484 224.631 C 256.745 223.57 256.139 221.91 255.976 220.829 C 257.695 225.256 264.342 223.258 262.707 218.798 C 261.366 217.574 258.742 216.813 257.011 217.724 C 254.491 219.059 256.789 220.517 254.863 220.589 C 253.542 220.628 252.487 217.249 249.74 218.798 Z"/>
  <path d="M 257.012 237.666 C 255.169 231.54 244.128 240.433 246.244 244.242 C 247.787 247.035 250.3 242.283 251.856 241.482 C 253.991 240.387 257.474 241.37 257.012 237.666 Z"/>
  <path d="M 261.179 215.205 C 262.871 215.902 264.812 215.804 264.232 213.298 C 261.726 211.273 254.7 210.712 254.929 215.329 C 256.888 215.081 259.258 214.404 261.179 215.205 Z"/>
  <path d="M 265.925 239.15 C 267.786 237.868 270.886 238.063 270.391 234.958 C 267.298 227.9 261.537 241.931 261.048 244.339 C 263.269 243.388 263.913 240.524 265.925 239.15 Z"/>
  <path d="M 279.069 248.304 C 280.13 250.361 284.739 249.053 287.063 247.894 C 290.104 246.396 290.813 244.365 290.097 240.96 C 288.008 232.327 276.165 242.679 279.069 248.304 Z"/>
  <path d="M 271.973 251.748 C 274.544 249.587 273.933 242.581 273.509 239.724 C 270.827 239.301 267.585 240.473 265.677 242.406 C 264.297 243.825 260.391 250.486 261.947 252.446 C 262.995 253.766 271.042 252.543 271.973 251.748 Z"/>
  <path d="M 286.979 234.808 C 289.055 234.385 288.274 231.117 287.929 229.222 C 287.766 224.196 282.402 228.226 283.352 231.839 C 283.73 233.252 285.247 235.159 286.979 234.808 Z"/>
  <path d="M 272.949 234.834 C 273.757 236.345 275.813 236.357 276.354 239.027 C 276.972 242.041 275.644 245.225 276.042 248.291 C 277.981 246.709 277.663 241.006 279.368 238.35 C 280.358 236.794 281.523 236.566 281.556 234.737 C 281.582 233.461 280.332 231.795 279.695 230.746 C 281.668 230.655 283.66 223.611 280.867 223.747 C 279.434 221.65 277.813 221.325 277.103 223.61 C 276.361 226.006 279.258 228.323 279.994 230.322 C 276.556 228.362 270.319 229.886 272.949 234.834 Z"/>
  <path d="M 231.172 234.046 C 232.546 233.974 232.324 235.27 233.678 234.697 C 235.052 234.124 236.009 231.618 236.888 230.472 C 238.32 224.124 225.371 225.107 226.484 232.614 C 226.927 235.595 228.229 234.222 231.172 234.046 Z"/>
  <path d="M 225.319 226.65 C 224.967 223.994 221.029 223.245 219.928 225.817 C 219.121 227.698 224.844 232.991 225.319 226.65 Z"/>
  <path d="M 223.945 242.204 C 223.079 244.001 222.76 246.221 222.916 248.206 C 223.196 251.708 223.6 250.921 226.087 251.722 C 227.441 252.145 229.7 253.427 231.126 253.206 C 234.036 252.73 232.695 251.884 232.148 249.852 C 231.699 248.166 230.631 246.382 230.65 244.598 C 230.676 242.144 232.747 240.471 232.505 237.951 C 230.586 232.379 225.02 239.938 223.945 242.204 Z"/>
  <path d="M 213.366 235.231 C 214.668 235.784 215.15 238.017 216.393 238.336 C 217.48 238.603 218.705 237.027 220.495 237.314 C 222.032 237.568 222.311 240.433 223.913 237.991 C 224.877 236.507 224.577 234.872 224.017 233.264 C 220.736 230.067 216.608 228.42 212.428 230.556 C 211.556 231.005 207.975 232.001 209.629 233.512 C 211.367 235.094 211.881 234.599 213.366 235.231 Z"/>
  <path d="M 252.259 212.985 C 250.13 209.13 239.557 208.844 241.595 215.016 C 242.91 218.994 252.969 217.887 252.259 212.985 Z"/>
  <path d="M 212.845 237.015 C 210.449 238.363 207.969 240.622 209.342 243.727 C 211.803 249.267 212.721 246.22 214.244 242.731 C 214.661 245.048 214.153 247.47 216.595 248.629 C 219.244 249.872 220.332 248.551 220.612 245.849 C 220.801 244.065 221.999 239.56 219.655 238.987 C 217.982 238.59 216.094 241.454 214.518 241.891 C 214.785 241.097 214.928 240.133 215.351 239.411 C 214.876 238.252 213.854 237.666 212.845 237.015 Z"/>
  <path d="M 240.176 227.301 C 240.684 229.755 237.338 233.264 236.139 235.094 C 237.109 234.645 237.07 234.996 237.832 234.235 C 237.93 235.485 238.027 236.728 238.131 237.978 C 241.556 237.503 242.447 241.168 245.13 236.819 C 247.643 232.763 245.058 230.895 240.937 231.442 C 241.731 229.111 243.893 231.279 244.427 228.734 C 244.954 226.24 244.941 223.695 245.455 221.201 C 244.407 219.971 241.881 218.31 240.306 218.773 C 239.186 219.118 236.497 222.478 236.647 223.461 C 236.947 225.407 239.72 225.133 240.176 227.301 Z"/>
  <path d="M 234.023 244.423 C 231.549 247.841 234.935 247.88 236.224 249.339 C 237.565 250.849 237.09 252.959 238.848 253.278 C 240.15 253.506 242.897 254.638 244.174 253.681 C 246.778 251.735 243.477 246.331 242.221 244.124 C 240.566 241.754 235.729 242.08 234.023 244.423 Z"/>
  <path d="M 300 244.287 C 300 240.674 297.93 237.314 294.395 234.313 C 292.904 235.296 291.302 236.155 289.656 236.845 C 291.947 238.564 293.23 240.458 293.23 242.457 C 293.23 250.263 273.875 256.585 250.001 256.585 C 226.127 256.585 206.772 250.263 206.772 242.457 C 206.772 240.256 208.386 238.166 211.16 236.305 L 206.668 233.414 C 202.455 236.618 200 240.322 200 244.287 C 200 244.502 200.013 244.724 200.026 244.938 L 200 244.938 C 200.326 253.382 202.943 262.236 207.259 270.517 C 207.259 270.517 217.721 291.156 250 291.156 C 282.278 291.156 292.565 270.342 292.565 270.342 C 296.868 262.1 299.674 253.168 299.987 244.939 L 299.973 244.939 C 299.987 244.723 300 244.502 300 244.287 Z"/>
  <path d="M 238.027 217.334 C 239.707 211.462 225.722 217.21 228.164 223.324 C 229.948 227.776 236.706 219.417 238.027 217.334 Z"/>
</svg>