<svg xmlns="http://www.w3.org/2000/svg" xmlns:xlink="http://www.w3.org/1999/xlink" version="1.1" x="0px" y="0px" viewBox="0 0 100 79.193" enable-background="new 0 0 100 79.193" xml:space="preserve"><path d="M21.602,0C9.674,0,0,4.635,0,10.352v64.752v2.317v1.771h3.639v-1.771h35.912v1.771h3.652v-1.771v-2.317V10.352  C43.203,4.635,33.535,0,21.602,0z M37.591,43.216h-2.559v-8.373h2.559V43.216z M2.728,10.352c0-3.177,7.188-7.617,18.874-7.617  c11.693,0,18.874,4.44,18.874,7.617H2.728z"></path><path d="M78.405,0C66.472,0,56.797,4.635,56.797,10.352v64.752v2.317v1.771h3.646v-1.771h35.905v1.771H100v-1.771v-2.317V10.352  C100,4.635,90.332,0,78.405,0z M94.395,43.216h-2.565v-8.373h2.565V43.216z M59.524,10.352c0-3.177,7.188-7.617,18.881-7.617  c11.692,0,18.867,4.44,18.867,7.617H59.524z"></path></svg>