<?xml version="1.0" encoding="utf-8"?>
<svg viewBox="190 201 121 99" xmlns="http://www.w3.org/2000/svg">
  <path d="M 221.602 210.404 C 209.674 210.404 200 215.039 200 220.756 L 200 285.508 L 200 287.825 L 200 289.596 L 203.639 289.596 L 203.639 287.825 L 239.551 287.825 L 239.551 289.596 L 243.203 289.596 L 243.203 287.825 L 243.203 285.508 L 243.203 220.756 C 243.203 215.039 233.535 210.404 221.602 210.404 Z M 237.591 253.62 L 235.032 253.62 L 235.032 245.247 L 237.591 245.247 L 237.591 253.62 Z M 202.728 220.756 C 202.728 217.579 209.916 213.139 221.602 213.139 C 233.295 213.139 240.476 217.579 240.476 220.756 L 202.728 220.756 Z"/>
  <path d="M 278.405 210.404 C 266.472 210.404 256.797 215.039 256.797 220.756 L 256.797 285.508 L 256.797 287.825 L 256.797 289.596 L 260.443 289.596 L 260.443 287.825 L 296.348 287.825 L 296.348 289.596 L 300 289.596 L 300 287.825 L 300 285.508 L 300 220.756 C 300 215.039 290.332 210.404 278.405 210.404 Z M 294.395 253.62 L 291.83 253.62 L 291.83 245.247 L 294.395 245.247 L 294.395 253.62 Z M 259.524 220.756 C 259.524 217.579 266.712 213.139 278.405 213.139 C 290.097 213.139 297.272 217.579 297.272 220.756 L 259.524 220.756 Z"/>
</svg>