<svg xmlns="http://www.w3.org/2000/svg" xmlns:xlink="http://www.w3.org/1999/xlink" version="1.1" x="0px" y="0px" viewBox="0 0 83.097 100" enable-background="new 0 0 83.097 100" xml:space="preserve"><path d="M65.866,15.104c-4.902,0-8.867,3.958-8.867,8.841c0,4.896,3.965,8.854,8.867,8.854c4.877,0,8.842-3.958,8.842-8.854  C74.708,19.062,70.743,15.104,65.866,15.104z"></path><path d="M81.881,65.521c-1.002,0.43-2.168-0.064-2.598-1.055L75.157,47.24L74.59,65.547h-0.014l1.641,30.273  c0.104,1.823-1.256,3.398-3.072,3.528c-0.085,0.014-0.163,0.014-0.248,0.014c-1.719,0-3.184-1.328-3.281-3.073l-3.77-28.567  L62.11,96.289c-0.137,1.745-1.589,3.073-3.314,3.073c-0.071,0-0.149,0-0.24-0.014c-1.811-0.13-3.184-1.705-3.066-3.528l1.614-30.273  L56.549,47.24c0,0-10.996,11.081-11.68,11.38c-1.197,0.508-2.578-0.053-3.092-1.25l-8.933-19.44l6.771,32.839H33.08l-2.019,26.875  c0,1.289-1.061,2.356-2.344,2.356c-1.328,0-2.37-1.067-2.37-2.356l-2.012-26.875h-1.185h-1.191l-2.012,26.875  c0,1.289-1.048,2.356-2.37,2.356c-1.289,0-2.344-1.067-2.344-2.356l-2.025-26.875H6.68l6.764-32.839L4.518,57.37  c-0.508,1.197-1.901,1.758-3.099,1.25c-1.185-0.508-1.745-1.889-1.224-3.1c0,0,5.306-19.296,7.76-24.323  c2.448-5.02,4.896-8.073,14.232-8.073h0.963h0.957c9.33,0,11.784,3.053,14.232,8.073c1.797,3.672,5.091,14.935,6.745,20.743  c2.377-3.243,5.6-7.813,6.83-10.365c2.07-4.245,5.273-6.797,13.138-6.797h1.602c7.871,0,11.055,2.552,13.138,6.797  c2.07,4.219,3.145,21.341,3.145,21.341C83.373,63.945,82.891,65.091,81.881,65.521z"></path><path d="M38.197,16.432c0,2.539-2.148,4.597-4.818,4.597c-1.862,0-3.424-1.035-4.225-2.513c-1.823,1.498-4.056,2.513-6.595,2.513  c-2.552,0-4.779-1.016-6.602-2.513c-0.801,1.478-2.37,2.513-4.225,2.513c-2.669,0-4.818-2.058-4.818-4.597  c0-2.532,2.148-4.596,4.818-4.596c0.202,0,0.384,0.091,0.586,0.117c-0.072-0.488-0.293-0.924-0.293-1.439  C12.025,4.707,16.738,0,22.559,0C28.373,0,33.08,4.707,33.08,10.514c0,0.515-0.215,0.951-0.287,1.439  c0.195-0.026,0.377-0.117,0.586-0.117C36.048,11.836,38.197,13.9,38.197,16.432z"></path></svg>