<?xml version="1.0" encoding="UTF-8" standalone="no"?>
<!-- Created with Inkscape (http://www.inkscape.org/) -->

<svg
   xmlns:dc="http://purl.org/dc/elements/1.1/"
   xmlns:cc="http://creativecommons.org/ns#"
   xmlns:rdf="http://www.w3.org/1999/02/22-rdf-syntax-ns#"
   xmlns:svg="http://www.w3.org/2000/svg"
   xmlns="http://www.w3.org/2000/svg"
   xmlns:sodipodi="http://sodipodi.sourceforge.net/DTD/sodipodi-0.dtd"
   xmlns:inkscape="http://www.inkscape.org/namespaces/inkscape"
   width="701"
   height="353"
   viewBox="0 0 701.00004 353.00001"
   id="svg6415"
   version="1.1"
   inkscape:version="0.91 r13725"
   sodipodi:docname="white.svg">
  <defs
     id="defs6417" />
  <sodipodi:namedview
     id="base"
     pagecolor="#ffffff"
     bordercolor="#666666"
     borderopacity="1.0"
     inkscape:pageopacity="0.0"
     inkscape:pageshadow="2"
     inkscape:zoom="0.98994949"
     inkscape:cx="289.9444"
     inkscape:cy="173.7205"
     inkscape:document-units="px"
     inkscape:current-layer="layer3"
     showgrid="false"
     fit-margin-top="0"
     fit-margin-left="0"
     fit-margin-right="0"
     fit-margin-bottom="0"
     inkscape:window-width="1920"
     inkscape:window-height="1138"
     inkscape:window-x="-8"
     inkscape:window-y="-8"
     inkscape:window-maximized="1"
     units="px" />
  <metadata
     id="metadata6420">
    <rdf:RDF>
      <cc:Work
         rdf:about="">
        <dc:format>image/svg+xml</dc:format>
        <dc:type
           rdf:resource="http://purl.org/dc/dcmitype/StillImage" />
        <dc:title></dc:title>
      </cc:Work>
    </rdf:RDF>
  </metadata>
  <g
     inkscape:groupmode="layer"
     id="layer3"
     inkscape:label="Layer 2"
     transform="translate(0,140.12509)">
    <g
       transform="translate(9.8842049,-137.18759)"
       id="g3684"
       style="fill:#ffffff">
      <path
         inkscape:connector-curvature="0"
         d="m 205.086,163.943 c -4.867,-8.113 -67.023,-96.818 -67.023,-96.818 0,0 -57.928,88.703 -62.797,96.818 -5.25,8.75 -5.641,19.432 -1.512,26.057 3.686,5.913 16.398,16.511 18.607,20.656 3.514,6.594 -10.514,21.125 -2.85,38.125 4.371,9.695 13.578,14.125 19.744,14.043 16.164,-0.215 22.244,-0.074 22.244,-0.074 0,0 0.181,8.16 -0.125,11 -0.438,4.063 -2.125,6.25 -2.125,6.25 l 9.914,0 9.086,0 c 0,0 -2.25,-1.875 -2.625,-5.875 -0.24,-2.563 -0.125,-11.375 -0.125,-11.375 0,0 7.563,0.133 23.727,0.348 6.164,0.082 15.777,-4.484 20.145,-14.18 7.664,-17 -5.371,-32.277 -2.727,-38.193 1.917,-4.288 16.793,-16.842 19.223,-20.69 3.673,-5.818 4.469,-17.34 -0.781,-26.092 z M 132,243.75 c 0,2.75 -1.25,6.157 -5.005,6.156 -3.239,-0.001 -12.829,-0.006 -18.162,-0.081 -5.333,-0.075 -8.996,-6.763 -8.915,-15.669 0.081,-8.906 6.894,-16.546 4.113,-26.281 -2.5,-8.75 -14.072,-17.27 -16.952,-21.788 -2.844,-4.462 -2.939,-10.837 -1.279,-14.333 2.482,-5.23 42.436,-65.988 44.159,-68.588 1.723,-2.6 2.041,-0.416 2.041,4.834 0,5.25 0,135.75 0,135.75 z m 59.615,-57.663 c -3.015,4.43 -15.633,12.663 -18.153,22.469 -2.52,9.806 4.972,16.694 5.054,25.601 0.081,8.906 -3.93,15.594 -9.263,15.669 -5.333,0.075 -17.009,0.002 -20.243,-0.164 -3.135,-0.161 -4.01,-3.911 -4.01,-5.911 0,0 0,-130.5 0,-135.75 0,-5.25 -0.092,-7.432 1.631,-4.832 1.723,2.6 43.303,63.637 46.307,68.586 3.005,4.946 1.799,9.745 -1.323,14.332 z"
         id="path3686"
         style="fill:#ffffff" />
      <g
         id="g3688"
         style="fill:#ffffff">
        <path
           inkscape:connector-curvature="0"
           d="m 239.072,179.975 12.76,0 0,70.175 -12.76,0 0,-70.175 z"
           id="path3690"
           style="fill:#ffffff" />
        <path
           inkscape:connector-curvature="0"
           d="m 265.997,198.91 c 2.362,-0.674 5.435,-1.316 9.215,-1.924 3.779,-0.608 7.966,-0.912 12.558,-0.912 4.319,0 7.931,0.593 10.835,1.772 2.901,1.182 5.214,2.835 6.936,4.962 1.722,2.126 2.937,4.693 3.646,7.696 0.709,3.005 1.063,6.295 1.063,9.872 l 0,29.772 -12.252,0 0,-27.848 c 0,-2.835 -0.187,-5.249 -0.557,-7.241 -0.371,-1.99 -0.979,-3.61 -1.823,-4.859 -0.844,-1.249 -1.992,-2.16 -3.442,-2.734 -1.453,-0.572 -3.226,-0.86 -5.315,-0.86 -1.555,0 -3.175,0.101 -4.862,0.303 -1.688,0.203 -2.936,0.372 -3.747,0.506 l 0,42.734 -12.252,0 0,-51.239 z"
           id="path3692"
           style="fill:#ffffff" />
        <path
           inkscape:connector-curvature="0"
           d="m 340.526,195.872 c 4.049,0 7.457,0.506 10.228,1.52 2.767,1.012 4.977,2.43 6.632,4.253 1.653,1.823 2.835,4.034 3.544,6.633 0.709,2.6 1.063,5.452 1.063,8.556 l 0,32.101 c -1.891,0.405 -4.744,0.896 -8.557,1.469 -3.815,0.573 -8.119,0.861 -12.91,0.861 -3.175,0 -6.076,-0.306 -8.709,-0.912 -2.633,-0.608 -4.878,-1.586 -6.734,-2.937 -1.857,-1.35 -3.309,-3.104 -4.354,-5.267 -1.047,-2.159 -1.569,-4.824 -1.569,-7.999 0,-3.038 0.59,-5.604 1.772,-7.696 1.18,-2.091 2.785,-3.797 4.81,-5.113 2.025,-1.317 4.37,-2.261 7.038,-2.836 2.666,-0.572 5.45,-0.859 8.354,-0.859 1.349,0 2.767,0.085 4.253,0.252 1.484,0.169 3.07,0.456 4.759,0.861 l 0,-2.025 c 0,-1.418 -0.169,-2.768 -0.506,-4.05 -0.339,-1.282 -0.93,-2.414 -1.772,-3.393 -0.845,-0.979 -1.959,-1.738 -3.342,-2.278 -1.385,-0.54 -3.123,-0.811 -5.215,-0.811 -2.835,0 -5.435,0.202 -7.797,0.607 -2.365,0.404 -4.288,0.879 -5.772,1.418 l -1.519,-9.924 c 1.552,-0.54 3.813,-1.08 6.784,-1.62 2.97,-0.539 6.141,-0.811 9.519,-0.811 z m 1.012,45.669 c 3.779,0 6.648,-0.201 8.607,-0.606 l 0,-13.569 c -0.676,-0.203 -1.654,-0.406 -2.938,-0.607 -1.282,-0.203 -2.699,-0.305 -4.253,-0.305 -1.351,0 -2.717,0.102 -4.101,0.305 -1.384,0.201 -2.633,0.573 -3.745,1.113 -1.114,0.541 -2.011,1.301 -2.684,2.277 -0.677,0.98 -1.015,2.214 -1.015,3.697 0,2.903 0.912,4.911 2.734,6.025 1.826,1.114 4.29,1.67 7.395,1.67 z"
           id="path3694"
           style="fill:#ffffff" />
        <path
           inkscape:connector-curvature="0"
           d="m 394.741,238.099 c 2.228,0 4.065,-0.185 5.519,-0.557 1.451,-0.37 2.615,-0.876 3.494,-1.52 0.876,-0.64 1.483,-1.4 1.822,-2.278 0.337,-0.876 0.506,-1.855 0.506,-2.937 0,-2.294 -1.08,-4.203 -3.24,-5.721 -2.161,-1.519 -5.873,-3.156 -11.139,-4.911 -2.296,-0.812 -4.592,-1.738 -6.885,-2.785 -2.297,-1.046 -4.355,-2.363 -6.179,-3.95 -1.822,-1.584 -3.309,-3.509 -4.456,-5.771 -1.147,-2.261 -1.721,-5.013 -1.721,-8.253 0,-3.24 0.608,-6.159 1.823,-8.759 1.215,-2.599 2.937,-4.81 5.164,-6.633 2.228,-1.822 4.927,-3.223 8.102,-4.202 3.173,-0.979 6.75,-1.469 10.733,-1.469 4.726,0 8.81,0.507 12.253,1.519 3.443,1.014 6.279,2.127 8.506,3.342 l -4.557,12.455 c -1.959,-1.012 -4.137,-1.906 -6.532,-2.683 -2.396,-0.774 -5.283,-1.165 -8.657,-1.165 -3.781,0 -6.498,0.524 -8.151,1.569 -1.654,1.048 -2.481,2.65 -2.481,4.81 0,1.284 0.304,2.365 0.912,3.241 0.606,0.878 1.468,1.671 2.581,2.38 1.114,0.71 2.396,1.352 3.849,1.924 1.451,0.574 3.054,1.164 4.811,1.772 3.645,1.351 6.816,2.684 9.519,3.999 2.698,1.316 4.943,2.853 6.733,4.607 1.787,1.756 3.122,3.815 4,6.178 0.877,2.363 1.315,5.232 1.315,8.606 0,6.55 -2.295,11.63 -6.885,15.24 -4.592,3.612 -11.511,5.418 -20.759,5.418 -3.106,0 -5.908,-0.188 -8.405,-0.557 -2.498,-0.372 -4.709,-0.827 -6.633,-1.367 -1.924,-0.54 -3.579,-1.113 -4.962,-1.721 -1.384,-0.608 -2.549,-1.182 -3.493,-1.723 l 4.455,-12.556 c 2.092,1.147 4.674,2.177 7.747,3.087 3.071,0.915 6.836,1.371 11.291,1.371 z"
           id="path3696"
           style="fill:#ffffff" />
        <path
           inkscape:connector-curvature="0"
           d="m 479.894,250.149 c -0.781,-2.438 -1.62,-4.944 -2.52,-7.513 -0.898,-2.569 -1.793,-5.13 -2.685,-7.678 l -27.407,0 c -0.886,2.561 -1.775,5.125 -2.664,7.698 -0.892,2.572 -1.721,5.07 -2.487,7.492 l -16.405,0 c 2.642,-7.561 5.146,-14.547 7.516,-20.962 2.37,-6.412 4.688,-12.455 6.957,-18.126 2.27,-5.671 4.504,-11.054 6.704,-16.151 2.201,-5.097 4.488,-10.076 6.857,-14.936 l 14.975,0 c 2.306,4.859 4.577,9.839 6.815,14.936 2.238,5.098 4.495,10.48 6.767,16.151 2.272,5.671 4.595,11.714 6.968,18.126 2.373,6.415 4.883,13.401 7.527,20.962 l -16.918,0 z m -18.98,-54.277 c -0.353,1.02 -0.867,2.406 -1.546,4.16 -0.681,1.754 -1.452,3.781 -2.319,6.08 -0.867,2.299 -1.836,4.831 -2.908,7.594 -1.07,2.765 -2.159,5.664 -3.266,8.697 l 20.067,0 c -1.075,-3.043 -2.114,-5.951 -3.12,-8.724 -1.005,-2.771 -1.962,-5.309 -2.868,-7.608 -0.906,-2.299 -1.702,-4.324 -2.384,-6.077 -0.684,-1.752 -1.236,-3.126 -1.656,-4.122 z"
           id="path3698"
           style="fill:#ffffff" />
        <path
           inkscape:connector-curvature="0"
           d="m 504.435,250.149 0,-70.175 46.987,0 0,13.264 -31.189,0 0,14.685 27.746,0 0,13.265 -27.746,0 0,28.962 -15.798,0 z"
           id="path3700"
           style="fill:#ffffff" />
        <path
           inkscape:connector-curvature="0"
           d="m 560.555,250.149 0,-70.175 47.391,0 0,13.264 -31.593,0 0,13.773 28.049,0 0,12.961 -28.049,0 0,16.911 33.922,0 0,13.266 -49.72,0 z"
           id="path3702"
           style="fill:#ffffff" />
      </g>
    </g>
  </g>
  <g
     inkscape:label="Layer 1"
     inkscape:groupmode="layer"
     id="layer1"
     transform="translate(-16.055103,117.05749)" />
</svg>
