<?xml version="1.0" encoding="UTF-8" standalone="no"?>
<!-- Generator: Adobe Illustrator 16.0.0, SVG Export Plug-In . SVG Version: 6.00 Build 0)  -->

<svg
   xmlns:dc="http://purl.org/dc/elements/1.1/"
   xmlns:cc="http://creativecommons.org/ns#"
   xmlns:rdf="http://www.w3.org/1999/02/22-rdf-syntax-ns#"
   xmlns:svg="http://www.w3.org/2000/svg"
   xmlns="http://www.w3.org/2000/svg"
   xmlns:sodipodi="http://sodipodi.sourceforge.net/DTD/sodipodi-0.dtd"
   xmlns:inkscape="http://www.inkscape.org/namespaces/inkscape"
   version="1.1"
   id="Layer_1"
   x="0px"
   y="0px"
   width="680px"
   height="353px"
   viewBox="0 0 680 353"
   enable-background="new 0 0 680 353"
   xml:space="preserve"
   inkscape:version="0.91 r13725"
   sodipodi:docname="inasafe-logo-url-white.svg"
   inkscape:export-filename="/home/timlinux/dev/python/inasafe/resources/img/logos/inasafe-logo-url.png"
   inkscape:export-xdpi="300.02988"
   inkscape:export-ydpi="300.02988"><metadata
     id="metadata3944"><rdf:RDF><cc:Work
         rdf:about=""><dc:format>image/svg+xml</dc:format><dc:type
           rdf:resource="http://purl.org/dc/dcmitype/StillImage" /><dc:title></dc:title></cc:Work></rdf:RDF></metadata><defs
     id="defs3942" /><sodipodi:namedview
     pagecolor="#ffffff"
     bordercolor="#666666"
     borderopacity="1"
     objecttolerance="10"
     gridtolerance="10"
     guidetolerance="10"
     inkscape:pageopacity="0"
     inkscape:pageshadow="2"
     inkscape:window-width="1239"
     inkscape:window-height="689"
     id="namedview3940"
     showgrid="false"
     inkscape:zoom="0.47352941"
     inkscape:cx="140.43478"
     inkscape:cy="176.5"
     inkscape:window-x="135"
     inkscape:window-y="13"
     inkscape:window-maximized="0"
     inkscape:current-layer="g3908" /><g
     id="g3890"
     style="fill:#ff0000" /><g
     id="g3908"
     style="fill:#ff0000"><path
       id="path3938"
       style="fill:#ffffff"
       d="m 610.234,247.707 c 0,4.1 -1.041,7.143 -3.123,9.129 -2.082,1.986 -5.3,2.98 -9.653,2.98 -1.525,0 -3.051,-0.136 -4.576,-0.405 -1.525,-0.271 -2.94,-0.628 -4.243,-1.073 l 1.239,-5.959 c 1.112,0.444 2.28,0.794 3.504,1.049 1.224,0.254 2.614,0.382 4.172,0.382 2.033,0 3.472,-0.446 4.314,-1.335 0.841,-0.891 1.263,-2.034 1.263,-3.433 l 0,-0.906 c -0.763,0.351 -1.549,0.612 -2.359,0.787 -0.81,0.175 -1.692,0.262 -2.646,0.262 -3.464,0 -6.118,-1.024 -7.961,-3.074 -1.844,-2.05 -2.765,-4.918 -2.765,-8.605 0,-1.843 0.286,-3.52 0.857,-5.029 0.572,-1.509 1.407,-2.805 2.503,-3.885 1.097,-1.08 2.439,-1.915 4.028,-2.503 1.589,-0.588 3.385,-0.882 5.388,-0.882 0.857,0 1.739,0.04 2.646,0.119 0.905,0.079 1.804,0.183 2.693,0.31 0.889,0.127 1.74,0.278 2.551,0.453 0.811,0.175 1.532,0.357 2.169,0.548 l 0,21.07 z m -15.588,-10.202 c 0,3.974 1.604,5.959 4.814,5.959 0.731,0 1.414,-0.095 2.05,-0.285 0.636,-0.191 1.176,-0.413 1.621,-0.668 l 0,-11.346 c -0.35,-0.063 -0.763,-0.119 -1.239,-0.167 -0.476,-0.048 -1.033,-0.071 -1.669,-0.071 -1.875,0 -3.273,0.619 -4.194,1.859 -0.924,1.239 -1.383,2.813 -1.383,4.719 z m -10.584,-5.435 c -0.636,-0.158 -1.383,-0.325 -2.24,-0.5 -0.858,-0.175 -1.78,-0.263 -2.766,-0.263 -0.445,0 -0.977,0.04 -1.597,0.119 -0.62,0.08 -1.089,0.167 -1.406,0.263 l 0,19.164 -7.104,0 0,-23.741 c 1.271,-0.444 2.772,-0.865 4.505,-1.263 1.733,-0.398 3.663,-0.597 5.793,-0.597 0.381,0 0.841,0.024 1.382,0.072 0.54,0.048 1.08,0.111 1.621,0.19 0.54,0.08 1.08,0.175 1.621,0.286 0.54,0.111 1.001,0.246 1.382,0.405 l -1.191,5.865 z m -20.594,6.198 c 0,1.972 -0.286,3.774 -0.858,5.411 -0.572,1.638 -1.398,3.035 -2.479,4.195 -1.081,1.16 -2.376,2.058 -3.886,2.693 -1.51,0.635 -3.202,0.953 -5.077,0.953 -1.844,0 -3.521,-0.317 -5.029,-0.953 -1.51,-0.636 -2.805,-1.533 -3.885,-2.693 -1.081,-1.16 -1.924,-2.558 -2.527,-4.195 -0.604,-1.637 -0.905,-3.439 -0.905,-5.411 0,-1.97 0.31,-3.766 0.93,-5.387 0.619,-1.621 1.478,-3.003 2.574,-4.147 1.097,-1.144 2.399,-2.033 3.909,-2.67 1.509,-0.635 3.153,-0.953 4.934,-0.953 1.812,0 3.472,0.318 4.982,0.953 1.509,0.637 2.804,1.526 3.885,2.67 1.08,1.145 1.923,2.526 2.526,4.147 0.603,1.621 0.906,3.417 0.906,5.387 z m -7.246,0 c 0,-2.192 -0.438,-3.916 -1.312,-5.172 -0.874,-1.255 -2.121,-1.883 -3.742,-1.883 -1.621,0 -2.877,0.628 -3.766,1.883 -0.891,1.256 -1.335,2.979 -1.335,5.172 0,2.193 0.444,3.934 1.335,5.221 0.889,1.287 2.145,1.931 3.766,1.931 1.621,0 2.868,-0.644 3.742,-1.931 0.874,-1.287 1.312,-3.028 1.312,-5.221 z m -19.546,8.819 c 0,1.431 -0.452,2.52 -1.358,3.266 -0.905,0.747 -1.931,1.121 -3.075,1.121 -1.144,0 -2.169,-0.374 -3.074,-1.121 -0.906,-0.746 -1.359,-1.835 -1.359,-3.266 0,-1.43 0.453,-2.518 1.359,-3.265 0.905,-0.747 1.931,-1.121 3.074,-1.121 1.145,0 2.17,0.374 3.075,1.121 0.906,0.747 1.358,1.835 1.358,3.265 z m -35.992,-8.58 c 0,-2.225 0.341,-4.172 1.024,-5.841 0.684,-1.668 1.581,-3.058 2.693,-4.171 1.112,-1.112 2.392,-1.954 3.838,-2.526 1.446,-0.572 2.932,-0.858 4.458,-0.858 3.559,0 6.371,1.089 8.438,3.266 2.065,2.178 3.099,5.38 3.099,9.606 0,0.413 -0.017,0.866 -0.048,1.358 -0.031,0.493 -0.063,0.93 -0.095,1.311 l -16.113,0 c 0.158,1.463 0.842,2.622 2.05,3.48 1.207,0.858 2.828,1.287 4.862,1.287 1.303,0 2.582,-0.119 3.838,-0.357 1.255,-0.238 2.28,-0.532 3.074,-0.882 l 0.954,5.768 c -0.382,0.191 -0.891,0.382 -1.525,0.572 -0.637,0.191 -1.344,0.357 -2.122,0.501 -0.778,0.143 -1.613,0.262 -2.503,0.357 -0.89,0.095 -1.78,0.143 -2.669,0.143 -2.257,0 -4.22,-0.333 -5.888,-1.001 -1.669,-0.667 -3.051,-1.58 -4.147,-2.741 -1.097,-1.159 -1.907,-2.534 -2.432,-4.123 -0.525,-1.589 -0.786,-3.306 -0.786,-5.149 z m 16.685,-2.718 c -0.032,-0.604 -0.136,-1.191 -0.311,-1.764 -0.175,-0.573 -0.445,-1.08 -0.811,-1.525 -0.366,-0.445 -0.826,-0.811 -1.382,-1.097 -0.557,-0.286 -1.248,-0.43 -2.074,-0.43 -0.795,0 -1.478,0.136 -2.05,0.405 -0.572,0.271 -1.049,0.628 -1.43,1.073 -0.382,0.445 -0.676,0.962 -0.883,1.549 -0.207,0.589 -0.357,1.185 -0.452,1.788 l 9.393,0 z m -24.361,-21.93 c 1.335,0 2.559,0.136 3.671,0.405 1.112,0.271 1.971,0.533 2.574,0.787 l -1.382,5.673 c -0.637,-0.286 -1.328,-0.501 -2.074,-0.644 -0.747,-0.144 -1.438,-0.215 -2.073,-0.215 -0.858,0 -1.582,0.119 -2.17,0.357 -0.588,0.238 -1.049,0.565 -1.382,0.978 -0.334,0.413 -0.572,0.906 -0.715,1.478 -0.144,0.572 -0.215,1.192 -0.215,1.859 l 0,1.239 8.771,0 0,5.912 -8.771,0 0,19.164 -7.104,0 0,-26.41 c 0,-3.242 0.913,-5.816 2.741,-7.724 1.828,-1.905 4.537,-2.859 8.129,-2.859 z m -28.222,11.251 c 2.098,0 3.846,0.238 5.244,0.715 1.398,0.477 2.519,1.161 3.361,2.05 0.842,0.891 1.438,1.972 1.788,3.242 0.349,1.271 0.523,2.686 0.523,4.243 l 0,14.778 c -1.017,0.223 -2.431,0.484 -4.242,0.786 -1.811,0.302 -4.005,0.453 -6.579,0.453 -1.621,0 -3.091,-0.143 -4.409,-0.429 -1.319,-0.286 -2.455,-0.755 -3.409,-1.406 -0.953,-0.651 -1.685,-1.502 -2.192,-2.551 -0.509,-1.049 -0.763,-2.336 -0.763,-3.861 0,-1.462 0.293,-2.701 0.882,-3.719 0.588,-1.017 1.374,-1.827 2.359,-2.432 0.984,-0.603 2.113,-1.04 3.385,-1.311 1.271,-0.27 2.59,-0.405 3.957,-0.405 0.921,0 1.74,0.04 2.455,0.119 0.715,0.08 1.295,0.184 1.74,0.31 l 0,-0.667 c 0,-1.208 -0.366,-2.177 -1.097,-2.908 -0.731,-0.73 -2.002,-1.097 -3.813,-1.097 -1.209,0 -2.4,0.088 -3.576,0.263 -1.176,0.175 -2.192,0.422 -3.051,0.738 l -0.905,-5.721 c 0.412,-0.126 0.93,-0.262 1.549,-0.404 0.62,-0.144 1.295,-0.271 2.026,-0.382 0.73,-0.111 1.502,-0.206 2.312,-0.286 0.811,-0.078 1.629,-0.118 2.455,-0.118 z m 0.572,20.786 c 0.699,0 1.366,-0.016 2.003,-0.048 0.635,-0.031 1.144,-0.079 1.525,-0.143 l 0,-5.387 c -0.286,-0.063 -0.716,-0.127 -1.287,-0.191 -0.572,-0.063 -1.097,-0.095 -1.573,-0.095 -0.668,0 -1.296,0.04 -1.884,0.119 -0.588,0.079 -1.104,0.23 -1.549,0.452 -0.445,0.223 -0.795,0.524 -1.049,0.906 -0.255,0.381 -0.382,0.858 -0.382,1.43 0,1.113 0.374,1.884 1.121,2.313 0.747,0.429 1.772,0.644 3.075,0.644 z m -25.504,-0.143 c 1.304,0 2.225,-0.127 2.766,-0.382 0.54,-0.254 0.811,-0.746 0.811,-1.478 0,-0.572 -0.351,-1.073 -1.049,-1.502 -0.699,-0.429 -1.764,-0.913 -3.194,-1.454 -1.113,-0.412 -2.121,-0.842 -3.027,-1.287 -0.905,-0.444 -1.677,-0.978 -2.312,-1.597 -0.637,-0.62 -1.129,-1.359 -1.479,-2.217 -0.35,-0.858 -0.524,-1.891 -0.524,-3.099 0,-2.352 0.874,-4.211 2.622,-5.578 1.748,-1.366 4.147,-2.05 7.198,-2.05 1.526,0 2.987,0.136 4.387,0.405 1.397,0.271 2.51,0.564 3.337,0.882 l -1.239,5.53 c -0.827,-0.286 -1.725,-0.54 -2.694,-0.763 -0.969,-0.223 -2.058,-0.334 -3.266,-0.334 -2.225,0 -3.337,0.62 -3.337,1.859 0,0.286 0.048,0.541 0.144,0.763 0.095,0.223 0.286,0.438 0.572,0.644 0.285,0.207 0.675,0.431 1.168,0.67 0.492,0.241 1.12,0.506 1.883,0.793 1.557,0.577 2.844,1.146 3.861,1.707 1.017,0.561 1.819,1.166 2.407,1.815 0.588,0.65 1.001,1.372 1.239,2.165 0.239,0.792 0.358,1.712 0.358,2.758 0,2.474 -0.93,4.345 -2.789,5.613 -1.859,1.268 -4.489,1.902 -7.89,1.902 -2.226,0 -4.076,-0.19 -5.554,-0.571 -1.479,-0.382 -2.503,-0.699 -3.075,-0.954 l 1.191,-5.769 c 1.208,0.478 2.447,0.852 3.719,1.121 1.27,0.273 2.526,0.408 3.766,0.408 z M 415.303,225.11 c 2.098,0 3.846,0.238 5.244,0.715 1.398,0.477 2.519,1.161 3.361,2.05 0.842,0.891 1.438,1.972 1.788,3.242 0.349,1.271 0.523,2.686 0.523,4.243 l 0,14.778 c -1.017,0.223 -2.431,0.484 -4.242,0.786 -1.811,0.302 -4.005,0.453 -6.579,0.453 -1.621,0 -3.091,-0.143 -4.409,-0.429 -1.319,-0.286 -2.455,-0.755 -3.409,-1.406 -0.953,-0.651 -1.685,-1.502 -2.192,-2.551 -0.509,-1.049 -0.763,-2.336 -0.763,-3.861 0,-1.462 0.293,-2.701 0.882,-3.719 0.588,-1.017 1.374,-1.827 2.359,-2.432 0.984,-0.603 2.113,-1.04 3.385,-1.311 1.271,-0.27 2.59,-0.405 3.957,-0.405 0.921,0 1.74,0.04 2.455,0.119 0.715,0.08 1.295,0.184 1.74,0.31 l 0,-0.667 c 0,-1.208 -0.366,-2.177 -1.097,-2.908 -0.731,-0.73 -2.002,-1.097 -3.813,-1.097 -1.209,0 -2.4,0.088 -3.576,0.263 -1.176,0.175 -2.192,0.422 -3.051,0.738 l -0.905,-5.721 c 0.412,-0.126 0.93,-0.262 1.549,-0.404 0.62,-0.144 1.295,-0.271 2.026,-0.382 0.73,-0.111 1.502,-0.206 2.312,-0.286 0.81,-0.078 1.629,-0.118 2.455,-0.118 z m 0.572,20.786 c 0.699,0 1.366,-0.016 2.003,-0.048 0.635,-0.031 1.144,-0.079 1.525,-0.143 l 0,-5.387 c -0.286,-0.063 -0.716,-0.127 -1.287,-0.191 -0.572,-0.063 -1.097,-0.095 -1.573,-0.095 -0.668,0 -1.296,0.04 -1.884,0.119 -0.588,0.079 -1.104,0.23 -1.549,0.452 -0.445,0.223 -0.795,0.524 -1.049,0.906 -0.255,0.381 -0.382,0.858 -0.382,1.43 0,1.113 0.374,1.884 1.121,2.313 0.747,0.429 1.771,0.644 3.075,0.644 z m -37.66,-19.26 c 1.208,-0.35 2.766,-0.675 4.672,-0.978 1.907,-0.301 3.909,-0.452 6.007,-0.452 2.129,0 3.901,0.278 5.315,0.834 1.414,0.557 2.534,1.343 3.361,2.359 0.826,1.018 1.413,2.226 1.764,3.623 0.35,1.399 0.524,2.956 0.524,4.672 l 0,14.159 -7.104,0 0,-13.301 c 0,-2.288 -0.302,-3.909 -0.905,-4.862 -0.604,-0.953 -1.732,-1.431 -3.385,-1.431 -0.509,0 -1.049,0.024 -1.621,0.072 -0.572,0.047 -1.081,0.104 -1.525,0.166 l 0,19.355 -7.104,0 0,-24.216 z m -6.007,-8.105 c 0,1.304 -0.421,2.329 -1.263,3.075 -0.843,0.747 -1.836,1.12 -2.979,1.12 -1.145,0 -2.139,-0.373 -2.979,-1.12 -0.843,-0.746 -1.264,-1.771 -1.264,-3.075 0,-1.303 0.421,-2.327 1.264,-3.074 0.841,-0.747 1.835,-1.121 2.979,-1.121 1.144,0 2.137,0.374 2.979,1.121 0.842,0.747 1.263,1.772 1.263,3.074 z m -0.667,32.323 -7.104,0 0,-25.076 7.104,0 0,25.076 z m -11.87,-3.767 c 0,1.431 -0.452,2.52 -1.358,3.266 -0.905,0.747 -1.931,1.121 -3.075,1.121 -1.144,0 -2.169,-0.374 -3.074,-1.121 -0.906,-0.746 -1.359,-1.835 -1.359,-3.266 0,-1.43 0.453,-2.518 1.359,-3.265 0.905,-0.747 1.931,-1.121 3.074,-1.121 1.145,0 2.17,0.374 3.075,1.121 0.906,0.747 1.358,1.835 1.358,3.265 z m -26.529,-10.631 c -0.636,2.416 -1.311,4.815 -2.026,7.199 -0.715,2.384 -1.47,4.783 -2.264,7.198 l -5.53,0 c -0.573,-1.335 -1.195,-2.924 -1.864,-4.768 -0.669,-1.843 -1.363,-3.853 -2.08,-6.03 -0.717,-2.177 -1.45,-4.481 -2.2,-6.912 -0.75,-2.432 -1.474,-4.887 -2.175,-7.366 l 7.485,0 c 0.255,1.145 0.535,2.393 0.838,3.743 0.304,1.351 0.624,2.741 0.959,4.171 0.336,1.431 0.688,2.868 1.056,4.314 0.367,1.446 0.743,2.837 1.127,4.171 0.413,-1.397 0.818,-2.828 1.216,-4.29 0.397,-1.462 0.778,-2.9 1.144,-4.314 0.365,-1.414 0.715,-2.78 1.049,-4.1 0.333,-1.318 0.627,-2.551 0.882,-3.695 l 5.148,0 c 0.254,1.145 0.54,2.377 0.858,3.695 0.317,1.319 0.651,2.686 1.001,4.1 0.35,1.414 0.715,2.853 1.097,4.314 0.382,1.461 0.778,2.893 1.192,4.29 0.383,-1.334 0.767,-2.725 1.15,-4.171 0.383,-1.446 0.743,-2.884 1.079,-4.314 0.335,-1.43 0.654,-2.82 0.959,-4.171 0.304,-1.351 0.583,-2.599 0.839,-3.743 l 7.39,0 c -0.702,2.479 -1.427,4.935 -2.176,7.366 -0.75,2.431 -1.482,4.735 -2.199,6.912 -0.717,2.178 -1.418,4.188 -2.104,6.03 -0.686,1.844 -1.314,3.433 -1.889,4.768 l -5.529,0 c -0.795,-2.415 -1.573,-4.814 -2.336,-7.198 -0.763,-2.384 -1.462,-4.783 -2.097,-7.199 z m -38.328,0 c -0.636,2.416 -1.311,4.815 -2.026,7.199 -0.715,2.384 -1.47,4.783 -2.264,7.198 l -5.53,0 c -0.573,-1.335 -1.195,-2.924 -1.864,-4.768 -0.669,-1.843 -1.363,-3.853 -2.08,-6.03 -0.717,-2.177 -1.45,-4.481 -2.2,-6.912 -0.75,-2.432 -1.474,-4.887 -2.175,-7.366 l 7.485,0 c 0.255,1.145 0.535,2.393 0.838,3.743 0.304,1.351 0.624,2.741 0.959,4.171 0.336,1.431 0.688,2.868 1.056,4.314 0.367,1.446 0.743,2.837 1.127,4.171 0.413,-1.397 0.818,-2.828 1.216,-4.29 0.397,-1.462 0.778,-2.9 1.144,-4.314 0.365,-1.414 0.715,-2.78 1.049,-4.1 0.333,-1.318 0.627,-2.551 0.882,-3.695 l 5.148,0 c 0.254,1.145 0.54,2.377 0.858,3.695 0.317,1.319 0.651,2.686 1.001,4.1 0.35,1.414 0.715,2.853 1.097,4.314 0.382,1.461 0.778,2.893 1.192,4.29 0.383,-1.334 0.767,-2.725 1.15,-4.171 0.384,-1.446 0.744,-2.884 1.08,-4.314 0.335,-1.43 0.655,-2.82 0.958,-4.171 0.304,-1.351 0.583,-2.599 0.84,-3.743 l 7.389,0 c -0.702,2.479 -1.427,4.935 -2.176,7.366 -0.75,2.431 -1.482,4.735 -2.199,6.912 -0.717,2.178 -1.418,4.188 -2.104,6.03 -0.685,1.844 -1.314,3.433 -1.888,4.768 l -5.53,0 c -0.795,-2.415 -1.573,-4.814 -2.336,-7.198 -0.763,-2.384 -1.462,-4.783 -2.097,-7.199 z m -38.328,0 c -0.636,2.416 -1.311,4.815 -2.026,7.199 -0.715,2.384 -1.47,4.783 -2.264,7.198 l -5.53,0 c -0.573,-1.335 -1.195,-2.924 -1.864,-4.768 -0.669,-1.843 -1.363,-3.853 -2.08,-6.03 -0.717,-2.177 -1.45,-4.481 -2.2,-6.912 -0.75,-2.432 -1.474,-4.887 -2.175,-7.366 l 7.485,0 c 0.255,1.145 0.535,2.393 0.838,3.743 0.304,1.351 0.624,2.741 0.959,4.171 0.336,1.431 0.688,2.868 1.056,4.314 0.367,1.446 0.743,2.837 1.127,4.171 0.413,-1.397 0.818,-2.828 1.216,-4.29 0.397,-1.462 0.778,-2.9 1.144,-4.314 0.365,-1.414 0.715,-2.78 1.049,-4.1 0.333,-1.318 0.627,-2.551 0.882,-3.695 l 5.148,0 c 0.254,1.145 0.54,2.377 0.858,3.695 0.317,1.319 0.651,2.686 1.001,4.1 0.35,1.414 0.715,2.853 1.097,4.314 0.382,1.461 0.778,2.893 1.192,4.29 0.383,-1.334 0.767,-2.725 1.15,-4.171 0.384,-1.446 0.744,-2.884 1.08,-4.314 0.335,-1.43 0.655,-2.82 0.958,-4.171 0.304,-1.351 0.583,-2.599 0.84,-3.743 l 7.389,0 c -0.702,2.479 -1.427,4.935 -2.176,7.366 -0.75,2.431 -1.482,4.735 -2.199,6.912 -0.717,2.178 -1.418,4.188 -2.104,6.03 -0.685,1.844 -1.314,3.433 -1.888,4.768 l -5.53,0 c -0.795,-2.415 -1.573,-4.814 -2.336,-7.198 -0.763,-2.384 -1.462,-4.783 -2.097,-7.199 z M 206.418,167.61 c -4.867,-8.113 -67.023,-96.818 -67.023,-96.818 0,0 -57.928,88.703 -62.797,96.818 -5.25,8.75 -5.641,19.431 -1.512,26.056 3.686,5.914 16.398,16.512 18.607,20.656 3.514,6.594 -10.514,21.125 -2.85,38.125 4.371,9.695 13.578,14.125 19.744,14.043 16.164,-0.215 22.244,-0.074 22.244,-0.074 0,0 0.181,8.327 -0.125,11.167 -0.438,4.063 -2.125,6.417 -2.125,6.417 l 9.914,0 9.086,0 c 0,0 -2.25,-2.042 -2.625,-6.042 -0.24,-2.563 -0.125,-11.458 -0.125,-11.458 0,0 7.563,0.091 23.727,0.306 6.164,0.082 15.777,-4.506 20.145,-14.201 7.664,-17 -5.371,-32.287 -2.727,-38.203 1.917,-4.287 16.793,-16.848 19.223,-20.695 3.674,-5.818 4.469,-17.346 -0.781,-26.097 z M 133,247.416 c 0,2.75 -1.084,6.158 -4.839,6.156 -3.239,0 -12.746,-0.006 -18.079,-0.08 -5.333,-0.076 -8.955,-6.764 -8.874,-15.67 0.082,-8.906 6.915,-16.545 4.134,-26.281 -2.5,-8.75 -14.062,-17.27 -16.941,-21.787 -2.844,-4.463 -2.934,-10.838 -1.274,-14.334 2.482,-5.23 42.273,-65.988 43.996,-68.587 1.723,-2.599 1.877,-0.416 1.877,4.834 0,5.25 0,135.749 0,135.749 z m 59.938,-57.662 c -3.015,4.43 -15.644,12.662 -18.164,22.469 -2.521,9.805 4.951,16.693 5.033,25.6 0.081,8.906 -3.971,15.594 -9.304,15.67 -5.333,0.074 -17.092,0.002 -20.327,-0.164 -3.135,-0.162 -4.176,-3.912 -4.176,-5.912 0,0 0,-130.5 0,-135.75 0,-5.25 0.072,-7.432 1.794,-4.832 1.722,2.6 43.466,63.636 46.47,68.585 3.007,4.947 1.796,9.746 -1.326,14.334 z m 368.078,19.064 0,-70.174 47.391,0 0,13.264 -31.594,0 0,13.773 28.049,0 0,12.961 -28.049,0 0,16.91 33.922,0 0,13.266 -49.719,0 z m -56.121,0 0,-70.174 46.988,0 0,13.264 -31.189,0 0,14.685 27.746,0 0,13.265 -27.746,0 0,28.961 -15.799,0 z m -24.541,0 c -0.781,-2.438 -1.619,-4.943 -2.52,-7.512 -0.898,-2.57 -1.793,-5.131 -2.684,-7.678 l -27.408,0 c -0.885,2.561 -1.775,5.125 -2.664,7.697 -0.891,2.572 -1.721,5.07 -2.486,7.492 l -16.406,0 c 2.643,-7.561 5.146,-14.547 7.516,-20.961 2.371,-6.412 4.689,-12.455 6.957,-18.127 2.27,-5.67 4.504,-11.053 6.705,-16.151 2.201,-5.097 4.488,-10.076 6.857,-14.936 l 14.975,0 c 2.305,4.859 4.576,9.839 6.814,14.936 2.238,5.098 4.496,10.48 6.768,16.151 2.271,5.672 4.594,11.715 6.967,18.127 2.373,6.414 4.883,13.4 7.527,20.961 l -16.918,0 z m -18.979,-54.276 c -0.354,1.02 -0.867,2.406 -1.547,4.16 -0.68,1.754 -1.451,3.781 -2.318,6.08 -0.867,2.299 -1.836,4.832 -2.908,7.593 -1.07,2.766 -2.16,5.664 -3.266,8.697 l 20.066,0 c -1.074,-3.043 -2.113,-5.951 -3.119,-8.723 -1.006,-2.772 -1.963,-5.309 -2.869,-7.609 -0.906,-2.3 -1.701,-4.324 -2.383,-6.077 -0.685,-1.751 -1.236,-3.125 -1.656,-4.121 z m -66.174,42.226 c 2.229,0 4.066,-0.184 5.52,-0.557 1.451,-0.369 2.615,-0.875 3.494,-1.52 0.875,-0.639 1.482,-1.4 1.822,-2.277 0.336,-0.877 0.506,-1.855 0.506,-2.938 0,-2.293 -1.08,-4.203 -3.24,-5.721 -2.162,-1.518 -5.873,-3.156 -11.139,-4.91 -2.297,-0.813 -4.592,-1.738 -6.885,-2.785 -2.297,-1.047 -4.355,-2.363 -6.18,-3.951 -1.822,-1.584 -3.309,-3.508 -4.455,-5.771 -1.148,-2.261 -1.721,-5.013 -1.721,-8.253 0,-3.24 0.607,-6.159 1.822,-8.759 1.215,-2.599 2.938,-4.81 5.164,-6.633 2.229,-1.822 4.928,-3.223 8.102,-4.202 3.174,-0.979 6.75,-1.469 10.734,-1.469 4.725,0 8.809,0.507 12.252,1.519 3.443,1.014 6.279,2.127 8.506,3.342 l -4.557,12.455 c -1.959,-1.012 -4.137,-1.906 -6.531,-2.683 -2.396,-0.774 -5.283,-1.165 -8.658,-1.165 -3.781,0 -6.498,0.524 -8.15,1.569 -1.654,1.048 -2.482,2.65 -2.482,4.81 0,1.284 0.305,2.365 0.912,3.241 0.607,0.878 1.469,1.671 2.582,2.38 1.113,0.71 2.395,1.352 3.848,1.924 1.451,0.574 3.055,1.164 4.811,1.772 3.645,1.351 6.816,2.684 9.52,3.999 2.697,1.316 4.943,2.854 6.732,4.607 1.787,1.756 3.123,3.816 4,6.178 0.877,2.363 1.316,5.232 1.316,8.607 0,6.549 -2.295,11.629 -6.885,15.24 -4.592,3.611 -11.512,5.418 -20.76,5.418 -3.105,0 -5.908,-0.188 -8.404,-0.557 -2.498,-0.373 -4.709,-0.828 -6.633,-1.367 -1.924,-0.541 -3.58,-1.113 -4.963,-1.721 -1.383,-0.609 -2.549,-1.182 -3.492,-1.723 l 4.455,-12.557 c 2.092,1.148 4.674,2.178 7.746,3.088 3.072,0.915 6.836,1.37 11.291,1.37 z m -54.215,-42.226 c 4.049,0 7.457,0.506 10.229,1.52 2.766,1.012 4.977,2.43 6.631,4.253 1.654,1.823 2.836,4.034 3.545,6.633 0.709,2.6 1.063,5.452 1.063,8.555 l 0,32.102 c -1.891,0.404 -4.744,0.895 -8.557,1.469 -3.814,0.572 -8.119,0.861 -12.91,0.861 -3.174,0 -6.076,-0.307 -8.708,-0.912 -2.633,-0.609 -4.878,-1.586 -6.734,-2.938 -1.857,-1.35 -3.309,-3.104 -4.354,-5.266 -1.047,-2.16 -1.569,-4.824 -1.569,-8 0,-3.037 0.59,-5.604 1.772,-7.695 1.18,-2.092 2.785,-3.797 4.81,-5.113 2.025,-1.318 4.37,-2.262 7.038,-2.836 2.666,-0.572 5.45,-0.859 8.354,-0.859 1.35,0 2.768,0.084 4.254,0.252 1.484,0.168 3.07,0.455 4.758,0.861 l 0,-2.025 c 0,-1.418 -0.168,-2.768 -0.506,-4.051 -0.338,-1.281 -0.93,-2.414 -1.771,-3.392 -0.846,-0.979 -1.959,-1.738 -3.342,-2.278 -1.385,-0.54 -3.123,-0.811 -5.215,-0.811 -2.835,0 -5.435,0.202 -7.797,0.607 -2.365,0.404 -4.288,0.879 -5.772,1.418 l -1.519,-9.924 c 1.552,-0.54 3.813,-1.08 6.784,-1.62 2.967,-0.54 6.139,-0.811 9.516,-0.811 z m 1.012,45.669 c 3.779,0 6.648,-0.201 8.607,-0.607 l 0,-13.568 c -0.676,-0.203 -1.654,-0.406 -2.938,-0.607 -1.281,-0.203 -2.699,-0.305 -4.252,-0.305 -1.352,0 -2.717,0.102 -4.101,0.305 -1.384,0.201 -2.633,0.572 -3.745,1.113 -1.114,0.541 -2.011,1.301 -2.684,2.277 -0.677,0.98 -1.015,2.213 -1.015,3.697 0,2.902 0.912,4.91 2.734,6.025 1.825,1.113 4.289,1.67 7.394,1.67 z m -75.54,-42.631 c 2.362,-0.674 5.435,-1.316 9.215,-1.924 3.779,-0.608 7.966,-0.912 12.558,-0.912 4.319,0 7.931,0.593 10.835,1.772 2.901,1.182 5.214,2.835 6.936,4.962 1.722,2.126 2.937,4.693 3.646,7.696 0.709,3.006 1.063,6.295 1.063,9.873 l 0,29.771 -12.252,0 0,-27.848 c 0,-2.834 -0.187,-5.248 -0.557,-7.24 -0.371,-1.99 -0.979,-3.611 -1.823,-4.86 -0.844,-1.249 -1.992,-2.16 -3.442,-2.734 -1.453,-0.572 -3.226,-0.86 -5.315,-0.86 -1.555,0 -3.175,0.101 -4.862,0.303 -1.688,0.203 -2.936,0.372 -3.747,0.506 l 0,42.734 -12.252,0 0,-51.239 z m -26.925,-18.936 12.76,0 0,70.174 -12.76,0 0,-70.174 z" /></g></svg>