<svg xmlns="http://www.w3.org/2000/svg" xmlns:xlink="http://www.w3.org/1999/xlink" version="1.1" x="0px" y="0px" viewBox="0 0 100 62.5" enable-background="new 0 0 100 62.5" xml:space="preserve"><path d="M94.444,21.024v-7.136h2.778l-12.5-9.722l-12.5,9.722H75v9.181c-4.152,0.793-7.748,1.868-9.722,3.319  c0,0-12.5,27.778-65.278,27.778V62.5h100V20.833C100,20.833,97.782,20.863,94.444,21.024z"></path><path d="M57.701,29.991c-4.452-2.259-9.473-3.971-14.645-5.276V11.112H29.167v11.005c-1.889-0.247-3.746-0.452-5.555-0.623V0H6.944  v20.698C2.656,20.688,0,20.833,0,20.833V50c25.773,0,41.143-6.935,49.498-12.752C53.166,34.694,55.824,32.134,57.701,29.991z   M37.5,13.889h2.778v2.778H37.5V13.889z M37.5,19.444h2.778v2.778H37.5V19.444z M31.944,13.889h2.778v2.778h-2.778V13.889z   M31.944,19.444h2.778v2.778h-2.778V19.444z M16.667,2.778h2.778v4.167h-2.778V2.778z M16.667,9.722h2.778v4.167h-2.778V9.722z   M11.111,2.778h2.777v4.167h-2.777V2.778z M11.111,9.722h2.777v4.167h-2.777V9.722z"></path></svg>