<?xml version="1.0" encoding="UTF-8" standalone="no"?>
<!-- Created with Inkscape (http://www.inkscape.org/) -->

<svg
   xmlns:dc="http://purl.org/dc/elements/1.1/"
   xmlns:cc="http://creativecommons.org/ns#"
   xmlns:rdf="http://www.w3.org/1999/02/22-rdf-syntax-ns#"
   xmlns:svg="http://www.w3.org/2000/svg"
   xmlns="http://www.w3.org/2000/svg"
   version="1.1"
   width="256"
   height="256"
   id="svg5628">
  <defs
     id="defs5630" />
  <metadata
     id="metadata5633">
    <rdf:RDF>
      <cc:Work
         rdf:about="">
        <dc:format>image/svg+xml</dc:format>
        <dc:type
           rdf:resource="http://purl.org/dc/dcmitype/StillImage" />
        <dc:title></dc:title>
      </cc:Work>
    </rdf:RDF>
  </metadata>
  <g
     transform="translate(0,-796.36218)"
     id="layer1">
    <g
       transform="matrix(0.46401952,0,0,-0.46401952,9.2110029,1028.3026)"
       id="g6209">
      <path
         d="M 512,209 V 171 H 429 L 386,90 q -7,-11 -19,-11 -5,0 -10.5,4 -5.5,4 -6.5,9 l -32,94 -28,-69 q -7,-14 -21,-10 -5,0 -10,4.5 -5,4.5 -5,10.5 L 226,288 194,36 Q 191,19 175,19 159,19 156,34 L 119,230 96,181 Q 89,171 79,171 H 0 v 38 h 66 l 43,90 q 7,10 21,10 15,-5 15,-15 l 28,-138 32,256 q 0,7 5.5,12 5.5,5 13.5,5 16,0 19,-17 l 36,-220 24,55 q 3,11 17,11 13,0 19,-13 l 34,-98 28,51 q 4,11 17,11 h 94 z"
         id="path6211"
         style="fill:currentColor" />
    </g>
  </g>
</svg>
