<?xml version="1.0" encoding="UTF-8" standalone="no"?>
<!-- Created with Inkscape (http://www.inkscape.org/) -->

<svg
   xmlns:dc="http://purl.org/dc/elements/1.1/"
   xmlns:cc="http://creativecommons.org/ns#"
   xmlns:rdf="http://www.w3.org/1999/02/22-rdf-syntax-ns#"
   xmlns:svg="http://www.w3.org/2000/svg"
   xmlns="http://www.w3.org/2000/svg"
   version="1.1"
   width="256"
   height="256"
   id="svg5628">
  <defs
     id="defs5630" />
  <metadata
     id="metadata5633">
    <rdf:RDF>
      <cc:Work
         rdf:about="">
        <dc:format>image/svg+xml</dc:format>
        <dc:type
           rdf:resource="http://purl.org/dc/dcmitype/StillImage" />
        <dc:title></dc:title>
      </cc:Work>
    </rdf:RDF>
  </metadata>
  <g
     transform="translate(0,-796.36218)"
     id="layer1">
    <g
       transform="matrix(0.46309766,0,0,-0.45497149,9.446999,1026.2758)"
       id="g6153">
      <path
         d="m 512,209 v -96 q -25,10 -28,24 -11,40 13,42 -1,2 -3.5,4 -2.5,2 -9,5.5 -6.5,3.5 -12.5,4 -6,0.5 -14.5,-6 Q 449,180 442,166 415,113 399,109 h -15 q -7,2 -16,9.5 -9,7.5 -12,18.5 -11,40 13,42 -1,2 -3,4 -2,2 -9,5.5 -7,3.5 -13,4 -6,0.5 -14.5,-6 Q 321,180 314,166 287,113 271,109 h -15 q -7,2 -16,9.5 -9,7.5 -12,18.5 -11,40 13,42 -1,2 -3,4 -2,2 -9,5.5 -7,3.5 -13,4 -6,0.5 -14.5,-6 Q 193,180 186,166 159,113 143,109 h -15 q -7,2 -16,9.5 -9,7.5 -12,18.5 -11,40 13,42 -1,2 -3,4 -2,2 -8.5,5.5 -6.5,3.5 -13,3.5 -6.5,0 -15,-6 Q 65,180 58,166 40,133 0,113 v 134 q 25,86 81,145.5 56,59.5 117,59.5 68,0 86,-28 9,-14 7,-33.5 -2,-19.5 -20,-23.5 -9,-2 -23.5,2.5 Q 233,374 228,382 q 0,1 -2.5,3.5 -2.5,2.5 -3,4 -0.5,1.5 -1,4.5 -0.5,3 1.5,7 2,4 5,9 -35,9 -58,-31 -26,-44 -4,-90 25,-54 105,-65 16,66 61,112 45,46 95,46 40,0 57,-30 7,-9 3,-23.5 -4,-14.5 -18,-19.5 -6,-1 -15,4 -9,5 -12,11 -5,6 -2,15.5 3,9.5 14,12.5 -28,7 -45,-26 -19,-38 5,-74 26,-40 98,-43 z m -412,-100 -3.5,3.5 -9,6 -13.5,3 -15.5,-7 L 43,94 Q 28,67 0,51 V -4 h 512 v 42 q -36,9 -43,28 -13,40 15,43 l -3.5,3.5 -9,6 -13.5,3 -15.5,-7 L 427,94 Q 399,38 384,38 h -15 q -19,5 -28,28 -13,40 15,43 l -3.5,3.5 -9,6 -13.5,3 -15.5,-7 L 299,94 Q 271,38 256,38 h -15 q -19,5 -28,28 -13,40 15,43 l -3.5,3.5 -9,6 -13.5,3 -15.5,-7 L 171,94 Q 143,38 128,38 h -15 q -19,5 -28,28 -13,40 15,43 z"
         id="path6155"
         style="fill:currentColor" />
    </g>
  </g>
</svg>
