<?xml version="1.0" encoding="UTF-8" standalone="no"?>
<!-- Created with Inkscape (http://www.inkscape.org/) -->

<svg
   xmlns:dc="http://purl.org/dc/elements/1.1/"
   xmlns:cc="http://creativecommons.org/ns#"
   xmlns:rdf="http://www.w3.org/1999/02/22-rdf-syntax-ns#"
   xmlns:svg="http://www.w3.org/2000/svg"
   xmlns="http://www.w3.org/2000/svg"
   version="1.1"
   width="256"
   height="256"
   id="svg5628">
  <defs
     id="defs5630" />
  <metadata
     id="metadata5633">
    <rdf:RDF>
      <cc:Work
         rdf:about="">
        <dc:format>image/svg+xml</dc:format>
        <dc:type
           rdf:resource="http://purl.org/dc/dcmitype/StillImage" />
        <dc:title></dc:title>
      </cc:Work>
    </rdf:RDF>
  </metadata>
  <g
     transform="translate(0,-796.36218)"
     id="layer1">
    <g
       transform="matrix(0.64347803,0,0,-0.64347803,-36.730376,1068.1795)"
       id="g6195">
      <path
         d="m 240,274 q 1,-2 3,-5 2,-3 1.5,-4 -0.5,-1 -4.5,-2 l -19,-9 -22,20 q -2,9 11,19 l 19,-9 q 2,-1 5,-3.5 3,-2.5 4.5,-4 1.5,-1.5 1.5,-2.5 z m -19,79 q -7,4 -22,0 -1,0 -3.5,-4 -2.5,-4 -4.5,-5 v -30 l 30,9 q 11,14 8,21 0,6 -8,9 z m 81,-39 h -2 q -9,7 -19,9 -4,1 -6.5,0 -2.5,-1 -4.5,0 -7,-3 -11,-19 0,-4 -0.5,-12.5 Q 258,283 258,276 q 0,-7 1,-13 7,-6 11,-9 l 11,-10 h 8 q 7,3 11.5,7.5 4.5,4.5 7,8 l 2.5,3.5 q 9,9 9,21 3,13 0,20 -2,6 -7,9 -5,3 -10,1 z m -2,-89 v -22 q 8,-8 19,-8 l 21,8 -10,30 z m 119,0 q -9,10 -16.5,11.5 Q 395,238 381,233 h -11 q -11,-11 -19,-30 -13,-31 -11,-38 0,-2 19,-21 13,-11 22,-20 l 38,9 q 3,1 12.5,19.5 9.5,18.5 9.5,20.5 -17,45 -22,52 z M 389,33 v 2 q -2,4 -12,13.5 -10,9.5 -18,16.5 -8,7 -8,8 -11,21 -21,30 -1,1 -4,8.5 -3,7.5 -7,12.5 -1,1 -8,13 -7,12 -11,17 l -39,24 -5,1 -12,3.5 -16.5,7 -21.5,14.5 -24,23 -2,27 q -19,20 -19,30 -7,20 -7.5,56 -0.5,36 -3.5,53 l -21,15 -28,6 H 71 V 33 h 39 279 2 -2 z M 240,274 q 1,-2 3,-5 2,-3 1.5,-4 -0.5,-1 -4.5,-2 l -19,-9 -22,20 q -2,9 11,19 l 19,-9 q 2,-1 5,-3.5 3,-2.5 4.5,-4 1.5,-1.5 1.5,-2.5 z m -19,79 q -7,4 -22,0 -1,0 -3.5,-4 -2.5,-4 -4.5,-5 v -30 l 30,9 q 11,14 8,21 0,6 -8,9 z m 81,-39 h -2 q -9,7 -19,9 -4,1 -6.5,0 -2.5,-1 -4.5,0 -7,-3 -11,-19 0,-4 -0.5,-12.5 Q 258,283 258,276 q 0,-7 1,-13 7,-6 11,-9 l 11,-10 h 8 q 7,3 11.5,7.5 4.5,4.5 7,8 l 2.5,3.5 q 9,9 9,21 3,13 0,20 -2,6 -7,9 -5,3 -10,1 z m -2,-89 v -22 q 8,-8 19,-8 l 21,8 -10,30 z m 119,0 q -9,10 -16.5,11.5 Q 395,238 381,233 h -11 q -11,-11 -19,-30 -13,-31 -11,-38 0,-2 19,-21 13,-11 22,-20 l 38,9 q 3,1 12.5,19.5 9.5,18.5 9.5,20.5 -17,45 -22,52 z M 389,33 v 2 q -2,4 -12,13.5 -10,9.5 -18,16.5 -8,7 -8,8 -11,21 -21,30 -1,1 -4,8.5 -3,7.5 -7,12.5 -1,1 -8,13 -7,12 -11,17 l -39,24 -5,1 -12,3.5 -16.5,7 -21.5,14.5 -24,23 -2,27 q -19,20 -19,30 -7,20 -7.5,56 -0.5,36 -3.5,53 l -21,15 -28,6 H 71 V 33 h 318 2 -2 z"
         id="path6197"
         style="fill:currentColor" />
    </g>
  </g>
</svg>
