<?xml version="1.0" encoding="UTF-8" standalone="no"?>
<!-- Created with Inkscape (http://www.inkscape.org/) -->

<svg
   xmlns:dc="http://purl.org/dc/elements/1.1/"
   xmlns:cc="http://creativecommons.org/ns#"
   xmlns:rdf="http://www.w3.org/1999/02/22-rdf-syntax-ns#"
   xmlns:svg="http://www.w3.org/2000/svg"
   xmlns="http://www.w3.org/2000/svg"
   version="1.1"
   width="256"
   height="256"
   id="svg5628">
  <defs
     id="defs5630" />
  <metadata
     id="metadata5633">
    <rdf:RDF>
      <cc:Work
         rdf:about="">
        <dc:format>image/svg+xml</dc:format>
        <dc:type
           rdf:resource="http://purl.org/dc/dcmitype/StillImage" />
        <dc:title></dc:title>
      </cc:Work>
    </rdf:RDF>
  </metadata>
  <g
     transform="translate(0,-796.36218)"
     id="layer1">
    <g
       transform="matrix(0.60393411,0,0,-0.60393411,-26.607132,1059.6434)"
       id="g6223">
      <path
         d="m 260,329 v 2 q 130,0 175,-103 13,-30 13,-47 0,3 -1.5,7.5 -1.5,4.5 -7.5,17.5 -6,13 -16,24.5 -10,11.5 -30,24 -20,12.5 -45,20.5 13,-22 13,-51 v -6 Q 361,169 345,132 329,95 308.5,77 288,59 263.5,48 239,37 227,34.5 215,32 211,32 q 3,0 7.5,1.5 4.5,1.5 18,7.5 13.5,6 25,16 11.5,10 24,30 12.5,20 19.5,45 -22,-13 -49,-13 h -6 q -49,0 -86.5,16.5 -37.5,16.5 -55,36 Q 91,191 79.5,216.5 68,242 66,252.5 64,263 64,269 q 0,-3 1,-8 1,-5 7,-18 6,-13 15.5,-24.5 9.5,-11.5 29,-24.5 19.5,-13 45.5,-21 -13,22 -13,51 v 6 q 0,129 103,173 26,11 47,13 -3,0 -8,-1 -5,-1 -18,-7.5 -13,-6.5 -24.5,-16 Q 237,382 224.5,362 212,342 205,316 q 26,15 51,15 4,0 4,-2 z"
         id="path6225"
         style="fill:currentColor" />
    </g>
  </g>
</svg>
