<?xml version="1.0" encoding="UTF-8"?>
<svg viewBox="0 0 256 256" xmlns="http://www.w3.org/2000/svg">
<g transform="translate(-118.15 -84.438)">
<title>background</title>
<rect x="-1" y="-1" width="258" height="258" fill="none"/>
</g>
<g transform="matrix(.95658 0 0 1.1619 5.5252 -34.867)">
<title>Layer 1</title>
<g transform="matrix(.1 0 0 -.1 0 200)">
<path d="m753.2 598.8v-893.4h331.1c256.1 0 331.1 3.7 331.1 16.2 0 7.5-95 408.6-209.9 889.6l-209.9 874.6-242.4 7.4z"/>
<path d="m41 817.5v-187.5h587.3v374.8h-587.3z"/>
<path d="m41 355.1v-187.4h587.3v374.9h-587.3z"/>
<path d="m1874 442.6c-65-16.2-115-43.7-194.9-105-60-45-76.2-51.2-133.7-51.2-48.7 0-75 7.5-103.7 28.7-20 15-40 27.5-42.5 27.5-8.7 0 56.2-254.9 70-271.1 6.2-8.7 38.7-16.2 71.2-16.2 48.7 0 71.2 8.7 120 43.7 137.4 98.7 174.9 112.5 304.9 112.5 134.9 0 191.2-21.2 288.6-103.7 50-42.5 60-46.2 131.2-46.2 115 0 129.9 17.5 129.9 156.2v110l-46.2-25c-67.5-33.7-142.4-25-201.2 26.2-110 94.9-277.4 142.3-393.6 113.6z"/>
<path d="m1852.8 94c-55-17.5-117.5-53.7-175-100-51.2-41.2-62.4-44.9-133.7-44.9-43.7 0-78.7-2.5-78.7-6.2s13.7-56.2 30-118.7l28.7-112.5 67.5 1.2c73.7 1.2 146.2 32.5 227.4 96.2 105 82.5 193.7 82.5 287.4 2.5 98.7-85 222.4-120 351.1-101.2l57.5 8.7v131.2c0 71.2-2.5 129.9-6.2 129.9s-21.2-8.7-37.5-20c-53.7-35-153.7-18.7-219.9 35-95 77.5-156.2 101.2-267.4 105-55 2.5-113.7 0-131.2-6.2z"/>
<path d="m41-107.2v-187.4h587.3v374.9h-587.3z"/>
</g>
</g>
</svg>
