<?xml version="1.0" encoding="UTF-8" standalone="no"?>
<!-- Generator: Adobe Illustrator 16.0.0, SVG Export Plug-In . SVG Version: 6.00 Build 0)  -->

<svg
   xmlns:dc="http://purl.org/dc/elements/1.1/"
   xmlns:cc="http://creativecommons.org/ns#"
   xmlns:rdf="http://www.w3.org/1999/02/22-rdf-syntax-ns#"
   xmlns:svg="http://www.w3.org/2000/svg"
   xmlns="http://www.w3.org/2000/svg"
   xmlns:sodipodi="http://sodipodi.sourceforge.net/DTD/sodipodi-0.dtd"
   xmlns:inkscape="http://www.inkscape.org/namespaces/inkscape"
   version="1.1"
   id="Layer_1"
   x="0px"
   y="0px"
   width="680px"
   height="353px"
   viewBox="0 0 680 353"
   enable-background="new 0 0 680 353"
   xml:space="preserve"
   inkscape:version="0.91 r13725"
   sodipodi:docname="inasafe-logo-url.svg"><metadata
     id="metadata3944"><rdf:RDF><cc:Work
         rdf:about=""><dc:format>image/svg+xml</dc:format><dc:type
           rdf:resource="http://purl.org/dc/dcmitype/StillImage" /><dc:title /></cc:Work></rdf:RDF></metadata><defs
     id="defs3942" /><sodipodi:namedview
     pagecolor="#ffffff"
     bordercolor="#666666"
     borderopacity="1"
     objecttolerance="10"
     gridtolerance="10"
     guidetolerance="10"
     inkscape:pageopacity="0"
     inkscape:pageshadow="2"
     inkscape:window-width="640"
     inkscape:window-height="480"
     id="namedview3940"
     showgrid="false"
     inkscape:zoom="0.47352941"
     inkscape:cx="340"
     inkscape:cy="176.5"
     inkscape:window-x="243"
     inkscape:window-y="148"
     inkscape:window-maximized="0"
     inkscape:current-layer="Layer_1" /><g
     id="g3890"><path
       fill="#2F3338"
       d="M239.533,138.644h12.76v70.174h-12.76V138.644z"
       id="path3892" /><path
       fill="#2F3338"
       d="M266.458,157.58c2.362-0.674,5.435-1.316,9.215-1.924c3.779-0.608,7.966-0.912,12.558-0.912   c4.319,0,7.931,0.593,10.835,1.772c2.901,1.182,5.214,2.835,6.936,4.962c1.722,2.126,2.937,4.693,3.646,7.696   c0.709,3.006,1.063,6.295,1.063,9.873v29.771h-12.252v-27.848c0-2.834-0.187-5.248-0.557-7.24c-0.371-1.99-0.979-3.611-1.823-4.86   c-0.844-1.249-1.992-2.16-3.442-2.734c-1.453-0.572-3.226-0.86-5.315-0.86c-1.555,0-3.175,0.101-4.862,0.303   c-1.688,0.203-2.936,0.372-3.747,0.506v42.734h-12.252V157.58z"
       id="path3894" /><path
       fill="#2F3338"
       d="M340.986,154.542c4.049,0,7.457,0.506,10.229,1.52c2.766,1.012,4.977,2.43,6.631,4.253   s2.836,4.034,3.545,6.633c0.709,2.6,1.063,5.452,1.063,8.555v32.102c-1.891,0.404-4.744,0.895-8.557,1.469   c-3.814,0.572-8.119,0.861-12.91,0.861c-3.174,0-6.076-0.307-8.708-0.912c-2.633-0.609-4.878-1.586-6.734-2.938   c-1.857-1.35-3.309-3.104-4.354-5.266c-1.047-2.16-1.569-4.824-1.569-8c0-3.037,0.59-5.604,1.772-7.695   c1.18-2.092,2.785-3.797,4.81-5.113c2.025-1.318,4.37-2.262,7.038-2.836c2.666-0.572,5.45-0.859,8.354-0.859   c1.35,0,2.768,0.084,4.254,0.252c1.484,0.168,3.07,0.455,4.758,0.861v-2.025c0-1.418-0.168-2.768-0.506-4.051   c-0.338-1.281-0.93-2.414-1.771-3.392c-0.846-0.979-1.959-1.738-3.342-2.278c-1.385-0.54-3.123-0.811-5.215-0.811   c-2.835,0-5.435,0.202-7.797,0.607c-2.365,0.404-4.288,0.879-5.772,1.418l-1.519-9.924c1.552-0.54,3.813-1.08,6.784-1.62   C334.437,154.813,337.609,154.542,340.986,154.542z M341.998,200.211c3.779,0,6.648-0.201,8.607-0.607v-13.568   c-0.676-0.203-1.654-0.406-2.938-0.607c-1.281-0.203-2.699-0.305-4.252-0.305c-1.352,0-2.717,0.102-4.101,0.305   c-1.384,0.201-2.633,0.572-3.745,1.113c-1.114,0.541-2.011,1.301-2.684,2.277c-0.677,0.98-1.015,2.213-1.015,3.697   c0,2.902,0.912,4.91,2.734,6.025C336.429,199.654,338.893,200.211,341.998,200.211z"
       id="path3896" /><path
       fill="#2F3338"
       d="M395.201,196.768c2.229,0,4.066-0.184,5.52-0.557c1.451-0.369,2.615-0.875,3.494-1.52   c0.875-0.639,1.482-1.4,1.822-2.277c0.336-0.877,0.506-1.855,0.506-2.938c0-2.293-1.08-4.203-3.24-5.721   c-2.162-1.518-5.873-3.156-11.139-4.91c-2.297-0.813-4.592-1.738-6.885-2.785c-2.297-1.047-4.355-2.363-6.18-3.951   c-1.822-1.584-3.309-3.508-4.455-5.771c-1.148-2.261-1.721-5.013-1.721-8.253s0.607-6.159,1.822-8.759   c1.215-2.599,2.938-4.81,5.164-6.633c2.229-1.822,4.928-3.223,8.102-4.202c3.174-0.979,6.75-1.469,10.734-1.469   c4.725,0,8.809,0.507,12.252,1.519c3.443,1.014,6.279,2.127,8.506,3.342l-4.557,12.455c-1.959-1.012-4.137-1.906-6.531-2.683   c-2.396-0.774-5.283-1.165-8.658-1.165c-3.781,0-6.498,0.524-8.15,1.569c-1.654,1.048-2.482,2.65-2.482,4.81   c0,1.284,0.305,2.365,0.912,3.241c0.607,0.878,1.469,1.671,2.582,2.38c1.113,0.71,2.395,1.352,3.848,1.924   c1.451,0.574,3.055,1.164,4.811,1.772c3.645,1.351,6.816,2.684,9.52,3.999c2.697,1.316,4.943,2.854,6.732,4.607   c1.787,1.756,3.123,3.816,4,6.178c0.877,2.363,1.316,5.232,1.316,8.607c0,6.549-2.295,11.629-6.885,15.24   c-4.592,3.611-11.512,5.418-20.76,5.418c-3.105,0-5.908-0.188-8.404-0.557c-2.498-0.373-4.709-0.828-6.633-1.367   c-1.924-0.541-3.58-1.113-4.963-1.721c-1.383-0.609-2.549-1.182-3.492-1.723l4.455-12.557c2.092,1.148,4.674,2.178,7.746,3.088   C386.982,196.313,390.746,196.768,395.201,196.768z"
       id="path3898" /><path
       fill="#2F3338"
       d="M480.354,208.818c-0.781-2.438-1.619-4.943-2.52-7.512c-0.898-2.57-1.793-5.131-2.684-7.678h-27.408   c-0.885,2.561-1.775,5.125-2.664,7.697c-0.891,2.572-1.721,5.07-2.486,7.492h-16.406c2.643-7.561,5.146-14.547,7.516-20.961   c2.371-6.412,4.689-12.455,6.957-18.127c2.27-5.67,4.504-11.053,6.705-16.151c2.201-5.097,4.488-10.076,6.857-14.936h14.975   c2.305,4.859,4.576,9.839,6.814,14.936c2.238,5.098,4.496,10.48,6.768,16.151c2.271,5.672,4.594,11.715,6.967,18.127   c2.373,6.414,4.883,13.4,7.527,20.961H480.354z M461.375,154.542c-0.354,1.02-0.867,2.406-1.547,4.16s-1.451,3.781-2.318,6.08   s-1.836,4.832-2.908,7.593c-1.07,2.766-2.16,5.664-3.266,8.697h20.066c-1.074-3.043-2.113-5.951-3.119-8.723   s-1.963-5.309-2.869-7.609s-1.701-4.324-2.383-6.077C462.346,156.912,461.795,155.538,461.375,154.542z"
       id="path3900" /><path
       fill="#2F3338"
       d="M504.895,208.818v-70.174h46.988v13.264h-31.189v14.685h27.746v13.265h-27.746v28.961H504.895z"
       id="path3902" /><path
       fill="#2F3338"
       d="M561.016,208.818v-70.174h47.391v13.264h-31.594v13.773h28.049v12.961h-28.049v16.91h33.922v13.266H561.016   z"
       id="path3904" /></g><path
     fill="#2F3338"
     d="M206.418,167.61c-4.867-8.113-67.023-96.818-67.023-96.818s-57.928,88.703-62.797,96.818  c-5.25,8.75-5.641,19.431-1.512,26.056c3.686,5.914,16.398,16.512,18.607,20.656c3.514,6.594-10.514,21.125-2.85,38.125  c4.371,9.695,13.578,14.125,19.744,14.043c16.164-0.215,22.244-0.074,22.244-0.074s0.181,8.327-0.125,11.167  c-0.438,4.063-2.125,6.417-2.125,6.417h9.914h9.086c0,0-2.25-2.042-2.625-6.042c-0.24-2.563-0.125-11.458-0.125-11.458  s7.563,0.091,23.727,0.306c6.164,0.082,15.777-4.506,20.145-14.201c7.664-17-5.371-32.287-2.727-38.203  c1.917-4.287,16.793-16.848,19.223-20.695C210.873,187.889,211.668,176.361,206.418,167.61z M133,247.416  c0,2.75-1.084,6.158-4.839,6.156c-3.239,0-12.746-0.006-18.079-0.08c-5.333-0.076-8.955-6.764-8.874-15.67  c0.082-8.906,6.915-16.545,4.134-26.281c-2.5-8.75-14.062-17.27-16.941-21.787c-2.844-4.463-2.934-10.838-1.274-14.334  c2.482-5.23,42.273-65.988,43.996-68.587s1.877-0.416,1.877,4.834S133,247.416,133,247.416z M192.938,189.754  c-3.015,4.43-15.644,12.662-18.164,22.469c-2.521,9.805,4.951,16.693,5.033,25.6c0.081,8.906-3.971,15.594-9.304,15.67  c-5.333,0.074-17.092,0.002-20.327-0.164c-3.135-0.162-4.176-3.912-4.176-5.912c0,0,0-130.5,0-135.75s0.072-7.432,1.794-4.832  s43.466,63.636,46.47,68.585C197.271,180.367,196.06,185.166,192.938,189.754z"
     id="path3906" /><g
     id="g3908"><path
       fill="#2F3338"
       d="M256.486,236.456c-0.636,2.416-1.311,4.815-2.026,7.199c-0.715,2.384-1.47,4.783-2.264,7.198h-5.53   c-0.573-1.335-1.195-2.924-1.864-4.768c-0.669-1.843-1.363-3.853-2.08-6.03c-0.717-2.177-1.45-4.481-2.2-6.912   c-0.75-2.432-1.474-4.887-2.175-7.366h7.485c0.255,1.145,0.535,2.393,0.838,3.743c0.304,1.351,0.624,2.741,0.959,4.171   c0.336,1.431,0.688,2.868,1.056,4.314c0.367,1.446,0.743,2.837,1.127,4.171c0.413-1.397,0.818-2.828,1.216-4.29   c0.397-1.462,0.778-2.9,1.144-4.314c0.365-1.414,0.715-2.78,1.049-4.1c0.333-1.318,0.627-2.551,0.882-3.695h5.148   c0.254,1.145,0.54,2.377,0.858,3.695c0.317,1.319,0.651,2.686,1.001,4.1c0.35,1.414,0.715,2.853,1.097,4.314   s0.778,2.893,1.192,4.29c0.383-1.334,0.767-2.725,1.15-4.171c0.384-1.446,0.744-2.884,1.08-4.314   c0.335-1.43,0.655-2.82,0.958-4.171c0.304-1.351,0.583-2.599,0.84-3.743h7.389c-0.702,2.479-1.427,4.935-2.176,7.366   c-0.75,2.431-1.482,4.735-2.199,6.912c-0.717,2.178-1.418,4.188-2.104,6.03c-0.685,1.844-1.314,3.433-1.888,4.768h-5.53   c-0.795-2.415-1.573-4.814-2.336-7.198C257.82,241.271,257.121,238.872,256.486,236.456z"
       id="path3910" /><path
       fill="#2F3338"
       d="M294.814,236.456c-0.636,2.416-1.311,4.815-2.026,7.199c-0.715,2.384-1.47,4.783-2.264,7.198h-5.53   c-0.573-1.335-1.195-2.924-1.864-4.768c-0.669-1.843-1.363-3.853-2.08-6.03c-0.717-2.177-1.45-4.481-2.2-6.912   c-0.75-2.432-1.474-4.887-2.175-7.366h7.485c0.255,1.145,0.535,2.393,0.838,3.743c0.304,1.351,0.624,2.741,0.959,4.171   c0.336,1.431,0.688,2.868,1.056,4.314c0.367,1.446,0.743,2.837,1.127,4.171c0.413-1.397,0.818-2.828,1.216-4.29   c0.397-1.462,0.778-2.9,1.144-4.314c0.365-1.414,0.715-2.78,1.049-4.1c0.333-1.318,0.627-2.551,0.882-3.695h5.148   c0.254,1.145,0.54,2.377,0.858,3.695c0.317,1.319,0.651,2.686,1.001,4.1c0.35,1.414,0.715,2.853,1.097,4.314   s0.778,2.893,1.192,4.29c0.383-1.334,0.767-2.725,1.15-4.171c0.384-1.446,0.744-2.884,1.08-4.314   c0.335-1.43,0.655-2.82,0.958-4.171c0.304-1.351,0.583-2.599,0.84-3.743h7.389c-0.702,2.479-1.427,4.935-2.176,7.366   c-0.75,2.431-1.482,4.735-2.199,6.912c-0.717,2.178-1.418,4.188-2.104,6.03c-0.685,1.844-1.314,3.433-1.888,4.768h-5.53   c-0.795-2.415-1.573-4.814-2.336-7.198C296.148,241.271,295.449,238.872,294.814,236.456z"
       id="path3912" /><path
       fill="#2F3338"
       d="M333.142,236.456c-0.636,2.416-1.311,4.815-2.026,7.199c-0.715,2.384-1.47,4.783-2.264,7.198h-5.53   c-0.573-1.335-1.195-2.924-1.864-4.768c-0.669-1.843-1.363-3.853-2.08-6.03c-0.717-2.177-1.45-4.481-2.2-6.912   c-0.75-2.432-1.474-4.887-2.175-7.366h7.485c0.255,1.145,0.535,2.393,0.838,3.743c0.304,1.351,0.624,2.741,0.959,4.171   c0.336,1.431,0.688,2.868,1.056,4.314c0.367,1.446,0.743,2.837,1.127,4.171c0.413-1.397,0.818-2.828,1.216-4.29   c0.397-1.462,0.778-2.9,1.144-4.314c0.365-1.414,0.715-2.78,1.049-4.1c0.333-1.318,0.627-2.551,0.882-3.695h5.148   c0.254,1.145,0.54,2.377,0.858,3.695c0.317,1.319,0.651,2.686,1.001,4.1c0.35,1.414,0.715,2.853,1.097,4.314   s0.778,2.893,1.192,4.29c0.383-1.334,0.767-2.725,1.15-4.171c0.383-1.446,0.743-2.884,1.079-4.314   c0.335-1.43,0.654-2.82,0.959-4.171c0.304-1.351,0.583-2.599,0.839-3.743h7.39c-0.702,2.479-1.427,4.935-2.176,7.366   c-0.75,2.431-1.482,4.735-2.199,6.912c-0.717,2.178-1.418,4.188-2.104,6.03c-0.686,1.844-1.314,3.433-1.889,4.768h-5.529   c-0.795-2.415-1.573-4.814-2.336-7.198C334.476,241.271,333.777,238.872,333.142,236.456z"
       id="path3914" /><path
       fill="#2F3338"
       d="M359.671,247.087c0,1.431-0.452,2.52-1.358,3.266c-0.905,0.747-1.931,1.121-3.075,1.121   c-1.144,0-2.169-0.374-3.074-1.121c-0.906-0.746-1.359-1.835-1.359-3.266c0-1.43,0.453-2.518,1.359-3.265   c0.905-0.747,1.931-1.121,3.074-1.121c1.145,0,2.17,0.374,3.075,1.121C359.219,244.569,359.671,245.657,359.671,247.087z"
       id="path3916" /><path
       fill="#2F3338"
       d="M372.208,218.531c0,1.304-0.421,2.329-1.263,3.075c-0.843,0.747-1.836,1.12-2.979,1.12   c-1.145,0-2.139-0.373-2.979-1.12c-0.843-0.746-1.264-1.771-1.264-3.075c0-1.303,0.421-2.327,1.264-3.074   c0.841-0.747,1.835-1.121,2.979-1.121c1.144,0,2.137,0.374,2.979,1.121C371.787,216.204,372.208,217.229,372.208,218.531z    M371.541,250.854h-7.104v-25.076h7.104V250.854z"
       id="path3918" /><path
       fill="#2F3338"
       d="M378.215,226.636c1.208-0.35,2.766-0.675,4.672-0.978c1.907-0.301,3.909-0.452,6.007-0.452   c2.129,0,3.901,0.278,5.315,0.834c1.414,0.557,2.534,1.343,3.361,2.359c0.826,1.018,1.413,2.226,1.764,3.623   c0.35,1.399,0.524,2.956,0.524,4.672v14.159h-7.104v-13.301c0-2.288-0.302-3.909-0.905-4.862c-0.604-0.953-1.732-1.431-3.385-1.431   c-0.509,0-1.049,0.024-1.621,0.072c-0.572,0.047-1.081,0.104-1.525,0.166v19.355h-7.104V226.636z"
       id="path3920" /><path
       fill="#2F3338"
       d="M415.303,225.11c2.098,0,3.846,0.238,5.244,0.715s2.519,1.161,3.361,2.05   c0.842,0.891,1.438,1.972,1.788,3.242c0.349,1.271,0.523,2.686,0.523,4.243v14.778c-1.017,0.223-2.431,0.484-4.242,0.786   s-4.005,0.453-6.579,0.453c-1.621,0-3.091-0.143-4.409-0.429c-1.319-0.286-2.455-0.755-3.409-1.406   c-0.953-0.651-1.685-1.502-2.192-2.551c-0.509-1.049-0.763-2.336-0.763-3.861c0-1.462,0.293-2.701,0.882-3.719   c0.588-1.017,1.374-1.827,2.359-2.432c0.984-0.603,2.113-1.04,3.385-1.311c1.271-0.27,2.59-0.405,3.957-0.405   c0.921,0,1.74,0.04,2.455,0.119c0.715,0.08,1.295,0.184,1.74,0.31v-0.667c0-1.208-0.366-2.177-1.097-2.908   c-0.731-0.73-2.002-1.097-3.813-1.097c-1.209,0-2.4,0.088-3.576,0.263s-2.192,0.422-3.051,0.738l-0.905-5.721   c0.412-0.126,0.93-0.262,1.549-0.404c0.62-0.144,1.295-0.271,2.026-0.382c0.73-0.111,1.502-0.206,2.312-0.286   C413.658,225.15,414.477,225.11,415.303,225.11z M415.875,245.896c0.699,0,1.366-0.016,2.003-0.048   c0.635-0.031,1.144-0.079,1.525-0.143v-5.387c-0.286-0.063-0.716-0.127-1.287-0.191c-0.572-0.063-1.097-0.095-1.573-0.095   c-0.668,0-1.296,0.04-1.884,0.119s-1.104,0.23-1.549,0.452c-0.445,0.223-0.795,0.524-1.049,0.906   c-0.255,0.381-0.382,0.858-0.382,1.43c0,1.113,0.374,1.884,1.121,2.313C413.547,245.681,414.571,245.896,415.875,245.896z"
       id="path3922" /><path
       fill="#2F3338"
       d="M439.854,245.753c1.304,0,2.225-0.127,2.766-0.382c0.54-0.254,0.811-0.746,0.811-1.478   c0-0.572-0.351-1.073-1.049-1.502c-0.699-0.429-1.764-0.913-3.194-1.454c-1.113-0.412-2.121-0.842-3.027-1.287   c-0.905-0.444-1.677-0.978-2.312-1.597c-0.637-0.62-1.129-1.359-1.479-2.217c-0.35-0.858-0.524-1.891-0.524-3.099   c0-2.352,0.874-4.211,2.622-5.578c1.748-1.366,4.147-2.05,7.198-2.05c1.526,0,2.987,0.136,4.387,0.405   c1.397,0.271,2.51,0.564,3.337,0.882l-1.239,5.53c-0.827-0.286-1.725-0.54-2.694-0.763s-2.058-0.334-3.266-0.334   c-2.225,0-3.337,0.62-3.337,1.859c0,0.286,0.048,0.541,0.144,0.763c0.095,0.223,0.286,0.438,0.572,0.644   c0.285,0.207,0.675,0.431,1.168,0.67c0.492,0.241,1.12,0.506,1.883,0.793c1.557,0.577,2.844,1.146,3.861,1.707   c1.017,0.561,1.819,1.166,2.407,1.815c0.588,0.65,1.001,1.372,1.239,2.165c0.239,0.792,0.358,1.712,0.358,2.758   c0,2.474-0.93,4.345-2.789,5.613s-4.489,1.902-7.89,1.902c-2.226,0-4.076-0.19-5.554-0.571c-1.479-0.382-2.503-0.699-3.075-0.954   l1.191-5.769c1.208,0.478,2.447,0.852,3.719,1.121C437.358,245.618,438.614,245.753,439.854,245.753z"
       id="path3924" /><path
       fill="#2F3338"
       d="M464.786,225.11c2.098,0,3.846,0.238,5.244,0.715s2.519,1.161,3.361,2.05   c0.842,0.891,1.438,1.972,1.788,3.242c0.349,1.271,0.523,2.686,0.523,4.243v14.778c-1.017,0.223-2.431,0.484-4.242,0.786   s-4.005,0.453-6.579,0.453c-1.621,0-3.091-0.143-4.409-0.429c-1.319-0.286-2.455-0.755-3.409-1.406   c-0.953-0.651-1.685-1.502-2.192-2.551c-0.509-1.049-0.763-2.336-0.763-3.861c0-1.462,0.293-2.701,0.882-3.719   c0.588-1.017,1.374-1.827,2.359-2.432c0.984-0.603,2.113-1.04,3.385-1.311c1.271-0.27,2.59-0.405,3.957-0.405   c0.921,0,1.74,0.04,2.455,0.119c0.715,0.08,1.295,0.184,1.74,0.31v-0.667c0-1.208-0.366-2.177-1.097-2.908   c-0.731-0.73-2.002-1.097-3.813-1.097c-1.209,0-2.4,0.088-3.576,0.263s-2.192,0.422-3.051,0.738l-0.905-5.721   c0.412-0.126,0.93-0.262,1.549-0.404c0.62-0.144,1.295-0.271,2.026-0.382c0.73-0.111,1.502-0.206,2.312-0.286   C463.142,225.15,463.96,225.11,464.786,225.11z M465.358,245.896c0.699,0,1.366-0.016,2.003-0.048   c0.635-0.031,1.144-0.079,1.525-0.143v-5.387c-0.286-0.063-0.716-0.127-1.287-0.191c-0.572-0.063-1.097-0.095-1.573-0.095   c-0.668,0-1.296,0.04-1.884,0.119s-1.104,0.23-1.549,0.452c-0.445,0.223-0.795,0.524-1.049,0.906   c-0.255,0.381-0.382,0.858-0.382,1.43c0,1.113,0.374,1.884,1.121,2.313C463.03,245.681,464.055,245.896,465.358,245.896z"
       id="path3926" /><path
       fill="#2F3338"
       d="M493.008,213.859c1.335,0,2.559,0.136,3.671,0.405c1.112,0.271,1.971,0.533,2.574,0.787l-1.382,5.673   c-0.637-0.286-1.328-0.501-2.074-0.644c-0.747-0.144-1.438-0.215-2.073-0.215c-0.858,0-1.582,0.119-2.17,0.357   s-1.049,0.565-1.382,0.978c-0.334,0.413-0.572,0.906-0.715,1.478c-0.144,0.572-0.215,1.192-0.215,1.859v1.239h8.771v5.912h-8.771   v19.164h-7.104v-26.41c0-3.242,0.913-5.816,2.741-7.724C486.707,214.813,489.416,213.859,493.008,213.859z"
       id="path3928" /><path
       fill="#2F3338"
       d="M500.684,238.507c0-2.225,0.341-4.172,1.024-5.841c0.684-1.668,1.581-3.058,2.693-4.171   c1.112-1.112,2.392-1.954,3.838-2.526s2.932-0.858,4.458-0.858c3.559,0,6.371,1.089,8.438,3.266   c2.065,2.178,3.099,5.38,3.099,9.606c0,0.413-0.017,0.866-0.048,1.358c-0.031,0.493-0.063,0.93-0.095,1.311h-16.113   c0.158,1.463,0.842,2.622,2.05,3.48c1.207,0.858,2.828,1.287,4.862,1.287c1.303,0,2.582-0.119,3.838-0.357   c1.255-0.238,2.28-0.532,3.074-0.882l0.954,5.768c-0.382,0.191-0.891,0.382-1.525,0.572c-0.637,0.191-1.344,0.357-2.122,0.501   c-0.778,0.143-1.613,0.262-2.503,0.357s-1.78,0.143-2.669,0.143c-2.257,0-4.22-0.333-5.888-1.001   c-1.669-0.667-3.051-1.58-4.147-2.741c-1.097-1.159-1.907-2.534-2.432-4.123S500.684,240.35,500.684,238.507z M517.369,235.789   c-0.032-0.604-0.136-1.191-0.311-1.764s-0.445-1.08-0.811-1.525s-0.826-0.811-1.382-1.097c-0.557-0.286-1.248-0.43-2.074-0.43   c-0.795,0-1.478,0.136-2.05,0.405c-0.572,0.271-1.049,0.628-1.43,1.073c-0.382,0.445-0.676,0.962-0.883,1.549   c-0.207,0.589-0.357,1.185-0.452,1.788H517.369z"
       id="path3930" /><path
       fill="#2F3338"
       d="M536.676,247.087c0,1.431-0.452,2.52-1.358,3.266c-0.905,0.747-1.931,1.121-3.075,1.121   c-1.144,0-2.169-0.374-3.074-1.121c-0.906-0.746-1.359-1.835-1.359-3.266c0-1.43,0.453-2.518,1.359-3.265   c0.905-0.747,1.931-1.121,3.074-1.121c1.145,0,2.17,0.374,3.075,1.121C536.224,244.569,536.676,245.657,536.676,247.087z"
       id="path3932" /><path
       fill="#2F3338"
       d="M563.468,238.268c0,1.972-0.286,3.774-0.858,5.411c-0.572,1.638-1.398,3.035-2.479,4.195   c-1.081,1.16-2.376,2.058-3.886,2.693s-3.202,0.953-5.077,0.953c-1.844,0-3.521-0.317-5.029-0.953   c-1.51-0.636-2.805-1.533-3.885-2.693c-1.081-1.16-1.924-2.558-2.527-4.195c-0.604-1.637-0.905-3.439-0.905-5.411   c0-1.97,0.31-3.766,0.93-5.387c0.619-1.621,1.478-3.003,2.574-4.147c1.097-1.144,2.399-2.033,3.909-2.67   c1.509-0.635,3.153-0.953,4.934-0.953c1.812,0,3.472,0.318,4.982,0.953c1.509,0.637,2.804,1.526,3.885,2.67   c1.08,1.145,1.923,2.526,2.526,4.147S563.468,236.298,563.468,238.268z M556.222,238.268c0-2.192-0.438-3.916-1.312-5.172   c-0.874-1.255-2.121-1.883-3.742-1.883s-2.877,0.628-3.766,1.883c-0.891,1.256-1.335,2.979-1.335,5.172   c0,2.193,0.444,3.934,1.335,5.221c0.889,1.287,2.145,1.931,3.766,1.931s2.868-0.644,3.742-1.931S556.222,240.461,556.222,238.268z"
       id="path3934" /><path
       fill="#2F3338"
       d="M584.062,232.07c-0.636-0.158-1.383-0.325-2.24-0.5c-0.858-0.175-1.78-0.263-2.766-0.263   c-0.445,0-0.977,0.04-1.597,0.119c-0.62,0.08-1.089,0.167-1.406,0.263v19.164h-7.104v-23.741c1.271-0.444,2.772-0.865,4.505-1.263   s3.663-0.597,5.793-0.597c0.381,0,0.841,0.024,1.382,0.072c0.54,0.048,1.08,0.111,1.621,0.19c0.54,0.08,1.08,0.175,1.621,0.286   c0.54,0.111,1.001,0.246,1.382,0.405L584.062,232.07z"
       id="path3936" /><path
       fill="#2F3338"
       d="M610.234,247.707c0,4.1-1.041,7.143-3.123,9.129s-5.3,2.98-9.653,2.98c-1.525,0-3.051-0.136-4.576-0.405   c-1.525-0.271-2.94-0.628-4.243-1.073l1.239-5.959c1.112,0.444,2.28,0.794,3.504,1.049c1.224,0.254,2.614,0.382,4.172,0.382   c2.033,0,3.472-0.446,4.314-1.335c0.841-0.891,1.263-2.034,1.263-3.433v-0.906c-0.763,0.351-1.549,0.612-2.359,0.787   s-1.692,0.262-2.646,0.262c-3.464,0-6.118-1.024-7.961-3.074c-1.844-2.05-2.765-4.918-2.765-8.605c0-1.843,0.286-3.52,0.857-5.029   c0.572-1.509,1.407-2.805,2.503-3.885c1.097-1.08,2.439-1.915,4.028-2.503s3.385-0.882,5.388-0.882c0.857,0,1.739,0.04,2.646,0.119   c0.905,0.079,1.804,0.183,2.693,0.31s1.74,0.278,2.551,0.453s1.532,0.357,2.169,0.548V247.707z M594.646,237.505   c0,3.974,1.604,5.959,4.814,5.959c0.731,0,1.414-0.095,2.05-0.285c0.636-0.191,1.176-0.413,1.621-0.668v-11.346   c-0.35-0.063-0.763-0.119-1.239-0.167s-1.033-0.071-1.669-0.071c-1.875,0-3.273,0.619-4.194,1.859   C595.105,234.025,594.646,235.599,594.646,237.505z"
       id="path3938" /></g></svg>